<?xml version="1.0" encoding="UTF-8"?>
<!-- Generator: Adobe Illustrator 25.4.1, SVG Export Plug-In . SVG Version: 6.00 Build 0)  -->
<svg version="1.1" id="Capa_1" xmlns="http://www.w3.org/2000/svg" xmlns:xlink="http://www.w3.org/1999/xlink" x="0px" y="0px" viewBox="0 0 905.9 225.9" style="enable-background:new 0 0 905.9 225.9;" xml:space="preserve">
<style type="text/css">
	.st0{fill:#A02142;}
	.st1{fill:#691B32;}
	.st2{fill:#707271;}
</style>
<g>
	<g>
		<g>
			<path class="st0" d="M127.4,37.6V65l-15.6,15.6V51.4l14.3-14.3C126.6,36.6,127.4,36.9,127.4,37.6z"/>
		</g>
		<g>
			<polygon class="st0" points="109,54.1 109,83.4 93.4,99 93.4,69.7    "/>
		</g>
	</g>
	<g>
		<g>
			<polygon class="st1" points="87.9,69.7 87.9,99 72.3,83.4 72.3,54.1    "/>
		</g>
		<g>
			<path class="st1" d="M69.5,51.4v29.3L53.9,65V37.6c0-0.7,0.8-1,1.3-0.5L69.5,51.4z"/>
		</g>
	</g>
	<g>
		<g>
			<path class="st0" d="M69.5,126.8V156l-14.3,14.3c-0.5,0.5-1.3,0.1-1.3-0.5v-27.4L69.5,126.8z"/>
		</g>
		<g>
			<polygon class="st0" points="87.9,108.4 87.9,137.7 72.3,153.3 72.3,124    "/>
		</g>
	</g>
	<g>
		<g>
			<polygon class="st1" points="109,124 109,153.3 93.4,137.7 93.4,108.4    "/>
		</g>
		<g>
			<path class="st1" d="M127.4,142.4v27.4c0,0.7-0.8,1-1.3,0.5L111.8,156v-29.3L127.4,142.4z"/>
		</g>
	</g>
	<g>
		<g>
			<path class="st0" d="M156.7,140.4h-27.4l-15.6-15.6H143l14.3,14.3C157.8,139.6,157.4,140.4,156.7,140.4z"/>
		</g>
		<g>
			<polygon class="st0" points="140.2,122.1 111,122.1 95.4,106.5 124.6,106.5    "/>
		</g>
	</g>
	<g>
		<g>
			<polygon class="st1" points="140.2,85.3 124.6,100.9 95.4,100.9 111,85.3    "/>
		</g>
		<g>
			<path class="st1" d="M157.3,68.3L143,82.6h-29.3L129.3,67h27.4C157.4,67,157.8,67.8,157.3,68.3z"/>
		</g>
	</g>
	<g>
		<g>
			<path class="st0" d="M67.6,82.6H38.3L24,68.3c-0.5-0.5-0.1-1.3,0.5-1.3H52L67.6,82.6z"/>
		</g>
		<g>
			<polygon class="st0" points="86,100.9 56.7,100.9 41.1,85.3 70.4,85.3    "/>
		</g>
	</g>
	<g>
		<g>
			<polygon class="st1" points="86,106.5 70.4,122.1 41.1,122.1 56.7,106.5    "/>
		</g>
		<g>
			<path class="st1" d="M67.6,124.8L52,140.4H24.6c-0.7,0-1-0.8-0.5-1.3l14.3-14.3H67.6z"/>
		</g>
	</g>
</g>
<g>
	<path class="st1" d="M217.4,104.9c0-4-0.1-9.2-0.5-10.4c-0.4-0.9-4-1.9-6.3-2.7l1-4.6h24.1l1,4.6l-6,2.1c-0.2,2.6-0.4,6.8-0.4,12.4   v1.3c-4.6,3.2-12.6,6.2-20.8,6.2c-17.2,0-27.9-9.9-27.9-26.1c0-17.2,13.2-27.5,29.5-27.5c7.5,0,14.2,1.9,19.2,4.6l1.3,2.2   c-0.7,3.8-2.3,10.7-2.9,13.1c-1.9,0-6.2-0.1-8-0.4c-1-4.5-2-8.2-2.5-9.9c-1.7-1-4.6-1.8-8.7-1.8c-2.8,0-7,0.9-9,2.1   c-3.2,4.1-5.3,9.7-5.3,17c0,11.9,6.2,19.1,16.1,19.1C213.6,105.9,215.6,105.6,217.4,104.9z"/>
	<path class="st1" d="M241.3,88.5c0-16.8,11.3-28.3,28-28.3c15,0,25.3,9.8,25.3,25.6c0,16.4-11.2,28-27.3,28   C252,113.7,241.3,104.1,241.3,88.5z M277.3,103c1.5-2.1,3.8-7.7,3.8-15.4c0-12.4-3.5-19.4-13.4-19.4c-3.4,0-7.1,1.2-9,2.6   c-2.5,3.7-3.8,9.5-3.8,16.6c0,11.3,4.3,18.2,13.4,18.2C272.1,105.7,275.5,104.6,277.3,103z"/>
	<path class="st1" d="M308.5,105.9c0.3-1.9,0.5-6.9,0.5-12.6V79.9c0-4.1,0-10.4-0.7-11.2c-0.7-1-4-2.1-6.4-2.9l1-4.5h11.7   c2.6,0,10.7-0.4,14.4-0.4c12.8-0.1,20.5,4.4,20.5,13.1c0,5.7-3.8,9.5-8.6,11.8c6.1,1.5,11.1,5.4,11.1,12.4   c0,10.1-9.6,15.1-20.4,15.1c-4.8,0-11.7-0.7-16.4-0.7h-12.2l-1-4.5L308.5,105.9z M330,106.8c1.6,0,3.6-0.2,5.2-0.9   c2-1.6,3.2-4.7,3.2-7.8c0-4.5-2.7-7.4-8.3-7.4h-8.2V94c0,4.1-0.1,10.3,0.7,11.2C323.4,106.2,326.6,106.8,330,106.8z M321.8,83.5   l9.9,0.4c2.1-1.5,4.2-4.5,4.2-8.9c0-2.8-0.7-4.7-1.8-6.1c-1.3-1.1-3.8-1.8-6.3-1.8c-1.5,0-4.1,0.3-5.5,0.8   c-0.3,1.9-0.5,6.9-0.5,12.6V83.5z"/>
	<path class="st1" d="M365.1,105.9c0.3-1.9,0.5-6.9,0.5-12.6V79.9c0-4.1,0-10.4-0.7-11.2c-0.7-1-4-2.1-6.4-2.9l1-4.5h25l1,4.5   l-6.5,2.3c-0.3,1.9-0.5,6.9-0.5,12.6V94c0,4.1,0,10.3,0.7,11.2c0.7,1,4,2.1,6.4,2.9l-1,4.5h-25l-1-4.5L365.1,105.9z"/>
	<path class="st1" d="M400.1,105.9c0.3-1.9,0.5-6.9,0.5-12.6V79.9c0-4.1,0.1-10.5-0.7-11.3c-1-1-4-2.1-6.3-2.9l1-4.5H415   c9.3,0,16.7-0.2,22.8-0.7c0.8,1,1.8,2.6,2.3,3.5c-0.6,3.6-2,10.1-2.6,12.7c-1.7,0.1-5.9-0.1-7.7-0.4l-2-8.9   c-2.1-0.2-5.1-0.3-7.7-0.3c-2.3,0-4.4,0.1-6.3,0.1c-0.2,2.4-0.5,7.5-0.5,13.1v3.8l15.6-0.9l1.5,1.9c-0.4,1.9-0.7,4.2-1.1,6.1   l-15.9-0.7V94c0,4.3-0.1,10.4,0.8,11.4c1.2,1.1,4.8,1.3,7.6,1.3c2.6,0,5.3-0.3,7.2-0.7l2.6-9c2.1-0.1,6.5,0.1,8.3,0.4   c0.2,4.9,0.2,10.1,0,15.2h-45.4l-1-4.5L400.1,105.9z"/>
	<path class="st1" d="M454.8,105.9c0.3-1.9,0.5-6.9,0.5-12.6V79.9c0-4.1,0-10.4-0.7-11.2c-0.7-1-4-2.1-6.4-2.9l1-4.5h12.3   c2.7,0,11.1-0.4,15-0.4c13.2,0,21.3,4.6,21.3,14.2c0,6.5-4.8,10.6-9.7,12.9c3.5,7,7.4,14,9.9,17.6l4.9,2.6l-1,4.5   c-5,0-9.3,0.1-15.2,0.3c-2.4-5.8-5.9-12.9-10-20.8h-8.7V94c0,4.1,0,10.3,0.7,11.2c0.7,1,4,2.1,6.4,2.9l-1,4.5h-25l-1-4.5   L454.8,105.9z M468.2,84.7l12,0.4c2.2-1.7,4.2-4.9,4.2-9.5c0-3-0.7-5.2-1.9-6.7c-1.5-1.2-4.5-1.8-7.9-1.8c-1.9,0-4.2,0.3-5.9,0.8   c-0.3,1.9-0.5,6.9-0.5,12.6V84.7z"/>
	<path class="st1" d="M545.7,112.9l-6.8-9.1c-5.6-7.4-13.2-16.4-19.4-23.6c0.2,13.8,0.7,23.3,1.4,24.7c1,1.2,5.1,2.2,8.6,3.2l-1,4.5   h-22.8l-1-4.5l6.5-2.3c0.3-1.9,0.6-8.4,0.6-19.3c0-10.1-0.1-16.4-1.1-17.7c-1.2-1.1-3.7-2.3-5.9-3.2l1-4.5c5.4,0,11.8-0.1,16.7-0.3   c4.6,7.7,16.7,22.3,25.3,32.7c-0.1-14.1-0.8-23.2-1.6-24.7c-0.7-1-4.8-2.3-7.6-3.2l1-4.5h22.7l1,4.5l-6.5,2.3   c-0.8,4.1-1.2,20.8-1.2,43.9L545.7,112.9z"/>
	<path class="st1" d="M568.7,88.5c0-16.8,11.3-28.3,28-28.3c15,0,25.3,9.8,25.3,25.6c0,16.4-11.2,28-27.3,28   C579.4,113.7,568.7,104.1,568.7,88.5z M604.7,103c1.5-2.1,3.8-7.7,3.8-15.4c0-12.4-3.4-19.4-13.4-19.4c-3.4,0-7.1,1.2-9,2.6   c-2.5,3.7-3.8,9.5-3.8,16.6c0,11.3,4.3,18.2,13.4,18.2C599.5,105.7,602.9,104.6,604.7,103z"/>
</g>
<g>
	<path class="st2" d="M186.9,153.5c-1.5,0-3-0.2-4.4-0.7c-1.4-0.5-2.5-1.1-3.3-1.8l1.1-2.2c0.8,0.7,1.7,1.2,2.9,1.7   c1.2,0.4,2.4,0.7,3.7,0.7c1.2,0,2.1-0.1,2.8-0.4c0.7-0.3,1.3-0.6,1.6-1.1s0.5-1,0.5-1.6c0-0.7-0.2-1.2-0.7-1.7   c-0.4-0.4-1-0.8-1.8-1c-0.7-0.3-1.5-0.5-2.4-0.7c-0.9-0.2-1.7-0.4-2.6-0.7c-0.9-0.3-1.7-0.6-2.4-1c-0.7-0.4-1.3-0.9-1.7-1.6   c-0.4-0.7-0.7-1.6-0.7-2.6c0-1,0.3-2,0.8-2.9c0.5-0.9,1.4-1.6,2.5-2.1c1.1-0.5,2.6-0.8,4.4-0.8c1.2,0,2.3,0.2,3.5,0.5   c1.1,0.3,2.1,0.8,3,1.3l-0.9,2.3c-0.9-0.6-1.8-1-2.7-1.2c-1-0.3-1.9-0.4-2.8-0.4c-1.1,0-2.1,0.1-2.8,0.4c-0.7,0.3-1.3,0.7-1.6,1.1   c-0.3,0.5-0.5,1-0.5,1.6c0,0.7,0.2,1.3,0.7,1.7c0.4,0.4,1,0.8,1.8,1c0.7,0.3,1.5,0.5,2.4,0.7c0.9,0.2,1.7,0.4,2.6,0.7   c0.9,0.2,1.7,0.6,2.4,1c0.7,0.4,1.3,0.9,1.7,1.6c0.4,0.7,0.7,1.5,0.7,2.6c0,1-0.3,2-0.8,2.8c-0.6,0.9-1.4,1.6-2.6,2.1   C190.2,153.2,188.7,153.5,186.9,153.5z"/>
	<path class="st2" d="M201.8,150.8h11.7v2.5h-14.6v-20.1h14.2v2.5h-11.3V150.8z M201.5,141.8h10.3v2.4h-10.3V141.8z"/>
	<path class="st2" d="M227.1,153.5c-1.5,0-2.9-0.3-4.2-0.8c-1.3-0.5-2.4-1.2-3.4-2.2c-0.9-0.9-1.7-2-2.2-3.3   c-0.5-1.2-0.8-2.6-0.8-4.1c0-1.5,0.3-2.9,0.8-4.1c0.5-1.2,1.3-2.3,2.2-3.3c1-0.9,2.1-1.6,3.4-2.2c1.3-0.5,2.7-0.8,4.2-0.8   c1.6,0,3,0.3,4.3,0.8c1.3,0.5,2.4,1.3,3.3,2.3l-1.9,1.8c-0.8-0.8-1.6-1.4-2.6-1.8c-1-0.4-2-0.6-3.1-0.6c-1.1,0-2.2,0.2-3.1,0.6   c-1,0.4-1.8,0.9-2.5,1.6c-0.7,0.7-1.3,1.5-1.7,2.5c-0.4,0.9-0.6,2-0.6,3.1s0.2,2.1,0.6,3.1c0.4,0.9,0.9,1.8,1.7,2.5   c0.7,0.7,1.5,1.2,2.5,1.6c1,0.4,2,0.6,3.1,0.6c1.1,0,2.1-0.2,3.1-0.6c1-0.4,1.8-1,2.6-1.8l1.9,1.8c-0.9,1-2,1.8-3.3,2.4   C230.1,153.2,228.7,153.5,227.1,153.5z"/>
	<path class="st2" d="M238.9,153.3v-20.1h7.8c1.8,0,3.3,0.3,4.5,0.8c1.2,0.6,2.2,1.4,2.9,2.4c0.7,1.1,1,2.3,1,3.8   c0,1.5-0.3,2.7-1,3.8c-0.7,1-1.6,1.8-2.9,2.4c-1.2,0.6-2.7,0.8-4.5,0.8h-6.3l1.3-1.3v7.4H238.9z M241.8,146.1l-1.3-1.4h6.2   c1.8,0,3.2-0.4,4.2-1.2c0.9-0.8,1.4-1.9,1.4-3.3c0-1.4-0.5-2.5-1.4-3.3c-0.9-0.8-2.3-1.2-4.2-1.2h-6.2l1.3-1.4V146.1z M252.3,153.3   l-5.1-7.3h3.1l5.2,7.3H252.3z"/>
	<path class="st2" d="M262.6,150.8h11.7v2.5h-14.6v-20.1h14.2v2.5h-11.3V150.8z M262.4,141.8h10.3v2.4h-10.3V141.8z"/>
	<path class="st2" d="M283,153.3v-17.6h-6.9v-2.5h16.6v2.5h-6.9v17.6H283z"/>
	<path class="st2" d="M291.8,153.3l9.1-20.1h2.8l9.1,20.1h-3l-8.1-18.5h1.1l-8.1,18.5H291.8z M295.7,148.2l0.8-2.3h11.3l0.8,2.3   H295.7z"/>
	<path class="st2" d="M315.9,153.3v-20.1h7.8c1.8,0,3.3,0.3,4.5,0.8c1.2,0.6,2.2,1.4,2.9,2.4c0.7,1.1,1,2.3,1,3.8   c0,1.5-0.3,2.7-1,3.8c-0.7,1-1.6,1.8-2.9,2.4c-1.2,0.6-2.7,0.8-4.5,0.8h-6.3l1.3-1.3v7.4H315.9z M318.7,146.1l-1.3-1.4h6.2   c1.8,0,3.2-0.4,4.2-1.2c0.9-0.8,1.4-1.9,1.4-3.3c0-1.4-0.5-2.5-1.4-3.3c-0.9-0.8-2.3-1.2-4.2-1.2h-6.2l1.3-1.4V146.1z M329.3,153.3   l-5.1-7.3h3.1l5.2,7.3H329.3z"/>
	<path class="st2" d="M336,131.5l3.9-3.7h3.5l-4.8,3.7H336z M336.8,153.3v-20.1h2.9v20.1H336.8z"/>
	<path class="st2" d="M342.6,153.3l9.1-20.1h2.8l9.1,20.1h-3l-8.1-18.5h1.1l-8.1,18.5H342.6z M346.5,148.2l0.8-2.3h11.3l0.8,2.3   H346.5z"/>
	<path class="st2" d="M374.4,153.3v-20.1h8.5c2.1,0,4,0.4,5.7,1.3c1.6,0.8,2.9,2,3.8,3.5c0.9,1.5,1.4,3.3,1.4,5.3s-0.5,3.7-1.4,5.3   c-0.9,1.5-2.2,2.7-3.8,3.5c-1.6,0.8-3.5,1.3-5.7,1.3H374.4z M377.3,150.8h5.4c1.7,0,3.1-0.3,4.3-0.9c1.2-0.6,2.2-1.5,2.8-2.7   c0.7-1.1,1-2.5,1-3.9c0-1.5-0.3-2.8-1-4c-0.7-1.1-1.6-2-2.8-2.6c-1.2-0.6-2.7-0.9-4.3-0.9h-5.4V150.8z"/>
	<path class="st2" d="M401,150.8h11.7v2.5h-14.6v-20.1h14.2v2.5H401V150.8z M400.7,141.8h10.3v2.4h-10.3V141.8z"/>
	<path class="st2" d="M434.2,153.5c-1.6,0-3-0.3-4.3-0.8c-1.3-0.5-2.4-1.2-3.4-2.2c-1-0.9-1.7-2-2.2-3.3c-0.5-1.2-0.8-2.6-0.8-4.1   c0-1.5,0.3-2.9,0.8-4.1c0.5-1.2,1.3-2.3,2.3-3.3c1-0.9,2.1-1.6,3.4-2.2c1.3-0.5,2.7-0.8,4.3-0.8c1.6,0,3,0.3,4.4,0.8   c1.3,0.5,2.4,1.3,3.4,2.3l-1.8,1.8c-0.8-0.8-1.7-1.4-2.7-1.8c-1-0.4-2-0.6-3.1-0.6c-1.2,0-2.2,0.2-3.2,0.6c-1,0.4-1.8,0.9-2.6,1.6   c-0.7,0.7-1.3,1.5-1.7,2.5c-0.4,0.9-0.6,2-0.6,3.1c0,1.1,0.2,2.1,0.6,3.1c0.4,0.9,0.9,1.8,1.7,2.5c0.7,0.7,1.6,1.2,2.5,1.6   c1,0.4,2,0.6,3.2,0.6c1.1,0,2.1-0.2,3.1-0.5c1-0.3,1.9-0.9,2.7-1.7l1.6,2.2c-1,0.8-2.2,1.5-3.5,1.9   C437,153.3,435.6,153.5,434.2,153.5z M439,150.6v-7.5h2.8v7.8L439,150.6z"/>
	<path class="st2" d="M456.3,153.5c-1.5,0-3-0.3-4.3-0.8c-1.3-0.5-2.4-1.2-3.4-2.2c-1-0.9-1.7-2-2.2-3.3c-0.5-1.2-0.8-2.6-0.8-4.1   s0.3-2.8,0.8-4.1c0.5-1.2,1.3-2.3,2.2-3.3c1-0.9,2.1-1.6,3.4-2.2c1.3-0.5,2.7-0.8,4.3-0.8c1.5,0,2.9,0.3,4.2,0.8   c1.3,0.5,2.4,1.2,3.4,2.2c1,0.9,1.7,2,2.2,3.3c0.5,1.2,0.8,2.6,0.8,4.1c0,1.5-0.3,2.9-0.8,4.1c-0.5,1.2-1.3,2.3-2.2,3.3   c-1,0.9-2.1,1.6-3.4,2.2C459.3,153.2,457.9,153.5,456.3,153.5z M456.3,150.9c1.1,0,2.1-0.2,3.1-0.6c0.9-0.4,1.8-0.9,2.5-1.6   c0.7-0.7,1.2-1.5,1.6-2.5c0.4-0.9,0.6-2,0.6-3.1s-0.2-2.1-0.6-3.1c-0.4-0.9-0.9-1.8-1.6-2.5c-0.7-0.7-1.5-1.2-2.5-1.6   c-0.9-0.4-2-0.6-3.1-0.6c-1.1,0-2.2,0.2-3.1,0.6c-0.9,0.4-1.8,0.9-2.5,1.6c-0.7,0.7-1.3,1.5-1.7,2.5c-0.4,0.9-0.6,2-0.6,3.1   s0.2,2.1,0.6,3.1c0.4,0.9,0.9,1.8,1.7,2.5c0.7,0.7,1.5,1.2,2.5,1.6C454.2,150.7,455.2,150.9,456.3,150.9z"/>
	<path class="st2" d="M471.4,153.3v-20.1h9c2.3,0,4.1,0.5,5.3,1.4c1.2,0.9,1.9,2.2,1.9,3.8c0,1.1-0.2,2-0.7,2.8   c-0.5,0.7-1.1,1.3-2,1.7s-1.7,0.6-2.7,0.6l0.5-0.9c1.1,0,2.2,0.2,3,0.6c0.9,0.4,1.6,1,2.1,1.8c0.5,0.8,0.8,1.7,0.8,2.9   c0,1.7-0.6,3.1-1.9,4c-1.3,0.9-3.2,1.4-5.8,1.4H471.4z M474.3,150.9h6.6c1.6,0,2.8-0.3,3.6-0.8c0.8-0.5,1.3-1.4,1.3-2.5   c0-1.2-0.4-2-1.3-2.6c-0.8-0.5-2.1-0.8-3.6-0.8H474v-2.3h6.1c1.5,0,2.6-0.3,3.4-0.8c0.8-0.5,1.2-1.3,1.2-2.4s-0.4-1.9-1.2-2.4   c-0.8-0.5-1.9-0.8-3.4-0.8h-5.9V150.9z"/>
	<path class="st2" d="M493.1,153.3v-20.1h2.9v20.1H493.1z"/>
	<path class="st2" d="M504.9,150.8h11.7v2.5H502v-20.1h14.2v2.5h-11.3V150.8z M504.6,141.8H515v2.4h-10.3V141.8z"/>
	<path class="st2" d="M521.3,153.3v-20.1h7.8c1.8,0,3.3,0.3,4.5,0.8c1.2,0.6,2.2,1.4,2.9,2.4c0.7,1.1,1,2.3,1,3.8   c0,1.5-0.3,2.7-1,3.8c-0.7,1-1.6,1.8-2.9,2.4c-1.2,0.6-2.7,0.8-4.5,0.8h-6.3l1.3-1.3v7.4H521.3z M524.1,146.1l-1.3-1.4h6.2   c1.8,0,3.2-0.4,4.2-1.2c0.9-0.8,1.4-1.9,1.4-3.3c0-1.4-0.5-2.5-1.4-3.3c-0.9-0.8-2.3-1.2-4.2-1.2h-6.2l1.3-1.4V146.1z M534.7,153.3   l-5.1-7.3h3.1l5.2,7.3H534.7z"/>
	<path class="st2" d="M542.1,153.3v-20.1h2.4l13.3,16.5h-1.2v-16.5h2.9v20.1h-2.4l-13.3-16.5h1.2v16.5H542.1z"/>
	<path class="st2" d="M574.5,153.5c-1.5,0-3-0.3-4.3-0.8c-1.3-0.5-2.4-1.2-3.4-2.2c-1-0.9-1.7-2-2.2-3.3c-0.5-1.2-0.8-2.6-0.8-4.1   s0.3-2.8,0.8-4.1c0.5-1.2,1.3-2.3,2.2-3.3c1-0.9,2.1-1.6,3.4-2.2c1.3-0.5,2.7-0.8,4.3-0.8c1.5,0,2.9,0.3,4.2,0.8   c1.3,0.5,2.4,1.2,3.4,2.2c1,0.9,1.7,2,2.2,3.3c0.5,1.2,0.8,2.6,0.8,4.1c0,1.5-0.3,2.9-0.8,4.1c-0.5,1.2-1.3,2.3-2.2,3.3   c-1,0.9-2.1,1.6-3.4,2.2C577.5,153.2,576.1,153.5,574.5,153.5z M574.5,150.9c1.1,0,2.1-0.2,3.1-0.6c0.9-0.4,1.8-0.9,2.5-1.6   c0.7-0.7,1.2-1.5,1.6-2.5c0.4-0.9,0.6-2,0.6-3.1s-0.2-2.1-0.6-3.1c-0.4-0.9-0.9-1.8-1.6-2.5c-0.7-0.7-1.5-1.2-2.5-1.6   c-0.9-0.4-2-0.6-3.1-0.6c-1.1,0-2.2,0.2-3.1,0.6c-0.9,0.4-1.8,0.9-2.5,1.6c-0.7,0.7-1.3,1.5-1.7,2.5s-0.6,2-0.6,3.1   s0.2,2.1,0.6,3.1s0.9,1.8,1.7,2.5c0.7,0.7,1.5,1.2,2.5,1.6C572.4,150.7,573.4,150.9,574.5,150.9z"/>
</g>
</svg>