<?xml version="1.0" encoding="utf-8"?>
<!-- Generator: Adobe Illustrator 25.4.1, SVG Export Plug-In . SVG Version: 6.00 Build 0)  -->
<svg version="1.1" id="Capa_1" xmlns="http://www.w3.org/2000/svg" xmlns:xlink="http://www.w3.org/1999/xlink" x="0px" y="0px"
	 viewBox="0 0 905.9 225.9" style="enable-background:new 0 0 905.9 225.9;" xml:space="preserve">
<style type="text/css">
	.st0{fill:#A02142;}
	.st1{fill:#691B32;}
	.st2{fill:#707271;}
</style>
<g>
	<g>
		<path class="st0" d="M126.9,38v27.4L111.3,81V51.7l14.3-14.3C126,36.9,126.9,37.3,126.9,38z"/>
	</g>
	<g>
		<polygon class="st0" points="108.5,54.5 108.5,83.7 92.9,99.3 92.9,70.1 		"/>
	</g>
</g>
<g>
	<g>
		<polygon class="st1" points="87.4,70.1 87.4,99.3 71.7,83.7 71.7,54.5 		"/>
	</g>
	<g>
		<path class="st1" d="M69,51.7V81L53.4,65.4V38c0-0.7,0.8-1,1.3-0.5L69,51.7z"/>
	</g>
</g>
<g>
	<g>
		<path class="st0" d="M69,127.1v29.3l-14.3,14.3c-0.5,0.5-1.3,0.1-1.3-0.5v-27.4L69,127.1z"/>
	</g>
	<g>
		<polygon class="st0" points="87.4,108.8 87.4,138 71.7,153.6 71.7,124.4 		"/>
	</g>
</g>
<g>
	<g>
		<polygon class="st1" points="108.5,124.4 108.5,153.6 92.9,138 92.9,108.8 		"/>
	</g>
	<g>
		<path class="st1" d="M126.9,142.7v27.4c0,0.7-0.8,1-1.3,0.5l-14.3-14.3v-29.3L126.9,142.7z"/>
	</g>
</g>
<g>
	<g>
		<path class="st0" d="M156.2,140.8h-27.4l-15.6-15.6h29.3l14.3,14.3C157.2,140,156.9,140.8,156.2,140.8z"/>
	</g>
	<g>
		<polygon class="st0" points="139.7,122.4 110.4,122.4 94.8,106.8 124.1,106.8 		"/>
	</g>
</g>
<g>
	<g>
		<polygon class="st1" points="139.7,85.7 124.1,101.3 94.8,101.3 110.4,85.7 		"/>
	</g>
	<g>
		<path class="st1" d="M156.8,68.6l-14.3,14.3h-29.3l15.6-15.6h27.4C156.9,67.3,157.2,68.2,156.8,68.6z"/>
	</g>
</g>
<g>
	<g>
		<path class="st0" d="M67,82.9H37.8L23.5,68.6c-0.5-0.5-0.1-1.3,0.5-1.3h27.4L67,82.9z"/>
	</g>
	<g>
		<polygon class="st0" points="85.4,101.3 56.1,101.3 40.5,85.7 69.8,85.7 		"/>
	</g>
</g>
<g>
	<g>
		<polygon class="st1" points="85.4,106.8 69.8,122.4 40.5,122.4 56.1,106.8 		"/>
	</g>
	<g>
		<path class="st1" d="M67,125.2l-15.6,15.6H24c-0.7,0-1-0.8-0.5-1.3l14.3-14.3H67z"/>
	</g>
</g>
<g>
	<path class="st1" d="M188.6,109.9c0.3-1.9,0.5-6.9,0.5-12.6V83.9c0-4.1,0.1-10.5-0.7-11.3c-1-0.9-4-2.1-6.3-2.9l1-4.5h20.6
		c9.3,0,16.7-0.2,22.8-0.7c0.8,1,1.8,2.6,2.4,3.5c-0.6,3.6-2,10.1-2.6,12.7c-1.7,0.1-5.9-0.1-7.7-0.4l-2-8.9
		c-2.1-0.2-5.1-0.3-7.7-0.3c-2.3,0-4.4,0.1-6.3,0.1c-0.2,2.4-0.5,7.5-0.5,13.1v3.8l15.6-0.9l1.5,1.9c-0.4,1.9-0.7,4.2-1.1,6.1
		L202,94.7V98c0,4.3-0.1,10.4,0.8,11.4c1.2,1.1,4.8,1.3,7.6,1.3c2.6,0,5.3-0.3,7.2-0.7l2.6-9c2.1-0.1,6.5,0.1,8.3,0.4
		c0.2,4.9,0.2,10.1,0,15.2H183l-1-4.5L188.6,109.9z"/>
	<path class="st1" d="M243.4,109.9c0.3-1.9,0.5-6.9,0.5-12.6V83.9c0-4.1,0-10.4-0.7-11.2c-0.7-1-4-2.1-6.4-2.9l1-4.5h11.3
		c2.7,0,10.9-0.4,14.8-0.4c21.2,0,28.4,11.8,28.4,25.7c0,17.9-12.3,26.8-26.2,26.8c-4.7,0-11.7-0.7-16.4-0.7h-11.8l-1-4.5
		L243.4,109.9z M257.4,109.2c1,1.2,7.5,2.6,12.7,0.7c5.5-3,8.7-9.8,8.7-19.4c0-8-2.9-14.2-5.9-16.6c-2.4-1.5-6-2.3-9.8-2.3
		c-2.1,0-4.3,0.1-5.9,0.4c-0.3,1.9-0.5,6.9-0.5,12.5V98C256.7,102.1,256.7,108.3,257.4,109.2z"/>
	<path class="st1" d="M325.2,117.7c-15.8,0-22.9-8.6-22.9-25.5v-7.8c0-4,0-10.5-0.9-11.7c-0.7-1.1-3.9-2.3-6.2-3.1l1-4.5h25.6l1,4.5
		l-6.7,2.3c-0.3,1.9-0.6,6.9-0.6,12.5v8.4c0,10.1,2.8,16.4,12.4,16.4c4.2,0,7.8-1.4,9.6-2.9c1.8-5.6,1.6-13.5,1.6-19.5
		c0-6.2-0.1-13.1-0.6-14.4c-0.9-0.7-4.7-2-7.3-2.8l1-4.5h22.2l1,4.5l-6.9,2.4c-0.3,4.7-0.4,11.1-0.4,22.7
		C348.1,109.9,339.2,117.7,325.2,117.7z"/>
	<path class="st1" d="M395.4,108.1c0.5-1.5,1.6-5,2.8-9.2c1.8-0.1,6.8,0.1,8.7,0.4c0.2,3.2,0.3,8.1,0.3,11l-1.1,2.3
		c-4.4,2.9-11.5,5.2-19.5,5.2c-16.5,0-26.7-9.8-26.7-25.9c0-16.6,12.5-27.7,28-27.7c7.4,0,13.7,2,18.9,4.6l1.2,2.2
		c-0.7,4-2,9.6-2.9,13.3c-1.8,0.1-6.1-0.1-8.1-0.4c-0.8-4.2-1.8-8.3-2.4-10.2c-1.5-0.9-4.4-1.5-7.4-1.5c-3.5,0-6.7,0.7-8.4,1.8
		c-3.2,3.9-5.3,9.6-5.3,17.1c0,11.2,5.1,18.4,14.6,18.4C391.7,109.3,394.1,108.8,395.4,108.1z"/>
	<path class="st1" d="M434.3,116.6h-21.7l-1-4.5l5.7-2.3c4.6-11,9.5-24.5,14.1-37.3l2.1-7.3c4.6-0.4,12-0.7,16.3-0.7
		c0.6,2.3,1.6,5.1,2.6,8.1c4.6,12.9,10.1,27.8,13.8,37.4l5.7,2.2l-1,4.5h-25l-1-4.5l7-2.2c-0.9-2.6-1.9-5.7-3-9l-18.3,0.4
		c-0.9,2.9-1.7,5.8-2.5,8.6l7.1,2.2L434.3,116.6z M446.7,94.4c-2.3-6.9-5-14.5-7.4-21.1c-2.1,6.1-4.3,13.4-6.5,20.8L446.7,94.4z"/>
	<path class="st1" d="M509.7,108.1c0.5-1.5,1.6-5,2.8-9.2c1.8-0.1,6.8,0.1,8.7,0.4c0.2,3.2,0.3,8.1,0.3,11l-1.1,2.3
		c-4.4,2.9-11.5,5.2-19.5,5.2c-16.5,0-26.7-9.8-26.7-25.9c0-16.6,12.5-27.7,28-27.7c7.4,0,13.7,2,18.9,4.6l1.2,2.2
		c-0.7,4-2,9.6-2.9,13.3c-1.8,0.1-6.1-0.1-8.1-0.4c-0.8-4.2-1.8-8.3-2.4-10.2c-1.5-0.9-4.4-1.5-7.4-1.5c-3.5,0-6.7,0.7-8.4,1.8
		c-3.2,3.9-5.3,9.6-5.3,17.1c0,11.2,5.1,18.4,14.6,18.4C506,109.3,508.4,108.8,509.7,108.1z"/>
	<path class="st1" d="M536.1,109.9c0.3-1.9,0.5-6.9,0.5-12.6V83.9c0-4.1,0-10.4-0.7-11.2c-0.7-1-4-2.1-6.4-2.9l1-4.5h25l1,4.5
		L550,72c-0.3,1.9-0.5,6.9-0.5,12.6V98c0,4.1,0,10.4,0.7,11.2c0.7,0.9,4,2.1,6.4,2.9l-1,4.5h-25l-1-4.5L536.1,109.9z"/>
	<path class="st1" d="M563.9,92.5c0-16.8,11.3-28.3,28-28.3c15,0,25.3,9.8,25.3,25.6c0,16.4-11.2,28-27.3,28
		C574.5,117.7,563.9,108.1,563.9,92.5z M601.2,43.2c1.8,2.4,3.6,6.3,4.3,9.2l-1.5,2.6L578.4,61l-1.3-0.7l-1-3.9
		C583.4,51.8,593,47,601.2,43.2z M599.9,107c1.5-2.1,3.8-7.7,3.8-15.4c0-12.4-3.4-19.4-13.4-19.4c-3.4,0-7.1,1.2-9,2.6
		c-2.5,3.7-3.8,9.5-3.8,16.6c0,11.3,4.3,18.2,13.4,18.2C594.7,109.6,598.1,108.5,599.9,107z"/>
	<path class="st1" d="M665.4,116.9l-6.8-9.1c-5.6-7.4-13.2-16.4-19.4-23.6c0.2,13.8,0.7,23.3,1.4,24.7c1,1.2,5.1,2.2,8.6,3.2l-1,4.5
		h-22.8l-1-4.5l6.5-2.3c0.3-1.9,0.6-8.4,0.6-19.3c0-10.1-0.1-16.4-1.1-17.7c-1.2-1.1-3.7-2.3-5.9-3.2l1-4.5c5.4,0,11.8-0.1,16.7-0.3
		c4.6,7.7,16.7,22.3,25.3,32.7c-0.1-14.1-0.8-23.2-1.6-24.7c-0.7-1-4.8-2.3-7.6-3.2l1-4.5H682l1,4.5l-6.5,2.4
		c-0.8,4.1-1.2,20.8-1.2,43.9L665.4,116.9z"/>
</g>
<g>
	<path class="st2" d="M190.9,156.6c-1.5,0-3-0.2-4.4-0.7c-1.4-0.5-2.5-1.1-3.3-1.8l1.1-2.2c0.8,0.7,1.7,1.2,2.9,1.7
		c1.2,0.4,2.4,0.7,3.7,0.7c1.2,0,2.1-0.1,2.8-0.4c0.7-0.3,1.3-0.6,1.6-1.1c0.3-0.5,0.5-1,0.5-1.6c0-0.7-0.2-1.2-0.7-1.7
		c-0.5-0.4-1-0.8-1.8-1c-0.7-0.3-1.5-0.5-2.4-0.7c-0.9-0.2-1.7-0.4-2.6-0.7c-0.9-0.3-1.7-0.6-2.4-1c-0.7-0.4-1.3-0.9-1.7-1.6
		c-0.4-0.7-0.7-1.6-0.7-2.6c0-1,0.3-2,0.8-2.9c0.5-0.9,1.4-1.6,2.5-2.1c1.1-0.5,2.6-0.8,4.4-0.8c1.2,0,2.3,0.2,3.5,0.5
		c1.2,0.3,2.1,0.7,3,1.3l-0.9,2.3c-0.9-0.6-1.8-1-2.7-1.3c-1-0.3-1.9-0.4-2.8-0.4c-1.1,0-2.1,0.1-2.8,0.4c-0.7,0.3-1.3,0.7-1.6,1.1
		c-0.3,0.5-0.5,1-0.5,1.6c0,0.7,0.2,1.3,0.7,1.7c0.4,0.4,1,0.8,1.8,1c0.7,0.2,1.5,0.5,2.4,0.7c0.9,0.2,1.7,0.4,2.6,0.7
		c0.9,0.2,1.7,0.6,2.4,1s1.3,0.9,1.7,1.6c0.4,0.7,0.7,1.5,0.7,2.6c0,1-0.3,2-0.8,2.8c-0.6,0.9-1.4,1.6-2.6,2.1
		C194.2,156.3,192.7,156.6,190.9,156.6z"/>
	<path class="st2" d="M205.8,153.9h11.7v2.5h-14.6v-20.1h14.2v2.5h-11.3V153.9z M205.5,144.9h10.3v2.4h-10.3V144.9z"/>
	<path class="st2" d="M231.1,156.6c-1.5,0-2.9-0.3-4.2-0.8c-1.3-0.5-2.4-1.2-3.4-2.2c-0.9-0.9-1.7-2-2.2-3.3
		c-0.5-1.2-0.8-2.6-0.8-4.1c0-1.5,0.3-2.9,0.8-4.1c0.5-1.2,1.3-2.3,2.2-3.3c1-0.9,2.1-1.6,3.4-2.2c1.3-0.5,2.7-0.8,4.2-0.8
		c1.6,0,3,0.3,4.3,0.8c1.3,0.5,2.4,1.3,3.3,2.3l-1.9,1.8c-0.8-0.8-1.6-1.4-2.6-1.8c-1-0.4-2-0.6-3.1-0.6c-1.1,0-2.2,0.2-3.1,0.6
		s-1.8,0.9-2.5,1.6c-0.7,0.7-1.3,1.5-1.7,2.5c-0.4,0.9-0.6,2-0.6,3.1s0.2,2.1,0.6,3.1c0.4,0.9,0.9,1.8,1.7,2.5
		c0.7,0.7,1.5,1.2,2.5,1.6s2,0.6,3.1,0.6c1.1,0,2.1-0.2,3.1-0.6c1-0.4,1.8-1,2.6-1.8l1.9,1.8c-0.9,1-2,1.8-3.3,2.4
		C234.1,156.3,232.7,156.6,231.1,156.6z"/>
	<path class="st2" d="M242.9,156.4v-20.1h7.8c1.8,0,3.3,0.3,4.5,0.8c1.2,0.6,2.2,1.4,2.9,2.4c0.7,1.1,1,2.3,1,3.8
		c0,1.5-0.3,2.7-1,3.7c-0.7,1-1.6,1.8-2.9,2.4c-1.2,0.6-2.7,0.8-4.5,0.8h-6.3l1.3-1.3v7.4H242.9z M245.8,149.2l-1.3-1.4h6.2
		c1.8,0,3.2-0.4,4.2-1.2c0.9-0.8,1.4-1.9,1.4-3.3c0-1.4-0.5-2.5-1.4-3.3c-0.9-0.8-2.3-1.2-4.2-1.2h-6.2l1.3-1.4V149.2z M256.3,156.4
		l-5.1-7.3h3.1l5.2,7.3H256.3z"/>
	<path class="st2" d="M266.7,153.9h11.7v2.5h-14.6v-20.1H278v2.5h-11.3V153.9z M266.4,144.9h10.3v2.4h-10.3V144.9z"/>
	<path class="st2" d="M287,156.4v-17.6h-6.9v-2.5h16.6v2.5h-6.9v17.6H287z"/>
	<path class="st2" d="M295.8,156.4l9.1-20.1h2.8l9.1,20.1h-3l-8.1-18.5h1.2l-8.1,18.5H295.8z M299.7,151.3l0.8-2.3h11.3l0.8,2.3
		H299.7z"/>
	<path class="st2" d="M319.9,156.4v-20.1h7.8c1.8,0,3.3,0.3,4.5,0.8c1.2,0.6,2.2,1.4,2.9,2.4c0.7,1.1,1,2.3,1,3.8
		c0,1.5-0.3,2.7-1,3.7c-0.7,1-1.6,1.8-2.9,2.4c-1.2,0.6-2.7,0.8-4.5,0.8h-6.3l1.3-1.3v7.4H319.9z M322.8,149.2l-1.3-1.4h6.2
		c1.8,0,3.2-0.4,4.2-1.2c0.9-0.8,1.4-1.9,1.4-3.3c0-1.4-0.5-2.5-1.4-3.3c-0.9-0.8-2.3-1.2-4.2-1.2h-6.2l1.3-1.4V149.2z M333.4,156.4
		l-5.1-7.3h3.1l5.2,7.3H333.4z"/>
	<path class="st2" d="M340.1,134.6l3.9-3.7h3.5l-4.8,3.7H340.1z M340.8,156.4v-20.1h2.9v20.1H340.8z"/>
	<path class="st2" d="M346.7,156.4l9.1-20.1h2.8l9.1,20.1h-3l-8.1-18.5h1.1l-8.1,18.5H346.7z M350.5,151.3l0.8-2.3h11.3l0.8,2.3
		H350.5z"/>
	<path class="st2" d="M378.5,156.4v-20.1h8.5c2.1,0,4,0.4,5.7,1.3c1.6,0.8,2.9,2,3.8,3.5c0.9,1.5,1.4,3.3,1.4,5.3
		c0,2-0.5,3.7-1.4,5.3c-0.9,1.5-2.2,2.7-3.8,3.5c-1.6,0.8-3.5,1.3-5.7,1.3H378.5z M381.3,153.9h5.4c1.7,0,3.1-0.3,4.3-0.9
		c1.2-0.6,2.2-1.5,2.8-2.7c0.7-1.1,1-2.5,1-4c0-1.5-0.3-2.8-1-4c-0.7-1.1-1.6-2-2.8-2.6c-1.2-0.6-2.7-0.9-4.3-0.9h-5.4V153.9z"/>
	<path class="st2" d="M405.1,153.9h11.7v2.5h-14.6v-20.1h14.2v2.5h-11.3V153.9z M404.8,144.9h10.3v2.4h-10.3V144.9z"/>
	<path class="st2" d="M432,153.9h11.7v2.5h-14.6v-20.1h14.2v2.5H432V153.9z M431.8,144.9h10.3v2.4h-10.3V144.9z"/>
	<path class="st2" d="M448.4,156.4v-20.1h8.5c2.1,0,4,0.4,5.7,1.3c1.6,0.8,2.9,2,3.8,3.5c0.9,1.5,1.4,3.3,1.4,5.3
		c0,2-0.5,3.7-1.4,5.3c-0.9,1.5-2.2,2.7-3.8,3.5c-1.6,0.8-3.5,1.3-5.7,1.3H448.4z M451.3,153.9h5.4c1.7,0,3.1-0.3,4.3-0.9
		c1.2-0.6,2.2-1.5,2.8-2.7c0.7-1.1,1-2.5,1-4c0-1.5-0.3-2.8-1-4c-0.7-1.1-1.6-2-2.8-2.6c-1.2-0.6-2.7-0.9-4.3-0.9h-5.4V153.9z"/>
	<path class="st2" d="M480.5,156.6c-2.6,0-4.7-0.8-6.2-2.3c-1.5-1.5-2.3-3.7-2.3-6.6v-11.4h2.9v11.3c0,2.2,0.5,3.9,1.5,4.9
		c1,1,2.4,1.5,4.2,1.5c1.8,0,3.2-0.5,4.2-1.5c1-1,1.5-2.7,1.5-4.9v-11.3h2.8v11.4c0,2.9-0.8,5.1-2.3,6.6
		C485.2,155.8,483.1,156.6,480.5,156.6z"/>
	<path class="st2" d="M503.8,156.6c-1.5,0-2.9-0.3-4.2-0.8c-1.3-0.5-2.4-1.2-3.4-2.2c-0.9-0.9-1.7-2-2.2-3.3
		c-0.5-1.2-0.8-2.6-0.8-4.1c0-1.5,0.3-2.9,0.8-4.1c0.5-1.2,1.3-2.3,2.2-3.3c1-0.9,2.1-1.6,3.4-2.2c1.3-0.5,2.7-0.8,4.2-0.8
		c1.6,0,3,0.3,4.3,0.8c1.3,0.5,2.4,1.3,3.3,2.3l-1.9,1.8c-0.8-0.8-1.6-1.4-2.6-1.8c-1-0.4-2-0.6-3.1-0.6c-1.1,0-2.2,0.2-3.1,0.6
		c-1,0.4-1.8,0.9-2.5,1.6c-0.7,0.7-1.3,1.5-1.7,2.5c-0.4,0.9-0.6,2-0.6,3.1s0.2,2.1,0.6,3.1c0.4,0.9,0.9,1.8,1.7,2.5
		c0.7,0.7,1.5,1.2,2.5,1.6c1,0.4,2,0.6,3.1,0.6c1.1,0,2.1-0.2,3.1-0.6c1-0.4,1.8-1,2.6-1.8l1.9,1.8c-0.9,1-2,1.8-3.3,2.4
		C506.9,156.3,505.4,156.6,503.8,156.6z"/>
	<path class="st2" d="M512.1,156.4l9.1-20.1h2.8l9.1,20.1h-3l-8.1-18.5h1.1l-8.1,18.5H512.1z M516,151.3l0.8-2.3h11.3l0.8,2.3H516z"
		/>
	<path class="st2" d="M544.9,156.6c-1.5,0-2.9-0.3-4.2-0.8c-1.3-0.5-2.4-1.2-3.4-2.2c-0.9-0.9-1.7-2-2.2-3.3
		c-0.5-1.2-0.8-2.6-0.8-4.1c0-1.5,0.3-2.9,0.8-4.1c0.5-1.2,1.3-2.3,2.2-3.3c1-0.9,2.1-1.6,3.4-2.2c1.3-0.5,2.7-0.8,4.2-0.8
		c1.6,0,3,0.3,4.3,0.8c1.3,0.5,2.4,1.3,3.3,2.3l-1.9,1.8c-0.8-0.8-1.6-1.4-2.6-1.8c-1-0.4-2-0.6-3.1-0.6c-1.1,0-2.2,0.2-3.1,0.6
		c-1,0.4-1.8,0.9-2.5,1.6c-0.7,0.7-1.3,1.5-1.7,2.5c-0.4,0.9-0.6,2-0.6,3.1s0.2,2.1,0.6,3.1c0.4,0.9,0.9,1.8,1.7,2.5
		c0.7,0.7,1.5,1.2,2.5,1.6c1,0.4,2,0.6,3.1,0.6c1.1,0,2.1-0.2,3.1-0.6c1-0.4,1.8-1,2.6-1.8l1.9,1.8c-0.9,1-2,1.8-3.3,2.4
		C547.9,156.3,546.4,156.6,544.9,156.6z"/>
	<path class="st2" d="M556.6,156.4v-20.1h2.9v20.1H556.6z"/>
	<path class="st2" d="M574.6,156.6c-1.5,0-3-0.3-4.3-0.8c-1.3-0.5-2.4-1.2-3.4-2.2c-1-0.9-1.7-2-2.2-3.3c-0.5-1.2-0.8-2.6-0.8-4.1
		s0.3-2.8,0.8-4.1c0.5-1.2,1.3-2.3,2.2-3.3c1-0.9,2.1-1.7,3.4-2.2s2.7-0.8,4.3-0.8c1.5,0,2.9,0.3,4.2,0.8c1.3,0.5,2.4,1.2,3.4,2.2
		c1,0.9,1.7,2,2.2,3.3c0.5,1.2,0.8,2.6,0.8,4.1c0,1.5-0.3,2.9-0.8,4.1c-0.5,1.2-1.3,2.3-2.2,3.3c-1,0.9-2.1,1.6-3.4,2.2
		C577.6,156.3,576.2,156.6,574.6,156.6z M574.6,154c1.1,0,2.1-0.2,3.1-0.6s1.8-0.9,2.5-1.6c0.7-0.7,1.2-1.5,1.6-2.5
		c0.4-0.9,0.6-2,0.6-3.1s-0.2-2.1-0.6-3.1c-0.4-0.9-0.9-1.8-1.6-2.5s-1.5-1.2-2.5-1.6s-2-0.6-3.1-0.6c-1.1,0-2.2,0.2-3.1,0.6
		c-0.9,0.4-1.8,0.9-2.5,1.6s-1.3,1.5-1.7,2.5c-0.4,0.9-0.6,2-0.6,3.1s0.2,2.1,0.6,3.1c0.4,0.9,0.9,1.8,1.7,2.5
		c0.7,0.7,1.5,1.2,2.5,1.6C572.5,153.9,573.5,154,574.6,154z M572.5,134.6l3.9-3.7h3.5l-4.8,3.7H572.5z"/>
	<path class="st2" d="M589.7,156.4v-20.1h2.4l13.3,16.5h-1.2v-16.5h2.9v20.1h-2.4l-13.3-16.5h1.2v16.5H589.7z"/>
	<path class="st2" d="M620.7,156.4v-20.1h7.8c1.8,0,3.3,0.3,4.5,0.8c1.2,0.6,2.2,1.4,2.9,2.4c0.7,1.1,1,2.3,1,3.8
		c0,1.5-0.3,2.7-1,3.7c-0.7,1-1.6,1.9-2.9,2.4c-1.2,0.6-2.7,0.8-4.5,0.8h-6.3l1.3-1.4v7.4H620.7z M623.6,149.2l-1.3-1.4h6.2
		c1.8,0,3.2-0.4,4.2-1.2c0.9-0.8,1.4-1.9,1.4-3.3c0-1.4-0.5-2.5-1.4-3.3c-0.9-0.8-2.3-1.2-4.2-1.2h-6.2l1.3-1.4V149.2z"/>
	<path class="st2" d="M649.6,156.6c-2.6,0-4.7-0.8-6.2-2.3c-1.5-1.5-2.3-3.7-2.3-6.6v-11.4h2.9v11.3c0,2.2,0.5,3.9,1.5,4.9
		c1,1,2.4,1.5,4.2,1.5c1.8,0,3.2-0.5,4.2-1.5c1-1,1.5-2.7,1.5-4.9v-11.3h2.8v11.4c0,2.9-0.8,5.1-2.3,6.6
		C654.3,155.8,652.2,156.6,649.6,156.6z M647.4,134.6l3.9-3.7h3.5l-4.8,3.7H647.4z"/>
	<path class="st2" d="M664,156.4v-20.1h9c2.3,0,4.1,0.5,5.3,1.4c1.2,0.9,1.9,2.2,1.9,3.8c0,1.1-0.2,2-0.7,2.8
		c-0.5,0.8-1.1,1.3-2,1.7c-0.8,0.4-1.7,0.6-2.7,0.6l0.5-0.9c1.1,0,2.2,0.2,3,0.6c0.9,0.4,1.6,1,2.1,1.8c0.5,0.8,0.8,1.7,0.8,2.9
		c0,1.7-0.6,3.1-1.9,4c-1.3,0.9-3.2,1.4-5.8,1.4H664z M666.8,154h6.6c1.6,0,2.8-0.3,3.6-0.8c0.8-0.5,1.3-1.4,1.3-2.5
		c0-1.2-0.4-2-1.3-2.6c-0.8-0.5-2.1-0.8-3.6-0.8h-6.9V145h6.1c1.5,0,2.6-0.3,3.4-0.8c0.8-0.5,1.2-1.3,1.2-2.4c0-1.1-0.4-1.9-1.2-2.4
		c-0.8-0.5-1.9-0.8-3.4-0.8h-5.9V154z"/>
	<path class="st2" d="M685.7,156.4v-20.1h2.9v17.6h10.9v2.5H685.7z"/>
	<path class="st2" d="M702.8,156.4v-20.1h2.9v20.1H702.8z"/>
	<path class="st2" d="M720.7,156.6c-1.5,0-2.9-0.3-4.2-0.8c-1.3-0.5-2.4-1.2-3.4-2.2c-0.9-0.9-1.7-2-2.2-3.3
		c-0.5-1.2-0.8-2.6-0.8-4.1c0-1.5,0.3-2.9,0.8-4.1c0.5-1.2,1.3-2.3,2.2-3.3c1-0.9,2.1-1.6,3.4-2.2c1.3-0.5,2.7-0.8,4.2-0.8
		c1.6,0,3,0.3,4.3,0.8c1.3,0.5,2.4,1.3,3.3,2.3l-1.9,1.8c-0.8-0.8-1.6-1.4-2.6-1.8c-1-0.4-2-0.6-3.1-0.6c-1.1,0-2.2,0.2-3.1,0.6
		c-1,0.4-1.8,0.9-2.5,1.6c-0.7,0.7-1.3,1.5-1.7,2.5c-0.4,0.9-0.6,2-0.6,3.1s0.2,2.1,0.6,3.1s0.9,1.8,1.7,2.5s1.5,1.2,2.5,1.6
		c1,0.4,2,0.6,3.1,0.6c1.1,0,2.1-0.2,3.1-0.6c1-0.4,1.8-1,2.6-1.8l1.9,1.8c-0.9,1-2,1.8-3.3,2.4
		C723.7,156.3,722.2,156.6,720.7,156.6z"/>
	<path class="st2" d="M728.9,156.4l9.1-20.1h2.8l9.1,20.1h-3l-8.1-18.5h1.2l-8.1,18.5H728.9z M732.8,151.3l0.8-2.3h11.3l0.8,2.3
		H732.8z"/>
</g>
</svg>
