<?xml version="1.0" encoding="utf-8"?>
<!-- Generator: Adobe Illustrator 25.4.1, SVG Export Plug-In . SVG Version: 6.00 Build 0)  -->
<svg version="1.1" id="Capa_1" xmlns="http://www.w3.org/2000/svg" xmlns:xlink="http://www.w3.org/1999/xlink" x="0px" y="0px"
	 viewBox="0 0 905.9 225.9" style="enable-background:new 0 0 905.9 225.9;" xml:space="preserve">
<style type="text/css">
	.st0{fill:#A02142;}
	.st1{fill:#691B32;}
	.st2{fill:#707271;}
</style>
<g>
	<g>
		<g>
			<g>
				<path class="st0" d="M127.5,36.8v27.9l-15.9,15.9V50.8l14.6-14.6C126.7,35.8,127.5,36.1,127.5,36.8z"/>
			</g>
			<g>
				<polygon class="st0" points="108.8,53.6 108.8,83.4 92.9,99.3 92.9,69.5 				"/>
			</g>
		</g>
		<g>
			<g>
				<polygon class="st1" points="87.3,69.5 87.3,99.3 71.4,83.4 71.4,53.6 				"/>
			</g>
			<g>
				<path class="st1" d="M68.6,50.8v29.8L52.7,64.7V36.8c0-0.7,0.8-1,1.3-0.6L68.6,50.8z"/>
			</g>
		</g>
		<g>
			<g>
				<path class="st0" d="M68.6,127.6v29.8L54,172c-0.5,0.5-1.3,0.1-1.3-0.6v-27.9L68.6,127.6z"/>
			</g>
			<g>
				<polygon class="st0" points="87.3,108.9 87.3,138.7 71.4,154.6 71.4,124.8 				"/>
			</g>
		</g>
		<g>
			<g>
				<polygon class="st1" points="108.8,124.8 108.8,154.6 92.9,138.7 92.9,108.9 				"/>
			</g>
			<g>
				<path class="st1" d="M127.5,143.5v27.9c0,0.7-0.8,1-1.3,0.6l-14.6-14.6v-29.8L127.5,143.5z"/>
			</g>
		</g>
		<g>
			<g>
				<path class="st0" d="M157.4,141.5h-27.9l-15.9-15.9h29.8l14.6,14.6C158.5,140.7,158.1,141.5,157.4,141.5z"/>
			</g>
			<g>
				<polygon class="st0" points="140.6,122.8 110.8,122.8 94.9,106.9 124.7,106.9 				"/>
			</g>
		</g>
		<g>
			<g>
				<polygon class="st1" points="140.6,85.4 124.7,101.3 94.9,101.3 110.8,85.4 				"/>
			</g>
			<g>
				<path class="st1" d="M158,68l-14.6,14.6h-29.8l15.9-15.9h27.9C158.1,66.7,158.5,67.5,158,68z"/>
			</g>
		</g>
		<g>
			<g>
				<path class="st0" d="M66.6,82.6H36.8L22.2,68c-0.5-0.5-0.1-1.3,0.6-1.3h27.9L66.6,82.6z"/>
			</g>
			<g>
				<polygon class="st0" points="85.3,101.3 55.5,101.3 39.6,85.4 69.4,85.4 				"/>
			</g>
		</g>
		<g>
			<g>
				<polygon class="st1" points="85.3,106.9 69.4,122.8 39.6,122.8 55.5,106.9 				"/>
			</g>
			<g>
				<path class="st1" d="M66.6,125.6l-15.9,15.9H22.8c-0.7,0-1-0.8-0.6-1.3l14.6-14.6H66.6z"/>
			</g>
		</g>
	</g>
	<g>
		<g>
			<path class="st1" d="M223.5,61l1.3,2.4c-0.6,3.4-2.1,9.6-2.7,11.4c-1.7,0.1-6.4-0.1-8.3-0.4c-0.5-3.7-1-6.1-1.6-7.9
				c-1.7-1.1-4.3-1.8-7.3-1.8c-2.7,0-5,0.6-6.3,1.4c-0.7,1.1-1.4,2.7-1.4,4.6c0,11.6,28.3,7.9,28.3,26.2c0,9.1-8.9,15.4-21.8,15.4
				c-8.3,0-16-2.7-20.2-4.5v-0.4c-0.1-4,0-8.1,0.3-12c2.1-0.4,6.9-0.5,8.9-0.4c0.8,3.6,1.5,6,2.2,8c1.9,1.1,5.9,1.8,9,1.8
				c2.7,0,4.7-0.4,6.2-1.1c0.8-1,1.4-2.9,1.4-4.9c0-10.5-27.8-6.5-27.8-25.3c0-9.9,9.8-16.7,22.4-16.7
				C213.3,56.9,219.3,58.6,223.5,61z"/>
			<path class="st1" d="M251.9,111.3h-22.4l-1-4.6l5.9-2.4c4.7-11.4,9.9-25.4,14.6-38.6l2.1-7.6c4.8-0.4,12.5-0.8,16.9-0.8
				c0.6,2.4,1.7,5.3,2.7,8.4c4.7,13.4,10.4,28.8,14.3,38.7l5.9,2.3l-1,4.6h-25.9l-1-4.6l7.2-2.3c-0.9-2.7-2-5.9-3.1-9.4l-19,0.5
				c-0.9,3-1.7,6-2.6,8.9l7.4,2.3L251.9,111.3z M264.8,88.3c-2.4-7.2-5.2-15-7.7-21.9c-2.1,6.3-4.5,13.9-6.8,21.6L264.8,88.3z"/>
			<path class="st1" d="M300.7,104.3c0.3-2,0.5-7.2,0.5-13V77.4c0-4.3,0-10.7-0.7-11.6c-0.8-1-4.1-2.2-6.6-3l1-4.6h25.9l1,4.6
				l-6.8,2.4c-0.3,2-0.5,7.2-0.5,13V92c0,5,0,11.3,1,11.9c1.2,0.8,4.6,1,7.3,1c2.3,0,4.8-0.1,6.5-0.3l2.7-10.1
				c2.1-0.1,6.8,0.1,8.7,0.5c0.1,5.3,0.1,10.8,0,16.4h-45.8l-1-4.6L300.7,104.3z"/>
			<path class="st1" d="M374.9,112.5c-16.4,0-23.7-8.9-23.7-26.4V78c0-4.1,0-10.9-0.9-12.1c-0.8-1.1-4-2.4-6.4-3.2l1-4.6h26.5l1,4.6
				l-6.9,2.4c-0.3,2-0.6,7.2-0.6,12.9v8.7c0,10.5,2.9,17,12.9,17c4.3,0,8.1-1.4,10-3c1.8-5.8,1.7-14,1.7-20.2
				c0-6.5-0.1-13.6-0.6-14.9c-0.9-0.8-4.9-2.1-7.5-2.9l1-4.6h23l1,4.6l-7.2,2.4c-0.3,4.9-0.5,11.5-0.5,23.5
				C398.6,104.4,389.4,112.5,374.9,112.5z"/>
			<path class="st1" d="M418.3,104.3c0.3-2,0.5-7.2,0.5-13V77.4c0-4.3,0-10.7-0.7-11.6c-0.8-1-4.1-2.2-6.6-3l1-4.6h11.7
				c2.8,0,11.3-0.5,15.3-0.5c22,0,29.4,12.2,29.4,26.6c0,18.6-12.8,27.8-27.2,27.8c-4.9,0-12.1-0.7-17-0.7h-12.2l-1-4.6L418.3,104.3
				z M432.8,103.6c1,1.3,7.8,2.7,13.2,0.7c5.7-3.1,9-10.1,9-20.1c0-8.3-3-14.8-6.1-17.2c-2.5-1.6-6.2-2.4-10.1-2.4
				c-2.1,0-4.4,0.1-6.1,0.5c-0.3,2-0.5,7.2-0.5,12.9V92C432.1,96.3,432.1,102.7,432.8,103.6z"/>
		</g>
		<g>
			<path class="st2" d="M191.8,151.4c-1.6,0-3.1-0.2-4.5-0.7c-1.4-0.5-2.6-1.1-3.4-1.9l1.1-2.3c0.8,0.7,1.8,1.3,3,1.7
				c1.2,0.5,2.5,0.7,3.8,0.7c1.2,0,2.2-0.1,2.9-0.4c0.7-0.3,1.3-0.7,1.7-1.1c0.4-0.5,0.5-1,0.5-1.6c0-0.7-0.2-1.3-0.7-1.7
				c-0.5-0.4-1.1-0.8-1.8-1c-0.7-0.3-1.6-0.5-2.4-0.7c-0.9-0.2-1.8-0.4-2.7-0.7c-0.9-0.3-1.7-0.6-2.4-1c-0.7-0.4-1.3-1-1.8-1.7
				c-0.5-0.7-0.7-1.6-0.7-2.7c0-1.1,0.3-2,0.8-2.9c0.6-0.9,1.4-1.6,2.6-2.2c1.2-0.5,2.7-0.8,4.5-0.8c1.2,0,2.4,0.2,3.6,0.5
				c1.2,0.3,2.2,0.8,3.1,1.4l-1,2.4c-0.9-0.6-1.8-1-2.8-1.3c-1-0.3-1.9-0.4-2.9-0.4c-1.2,0-2.1,0.1-2.9,0.4
				c-0.7,0.3-1.3,0.7-1.6,1.2c-0.3,0.5-0.5,1-0.5,1.7c0,0.7,0.2,1.3,0.7,1.7c0.5,0.4,1.1,0.8,1.8,1c0.7,0.3,1.6,0.5,2.4,0.7
				c0.9,0.2,1.8,0.4,2.7,0.7c0.9,0.3,1.7,0.6,2.5,1c0.7,0.4,1.3,1,1.8,1.7c0.4,0.7,0.7,1.6,0.7,2.7c0,1-0.3,2-0.9,2.9
				c-0.6,0.9-1.5,1.6-2.6,2.2C195.1,151.1,193.6,151.4,191.8,151.4z"/>
			<path class="st2" d="M207,148.6h12v2.6h-15v-20.7h14.6v2.6H207V148.6z M206.7,139.4h10.6v2.5h-10.6V139.4z"/>
			<path class="st2" d="M233,151.4c-1.6,0-3-0.3-4.4-0.8c-1.3-0.5-2.5-1.3-3.5-2.2c-1-1-1.7-2.1-2.3-3.3c-0.5-1.3-0.8-2.7-0.8-4.2
				c0-1.5,0.3-2.9,0.8-4.2c0.6-1.3,1.3-2.4,2.3-3.3c1-1,2.1-1.7,3.5-2.2c1.3-0.5,2.8-0.8,4.4-0.8c1.6,0,3.1,0.3,4.4,0.8
				c1.3,0.5,2.5,1.3,3.4,2.4l-1.9,1.9c-0.8-0.8-1.7-1.4-2.7-1.8c-1-0.4-2-0.6-3.2-0.6c-1.2,0-2.2,0.2-3.2,0.6
				c-1,0.4-1.9,0.9-2.6,1.7c-0.7,0.7-1.3,1.6-1.7,2.5c-0.4,1-0.6,2-0.6,3.2c0,1.1,0.2,2.2,0.6,3.2c0.4,1,1,1.8,1.7,2.5
				c0.7,0.7,1.6,1.3,2.6,1.7c1,0.4,2.1,0.6,3.2,0.6c1.1,0,2.2-0.2,3.2-0.6c1-0.4,1.9-1,2.7-1.9l1.9,1.9c-0.9,1.1-2.1,1.9-3.4,2.4
				C236.1,151.1,234.7,151.4,233,151.4z"/>
			<path class="st2" d="M245.1,151.1v-20.7h8.1c1.8,0,3.4,0.3,4.6,0.9c1.3,0.6,2.3,1.4,3,2.5c0.7,1.1,1,2.4,1,3.9
				c0,1.5-0.3,2.8-1,3.9c-0.7,1.1-1.7,1.9-3,2.5c-1.3,0.6-2.8,0.9-4.6,0.9h-6.4l1.3-1.4v7.6H245.1z M248.1,143.8l-1.3-1.4h6.3
				c1.9,0,3.3-0.4,4.3-1.2c1-0.8,1.5-2,1.5-3.4c0-1.5-0.5-2.6-1.5-3.4c-1-0.8-2.4-1.2-4.3-1.2h-6.3l1.3-1.5V143.8z M259,151.1
				l-5.3-7.5h3.2l5.3,7.5H259z"/>
			<path class="st2" d="M269.5,148.6h12v2.6h-15v-20.7h14.6v2.6h-11.6V148.6z M269.3,139.4h10.6v2.5h-10.6V139.4z"/>
			<path class="st2" d="M290.5,151.1V133h-7.1v-2.6h17.1v2.6h-7.1v18.1H290.5z"/>
			<path class="st2" d="M299.5,151.1l9.4-20.7h2.9l9.4,20.7h-3.1l-8.4-19h1.2l-8.4,19H299.5z M303.5,146l0.8-2.4h11.6l0.9,2.4H303.5
				z"/>
			<path class="st2" d="M324.3,151.1v-20.7h8.1c1.8,0,3.4,0.3,4.6,0.9c1.3,0.6,2.3,1.4,3,2.5c0.7,1.1,1,2.4,1,3.9
				c0,1.5-0.3,2.8-1,3.9s-1.7,1.9-3,2.5c-1.3,0.6-2.8,0.9-4.6,0.9h-6.4l1.3-1.4v7.6H324.3z M327.2,143.8l-1.3-1.4h6.3
				c1.9,0,3.3-0.4,4.3-1.2c1-0.8,1.5-2,1.5-3.4c0-1.5-0.5-2.6-1.5-3.4c-1-0.8-2.4-1.2-4.3-1.2h-6.3l1.3-1.5V143.8z M338.1,151.1
				l-5.3-7.5h3.2l5.3,7.5H338.1z"/>
			<path class="st2" d="M345,128.8l4-3.8h3.6l-5,3.8H345z M345.7,151.1v-20.7h3v20.7H345.7z"/>
			<path class="st2" d="M351.7,151.1l9.4-20.7h2.9l9.4,20.7h-3.1l-8.4-19h1.2l-8.4,19H351.7z M355.7,146l0.8-2.4h11.6l0.9,2.4H355.7
				z"/>
			<path class="st2" d="M384.4,151.1v-20.7h8.7c2.2,0,4.1,0.4,5.8,1.3c1.7,0.9,3,2.1,3.9,3.6c0.9,1.6,1.4,3.4,1.4,5.4
				c0,2-0.5,3.8-1.4,5.4c-0.9,1.6-2.2,2.8-3.9,3.6c-1.7,0.9-3.6,1.3-5.8,1.3H384.4z M387.4,148.6h5.6c1.7,0,3.2-0.3,4.4-1
				c1.2-0.6,2.2-1.6,2.9-2.7c0.7-1.2,1-2.5,1-4.1c0-1.6-0.3-2.9-1-4.1c-0.7-1.2-1.7-2.1-2.9-2.7c-1.2-0.6-2.7-1-4.4-1h-5.6V148.6z"
				/>
			<path class="st2" d="M411.7,148.6h12v2.6h-15v-20.7h14.6v2.6h-11.6V148.6z M411.5,139.4h10.6v2.5h-10.6V139.4z"/>
			<path class="st2" d="M442.5,151.4c-1.6,0-3.1-0.2-4.5-0.7c-1.4-0.5-2.6-1.1-3.4-1.9l1.1-2.3c0.8,0.7,1.8,1.3,3,1.7
				c1.2,0.5,2.5,0.7,3.8,0.7c1.2,0,2.2-0.1,2.9-0.4c0.7-0.3,1.3-0.7,1.7-1.1c0.4-0.5,0.5-1,0.5-1.6c0-0.7-0.2-1.3-0.7-1.7
				c-0.5-0.4-1.1-0.8-1.8-1c-0.7-0.3-1.5-0.5-2.4-0.7s-1.8-0.4-2.7-0.7c-0.9-0.3-1.7-0.6-2.4-1c-0.7-0.4-1.3-1-1.8-1.7
				c-0.5-0.7-0.7-1.6-0.7-2.7c0-1.1,0.3-2,0.8-2.9c0.6-0.9,1.4-1.6,2.6-2.2c1.2-0.5,2.7-0.8,4.5-0.8c1.2,0,2.4,0.2,3.6,0.5
				c1.2,0.3,2.2,0.8,3.1,1.4l-1,2.4c-0.9-0.6-1.8-1-2.8-1.3c-1-0.3-1.9-0.4-2.9-0.4c-1.2,0-2.1,0.1-2.9,0.4
				c-0.8,0.3-1.3,0.7-1.6,1.2c-0.3,0.5-0.5,1-0.5,1.7c0,0.7,0.2,1.3,0.7,1.7c0.5,0.4,1.1,0.8,1.8,1c0.7,0.3,1.5,0.5,2.4,0.7
				c0.9,0.2,1.8,0.4,2.7,0.7c0.9,0.3,1.7,0.6,2.4,1c0.7,0.4,1.3,1,1.8,1.7c0.5,0.7,0.7,1.6,0.7,2.7c0,1-0.3,2-0.9,2.9
				c-0.6,0.9-1.5,1.6-2.6,2.2C445.8,151.1,444.3,151.4,442.5,151.4z"/>
			<path class="st2" d="M451.7,151.1l9.4-20.7h2.9l9.4,20.7h-3.1l-8.4-19h1.2l-8.4,19H451.7z M455.7,146l0.8-2.4h11.6l0.9,2.4H455.7
				z"/>
			<path class="st2" d="M476.4,151.1v-20.7h3v18.1h11.2v2.6H476.4z"/>
			<path class="st2" d="M502.2,151.4c-2.7,0-4.9-0.8-6.4-2.3c-1.6-1.6-2.3-3.8-2.3-6.8v-11.7h3v11.6c0,2.3,0.5,4,1.5,5
				c1,1.1,2.4,1.6,4.3,1.6c1.9,0,3.3-0.5,4.3-1.6s1.5-2.7,1.5-5v-11.6h2.9v11.7c0,3-0.8,5.3-2.3,6.8
				C507,150.6,504.9,151.4,502.2,151.4z"/>
			<path class="st2" d="M516.9,151.1v-20.7h8.7c2.2,0,4.1,0.4,5.8,1.3c1.7,0.9,3,2.1,3.9,3.6c0.9,1.6,1.4,3.4,1.4,5.4
				c0,2-0.5,3.8-1.4,5.4s-2.2,2.8-3.9,3.6c-1.7,0.9-3.6,1.3-5.8,1.3H516.9z M519.9,148.6h5.6c1.7,0,3.2-0.3,4.4-1
				c1.3-0.6,2.2-1.6,2.9-2.7c0.7-1.2,1-2.5,1-4.1c0-1.6-0.3-2.9-1-4.1s-1.7-2.1-2.9-2.7c-1.2-0.6-2.7-1-4.4-1h-5.6V148.6z"/>
		</g>
	</g>
</g>
</svg>
