<?xml version="1.0" encoding="utf-8"?>
<!-- Generator: Adobe Illustrator 25.4.1, SVG Export Plug-In . SVG Version: 6.00 Build 0)  -->
<svg version="1.1" id="Capa_1" xmlns="http://www.w3.org/2000/svg" xmlns:xlink="http://www.w3.org/1999/xlink" x="0px" y="0px"
	 viewBox="0 0 905.9 225.9" style="enable-background:new 0 0 905.9 225.9;" xml:space="preserve">
<style type="text/css">
	.st0{fill:#A02142;}
	.st1{fill:#691B32;}
	.st2{fill:#707271;}
</style>
<g>
	<g>
		<g>
			<g>
				<path class="st0" d="M128.5,36.7v27.7l-15.8,15.8V50.6l14.4-14.4C127.6,35.7,128.5,36,128.5,36.7z"/>
			</g>
			<g>
				<polygon class="st0" points="109.9,53.4 109.9,83 94.1,98.8 94.1,69.2 				"/>
			</g>
		</g>
		<g>
			<g>
				<polygon class="st1" points="88.5,69.2 88.5,98.8 72.8,83 72.8,53.4 				"/>
			</g>
			<g>
				<path class="st1" d="M70,50.6v29.6L54.2,64.4V36.7c0-0.7,0.8-1,1.3-0.6L70,50.6z"/>
			</g>
		</g>
		<g>
			<g>
				<path class="st0" d="M70,126.9v29.6l-14.4,14.4c-0.5,0.5-1.3,0.1-1.3-0.6v-27.7L70,126.9z"/>
			</g>
			<g>
				<polygon class="st0" points="88.5,108.3 88.5,137.9 72.8,153.7 72.8,124.1 				"/>
			</g>
		</g>
		<g>
			<g>
				<polygon class="st1" points="109.9,124.1 109.9,153.7 94.1,137.9 94.1,108.3 				"/>
			</g>
			<g>
				<path class="st1" d="M128.5,142.6v27.7c0,0.7-0.8,1-1.3,0.6l-14.4-14.4v-29.6L128.5,142.6z"/>
			</g>
		</g>
		<g>
			<g>
				<path class="st0" d="M158.1,140.7h-27.7l-15.8-15.8h29.6l14.4,14.4C159.2,139.8,158.8,140.7,158.1,140.7z"/>
			</g>
			<g>
				<polygon class="st0" points="141.5,122.1 111.9,122.1 96.1,106.3 125.7,106.3 				"/>
			</g>
		</g>
		<g>
			<g>
				<polygon class="st1" points="141.5,85 125.7,100.8 96.1,100.8 111.9,85 				"/>
			</g>
			<g>
				<path class="st1" d="M158.7,67.7l-14.4,14.4h-29.6l15.8-15.8h27.7C158.8,66.4,159.2,67.3,158.7,67.7z"/>
			</g>
		</g>
		<g>
			<g>
				<path class="st0" d="M68,82.2H38.4L24,67.7c-0.5-0.5-0.1-1.3,0.6-1.3h27.7L68,82.2z"/>
			</g>
			<g>
				<polygon class="st0" points="86.6,100.8 57,100.8 41.2,85 70.8,85 				"/>
			</g>
		</g>
		<g>
			<g>
				<polygon class="st1" points="86.6,106.3 70.8,122.1 41.2,122.1 57,106.3 				"/>
			</g>
			<g>
				<path class="st1" d="M68,124.9l-15.8,15.8H24.5c-0.7,0-1-0.8-0.6-1.3l14.4-14.4H68z"/>
			</g>
		</g>
	</g>
	<g>
		<path class="st1" d="M223.5,61.6l1.3,2.3c-0.6,3.3-2,9.3-2.6,11.1c-1.7,0.1-6.2-0.1-8.1-0.4c-0.4-3.6-1-5.9-1.6-7.7
			c-1.6-1-4.2-1.7-7.1-1.7c-2.6,0-4.9,0.6-6.2,1.4c-0.7,1.1-1.4,2.7-1.4,4.5c0,11.4,27.6,7.7,27.6,25.6c0,8.9-8.7,15-21.3,15
			c-8.1,0-15.6-2.6-19.7-4.4V107c-0.1-3.9,0-7.9,0.3-11.7c2.1-0.4,6.8-0.5,8.7-0.4c0.8,3.5,1.5,5.9,2.2,7.8c1.9,1.1,5.8,1.8,8.8,1.8
			c2.6,0,4.6-0.4,6.1-1c0.7-1,1.4-2.8,1.4-4.8c0-10.2-27.2-6.4-27.2-24.7c0-9.6,9.6-16.3,21.9-16.3
			C213.5,57.6,219.4,59.2,223.5,61.6z"/>
		<path class="st1" d="M240.2,103.8c0.3-1.9,0.5-7,0.5-12.7V77.6c0-4.2,0.1-10.6-0.7-11.4c-1-1-4.1-2.2-6.4-2.9l1-4.5h20.8
			c9.4,0,16.9-0.2,23.1-0.7c0.8,1,1.9,2.6,2.4,3.6c-0.6,3.6-2,10.2-2.6,12.8c-1.7,0.1-5.9-0.1-7.8-0.4l-2-9
			c-2.1-0.2-5.1-0.3-7.8-0.3c-2.3,0-4.5,0.1-6.4,0.1c-0.2,2.4-0.5,7.6-0.5,13.3V82l15.7-0.9l1.5,1.9c-0.4,1.9-0.7,4.2-1.1,6.2
			l-16.1-0.7v3.3c0,4.3-0.1,10.5,0.8,11.5c1.2,1.1,4.9,1.3,7.6,1.3c2.6,0,5.3-0.3,7.3-0.7l2.6-9c2.1-0.1,6.6,0.1,8.4,0.4
			c0.2,5,0.2,10.2,0,15.4h-45.9l-1-4.5L240.2,103.8z"/>
		<path class="st1" d="M324.6,102.9c0-4.1-0.1-9.3-0.5-10.5c-0.4-0.9-4-1.9-6.4-2.7l1-4.6H343l1,4.6l-6.1,2.2
			c-0.2,2.7-0.4,6.9-0.4,12.5v1.3c-4.6,3.3-12.8,6.2-21.1,6.2c-17.4,0-28.2-10-28.2-26.3c0-17.4,13.4-27.8,29.8-27.8
			c7.6,0,14.3,1.9,19.4,4.6l1.3,2.2c-0.7,3.9-2.4,10.8-3,13.2c-1.9,0-6.3-0.1-8.1-0.4c-1-4.5-2-8.3-2.5-10c-1.7-1-4.6-1.9-8.8-1.9
			c-2.8,0-7.1,0.9-9.1,2.1c-3.3,4.2-5.3,9.8-5.3,17.1c0,12,6.3,19.3,16.3,19.3C320.8,103.9,322.8,103.5,324.6,102.9z"/>
		<path class="st1" d="M376.9,111.8c-16,0-23.2-8.7-23.2-25.8v-7.9c0-4,0-10.6-0.9-11.8c-0.7-1.1-3.9-2.3-6.2-3.1l1-4.5h25.9l1,4.5
			l-6.8,2.3c-0.3,1.9-0.6,7-0.6,12.6v8.5c0,10.2,2.8,16.6,12.5,16.6c4.2,0,7.9-1.4,9.7-3c1.8-5.6,1.6-13.7,1.6-19.7
			c0-6.3-0.1-13.3-0.6-14.5c-0.9-0.7-4.7-2-7.3-2.8l1-4.5h22.5l1,4.5l-7,2.4c-0.3,4.7-0.4,11.2-0.4,22.9
			C400,103.9,391,111.8,376.9,111.8z"/>
		<path class="st1" d="M419.2,103.8c0.3-1.9,0.5-7,0.5-12.7V77.6c0-4.2,0-10.5-0.7-11.4c-0.7-1-4-2.2-6.5-3l1-4.5H426
			c2.7,0,11.2-0.4,15.2-0.4c13.4,0,21.5,4.7,21.5,14.4c0,6.5-4.9,10.7-9.8,13.1c3.6,7.1,7.5,14.2,10,17.8l5,2.6l-1,4.5
			c-5,0-9.4,0.1-15.4,0.3c-2.4-5.9-5.9-13.1-10.1-21.1h-8.8v1.9c0,4.2,0,10.5,0.7,11.4c0.7,1,4,2.2,6.5,3l-1,4.5h-25.3l-1-4.5
			L419.2,103.8z M432.7,82.5l12.1,0.4c2.2-1.7,4.2-5,4.2-9.6c0-3-0.7-5.3-1.9-6.7c-1.6-1.2-4.6-1.9-7.9-1.9c-1.9,0-4.2,0.3-5.9,0.8
			c-0.3,1.9-0.5,7-0.5,12.7V82.5z"/>
		<path class="st1" d="M476.4,103.8c0.3-1.9,0.5-7,0.5-12.7V77.6c0-4.2,0-10.5-0.7-11.4c-0.7-1-4-2.2-6.5-3l1-4.5H496l1,4.5
			l-6.6,2.3c-0.3,1.9-0.5,7-0.5,12.7v13.6c0,4.2,0,10.5,0.7,11.4c0.7,1,4,2.2,6.5,3l-1,4.5h-25.3l-1-4.5L476.4,103.8z"/>
		<path class="st1" d="M511.8,103.8c0.3-1.9,0.5-7,0.5-12.7V77.6c0-4.2,0-10.5-0.7-11.4c-0.7-1-4-2.2-6.5-3l1-4.5h11.4
			c2.7,0,11.1-0.4,14.9-0.4c21.4,0,28.7,11.9,28.7,26c0,18.1-12.5,27.1-26.5,27.1c-4.7,0-11.8-0.7-16.6-0.7h-11.9l-1-4.5
			L511.8,103.8z M526,103.2c1,1.3,7.6,2.7,12.8,0.7c5.6-3,8.8-9.9,8.8-19.6c0-8.1-3-14.4-5.9-16.8c-2.4-1.6-6.1-2.3-9.9-2.3
			c-2.1,0-4.3,0.1-5.9,0.4c-0.3,1.9-0.5,7-0.5,12.6v13.6C525.3,96,525.3,102.3,526,103.2z"/>
		<path class="st1" d="M586.3,110.7h-21.9l-1-4.5l5.7-2.3c4.6-11.1,9.6-24.8,14.2-37.7l2.1-7.4c4.7-0.4,12.2-0.7,16.5-0.7
			c0.6,2.3,1.6,5.2,2.7,8.2c4.6,13.1,10.2,28.1,14,37.8l5.8,2.2l-1,4.5h-25.2l-1-4.5l7.1-2.2c-0.9-2.6-1.9-5.7-3-9.1l-18.6,0.4
			c-0.9,2.9-1.7,5.9-2.5,8.7l7.2,2.2L586.3,110.7z M598.9,88.3c-2.4-7-5-14.6-7.5-21.4c-2.1,6.2-4.4,13.6-6.6,21.1L598.9,88.3z"/>
		<path class="st1" d="M633.9,103.8c0.3-1.9,0.5-7,0.5-12.7V77.6c0-4.2,0-10.5-0.7-11.4c-0.7-1-4-2.2-6.5-3l1-4.5h11.4
			c2.7,0,11.1-0.4,14.9-0.4c21.4,0,28.7,11.9,28.7,26c0,18.1-12.5,27.1-26.5,27.1c-4.7,0-11.8-0.7-16.6-0.7h-11.9l-1-4.5
			L633.9,103.8z M648.1,103.2c1,1.3,7.6,2.7,12.8,0.7c5.6-3,8.8-9.9,8.8-19.6c0-8.1-3-14.4-5.9-16.8c-2.4-1.6-6.1-2.3-9.9-2.3
			c-2.1,0-4.3,0.1-5.9,0.4c-0.3,1.9-0.5,7-0.5,12.6v13.6C647.4,96,647.4,102.3,648.1,103.2z"/>
	</g>
	<g>
		<path class="st2" d="M193.3,151.4c-1.5,0-3-0.2-4.4-0.7c-1.4-0.5-2.5-1.1-3.3-1.8l1.1-2.3c0.8,0.7,1.8,1.2,3,1.7
			c1.2,0.4,2.4,0.7,3.7,0.7c1.2,0,2.1-0.1,2.9-0.4c0.7-0.3,1.3-0.6,1.6-1.1c0.3-0.5,0.5-1,0.5-1.6c0-0.7-0.2-1.3-0.7-1.7
			c-0.5-0.4-1-0.8-1.8-1c-0.7-0.3-1.5-0.5-2.4-0.7c-0.9-0.2-1.7-0.4-2.6-0.7c-0.9-0.3-1.7-0.6-2.4-1c-0.7-0.4-1.3-1-1.8-1.6
			s-0.7-1.6-0.7-2.7c0-1,0.3-2,0.8-2.9c0.6-0.9,1.4-1.6,2.6-2.1c1.2-0.5,2.6-0.8,4.4-0.8c1.2,0,2.4,0.2,3.5,0.5
			c1.2,0.3,2.2,0.8,3,1.3l-1,2.3c-0.9-0.6-1.8-1-2.8-1.3c-1-0.3-1.9-0.4-2.8-0.4c-1.1,0-2.1,0.1-2.8,0.4c-0.7,0.3-1.3,0.7-1.6,1.2
			c-0.3,0.5-0.5,1-0.5,1.6c0,0.7,0.2,1.3,0.7,1.7c0.5,0.4,1,0.8,1.8,1c0.7,0.3,1.5,0.5,2.4,0.7c0.9,0.2,1.7,0.4,2.6,0.7
			c0.9,0.2,1.7,0.6,2.4,1c0.7,0.4,1.3,0.9,1.8,1.6c0.4,0.7,0.7,1.5,0.7,2.6c0,1-0.3,2-0.8,2.9c-0.6,0.9-1.4,1.6-2.6,2.1
			C196.6,151.2,195.1,151.4,193.3,151.4z"/>
		<path class="st2" d="M208.4,148.7h11.8v2.5h-14.8v-20.3h14.3v2.5h-11.4V148.7z M208.1,139.6h10.5v2.5h-10.5V139.6z"/>
		<path class="st2" d="M234,151.4c-1.5,0-3-0.3-4.3-0.8s-2.4-1.2-3.4-2.2c-1-0.9-1.7-2-2.2-3.3c-0.5-1.3-0.8-2.6-0.8-4.2
			s0.3-2.9,0.8-4.2c0.5-1.3,1.3-2.4,2.3-3.3c1-0.9,2.1-1.7,3.4-2.2c1.3-0.5,2.7-0.8,4.3-0.8c1.6,0,3,0.3,4.3,0.8
			c1.3,0.5,2.5,1.3,3.4,2.4l-1.9,1.8c-0.8-0.8-1.6-1.4-2.6-1.8c-1-0.4-2-0.6-3.1-0.6c-1.1,0-2.2,0.2-3.2,0.6c-1,0.4-1.8,0.9-2.5,1.6
			c-0.7,0.7-1.3,1.5-1.7,2.5c-0.4,1-0.6,2-0.6,3.1s0.2,2.2,0.6,3.1c0.4,1,1,1.8,1.7,2.5c0.7,0.7,1.6,1.2,2.5,1.6
			c1,0.4,2,0.6,3.2,0.6c1.1,0,2.1-0.2,3.1-0.6c1-0.4,1.8-1,2.6-1.8l1.9,1.8c-0.9,1-2.1,1.8-3.4,2.4C237,151.1,235.6,151.4,234,151.4
			z"/>
		<path class="st2" d="M245.9,151.2v-20.3h7.9c1.8,0,3.3,0.3,4.6,0.8c1.3,0.6,2.2,1.4,2.9,2.4c0.7,1.1,1,2.3,1,3.8s-0.3,2.7-1,3.8
			c-0.7,1.1-1.6,1.9-2.9,2.4c-1.3,0.6-2.8,0.8-4.6,0.8h-6.3l1.3-1.3v7.5H245.9z M248.8,144l-1.3-1.4h6.2c1.9,0,3.3-0.4,4.2-1.2
			c1-0.8,1.4-1.9,1.4-3.4c0-1.5-0.5-2.6-1.4-3.4c-1-0.8-2.4-1.2-4.2-1.2h-6.2l1.3-1.4V144z M259.5,151.2l-5.2-7.4h3.1l5.2,7.4H259.5
			z"/>
		<path class="st2" d="M269.9,148.7h11.8v2.5H267v-20.3h14.3v2.5h-11.4V148.7z M269.6,139.6h10.5v2.5h-10.5V139.6z"/>
		<path class="st2" d="M290.5,151.2v-17.8h-7v-2.5h16.8v2.5h-7v17.8H290.5z"/>
		<path class="st2" d="M299.4,151.2l9.2-20.3h2.9l9.2,20.3h-3l-8.2-18.7h1.2l-8.2,18.7H299.4z M303.3,146.1l0.8-2.3h11.4l0.8,2.3
			H303.3z"/>
		<path class="st2" d="M323.7,151.2v-20.3h7.9c1.8,0,3.3,0.3,4.6,0.8c1.3,0.6,2.2,1.4,2.9,2.4c0.7,1.1,1,2.3,1,3.8s-0.3,2.7-1,3.8
			c-0.7,1.1-1.6,1.9-2.9,2.4c-1.3,0.6-2.8,0.8-4.6,0.8h-6.3l1.3-1.3v7.5H323.7z M326.6,144l-1.3-1.4h6.2c1.9,0,3.3-0.4,4.2-1.2
			c1-0.8,1.4-1.9,1.4-3.4c0-1.5-0.5-2.6-1.4-3.4c-1-0.8-2.4-1.2-4.2-1.2h-6.2l1.3-1.4V144z M337.3,151.2l-5.2-7.4h3.1l5.2,7.4H337.3
			z"/>
		<path class="st2" d="M344.1,129.2l3.9-3.8h3.5l-4.9,3.8H344.1z M344.8,151.2v-20.3h2.9v20.3H344.8z"/>
		<path class="st2" d="M350.7,151.2l9.2-20.3h2.9l9.2,20.3h-3l-8.2-18.7h1.2l-8.2,18.7H350.7z M354.7,146.1l0.8-2.3h11.4l0.8,2.3
			H354.7z"/>
		<path class="st2" d="M382.9,151.2v-20.3h8.6c2.2,0,4.1,0.4,5.7,1.3c1.7,0.9,2.9,2,3.9,3.6c0.9,1.5,1.4,3.3,1.4,5.3
			c0,2-0.5,3.8-1.4,5.3c-0.9,1.5-2.2,2.7-3.9,3.6c-1.7,0.9-3.6,1.3-5.7,1.3H382.9z M385.8,148.7h5.5c1.7,0,3.1-0.3,4.4-1
			c1.2-0.6,2.2-1.5,2.9-2.7c0.7-1.2,1-2.5,1-4c0-1.5-0.3-2.9-1-4c-0.7-1.1-1.6-2-2.9-2.7c-1.2-0.6-2.7-1-4.4-1h-5.5V148.7z"/>
		<path class="st2" d="M409.8,148.7h11.8v2.5h-14.8v-20.3h14.3v2.5h-11.4V148.7z M409.5,139.6H420v2.5h-10.5V139.6z"/>
		<path class="st2" d="M440.1,151.4c-1.5,0-3-0.2-4.4-0.7c-1.4-0.5-2.5-1.1-3.3-1.8l1.1-2.3c0.8,0.7,1.8,1.2,3,1.7
			c1.2,0.4,2.4,0.7,3.7,0.7c1.2,0,2.1-0.1,2.9-0.4c0.7-0.3,1.3-0.6,1.6-1.1c0.3-0.5,0.5-1,0.5-1.6c0-0.7-0.2-1.3-0.7-1.7
			c-0.5-0.4-1-0.8-1.8-1c-0.7-0.3-1.5-0.5-2.4-0.7c-0.9-0.2-1.7-0.4-2.6-0.7c-0.9-0.3-1.7-0.6-2.4-1c-0.7-0.4-1.3-1-1.8-1.6
			c-0.4-0.7-0.7-1.6-0.7-2.7c0-1,0.3-2,0.8-2.9s1.4-1.6,2.6-2.1s2.6-0.8,4.4-0.8c1.2,0,2.4,0.2,3.5,0.5c1.2,0.3,2.2,0.8,3,1.3
			l-1,2.3c-0.9-0.6-1.8-1-2.8-1.3c-1-0.3-1.9-0.4-2.8-0.4c-1.1,0-2.1,0.1-2.8,0.4c-0.7,0.3-1.3,0.7-1.6,1.2c-0.3,0.5-0.5,1-0.5,1.6
			c0,0.7,0.2,1.3,0.7,1.7c0.5,0.4,1,0.8,1.8,1c0.7,0.3,1.5,0.5,2.4,0.7c0.9,0.2,1.7,0.4,2.6,0.7c0.9,0.2,1.7,0.6,2.4,1
			c0.7,0.4,1.3,0.9,1.8,1.6c0.4,0.7,0.7,1.5,0.7,2.6c0,1-0.3,2-0.8,2.9c-0.6,0.9-1.4,1.6-2.6,2.1
			C443.3,151.2,441.8,151.4,440.1,151.4z"/>
		<path class="st2" d="M455.1,148.7h11.8v2.5h-14.8v-20.3h14.3v2.5h-11.4V148.7z M454.8,139.6h10.5v2.5h-10.5V139.6z"/>
		<path class="st2" d="M480.8,151.4c-1.6,0-3-0.3-4.3-0.8c-1.3-0.5-2.5-1.2-3.4-2.2c-1-0.9-1.7-2-2.3-3.3c-0.5-1.3-0.8-2.6-0.8-4.2
			s0.3-2.9,0.8-4.2s1.3-2.4,2.3-3.3c1-0.9,2.1-1.7,3.4-2.2c1.3-0.5,2.8-0.8,4.4-0.8c1.6,0,3.1,0.3,4.4,0.8c1.3,0.5,2.5,1.3,3.4,2.4
			l-1.8,1.8c-0.8-0.8-1.7-1.4-2.7-1.8c-1-0.4-2-0.6-3.2-0.6c-1.2,0-2.2,0.2-3.2,0.6c-1,0.4-1.9,0.9-2.6,1.6
			c-0.7,0.7-1.3,1.5-1.7,2.5c-0.4,1-0.6,2-0.6,3.1c0,1.1,0.2,2.1,0.6,3.1c0.4,1,1,1.8,1.7,2.5s1.6,1.3,2.6,1.6s2.1,0.6,3.2,0.6
			c1.1,0,2.1-0.2,3.1-0.5c1-0.3,1.9-0.9,2.8-1.7l1.7,2.2c-1,0.9-2.2,1.5-3.5,1.9C483.6,151.2,482.2,151.4,480.8,151.4z M485.7,148.5
			v-7.6h2.8v7.9L485.7,148.5z"/>
		<path class="st2" d="M502.4,151.4c-2.7,0-4.8-0.8-6.3-2.3c-1.5-1.5-2.3-3.8-2.3-6.7v-11.6h2.9v11.4c0,2.3,0.5,3.9,1.5,5
			c1,1,2.4,1.6,4.2,1.6c1.8,0,3.3-0.5,4.3-1.6c1-1,1.5-2.7,1.5-5v-11.4h2.8v11.6c0,2.9-0.8,5.2-2.3,6.7
			C507.2,150.7,505.1,151.4,502.4,151.4z"/>
		<path class="st2" d="M517,151.2v-20.3h7.9c1.8,0,3.3,0.3,4.6,0.8s2.2,1.4,2.9,2.4c0.7,1.1,1,2.3,1,3.8s-0.3,2.7-1,3.8
			c-0.7,1.1-1.6,1.9-2.9,2.4s-2.8,0.8-4.6,0.8h-6.3l1.3-1.3v7.5H517z M519.9,144l-1.3-1.4h6.2c1.9,0,3.3-0.4,4.2-1.2
			c1-0.8,1.4-1.9,1.4-3.4c0-1.5-0.5-2.6-1.4-3.4s-2.4-1.2-4.2-1.2h-6.2l1.3-1.4V144z M530.6,151.2l-5.2-7.4h3.1l5.2,7.4H530.6z"/>
		<path class="st2" d="M538.1,151.2v-20.3h2.9v20.3H538.1z"/>
		<path class="st2" d="M547.1,151.2v-20.3h8.6c2.2,0,4.1,0.4,5.7,1.3c1.7,0.9,2.9,2,3.9,3.6c0.9,1.5,1.4,3.3,1.4,5.3
			c0,2-0.5,3.8-1.4,5.3c-0.9,1.5-2.2,2.7-3.9,3.6c-1.7,0.9-3.6,1.3-5.7,1.3H547.1z M550,148.7h5.5c1.7,0,3.1-0.3,4.4-1
			c1.2-0.6,2.2-1.5,2.9-2.7c0.7-1.2,1-2.5,1-4c0-1.5-0.3-2.9-1-4s-1.6-2-2.9-2.7c-1.2-0.6-2.7-1-4.4-1H550V148.7z"/>
		<path class="st2" d="M567.7,151.2l9.2-20.3h2.9l9.2,20.3h-3l-8.2-18.7h1.2l-8.2,18.7H567.7z M571.6,146.1l0.8-2.3h11.4l0.8,2.3
			H571.6z"/>
		<path class="st2" d="M592,151.2v-20.3h8.6c2.2,0,4.1,0.4,5.7,1.3c1.7,0.9,2.9,2,3.9,3.6c0.9,1.5,1.4,3.3,1.4,5.3
			c0,2-0.5,3.8-1.4,5.3c-0.9,1.5-2.2,2.7-3.9,3.6c-1.7,0.9-3.6,1.3-5.7,1.3H592z M595,148.7h5.5c1.7,0,3.1-0.3,4.4-1
			c1.2-0.6,2.2-1.5,2.9-2.7c0.7-1.2,1-2.5,1-4c0-1.5-0.3-2.9-1-4s-1.6-2-2.9-2.7c-1.2-0.6-2.7-1-4.4-1H595V148.7z"/>
		<path class="st2" d="M623.8,151.2v-20.3h7.9c1.8,0,3.3,0.3,4.6,0.8c1.3,0.6,2.2,1.4,2.9,2.4c0.7,1.1,1,2.3,1,3.8s-0.3,2.7-1,3.8
			c-0.7,1.1-1.6,1.9-2.9,2.4c-1.3,0.6-2.8,0.9-4.6,0.9h-6.3l1.3-1.4v7.5H623.8z M626.7,144l-1.3-1.5h6.2c1.9,0,3.3-0.4,4.2-1.2
			c1-0.8,1.4-1.9,1.4-3.4c0-1.5-0.5-2.6-1.4-3.4c-1-0.8-2.4-1.2-4.2-1.2h-6.2l1.3-1.4V144z"/>
		<path class="st2" d="M653,151.4c-2.7,0-4.8-0.8-6.3-2.3c-1.5-1.5-2.3-3.8-2.3-6.7v-11.6h2.9v11.4c0,2.3,0.5,3.9,1.5,5
			c1,1,2.4,1.6,4.2,1.6c1.8,0,3.3-0.5,4.3-1.6c1-1,1.5-2.7,1.5-5v-11.4h2.8v11.6c0,2.9-0.8,5.2-2.3,6.7
			C657.8,150.7,655.7,151.4,653,151.4z M650.8,129.2l3.9-3.8h3.5l-4.9,3.8H650.8z"/>
		<path class="st2" d="M667.5,151.2v-20.3h9.1c2.3,0,4.1,0.5,5.4,1.4c1.3,0.9,1.9,2.2,1.9,3.8c0,1.1-0.2,2-0.7,2.8s-1.2,1.3-2,1.7
			c-0.8,0.4-1.7,0.6-2.7,0.6l0.5-0.9c1.2,0,2.2,0.2,3.1,0.6c0.9,0.4,1.6,1,2.1,1.8c0.5,0.8,0.8,1.8,0.8,2.9c0,1.7-0.7,3.1-2,4.1
			c-1.3,1-3.2,1.4-5.8,1.4H667.5z M670.4,148.8h6.7c1.6,0,2.8-0.3,3.7-0.8c0.9-0.5,1.3-1.4,1.3-2.6c0-1.2-0.4-2-1.3-2.6
			s-2.1-0.8-3.7-0.8h-6.9v-2.4h6.2c1.5,0,2.6-0.3,3.4-0.8c0.8-0.5,1.2-1.4,1.2-2.4c0-1.1-0.4-1.9-1.2-2.4c-0.8-0.5-2-0.8-3.4-0.8h-6
			V148.8z"/>
		<path class="st2" d="M689.5,151.2v-20.3h2.9v17.8h11v2.5H689.5z"/>
		<path class="st2" d="M706.8,151.2v-20.3h2.9v20.3H706.8z"/>
		<path class="st2" d="M724.9,151.4c-1.5,0-3-0.3-4.3-0.8s-2.4-1.2-3.4-2.2c-1-0.9-1.7-2-2.2-3.3c-0.5-1.3-0.8-2.6-0.8-4.2
			s0.3-2.9,0.8-4.2c0.5-1.3,1.3-2.4,2.3-3.3c1-0.9,2.1-1.7,3.4-2.2c1.3-0.5,2.7-0.8,4.3-0.8c1.6,0,3,0.3,4.3,0.8
			c1.3,0.5,2.5,1.3,3.4,2.4l-1.9,1.8c-0.8-0.8-1.6-1.4-2.6-1.8c-1-0.4-2-0.6-3.1-0.6c-1.1,0-2.2,0.2-3.2,0.6c-1,0.4-1.8,0.9-2.5,1.6
			c-0.7,0.7-1.3,1.5-1.7,2.5c-0.4,1-0.6,2-0.6,3.1s0.2,2.2,0.6,3.1c0.4,1,1,1.8,1.7,2.5c0.7,0.7,1.6,1.2,2.5,1.6
			c1,0.4,2,0.6,3.2,0.6c1.1,0,2.1-0.2,3.1-0.6c1-0.4,1.8-1,2.6-1.8l1.9,1.8c-0.9,1-2.1,1.8-3.4,2.4
			C727.9,151.1,726.5,151.4,724.9,151.4z"/>
		<path class="st2" d="M733.2,151.2l9.2-20.3h2.9l9.2,20.3h-3l-8.2-18.7h1.2l-8.2,18.7H733.2z M737.1,146.1l0.8-2.3h11.4l0.8,2.3
			H737.1z"/>
	</g>
</g>
</svg>
