<?xml version="1.0" encoding="utf-8"?>
<!-- Generator: Adobe Illustrator 25.4.1, SVG Export Plug-In . SVG Version: 6.00 Build 0)  -->
<svg version="1.1" id="Capa_1" xmlns="http://www.w3.org/2000/svg" xmlns:xlink="http://www.w3.org/1999/xlink" x="0px" y="0px"
	 viewBox="0 0 905.9 225.9" style="enable-background:new 0 0 905.9 225.9;" xml:space="preserve">
<style type="text/css">
	.st0{fill:#A02142;}
	.st1{fill:#691B32;}
	.st2{fill:#707271;}
</style>
<g>
	<g>
		<g>
			<g>
				<path class="st0" d="M127.5,36.8v27.9l-15.9,15.9V50.8l14.6-14.6C126.7,35.8,127.5,36.1,127.5,36.8z"/>
			</g>
			<g>
				<polygon class="st0" points="108.8,53.6 108.8,83.4 92.9,99.3 92.9,69.5 				"/>
			</g>
		</g>
		<g>
			<g>
				<polygon class="st1" points="87.3,69.5 87.3,99.3 71.4,83.4 71.4,53.6 				"/>
			</g>
			<g>
				<path class="st1" d="M68.6,50.8v29.8L52.7,64.7V36.8c0-0.7,0.8-1,1.3-0.6L68.6,50.8z"/>
			</g>
		</g>
		<g>
			<g>
				<path class="st0" d="M68.6,127.6v29.8L54,172c-0.5,0.5-1.3,0.1-1.3-0.6v-27.9L68.6,127.6z"/>
			</g>
			<g>
				<polygon class="st0" points="87.3,108.9 87.3,138.7 71.4,154.6 71.4,124.8 				"/>
			</g>
		</g>
		<g>
			<g>
				<polygon class="st1" points="108.8,124.8 108.8,154.6 92.9,138.7 92.9,108.9 				"/>
			</g>
			<g>
				<path class="st1" d="M127.5,143.5v27.9c0,0.7-0.8,1-1.3,0.6l-14.6-14.6v-29.8L127.5,143.5z"/>
			</g>
		</g>
		<g>
			<g>
				<path class="st0" d="M157.4,141.5h-27.9l-15.9-15.9h29.8l14.6,14.6C158.5,140.7,158.1,141.5,157.4,141.5z"/>
			</g>
			<g>
				<polygon class="st0" points="140.6,122.8 110.8,122.8 94.9,106.9 124.7,106.9 				"/>
			</g>
		</g>
		<g>
			<g>
				<polygon class="st1" points="140.6,85.4 124.7,101.3 94.9,101.3 110.8,85.4 				"/>
			</g>
			<g>
				<path class="st1" d="M158,68l-14.6,14.6h-29.8l15.9-15.9h27.9C158.1,66.7,158.5,67.5,158,68z"/>
			</g>
		</g>
		<g>
			<g>
				<path class="st0" d="M66.6,82.6H36.8L22.2,68c-0.5-0.5-0.1-1.3,0.6-1.3h27.9L66.6,82.6z"/>
			</g>
			<g>
				<polygon class="st0" points="85.3,101.3 55.5,101.3 39.6,85.4 69.4,85.4 				"/>
			</g>
		</g>
		<g>
			<g>
				<polygon class="st1" points="85.3,106.9 69.4,122.8 39.6,122.8 55.5,106.9 				"/>
			</g>
			<g>
				<path class="st1" d="M66.6,125.6l-15.9,15.9H22.8c-0.7,0-1-0.8-0.6-1.3l14.6-14.6H66.6z"/>
			</g>
		</g>
	</g>
	<g>
		<path class="st1" d="M202,92.7c0.3-1.9,0.5-7,0.5-12.7V53.4h-0.7c-2.4,0-5,0.2-6.9,0.4l-2.6,10c-2.2,0.2-6.8,0-8.6-0.4
			c-0.2-5.1-0.2-10.7,0-16h27c9,0,16.4-0.1,22.1-0.5c0.7,1,1.8,2.5,2.3,3.4c-0.2,4.2-0.7,9.3-1.3,13.2c-1.8,0.3-6.3,0.2-8.1-0.1
			l-2.4-9.6c-2-0.3-4.6-0.4-7-0.4h-0.7v27.2c0,4.2,0,10.5,0.7,11.4c0.7,1,4,2.2,6.5,3l-1,4.5h-25.4l-1-4.5L202,92.7z"/>
		<path class="st1" d="M247.6,92.7c0.3-1.9,0.5-7,0.5-12.7V66.3c0-4.2,0-10.5-0.7-11.4c-0.7-1-4-2.2-6.5-3l1-4.5h12.4
			c2.8,0,11.3-0.4,15.3-0.4c13.4,0,21.6,4.7,21.6,14.5c0,6.6-4.9,10.7-9.8,13.1c3.6,7.1,7.5,14.2,10.1,17.9l5,2.6l-1,4.5
			c-5.1,0-9.5,0.1-15.4,0.3c-2.5-5.9-6-13.1-10.1-21.2h-8.8v1.9c0,4.2,0,10.5,0.7,11.4c0.7,1,4,2.2,6.5,3l-1,4.5h-25.4l-1-4.5
			L247.6,92.7z M261.2,71.2l12.2,0.4c2.2-1.7,4.2-5,4.2-9.6c0-3.1-0.7-5.3-1.9-6.8c-1.6-1.2-4.6-1.9-8-1.9c-1.9,0-4.2,0.3-6,0.8
			c-0.3,1.9-0.5,7-0.5,12.7V71.2z"/>
		<path class="st1" d="M320.5,99.5h-22l-1-4.5l5.7-2.3c4.6-11.2,9.7-24.9,14.3-37.9l2.1-7.5c4.7-0.4,12.2-0.7,16.5-0.7
			c0.6,2.3,1.6,5.2,2.7,8.2c4.6,13.1,10.2,28.3,14,37.9l5.8,2.2l-1,4.5h-25.3l-1-4.5l7.1-2.2c-0.9-2.6-1.9-5.7-3.1-9.2L316.9,84
			c-0.9,2.9-1.7,5.9-2.5,8.7l7.2,2.2L320.5,99.5z M333.2,77c-2.4-7-5.1-14.7-7.5-21.5c-2.1,6.2-4.4,13.6-6.6,21.2L333.2,77z"/>
		<path class="st1" d="M368.4,92.7c0.3-1.9,0.5-7,0.5-12.7V66.3c0-4.2,0-10.5-0.7-11.4c-0.7-1-4-2.2-6.5-3l1-4.5h11.9
			c2.6,0,10.9-0.4,14.6-0.4c13-0.1,20.8,4.5,20.8,13.3c0,5.7-3.9,9.6-8.7,12c6.2,1.6,11.3,5.5,11.3,12.6c0,10.2-9.8,15.4-20.7,15.4
			c-4.8,0-11.9-0.7-16.7-0.7h-12.4l-1-4.5L368.4,92.7z M390.2,93.7c1.6,0,3.7-0.2,5.3-0.9c2-1.6,3.2-4.8,3.2-7.9
			c0-4.5-2.8-7.5-8.4-7.5H382v3.3c0,4.2-0.1,10.5,0.7,11.4C383.5,93.1,386.8,93.7,390.2,93.7z M382,69.9l10.1,0.4
			c2.1-1.5,4.2-4.5,4.2-9c0-2.8-0.7-4.8-1.8-6.2c-1.3-1.1-3.9-1.8-6.4-1.8c-1.5,0-4.2,0.3-5.6,0.8c-0.3,1.9-0.5,7-0.5,12.7V69.9z"/>
		<path class="st1" d="M438.5,99.5h-22l-1-4.5l5.7-2.3c4.6-11.2,9.7-24.9,14.3-37.9l2.1-7.5c4.7-0.4,12.2-0.7,16.5-0.7
			c0.6,2.3,1.6,5.2,2.7,8.2c4.6,13.1,10.2,28.3,14,37.9l5.8,2.2l-1,4.5h-25.3l-1-4.5l7.1-2.2c-0.9-2.6-1.9-5.7-3.1-9.2L434.8,84
			c-0.9,2.9-1.7,5.9-2.5,8.7l7.2,2.2L438.5,99.5z M451.1,77c-2.4-7-5.1-14.7-7.5-21.5c-2.1,6.2-4.4,13.6-6.6,21.2L451.1,77z"/>
		<path class="st1" d="M486.4,81.3v-15c0-4.2,0-10.5-0.7-11.4c-0.7-1-4-2.2-6.5-3l1-4.5h25.4l1,4.5l-6.6,2.3
			c-0.3,1.9-0.5,7-0.5,12.7v16.9c0,12.3-5.3,17-15.1,25.1h-2.6c-1.9-2.1-4.4-6.3-5.4-9.1l9.5-4.2C486.3,93.9,486.4,90.2,486.4,81.3z
			"/>
		<path class="st1" d="M512.2,75c0-17.1,11.5-28.8,28.4-28.8c15.2,0,25.7,9.9,25.7,26c0,16.7-11.4,28.4-27.7,28.4
			C523,100.7,512.2,90.9,512.2,75z M548.8,89.8c1.5-2.1,3.9-7.8,3.9-15.7c0-12.6-3.5-19.7-13.6-19.7c-3.5,0-7.2,1.2-9.2,2.7
			c-2.5,3.7-3.9,9.7-3.9,16.8c0,11.5,4.4,18.5,13.6,18.5C543.5,92.5,547,91.3,548.8,89.8z"/>
	</g>
	<g>
		<path class="st2" d="M191.8,140.8c-1.6,0-3-0.2-4.5-0.7c-1.4-0.5-2.5-1.1-3.4-1.9l1.1-2.3c0.8,0.7,1.8,1.2,3,1.7
			c1.2,0.4,2.5,0.7,3.8,0.7c1.2,0,2.1-0.1,2.9-0.4c0.7-0.3,1.3-0.6,1.6-1.1c0.4-0.5,0.5-1,0.5-1.6c0-0.7-0.2-1.3-0.7-1.7
			c-0.5-0.4-1-0.8-1.8-1s-1.5-0.5-2.4-0.7c-0.9-0.2-1.8-0.4-2.6-0.7c-0.9-0.3-1.7-0.6-2.4-1c-0.7-0.4-1.3-1-1.8-1.6
			c-0.4-0.7-0.7-1.6-0.7-2.7c0-1,0.3-2,0.8-2.9c0.6-0.9,1.4-1.6,2.6-2.1s2.6-0.8,4.4-0.8c1.2,0,2.4,0.2,3.5,0.5
			c1.2,0.3,2.2,0.8,3,1.3l-1,2.3c-0.9-0.6-1.8-1-2.8-1.3c-1-0.3-1.9-0.4-2.8-0.4c-1.1,0-2.1,0.1-2.8,0.4c-0.7,0.3-1.3,0.7-1.6,1.2
			c-0.3,0.5-0.5,1-0.5,1.6c0,0.7,0.2,1.3,0.7,1.7c0.5,0.4,1.1,0.8,1.8,1c0.7,0.3,1.5,0.5,2.4,0.7c0.9,0.2,1.8,0.4,2.6,0.7
			c0.9,0.3,1.7,0.6,2.4,1c0.7,0.4,1.3,1,1.8,1.6c0.4,0.7,0.7,1.6,0.7,2.6c0,1-0.3,2-0.8,2.9c-0.6,0.9-1.4,1.6-2.6,2.1
			C195.1,140.5,193.6,140.8,191.8,140.8z"/>
		<path class="st2" d="M206.9,138h11.9v2.5H204v-20.4h14.4v2.5h-11.5V138z M206.6,128.9h10.5v2.5h-10.5V128.9z"/>
		<path class="st2" d="M232.6,140.8c-1.6,0-3-0.3-4.3-0.8c-1.3-0.5-2.4-1.2-3.4-2.2s-1.7-2-2.3-3.3c-0.5-1.3-0.8-2.7-0.8-4.2
			c0-1.5,0.3-2.9,0.8-4.2c0.5-1.3,1.3-2.4,2.3-3.3c1-0.9,2.1-1.7,3.4-2.2c1.3-0.5,2.7-0.8,4.3-0.8c1.6,0,3,0.3,4.4,0.8
			c1.3,0.5,2.5,1.3,3.4,2.4l-1.9,1.8c-0.8-0.8-1.7-1.4-2.6-1.8c-1-0.4-2-0.6-3.1-0.6c-1.1,0-2.2,0.2-3.2,0.6c-1,0.4-1.8,0.9-2.6,1.6
			c-0.7,0.7-1.3,1.5-1.7,2.5c-0.4,1-0.6,2-0.6,3.1s0.2,2.2,0.6,3.1s1,1.8,1.7,2.5c0.7,0.7,1.6,1.2,2.6,1.6c1,0.4,2,0.6,3.2,0.6
			c1.1,0,2.1-0.2,3.1-0.6c1-0.4,1.8-1,2.6-1.9l1.9,1.8c-0.9,1-2.1,1.8-3.4,2.4C235.7,140.5,234.2,140.8,232.6,140.8z"/>
		<path class="st2" d="M244.6,140.5v-20.4h8c1.8,0,3.3,0.3,4.6,0.8c1.3,0.6,2.2,1.4,2.9,2.5c0.7,1.1,1,2.3,1,3.8
			c0,1.5-0.3,2.7-1,3.8c-0.7,1.1-1.7,1.9-2.9,2.4c-1.3,0.6-2.8,0.8-4.6,0.8h-6.4l1.3-1.3v7.6H244.6z M247.5,133.3l-1.3-1.4h6.3
			c1.9,0,3.3-0.4,4.2-1.2c1-0.8,1.4-1.9,1.4-3.4c0-1.5-0.5-2.6-1.4-3.4c-1-0.8-2.4-1.2-4.2-1.2h-6.3l1.3-1.5V133.3z M258.2,140.5
			l-5.2-7.4h3.1l5.2,7.4H258.2z"/>
		<path class="st2" d="M268.7,138h11.9v2.5h-14.8v-20.4h14.4v2.5h-11.5V138z M268.4,128.9h10.5v2.5h-10.5V128.9z"/>
		<path class="st2" d="M289.4,140.5v-17.9h-7v-2.5h16.9v2.5h-7v17.9H289.4z"/>
		<path class="st2" d="M298.3,140.5l9.2-20.4h2.9l9.3,20.4h-3.1l-8.3-18.8h1.2l-8.3,18.8H298.3z M302.3,135.4l0.8-2.3h11.5l0.8,2.3
			H302.3z"/>
		<path class="st2" d="M322.8,140.5v-20.4h8c1.8,0,3.3,0.3,4.6,0.8c1.3,0.6,2.2,1.4,2.9,2.5c0.7,1.1,1,2.3,1,3.8
			c0,1.5-0.3,2.7-1,3.8c-0.7,1.1-1.7,1.9-2.9,2.4c-1.3,0.6-2.8,0.8-4.6,0.8h-6.4l1.3-1.3v7.6H322.8z M325.7,133.3l-1.3-1.4h6.3
			c1.9,0,3.3-0.4,4.2-1.2c1-0.8,1.4-1.9,1.4-3.4c0-1.5-0.5-2.6-1.4-3.4c-1-0.8-2.4-1.2-4.2-1.2h-6.3l1.3-1.5V133.3z M336.4,140.5
			l-5.2-7.4h3.1l5.2,7.4H336.4z"/>
		<path class="st2" d="M343.2,118.5l4-3.8h3.6l-4.9,3.8H343.2z M344,140.5v-20.4h2.9v20.4H344z"/>
		<path class="st2" d="M349.9,140.5l9.2-20.4h2.9l9.3,20.4h-3.1l-8.3-18.8h1.2l-8.3,18.8H349.9z M353.9,135.4l0.8-2.3h11.5l0.8,2.3
			H353.9z"/>
		<path class="st2" d="M382.2,140.5v-20.4h8.6c2.2,0,4.1,0.4,5.8,1.3c1.7,0.9,3,2.1,3.9,3.6s1.4,3.3,1.4,5.3s-0.5,3.8-1.4,5.3
			c-0.9,1.5-2.2,2.7-3.9,3.6c-1.7,0.9-3.6,1.3-5.8,1.3H382.2z M385.1,138h5.5c1.7,0,3.2-0.3,4.4-1c1.2-0.6,2.2-1.5,2.9-2.7
			c0.7-1.2,1-2.5,1-4c0-1.5-0.3-2.9-1-4c-0.7-1.1-1.6-2-2.9-2.7c-1.2-0.6-2.7-1-4.4-1h-5.5V138z"/>
		<path class="st2" d="M409.2,138h11.9v2.5h-14.8v-20.4h14.4v2.5h-11.5V138z M408.9,128.9h10.5v2.5h-10.5V128.9z"/>
		<path class="st2" d="M425.8,140.5v-20.4h2.9V138h11.1v2.5H425.8z"/>
		<path class="st2" d="M455,140.5v-17.9h-7v-2.5h16.9v2.5h-7v17.9H455z"/>
		<path class="st2" d="M468.1,140.5v-20.4h8c1.8,0,3.3,0.3,4.6,0.8c1.3,0.6,2.2,1.4,2.9,2.5c0.7,1.1,1,2.3,1,3.8
			c0,1.5-0.3,2.7-1,3.8c-0.7,1.1-1.7,1.9-2.9,2.4c-1.3,0.6-2.8,0.8-4.6,0.8h-6.4l1.3-1.3v7.6H468.1z M471,133.3l-1.3-1.4h6.3
			c1.9,0,3.3-0.4,4.2-1.2c1-0.8,1.4-1.9,1.4-3.4c0-1.5-0.5-2.6-1.4-3.4c-1-0.8-2.4-1.2-4.2-1.2h-6.3l1.3-1.5V133.3z M481.8,140.5
			l-5.2-7.4h3.1l5.2,7.4H481.8z"/>
		<path class="st2" d="M486.2,140.5l9.2-20.4h2.9l9.3,20.4h-3.1l-8.3-18.8h1.2l-8.3,18.8H486.2z M490.2,135.4l0.8-2.3h11.5l0.8,2.3
			H490.2z"/>
		<path class="st2" d="M510.7,140.5v-20.4h9.2c2.4,0,4.2,0.5,5.4,1.4c1.3,0.9,1.9,2.2,1.9,3.9c0,1.1-0.2,2-0.7,2.8
			c-0.5,0.8-1.2,1.3-2,1.8c-0.8,0.4-1.7,0.6-2.7,0.6l0.5-0.9c1.2,0,2.2,0.2,3.1,0.6c0.9,0.4,1.6,1,2.1,1.8c0.5,0.8,0.8,1.8,0.8,2.9
			c0,1.8-0.7,3.1-2,4.1c-1.3,1-3.3,1.4-5.8,1.4H510.7z M513.6,138.2h6.7c1.6,0,2.8-0.3,3.7-0.8c0.9-0.5,1.3-1.4,1.3-2.6
			c0-1.2-0.4-2.1-1.3-2.6c-0.9-0.5-2.1-0.8-3.7-0.8h-7V129h6.2c1.5,0,2.6-0.3,3.4-0.8c0.8-0.5,1.2-1.4,1.2-2.5
			c0-1.1-0.4-1.9-1.2-2.4c-0.8-0.5-2-0.8-3.4-0.8h-6V138.2z"/>
		<path class="st2" d="M529.6,140.5l9.2-20.4h2.9l9.3,20.4H548l-8.3-18.8h1.2l-8.3,18.8H529.6z M533.6,135.4l0.8-2.3h11.5l0.8,2.3
			H533.6z"/>
		<path class="st2" d="M557.1,140.8c-1.2,0-2.3-0.3-3.4-0.8c-1-0.5-1.9-1.2-2.6-2.2l1.7-2c0.6,0.8,1.2,1.4,1.9,1.8
			c0.7,0.4,1.5,0.6,2.3,0.6c2.3,0,3.5-1.4,3.5-4.1v-11.5h-7.4v-2.5h10.3V134c0,2.3-0.5,4-1.6,5.1
			C560.8,140.2,559.2,140.8,557.1,140.8z"/>
		<path class="st2" d="M578.7,140.8c-1.6,0-3-0.3-4.3-0.8c-1.3-0.5-2.5-1.3-3.5-2.2c-1-0.9-1.7-2-2.3-3.3c-0.5-1.3-0.8-2.6-0.8-4.1
			s0.3-2.9,0.8-4.1c0.5-1.3,1.3-2.4,2.3-3.3c1-0.9,2.1-1.7,3.4-2.2c1.3-0.5,2.8-0.8,4.3-0.8c1.6,0,3,0.3,4.3,0.8
			c1.3,0.5,2.5,1.2,3.4,2.2c1,0.9,1.7,2,2.3,3.3c0.5,1.3,0.8,2.7,0.8,4.2c0,1.5-0.3,2.9-0.8,4.2c-0.5,1.3-1.3,2.4-2.3,3.3
			c-1,0.9-2.1,1.7-3.4,2.2C581.7,140.5,580.2,140.8,578.7,140.8z M578.7,138.2c1.1,0,2.2-0.2,3.1-0.6c1-0.4,1.8-0.9,2.5-1.6
			c0.7-0.7,1.3-1.5,1.7-2.5c0.4-1,0.6-2,0.6-3.1s-0.2-2.2-0.6-3.1c-0.4-1-1-1.8-1.7-2.5c-0.7-0.7-1.5-1.3-2.5-1.6
			c-1-0.4-2-0.6-3.1-0.6c-1.1,0-2.2,0.2-3.2,0.6c-1,0.4-1.8,0.9-2.5,1.6c-0.7,0.7-1.3,1.5-1.7,2.5c-0.4,1-0.6,2-0.6,3.1
			s0.2,2.2,0.6,3.1c0.4,1,1,1.8,1.7,2.5s1.6,1.3,2.5,1.6C576.5,138,577.5,138.2,578.7,138.2z"/>
		<path class="st2" d="M190.8,175.5v-7.8l0.7,1.8l-8.8-14.4h3.1l7.4,12.2h-1.7l7.4-12.2h2.9l-8.7,14.4l0.6-1.8v7.8H190.8z"/>
		<path class="st2" d="M212.6,175.5v-20.4h8c1.8,0,3.3,0.3,4.6,0.8c1.3,0.6,2.2,1.4,2.9,2.5c0.7,1.1,1,2.3,1,3.8s-0.3,2.7-1,3.8
			c-0.7,1.1-1.7,1.9-2.9,2.4c-1.3,0.6-2.8,0.9-4.6,0.9h-6.4l1.3-1.4v7.6H212.6z M215.5,168.3l-1.3-1.5h6.3c1.9,0,3.3-0.4,4.2-1.2
			c1-0.8,1.4-1.9,1.4-3.4c0-1.5-0.5-2.6-1.4-3.4c-1-0.8-2.4-1.2-4.2-1.2h-6.3l1.3-1.5V168.3z"/>
		<path class="st2" d="M233.4,175.5v-20.4h8c1.8,0,3.3,0.3,4.6,0.8c1.3,0.6,2.2,1.4,2.9,2.5c0.7,1.1,1,2.3,1,3.8s-0.3,2.7-1,3.8
			c-0.7,1.1-1.7,1.9-2.9,2.4c-1.3,0.6-2.8,0.8-4.6,0.8H235l1.3-1.3v7.6H233.4z M236.3,168.3l-1.3-1.4h6.3c1.9,0,3.3-0.4,4.2-1.2
			c1-0.8,1.4-1.9,1.4-3.4c0-1.5-0.5-2.6-1.4-3.4c-1-0.8-2.4-1.2-4.2-1.2H235l1.3-1.5V168.3z M247,175.5l-5.2-7.4h3.1l5.3,7.4H247z"
			/>
		<path class="st2" d="M257.5,173h11.9v2.5h-14.8v-20.4H269v2.5h-11.5V173z M257.2,163.9h10.5v2.5h-10.5V163.9z"/>
		<path class="st2" d="M279.7,175.5l-9-20.4h3.1l8.3,18.8h-1.8l8.3-18.8h2.9l-9,20.4H279.7z"/>
		<path class="st2" d="M294.1,175.5v-20.4h2.9v20.4H294.1z"/>
		<path class="st2" d="M309.1,175.8c-1.6,0-3-0.2-4.5-0.7c-1.4-0.5-2.5-1.1-3.4-1.9l1.1-2.3c0.8,0.7,1.8,1.2,3,1.7
			c1.2,0.4,2.5,0.7,3.8,0.7c1.2,0,2.1-0.1,2.9-0.4c0.7-0.3,1.3-0.6,1.6-1.1c0.3-0.5,0.5-1,0.5-1.6c0-0.7-0.2-1.3-0.7-1.7
			c-0.5-0.4-1-0.8-1.8-1s-1.5-0.5-2.4-0.7c-0.9-0.2-1.8-0.4-2.6-0.7s-1.7-0.6-2.4-1c-0.7-0.4-1.3-1-1.8-1.6
			c-0.4-0.7-0.7-1.6-0.7-2.7c0-1,0.3-2,0.8-2.9c0.6-0.9,1.4-1.6,2.6-2.1c1.2-0.5,2.6-0.8,4.4-0.8c1.2,0,2.4,0.2,3.5,0.5
			c1.2,0.3,2.2,0.8,3,1.3l-1,2.3c-0.9-0.6-1.8-1-2.8-1.3c-1-0.3-1.9-0.4-2.8-0.4c-1.1,0-2.1,0.1-2.8,0.4c-0.7,0.3-1.3,0.7-1.6,1.2
			c-0.3,0.5-0.5,1-0.5,1.6c0,0.7,0.2,1.3,0.7,1.7c0.5,0.4,1.1,0.8,1.8,1c0.7,0.3,1.5,0.5,2.4,0.7s1.8,0.4,2.6,0.7
			c0.9,0.3,1.7,0.6,2.4,1c0.7,0.4,1.3,1,1.8,1.6c0.4,0.7,0.7,1.6,0.7,2.6c0,1-0.3,2-0.8,2.9c-0.6,0.9-1.4,1.6-2.6,2.1
			C312.4,175.5,310.9,175.8,309.1,175.8z"/>
		<path class="st2" d="M321.3,175.5v-20.4h2.9v20.4H321.3z"/>
		<path class="st2" d="M339.5,175.8c-1.6,0-3-0.3-4.3-0.8c-1.3-0.5-2.5-1.3-3.5-2.2c-1-0.9-1.7-2-2.3-3.3c-0.5-1.3-0.8-2.6-0.8-4.1
			s0.3-2.9,0.8-4.1c0.5-1.3,1.3-2.4,2.3-3.3c1-0.9,2.1-1.7,3.4-2.2c1.3-0.5,2.8-0.8,4.3-0.8c1.6,0,3,0.3,4.3,0.8
			c1.3,0.5,2.5,1.2,3.4,2.2c1,0.9,1.7,2,2.3,3.3c0.5,1.3,0.8,2.7,0.8,4.2c0,1.5-0.3,2.9-0.8,4.2c-0.5,1.3-1.3,2.4-2.3,3.3
			c-1,0.9-2.1,1.7-3.4,2.2C342.5,175.5,341.1,175.8,339.5,175.8z M339.5,173.2c1.1,0,2.2-0.2,3.1-0.6s1.8-0.9,2.5-1.6
			c0.7-0.7,1.3-1.5,1.7-2.5c0.4-1,0.6-2,0.6-3.1s-0.2-2.2-0.6-3.1c-0.4-1-1-1.8-1.7-2.5c-0.7-0.7-1.5-1.3-2.5-1.6
			c-1-0.4-2-0.6-3.1-0.6c-1.1,0-2.2,0.2-3.2,0.6c-1,0.4-1.8,0.9-2.5,1.6c-0.7,0.7-1.3,1.5-1.7,2.5c-0.4,1-0.6,2-0.6,3.1
			s0.2,2.2,0.6,3.1c0.4,1,1,1.8,1.7,2.5c0.7,0.7,1.6,1.3,2.5,1.6C337.3,173,338.4,173.2,339.5,173.2z M337.3,153.5l4-3.8h3.6
			l-4.9,3.8H337.3z"/>
		<path class="st2" d="M354.8,175.5v-20.4h2.4l13.5,16.8h-1.3v-16.8h2.9v20.4H370l-13.5-16.8h1.3v16.8H354.8z"/>
		<path class="st2" d="M392.3,175.8c-1.6,0-3-0.2-4.5-0.7c-1.4-0.5-2.5-1.1-3.4-1.9l1.1-2.3c0.8,0.7,1.8,1.2,3,1.7
			c1.2,0.4,2.5,0.7,3.8,0.7c1.2,0,2.1-0.1,2.9-0.4c0.7-0.3,1.3-0.6,1.6-1.1c0.4-0.5,0.5-1,0.5-1.6c0-0.7-0.2-1.3-0.7-1.7
			c-0.5-0.4-1-0.8-1.8-1s-1.5-0.5-2.4-0.7c-0.9-0.2-1.8-0.4-2.6-0.7c-0.9-0.3-1.7-0.6-2.4-1c-0.7-0.4-1.3-1-1.8-1.6
			c-0.4-0.7-0.7-1.6-0.7-2.7c0-1,0.3-2,0.8-2.9c0.6-0.9,1.4-1.6,2.6-2.1c1.2-0.5,2.6-0.8,4.4-0.8c1.2,0,2.4,0.2,3.5,0.5
			c1.2,0.3,2.2,0.8,3,1.3l-1,2.3c-0.9-0.6-1.8-1-2.8-1.3c-1-0.3-1.9-0.4-2.8-0.4c-1.1,0-2.1,0.1-2.8,0.4c-0.7,0.3-1.3,0.7-1.6,1.2
			c-0.3,0.5-0.5,1-0.5,1.6c0,0.7,0.2,1.3,0.7,1.7c0.5,0.4,1.1,0.8,1.8,1c0.7,0.3,1.5,0.5,2.4,0.7c0.9,0.2,1.8,0.4,2.6,0.7
			c0.9,0.3,1.7,0.6,2.4,1c0.7,0.4,1.3,1,1.8,1.6c0.4,0.7,0.7,1.6,0.7,2.6c0,1-0.3,2-0.8,2.9c-0.6,0.9-1.4,1.6-2.6,2.1
			C395.6,175.5,394.1,175.8,392.3,175.8z"/>
		<path class="st2" d="M413.7,175.8c-1.6,0-3-0.3-4.3-0.8c-1.3-0.5-2.5-1.3-3.5-2.2c-1-0.9-1.7-2-2.3-3.3c-0.5-1.3-0.8-2.6-0.8-4.1
			s0.3-2.9,0.8-4.1c0.5-1.3,1.3-2.4,2.3-3.3c1-0.9,2.1-1.7,3.4-2.2c1.3-0.5,2.8-0.8,4.3-0.8c1.6,0,3,0.3,4.3,0.8
			c1.3,0.5,2.5,1.2,3.4,2.2c1,0.9,1.7,2,2.3,3.3c0.5,1.3,0.8,2.7,0.8,4.2c0,1.5-0.3,2.9-0.8,4.2c-0.5,1.3-1.3,2.4-2.3,3.3
			c-1,0.9-2.1,1.7-3.4,2.2C416.7,175.5,415.2,175.8,413.7,175.8z M413.7,173.2c1.1,0,2.2-0.2,3.1-0.6c1-0.4,1.8-0.9,2.5-1.6
			c0.7-0.7,1.3-1.5,1.7-2.5c0.4-1,0.6-2,0.6-3.1s-0.2-2.2-0.6-3.1c-0.4-1-1-1.8-1.7-2.5c-0.7-0.7-1.5-1.3-2.5-1.6
			c-1-0.4-2-0.6-3.1-0.6c-1.1,0-2.2,0.2-3.2,0.6c-1,0.4-1.8,0.9-2.5,1.6c-0.7,0.7-1.3,1.5-1.7,2.5c-0.4,1-0.6,2-0.6,3.1
			s0.2,2.2,0.6,3.1c0.4,1,1,1.8,1.7,2.5c0.7,0.7,1.6,1.3,2.5,1.6S412.5,173.2,413.7,173.2z"/>
		<path class="st2" d="M438.1,175.8c-1.6,0-3-0.3-4.3-0.8c-1.3-0.5-2.4-1.2-3.4-2.2c-1-0.9-1.7-2-2.3-3.3c-0.5-1.3-0.8-2.7-0.8-4.2
			c0-1.5,0.3-2.9,0.8-4.2c0.5-1.3,1.3-2.4,2.3-3.3c1-0.9,2.1-1.7,3.4-2.2c1.3-0.5,2.7-0.8,4.3-0.8c1.6,0,3,0.3,4.4,0.8
			c1.3,0.5,2.5,1.3,3.4,2.4l-1.9,1.8c-0.8-0.8-1.7-1.4-2.6-1.8c-1-0.4-2-0.6-3.1-0.6c-1.1,0-2.2,0.2-3.2,0.6c-1,0.4-1.8,0.9-2.6,1.6
			c-0.7,0.7-1.3,1.5-1.7,2.5c-0.4,1-0.6,2-0.6,3.1s0.2,2.2,0.6,3.1c0.4,1,1,1.8,1.7,2.5c0.7,0.7,1.6,1.2,2.6,1.6s2,0.6,3.2,0.6
			c1.1,0,2.1-0.2,3.1-0.6c1-0.4,1.8-1,2.6-1.9l1.9,1.8c-0.9,1-2.1,1.8-3.4,2.4C441.1,175.5,439.7,175.8,438.1,175.8z"/>
		<path class="st2" d="M450,175.5v-20.4h2.9v20.4H450z"/>
		<path class="st2" d="M456,175.5l9.2-20.4h2.9l9.3,20.4h-3.1l-8.3-18.8h1.2l-8.3,18.8H456z M459.9,170.4l0.8-2.3h11.5l0.8,2.3
			H459.9z"/>
		<path class="st2" d="M480.4,175.5v-20.4h2.9V173h11.1v2.5H480.4z"/>
	</g>
</g>
</svg>
