<?xml version="1.0" encoding="utf-8"?>
<!-- Generator: Adobe Illustrator 25.4.1, SVG Export Plug-In . SVG Version: 6.00 Build 0)  -->
<svg version="1.1" id="Capa_1" xmlns="http://www.w3.org/2000/svg" xmlns:xlink="http://www.w3.org/1999/xlink" x="0px" y="0px"
	 viewBox="0 0 905.9 225.9" style="enable-background:new 0 0 905.9 225.9;" xml:space="preserve">
<style type="text/css">
	.st0{fill:#A02142;}
	.st1{fill:#691B32;}
	.st2{fill:#707271;}
</style>
<g>
	<g>
		<g>
			<g>
				<path class="st0" d="M127.1,36.5v27.8l-15.8,15.8V50.4l14.5-14.5C126.3,35.4,127.1,35.8,127.1,36.5z"/>
			</g>
			<g>
				<polygon class="st0" points="108.5,53.2 108.5,82.9 92.7,98.7 92.7,69 				"/>
			</g>
		</g>
		<g>
			<g>
				<polygon class="st1" points="87.1,69 87.1,98.7 71.2,82.9 71.2,53.2 				"/>
			</g>
			<g>
				<path class="st1" d="M68.4,50.4v29.7L52.6,64.3V36.5c0-0.7,0.8-1,1.3-0.6L68.4,50.4z"/>
			</g>
		</g>
		<g>
			<g>
				<path class="st0" d="M68.4,126.9v29.7L53.9,171c-0.5,0.5-1.3,0.1-1.3-0.6v-27.8L68.4,126.9z"/>
			</g>
			<g>
				<polygon class="st0" points="87.1,108.3 87.1,137.9 71.2,153.7 71.2,124.1 				"/>
			</g>
		</g>
		<g>
			<g>
				<polygon class="st1" points="108.5,124.1 108.5,153.7 92.7,137.9 92.7,108.3 				"/>
			</g>
			<g>
				<path class="st1" d="M127.1,142.7v27.8c0,0.7-0.8,1-1.3,0.6l-14.5-14.5v-29.7L127.1,142.7z"/>
			</g>
		</g>
		<g>
			<g>
				<path class="st0" d="M156.9,140.7h-27.8l-15.8-15.8h29.7l14.5,14.5C157.9,139.9,157.6,140.7,156.9,140.7z"/>
			</g>
			<g>
				<polygon class="st0" points="140.1,122.1 110.5,122.1 94.6,106.3 124.3,106.3 				"/>
			</g>
		</g>
		<g>
			<g>
				<polygon class="st1" points="140.1,84.9 124.3,100.7 94.6,100.7 110.5,84.9 				"/>
			</g>
			<g>
				<path class="st1" d="M157.4,67.6l-14.5,14.5h-29.7l15.8-15.8h27.8C157.6,66.2,157.9,67.1,157.4,67.6z"/>
			</g>
		</g>
		<g>
			<g>
				<path class="st0" d="M66.5,82.1H36.8L22.3,67.6c-0.5-0.5-0.1-1.3,0.6-1.3h27.8L66.5,82.1z"/>
			</g>
			<g>
				<polygon class="st0" points="85.1,100.7 55.4,100.7 39.6,84.9 69.3,84.9 				"/>
			</g>
		</g>
		<g>
			<g>
				<polygon class="st1" points="85.1,106.3 69.3,122.1 39.6,122.1 55.4,106.3 				"/>
			</g>
			<g>
				<path class="st1" d="M66.5,124.9l-15.8,15.8H22.9c-0.7,0-1-0.8-0.6-1.3l14.5-14.5H66.5z"/>
			</g>
		</g>
	</g>
	<g>
		<path class="st1" d="M205.4,112.8h-22.6l-1-4.5l6.8-2.2c0.5-4.2,1.3-13.3,1.6-21.4c0.5-10.2,0.5-14.4-0.1-16.2
			c-0.8-1-3.9-2.5-6-3.3l1-4.5h24.9c2.1,7.3,7.4,21.8,11.3,31.2c3.9-10.5,9.5-24.3,11.3-31.2h23.4l1,4.6l-6.8,3l1.3,24.4
			c0.4,7.2,0.7,10.9,1.8,12.4c0.7,1.1,3.7,2.5,6,3.2l-1,4.5h-25.4l-1-4.5l7.2-2.3c0.1-4.3-1-21.9-1.3-34.6l-13.9,35.6
			c-3.5,0.4-7.1,0.4-10.5,0c-3.2-7.4-9.7-24.9-14.7-35.5l-0.4,15.9c-0.3,11.7-0.4,16.1,0.2,17.5c0.6,1.8,4.5,2.5,7.7,3.5
			L205.4,112.8z"/>
		<path class="st1" d="M264.7,88.3c0-17,11.5-28.7,28.4-28.7c15.2,0,25.7,9.9,25.7,26c0,16.7-11.4,28.4-27.7,28.4
			C275.5,113.9,264.7,104.2,264.7,88.3z M301.2,103.1c1.5-2.1,3.9-7.8,3.9-15.6c0-12.6-3.5-19.7-13.6-19.7c-3.5,0-7.2,1.2-9.2,2.7
			c-2.5,3.7-3.9,9.7-3.9,16.8c0,11.5,4.4,18.5,13.5,18.5C295.9,105.7,299.4,104.6,301.2,103.1z"/>
		<path class="st1" d="M342.6,112.8c-0.6-2.2-1.7-4.8-2.6-7.4c-4.6-13.1-10.2-28.2-14-37.9l-5.8-2.2l1-4.5h25.5l1,4.5l-7.2,2.2
			c3.1,9.1,8.3,24.6,12.9,37.1c3.5-10.6,7.8-24.7,11.3-37.1l-7.1-2.2l1-4.5h21.8l1,4.5l-6,2.4c-4.5,11.1-9.2,24.9-13.7,37.7
			l-2.4,7.4C354.9,113.2,347.3,113.2,342.6,112.8z"/>
		<path class="st1" d="M392.4,106c0.3-1.9,0.5-7,0.5-12.7V79.6c0-4.2,0-10.5-0.7-11.4c-0.7-1-4-2.2-6.5-3l1-4.5h25.4l1,4.5l-6.6,2.3
			c-0.3,1.9-0.5,7-0.5,12.7v13.6c0,4.2,0,10.5,0.7,11.4c0.7,1,4,2.2,6.5,3l-1,4.5h-25.4l-1-4.5L392.4,106z"/>
		<path class="st1" d="M427.9,106c0.3-1.9,0.5-7,0.5-12.7V79.6c0-4.2,0-10.5-0.7-11.4c-0.7-1-4-2.2-6.5-3l1-4.5h25.4l1,4.5l-6.6,2.3
			c-0.3,1.9-0.5,7-0.5,12.7v13.6c0,4.9,0,11,1,11.7c1.2,0.8,4.5,1,7.1,1c2.2,0,4.7-0.1,6.4-0.3l2.6-9.9c2.1-0.1,6.6,0.1,8.5,0.5
			c0.1,5.1,0.1,10.6,0,16h-44.8l-1-4.5L427.9,106z"/>
		<path class="st1" d="M481.2,106c0.3-1.9,0.5-7,0.5-12.7V79.6c0-4.2,0-10.5-0.7-11.4c-0.7-1-4-2.2-6.5-3l1-4.5h25.4l1,4.5l-6.6,2.3
			c-0.3,1.9-0.5,7-0.5,12.7v13.6c0,4.2,0,10.5,0.7,11.4c0.7,1,4,2.2,6.5,3l-1,4.5h-25.4l-1-4.5L481.2,106z"/>
		<path class="st1" d="M516.7,106c0.3-1.9,0.5-7,0.5-12.7V79.6c0-4.2,0-10.5-0.7-11.4c-0.7-1-4-2.2-6.5-3l1-4.5h11.5
			c2.8,0,11.1-0.5,15-0.5c21.5,0,28.8,12,28.8,26c0,18.2-12.5,27.2-26.6,27.2c-4.8,0-11.8-0.7-16.7-0.7h-12l-1-4.5L516.7,106z
			 M530.9,105.3c1,1.3,7.6,2.7,12.9,0.7c5.6-3,8.8-9.9,8.8-19.6c0-8.1-3-14.4-6-16.8c-2.5-1.6-6.1-2.3-9.9-2.3c-2.1,0-4.3,0.2-6,0.5
			c-0.3,1.9-0.5,7-0.5,12.6v13.6C530.2,98.1,530.2,104.4,530.9,105.3z"/>
		<path class="st1" d="M591.4,112.8h-22l-1-4.5l5.7-2.3c4.6-11.2,9.7-24.9,14.3-37.8l2.1-7.4c4.7-0.4,12.2-0.7,16.5-0.7
			c0.6,2.3,1.6,5.2,2.7,8.2c4.6,13.1,10.2,28.2,14,37.9l5.8,2.2l-1,4.5h-25.3l-1-4.5l7.1-2.2c-0.9-2.6-1.9-5.7-3.1-9.2l-18.6,0.4
			c-0.9,2.9-1.7,5.9-2.5,8.7l7.2,2.2L591.4,112.8z M604,90.3c-2.4-7-5.1-14.7-7.5-21.4c-2.1,6.2-4.4,13.6-6.6,21.1L604,90.3z"/>
		<path class="st1" d="M639.2,106c0.3-1.9,0.5-7,0.5-12.7V79.6c0-4.2,0-10.5-0.7-11.4c-0.7-1-4-2.2-6.5-3l1-4.5H645
			c2.8,0,11.1-0.5,15-0.5c21.5,0,28.8,12,28.8,26c0,18.2-12.5,27.2-26.6,27.2c-4.8,0-11.8-0.7-16.7-0.7h-12l-1-4.5L639.2,106z
			 M653.4,105.3c1,1.3,7.6,2.7,12.9,0.7c5.6-3,8.8-9.9,8.8-19.6c0-8.1-3-14.4-6-16.8c-2.5-1.6-6.1-2.3-9.9-2.3c-2.1,0-4.3,0.2-6,0.5
			c-0.3,1.9-0.5,7-0.5,12.6v13.6C652.7,98.1,652.7,104.4,653.4,105.3z"/>
	</g>
	<g>
		<path class="st2" d="M189,153.7c-1.6,0-3-0.2-4.5-0.7c-1.4-0.5-2.5-1.1-3.3-1.8l1.1-2.3c0.8,0.7,1.8,1.2,3,1.7
			c1.2,0.4,2.5,0.7,3.8,0.7c1.2,0,2.1-0.1,2.9-0.4c0.7-0.3,1.3-0.6,1.6-1.1c0.3-0.5,0.5-1,0.5-1.6c0-0.7-0.2-1.3-0.7-1.7
			c-0.5-0.4-1-0.8-1.8-1c-0.7-0.3-1.5-0.5-2.4-0.7c-0.9-0.2-1.8-0.4-2.6-0.7s-1.7-0.6-2.4-1c-0.7-0.4-1.3-1-1.8-1.6
			c-0.4-0.7-0.7-1.6-0.7-2.7c0-1.1,0.3-2,0.8-2.9c0.6-0.9,1.4-1.6,2.6-2.1c1.2-0.5,2.6-0.8,4.4-0.8c1.2,0,2.4,0.2,3.5,0.5
			c1.2,0.3,2.2,0.8,3,1.3l-1,2.3c-0.9-0.6-1.8-1-2.8-1.3c-1-0.3-1.9-0.4-2.8-0.4c-1.1,0-2.1,0.1-2.8,0.4c-0.7,0.3-1.3,0.7-1.6,1.2
			c-0.3,0.5-0.5,1-0.5,1.6c0,0.7,0.2,1.3,0.7,1.7c0.5,0.4,1,0.8,1.8,1c0.7,0.3,1.5,0.5,2.4,0.7c0.9,0.2,1.8,0.4,2.6,0.7
			c0.9,0.3,1.7,0.6,2.4,1c0.7,0.4,1.3,1,1.8,1.6c0.4,0.7,0.7,1.6,0.7,2.6c0,1-0.3,2-0.8,2.9c-0.6,0.9-1.4,1.6-2.6,2.1
			C192.3,153.4,190.8,153.7,189,153.7z"/>
		<path class="st2" d="M204.1,150.9H216v2.5h-14.8v-20.4h14.4v2.5h-11.5V150.9z M203.8,141.9h10.5v2.5h-10.5V141.9z"/>
		<path class="st2" d="M229.8,153.7c-1.6,0-3-0.3-4.3-0.8c-1.3-0.5-2.4-1.2-3.4-2.2c-1-0.9-1.7-2-2.3-3.3c-0.5-1.3-0.8-2.6-0.8-4.2
			c0-1.5,0.3-2.9,0.8-4.2c0.5-1.3,1.3-2.4,2.3-3.3c1-0.9,2.1-1.7,3.4-2.2c1.3-0.5,2.7-0.8,4.3-0.8c1.6,0,3,0.3,4.4,0.8
			s2.5,1.3,3.4,2.4l-1.9,1.8c-0.8-0.8-1.6-1.4-2.6-1.8c-1-0.4-2-0.6-3.1-0.6c-1.1,0-2.2,0.2-3.2,0.6s-1.8,0.9-2.5,1.6
			c-0.7,0.7-1.3,1.5-1.7,2.5c-0.4,1-0.6,2-0.6,3.1s0.2,2.2,0.6,3.1c0.4,1,1,1.8,1.7,2.5c0.7,0.7,1.6,1.2,2.5,1.6
			c1,0.4,2,0.6,3.2,0.6c1.1,0,2.1-0.2,3.1-0.6c1-0.4,1.8-1,2.6-1.8l1.9,1.8c-0.9,1-2.1,1.8-3.4,2.4S231.4,153.7,229.8,153.7z"/>
		<path class="st2" d="M241.7,153.5v-20.4h8c1.8,0,3.3,0.3,4.6,0.8c1.3,0.6,2.2,1.4,2.9,2.4c0.7,1.1,1,2.3,1,3.8
			c0,1.5-0.3,2.7-1,3.8c-0.7,1.1-1.6,1.9-2.9,2.4c-1.3,0.6-2.8,0.8-4.6,0.8h-6.3l1.3-1.3v7.5H241.7z M244.6,146.2l-1.3-1.4h6.3
			c1.9,0,3.3-0.4,4.2-1.2c1-0.8,1.4-1.9,1.4-3.4c0-1.5-0.5-2.6-1.4-3.4c-1-0.8-2.4-1.2-4.2-1.2h-6.3l1.3-1.5V146.2z M255.4,153.5
			l-5.2-7.4h3.1l5.2,7.4H255.4z"/>
		<path class="st2" d="M265.8,150.9h11.9v2.5h-14.8v-20.4h14.4v2.5h-11.5V150.9z M265.5,141.9H276v2.5h-10.5V141.9z"/>
		<path class="st2" d="M286.5,153.5v-17.8h-7v-2.5h16.9v2.5h-7v17.8H286.5z"/>
		<path class="st2" d="M295.4,153.5l9.2-20.4h2.9l9.3,20.4h-3.1l-8.2-18.8h1.2l-8.2,18.8H295.4z M299.3,148.4l0.8-2.3h11.5l0.8,2.3
			H299.3z"/>
		<path class="st2" d="M319.8,153.5v-20.4h7.9c1.8,0,3.3,0.3,4.6,0.8c1.3,0.6,2.2,1.4,2.9,2.4c0.7,1.1,1,2.3,1,3.8
			c0,1.5-0.3,2.7-1,3.8c-0.7,1.1-1.7,1.9-2.9,2.4c-1.3,0.6-2.8,0.8-4.6,0.8h-6.3l1.3-1.3v7.5H319.8z M322.7,146.2l-1.3-1.4h6.3
			c1.9,0,3.3-0.4,4.2-1.2c1-0.8,1.4-1.9,1.4-3.4c0-1.5-0.5-2.6-1.4-3.4s-2.4-1.2-4.2-1.2h-6.3l1.3-1.5V146.2z M333.4,153.5l-5.2-7.4
			h3.1l5.2,7.4H333.4z"/>
		<path class="st2" d="M340.2,131.4l4-3.8h3.6l-4.9,3.8H340.2z M341,153.5v-20.4h2.9v20.4H341z"/>
		<path class="st2" d="M346.9,153.5l9.2-20.4h2.9l9.3,20.4h-3.1l-8.2-18.8h1.2l-8.2,18.8H346.9z M350.8,148.4l0.8-2.3h11.5l0.8,2.3
			H350.8z"/>
		<path class="st2" d="M379.1,153.5v-20.4h8.6c2.2,0,4.1,0.4,5.8,1.3c1.7,0.9,2.9,2,3.9,3.6c0.9,1.5,1.4,3.3,1.4,5.3
			c0,2-0.5,3.8-1.4,5.3c-0.9,1.5-2.2,2.7-3.9,3.6c-1.7,0.9-3.6,1.3-5.8,1.3H379.1z M382,150.9h5.5c1.7,0,3.1-0.3,4.4-1
			c1.2-0.6,2.2-1.5,2.9-2.7c0.7-1.2,1-2.5,1-4c0-1.5-0.3-2.9-1-4s-1.6-2-2.9-2.7c-1.2-0.6-2.7-1-4.4-1H382V150.9z"/>
		<path class="st2" d="M406.1,150.9H418v2.5h-14.8v-20.4h14.4v2.5h-11.5V150.9z M405.8,141.9h10.5v2.5h-10.5V141.9z"/>
		<path class="st2" d="M430.5,153.5v-20.4h2.4l9.1,15.4h-1.3l9-15.4h2.4l0,20.4h-2.8l0-16h0.7l-8,13.5h-1.3l-8.1-13.5h0.7v16H430.5z
			"/>
		<path class="st2" d="M467.5,153.7c-1.6,0-3-0.3-4.3-0.8c-1.3-0.5-2.5-1.3-3.5-2.2c-1-0.9-1.7-2-2.3-3.3c-0.5-1.3-0.8-2.6-0.8-4.1
			s0.3-2.9,0.8-4.1c0.5-1.3,1.3-2.4,2.3-3.3c1-0.9,2.1-1.7,3.4-2.2c1.3-0.5,2.8-0.8,4.3-0.8c1.6,0,3,0.3,4.3,0.8
			c1.3,0.5,2.5,1.2,3.4,2.2c1,0.9,1.7,2,2.3,3.3c0.5,1.3,0.8,2.7,0.8,4.2c0,1.5-0.3,2.9-0.8,4.2c-0.5,1.3-1.3,2.4-2.3,3.3
			c-1,0.9-2.1,1.7-3.4,2.2C470.5,153.5,469.1,153.7,467.5,153.7z M467.5,151.1c1.1,0,2.2-0.2,3.1-0.6c1-0.4,1.8-0.9,2.5-1.6
			c0.7-0.7,1.3-1.5,1.7-2.5c0.4-1,0.6-2,0.6-3.1s-0.2-2.2-0.6-3.1c-0.4-1-1-1.8-1.7-2.5c-0.7-0.7-1.5-1.3-2.5-1.6
			c-1-0.4-2-0.6-3.1-0.6c-1.1,0-2.2,0.2-3.2,0.6c-1,0.4-1.8,0.9-2.5,1.6c-0.7,0.7-1.3,1.5-1.7,2.5c-0.4,1-0.6,2-0.6,3.1
			s0.2,2.2,0.6,3.1c0.4,1,1,1.8,1.7,2.5c0.7,0.7,1.6,1.3,2.5,1.6C465.3,150.9,466.4,151.1,467.5,151.1z"/>
		<path class="st2" d="M488,153.5l-9-20.4h3.1l8.2,18.8h-1.8l8.3-18.8h2.9l-8.9,20.4H488z"/>
		<path class="st2" d="M502.5,153.5v-20.4h2.9v20.4H502.5z"/>
		<path class="st2" d="M511.5,153.5v-20.4h2.9v17.8h11v2.5H511.5z"/>
		<path class="st2" d="M528.8,153.5v-20.4h2.9v20.4H528.8z"/>
		<path class="st2" d="M537.8,153.5v-20.4h8.6c2.2,0,4.1,0.4,5.8,1.3c1.7,0.9,2.9,2,3.9,3.6c0.9,1.5,1.4,3.3,1.4,5.3
			c0,2-0.5,3.8-1.4,5.3c-0.9,1.5-2.2,2.7-3.9,3.6c-1.7,0.9-3.6,1.3-5.8,1.3H537.8z M540.7,150.9h5.5c1.7,0,3.1-0.3,4.4-1
			c1.2-0.6,2.2-1.5,2.9-2.7c0.7-1.2,1-2.5,1-4c0-1.5-0.3-2.9-1-4c-0.7-1.1-1.6-2-2.9-2.7c-1.2-0.6-2.7-1-4.4-1h-5.5V150.9z"/>
		<path class="st2" d="M558.5,153.5l9.2-20.4h2.9l9.3,20.4h-3.1l-8.2-18.8h1.2l-8.2,18.8H558.5z M562.4,148.4l0.8-2.3h11.5l0.8,2.3
			H562.4z"/>
		<path class="st2" d="M582.9,153.5v-20.4h8.6c2.2,0,4.1,0.4,5.8,1.3c1.7,0.9,3,2,3.9,3.6c0.9,1.5,1.4,3.3,1.4,5.3
			c0,2-0.5,3.8-1.4,5.3c-0.9,1.5-2.2,2.7-3.9,3.6c-1.7,0.9-3.6,1.3-5.8,1.3H582.9z M585.8,150.9h5.5c1.7,0,3.1-0.3,4.4-1
			c1.2-0.6,2.2-1.5,2.9-2.7c0.7-1.2,1-2.5,1-4c0-1.5-0.3-2.9-1-4c-0.7-1.1-1.6-2-2.9-2.7c-1.2-0.6-2.7-1-4.4-1h-5.5V150.9z"/>
		<path class="st2" d="M619.7,153.5v-7.8l0.7,1.8l-8.8-14.4h3.1l7.4,12.1h-1.7l7.4-12.1h2.9l-8.7,14.4l0.6-1.8v7.8H619.7z"/>
		<path class="st2" d="M645.5,153.5v-17.8h-7v-2.5h16.9v2.5h-7v17.8H645.5z"/>
		<path class="st2" d="M658.5,153.5v-20.4h8c1.8,0,3.3,0.3,4.6,0.8c1.3,0.6,2.2,1.4,2.9,2.4c0.7,1.1,1,2.3,1,3.8
			c0,1.5-0.3,2.7-1,3.8s-1.7,1.9-2.9,2.4c-1.3,0.6-2.8,0.8-4.6,0.8h-6.3l1.3-1.3v7.5H658.5z M661.4,146.2l-1.3-1.4h6.3
			c1.9,0,3.3-0.4,4.2-1.2c1-0.8,1.4-1.9,1.4-3.4c0-1.5-0.5-2.6-1.4-3.4c-1-0.8-2.4-1.2-4.2-1.2h-6.3l1.3-1.5V146.2z M672.2,153.5
			l-5.2-7.4h3.1l5.2,7.4H672.2z"/>
		<path class="st2" d="M676.6,153.5l9.2-20.4h2.9l9.3,20.4h-3.1l-8.2-18.8h1.2l-8.2,18.8H676.6z M680.6,148.4l0.8-2.3h11.5l0.8,2.3
			H680.6z"/>
		<path class="st2" d="M701,153.5v-20.4h2.4l13.5,16.7h-1.3v-16.7h2.9v20.4h-2.4l-13.5-16.7h1.3v16.7H701z"/>
		<path class="st2" d="M730.6,153.7c-1.6,0-3-0.2-4.5-0.7c-1.4-0.5-2.5-1.1-3.3-1.8l1.1-2.3c0.8,0.7,1.8,1.2,3,1.7
			c1.2,0.4,2.5,0.7,3.8,0.7c1.2,0,2.1-0.1,2.9-0.4c0.7-0.3,1.3-0.6,1.6-1.1c0.3-0.5,0.5-1,0.5-1.6c0-0.7-0.2-1.3-0.7-1.7
			c-0.5-0.4-1-0.8-1.8-1c-0.7-0.3-1.5-0.5-2.4-0.7c-0.9-0.2-1.8-0.4-2.6-0.7c-0.9-0.3-1.7-0.6-2.4-1c-0.7-0.4-1.3-1-1.8-1.6
			c-0.4-0.7-0.7-1.6-0.7-2.7c0-1.1,0.3-2,0.8-2.9c0.6-0.9,1.4-1.6,2.6-2.1s2.6-0.8,4.4-0.8c1.2,0,2.4,0.2,3.5,0.5
			c1.2,0.3,2.2,0.8,3,1.3l-1,2.3c-0.9-0.6-1.8-1-2.8-1.3c-1-0.3-1.9-0.4-2.8-0.4c-1.1,0-2.1,0.1-2.8,0.4c-0.7,0.3-1.3,0.7-1.6,1.2
			c-0.3,0.5-0.5,1-0.5,1.6c0,0.7,0.2,1.3,0.7,1.7c0.5,0.4,1,0.8,1.8,1c0.7,0.3,1.5,0.5,2.4,0.7c0.9,0.2,1.8,0.4,2.6,0.7
			c0.9,0.3,1.7,0.6,2.4,1c0.7,0.4,1.3,1,1.8,1.6c0.4,0.7,0.7,1.6,0.7,2.6c0,1-0.3,2-0.8,2.9c-0.6,0.9-1.4,1.6-2.6,2.1
			C733.9,153.4,732.4,153.7,730.6,153.7z"/>
		<path class="st2" d="M742.8,153.5v-20.4h7.9c1.8,0,3.3,0.3,4.6,0.8c1.3,0.6,2.2,1.4,2.9,2.4c0.7,1.1,1,2.3,1,3.8
			c0,1.5-0.3,2.7-1,3.8c-0.7,1.1-1.7,1.9-2.9,2.4c-1.3,0.6-2.8,0.9-4.6,0.9h-6.3l1.3-1.4v7.5H742.8z M745.7,146.2l-1.3-1.5h6.3
			c1.9,0,3.3-0.4,4.2-1.2c1-0.8,1.4-1.9,1.4-3.4c0-1.5-0.5-2.6-1.4-3.4c-1-0.8-2.4-1.2-4.2-1.2h-6.3l1.3-1.5V146.2z"/>
		<path class="st2" d="M773,153.7c-1.6,0-3-0.3-4.3-0.8c-1.3-0.5-2.5-1.3-3.5-2.2c-1-0.9-1.7-2-2.3-3.3c-0.5-1.3-0.8-2.6-0.8-4.1
			s0.3-2.9,0.8-4.1c0.5-1.3,1.3-2.4,2.3-3.3c1-0.9,2.1-1.7,3.4-2.2c1.3-0.5,2.8-0.8,4.3-0.8c1.6,0,3,0.3,4.3,0.8
			c1.3,0.5,2.5,1.2,3.4,2.2c1,0.9,1.7,2,2.3,3.3c0.5,1.3,0.8,2.7,0.8,4.2c0,1.5-0.3,2.9-0.8,4.2c-0.5,1.3-1.3,2.4-2.3,3.3
			c-1,0.9-2.1,1.7-3.4,2.2C776,153.5,774.5,153.7,773,153.7z M773,151.1c1.1,0,2.2-0.2,3.1-0.6c1-0.4,1.8-0.9,2.5-1.6
			c0.7-0.7,1.3-1.5,1.7-2.5c0.4-1,0.6-2,0.6-3.1s-0.2-2.2-0.6-3.1c-0.4-1-1-1.8-1.7-2.5c-0.7-0.7-1.5-1.3-2.5-1.6
			c-1-0.4-2-0.6-3.1-0.6c-1.1,0-2.2,0.2-3.2,0.6s-1.8,0.9-2.5,1.6c-0.7,0.7-1.3,1.5-1.7,2.5c-0.4,1-0.6,2-0.6,3.1s0.2,2.2,0.6,3.1
			c0.4,1,1,1.8,1.7,2.5c0.7,0.7,1.6,1.3,2.5,1.6C770.8,150.9,771.8,151.1,773,151.1z"/>
		<path class="st2" d="M788.2,153.5v-20.4h8c1.8,0,3.3,0.3,4.6,0.8c1.3,0.6,2.2,1.4,2.9,2.4c0.7,1.1,1,2.3,1,3.8
			c0,1.5-0.3,2.7-1,3.8c-0.7,1.1-1.6,1.9-2.9,2.4c-1.3,0.6-2.8,0.8-4.6,0.8h-6.3l1.3-1.3v7.5H788.2z M791.1,146.2l-1.3-1.4h6.3
			c1.9,0,3.3-0.4,4.2-1.2c1-0.8,1.4-1.9,1.4-3.4c0-1.5-0.5-2.6-1.4-3.4c-1-0.8-2.4-1.2-4.2-1.2h-6.3l1.3-1.5V146.2z M801.9,153.5
			l-5.2-7.4h3.1l5.2,7.4H801.9z"/>
		<path class="st2" d="M813.2,153.5v-17.8h-7v-2.5H823v2.5h-7v17.8H813.2z"/>
		<path class="st2" d="M829.1,150.9H841v2.5h-14.8v-20.4h14.4v2.5h-11.5V150.9z M828.9,141.9h10.5v2.5h-10.5V141.9z"/>
	</g>
</g>
</svg>
