<?xml version="1.0" encoding="utf-8"?>
<!-- Generator: Adobe Illustrator 25.4.1, SVG Export Plug-In . SVG Version: 6.00 Build 0)  -->
<svg version="1.1" id="Capa_1" xmlns="http://www.w3.org/2000/svg" xmlns:xlink="http://www.w3.org/1999/xlink" x="0px" y="0px"
	 viewBox="0 0 905.9 225.9" style="enable-background:new 0 0 905.9 225.9;" xml:space="preserve">
<style type="text/css">
	.st0{fill:#A02142;}
	.st1{fill:#691B32;}
	.st2{fill:#707271;}
</style>
<g>
	<g>
		<g>
			<path class="st0" d="M129.5,34.4V63l-16.3,16.3V48.7l14.9-14.9C128.7,33.3,129.5,33.7,129.5,34.4z"/>
		</g>
		<g>
			<polygon class="st0" points="110.4,51.6 110.4,82.1 94.1,98.4 94.1,67.9 			"/>
		</g>
	</g>
	<g>
		<g>
			<polygon class="st1" points="88.3,67.9 88.3,98.4 72,82.1 72,51.6 			"/>
		</g>
		<g>
			<path class="st1" d="M69.2,48.7v30.5L52.9,63V34.4c0-0.7,0.9-1.1,1.4-0.6L69.2,48.7z"/>
		</g>
	</g>
	<g>
		<g>
			<path class="st0" d="M69.2,127.4v30.5l-14.9,14.9c-0.5,0.5-1.4,0.1-1.4-0.6v-28.6L69.2,127.4z"/>
		</g>
		<g>
			<polygon class="st0" points="88.3,108.2 88.3,138.8 72,155 72,124.5 			"/>
		</g>
	</g>
	<g>
		<g>
			<polygon class="st1" points="110.4,124.5 110.4,155 94.1,138.8 94.1,108.2 			"/>
		</g>
		<g>
			<path class="st1" d="M129.5,143.7v28.6c0,0.7-0.9,1.1-1.4,0.6l-14.9-14.9v-30.5L129.5,143.7z"/>
		</g>
	</g>
	<g>
		<g>
			<path class="st0" d="M160.1,141.6h-28.6l-16.3-16.3h30.5l14.9,14.9C161.2,140.8,160.9,141.6,160.1,141.6z"/>
		</g>
		<g>
			<polygon class="st0" points="142.9,122.5 112.4,122.5 96.1,106.2 126.6,106.2 			"/>
		</g>
	</g>
	<g>
		<g>
			<polygon class="st1" points="142.9,84.2 126.6,100.5 96.1,100.5 112.4,84.2 			"/>
		</g>
		<g>
			<path class="st1" d="M160.7,66.4l-14.9,14.9h-30.5L131.6,65h28.6C160.9,65,161.2,65.9,160.7,66.4z"/>
		</g>
	</g>
	<g>
		<g>
			<path class="st0" d="M67.1,81.3H36.6L21.7,66.4c-0.5-0.5-0.1-1.4,0.6-1.4h28.6L67.1,81.3z"/>
		</g>
		<g>
			<polygon class="st0" points="86.3,100.5 55.8,100.5 39.5,84.2 70,84.2 			"/>
		</g>
	</g>
	<g>
		<g>
			<polygon class="st1" points="86.3,106.2 70,122.5 39.5,122.5 55.8,106.2 			"/>
		</g>
		<g>
			<path class="st1" d="M67.1,125.4l-16.3,16.3H22.3c-0.7,0-1.1-0.9-0.6-1.4l14.9-14.9H67.1z"/>
		</g>
	</g>
</g>
<g>
	<path class="st1" d="M226.2,103.9c0.5-1.5,1.7-5.2,2.9-9.6c1.9-0.1,7,0.2,9,0.4c0.2,3.3,0.3,8.5,0.3,11.5l-1.1,2.4
		c-4.6,3-12,5.4-20.4,5.4c-17.2,0-27.9-10.3-27.9-27c0-17.3,13-28.9,29.2-28.9c7.7,0,14.3,2.1,19.8,4.7l1.3,2.3
		c-0.8,4.1-2.1,10-3,13.9c-1.8,0.1-6.4-0.1-8.4-0.4c-0.8-4.4-1.9-8.7-2.5-10.6c-1.5-0.9-4.6-1.6-7.7-1.6c-3.7,0-7,0.8-8.7,1.8
		c-3.4,4.1-5.5,10-5.5,17.8c0,11.7,5.3,19.2,15.2,19.2C222.3,105.3,224.8,104.7,226.2,103.9z"/>
	<path class="st1" d="M275.1,114c-16.5,0-23.9-9-23.9-26.6v-8.1c0-4.1,0-11-0.9-12.2c-0.8-1.1-4.1-2.4-6.4-3.2l1-4.7h26.7l1,4.7
		l-7,2.4c-0.3,2-0.6,7.2-0.6,13v8.8c0,10.6,2.9,17.2,12.9,17.2c4.4,0,8.1-1.5,10-3.1c1.8-5.8,1.7-14.1,1.7-20.4
		c0-6.5-0.1-13.7-0.6-15c-0.9-0.8-4.9-2.1-7.6-2.9l1-4.7h23.2l1,4.7l-7.2,2.5c-0.3,4.9-0.5,11.6-0.5,23.7
		C299,105.9,289.8,114,275.1,114z"/>
	<path class="st1" d="M318.9,105.8c0.3-2,0.5-7.2,0.5-13.1v-14c0-4.3,0-10.8-0.7-11.7c-0.8-1-4.1-2.2-6.7-3.1l1-4.7h26.1l1,4.7
		l-6.8,2.4c-0.3,2-0.5,7.2-0.5,13.1v14c0,5.1,0,11.3,1,12c1.2,0.8,4.7,1,7.4,1c2.3,0,4.8-0.1,6.6-0.3l2.7-10.2
		c2.1-0.1,6.8,0.1,8.7,0.5c0.2,5.3,0.2,10.9,0,16.5H313l-1-4.7L318.9,105.8z"/>
	<path class="st1" d="M377.5,105.8c0.3-2,0.5-7.2,0.5-13.1V65.4h-0.8c-2.5,0-5.1,0.2-7.1,0.4l-2.7,10.3c-2.2,0.2-7,0-8.9-0.4
		c-0.2-5.2-0.2-11,0-16.5h27.7c9.3,0,16.8-0.2,22.7-0.5c0.8,1,1.8,2.5,2.4,3.5c-0.2,4.4-0.8,9.6-1.3,13.6c-1.8,0.3-6.5,0.2-8.3-0.1
		l-2.5-9.9c-2.1-0.3-4.7-0.4-7.2-0.4h-0.8v28c0,4.3,0,10.8,0.7,11.7c0.8,1,4.1,2.2,6.7,3.1l-1,4.7h-26.1l-1-4.7L377.5,105.8z"/>
	<path class="st1" d="M445.7,114c-16.5,0-23.9-9-23.9-26.6v-8.1c0-4.1,0-11-0.9-12.2c-0.8-1.1-4.1-2.4-6.4-3.2l1-4.7h26.7l1,4.7
		l-7,2.4c-0.3,2-0.6,7.2-0.6,13v8.8c0,10.6,2.9,17.2,12.9,17.2c4.4,0,8.1-1.5,10-3.1c1.8-5.8,1.7-14.1,1.7-20.4
		c0-6.5-0.1-13.7-0.6-15c-0.9-0.8-4.9-2.1-7.6-2.9l1-4.7h23.2l1,4.7l-7.2,2.5c-0.3,4.9-0.5,11.6-0.5,23.7
		C469.6,105.9,460.4,114,445.7,114z"/>
	<path class="st1" d="M489.4,105.8c0.3-2,0.5-7.2,0.5-13.1v-14c0-4.3,0-10.8-0.7-11.7c-0.8-1-4.1-2.2-6.7-3.1l1-4.7h12.8
		c2.8,0,11.6-0.5,15.7-0.5c13.8,0,22.2,4.8,22.2,14.9c0,6.7-5.1,11-10.1,13.5c3.7,7.3,7.7,14.6,10.3,18.4l5.1,2.7l-1,4.7
		c-5.2,0-9.7,0.1-15.8,0.3c-2.5-6.1-6.1-13.5-10.4-21.7h-9v2c0,4.3,0,10.8,0.7,11.7c0.8,1,4.1,2.2,6.7,3.1l-1,4.7h-26.1l-1-4.7
		L489.4,105.8z M503.4,83.7l12.5,0.5c2.3-1.8,4.4-5.1,4.4-9.9c0-3.1-0.8-5.4-2-7c-1.6-1.2-4.7-1.9-8.2-1.9c-2,0-4.4,0.3-6.1,0.8
		c-0.3,2-0.5,7.2-0.5,13.1V83.7z"/>
	<path class="st1" d="M564.4,112.8h-22.6l-1-4.7l5.9-2.4c4.7-11.5,10-25.6,14.7-38.9l2.1-7.7c4.8-0.4,12.6-0.8,17-0.8
		c0.6,2.4,1.7,5.4,2.8,8.4c4.7,13.5,10.5,29,14.4,39l6,2.3l-1,4.7h-26l-1-4.7l7.3-2.3c-0.9-2.7-2-5.9-3.1-9.4l-19.1,0.5
		c-0.9,3-1.8,6-2.6,9l7.4,2.3L564.4,112.8z M577.4,89.7c-2.5-7.2-5.2-15.1-7.7-22.1c-2.1,6.4-4.5,14-6.8,21.7L577.4,89.7z"/>
</g>
<g>
	<path class="st2" d="M194.9,155.1c-1.6,0-3.1-0.2-4.6-0.7c-1.5-0.5-2.6-1.1-3.4-1.9l1.1-2.3c0.8,0.7,1.8,1.3,3.1,1.7
		c1.2,0.5,2.5,0.7,3.9,0.7c1.2,0,2.2-0.1,3-0.4c0.8-0.3,1.3-0.7,1.7-1.2c0.4-0.5,0.5-1,0.5-1.7c0-0.7-0.2-1.3-0.7-1.7
		c-0.5-0.4-1.1-0.8-1.8-1.1c-0.8-0.3-1.6-0.5-2.5-0.7c-0.9-0.2-1.8-0.4-2.7-0.7c-0.9-0.3-1.7-0.6-2.5-1c-0.8-0.4-1.4-1-1.8-1.7
		c-0.5-0.7-0.7-1.6-0.7-2.7c0-1.1,0.3-2.1,0.9-3c0.6-0.9,1.4-1.6,2.6-2.2c1.2-0.6,2.7-0.8,4.5-0.8c1.2,0,2.4,0.2,3.6,0.5
		c1.2,0.3,2.2,0.8,3.1,1.4l-1,2.4c-0.9-0.6-1.8-1-2.8-1.3c-1-0.3-2-0.4-2.9-0.4c-1.2,0-2.1,0.1-2.9,0.4c-0.8,0.3-1.3,0.7-1.7,1.2
		c-0.4,0.5-0.5,1.1-0.5,1.7c0,0.7,0.2,1.3,0.7,1.8c0.5,0.4,1.1,0.8,1.8,1c0.8,0.3,1.6,0.5,2.5,0.7c0.9,0.2,1.8,0.4,2.7,0.7
		c0.9,0.3,1.7,0.6,2.5,1c0.7,0.4,1.4,1,1.8,1.7c0.5,0.7,0.7,1.6,0.7,2.7c0,1.1-0.3,2-0.9,2.9c-0.6,0.9-1.5,1.6-2.7,2.2
		C198.2,154.8,196.7,155.1,194.9,155.1z"/>
	<path class="st2" d="M210.4,152.3h12.2v2.6h-15.2v-21h14.8v2.6h-11.8V152.3z M210.1,142.9h10.8v2.5h-10.8V142.9z"/>
	<path class="st2" d="M236.8,155.1c-1.6,0-3.1-0.3-4.4-0.8s-2.5-1.3-3.5-2.2c-1-1-1.8-2.1-2.3-3.4c-0.6-1.3-0.8-2.7-0.8-4.3
		c0-1.6,0.3-3,0.8-4.3c0.6-1.3,1.3-2.4,2.3-3.4c1-1,2.2-1.7,3.5-2.2c1.3-0.5,2.8-0.8,4.4-0.8c1.6,0,3.1,0.3,4.5,0.8
		c1.4,0.5,2.5,1.4,3.5,2.4l-1.9,1.9c-0.8-0.8-1.7-1.5-2.7-1.9c-1-0.4-2.1-0.6-3.2-0.6c-1.2,0-2.3,0.2-3.3,0.6s-1.9,1-2.6,1.7
		c-0.7,0.7-1.3,1.6-1.7,2.6c-0.4,1-0.6,2.1-0.6,3.2c0,1.2,0.2,2.2,0.6,3.2c0.4,1,1,1.8,1.7,2.6c0.7,0.7,1.6,1.3,2.6,1.7
		s2.1,0.6,3.3,0.6c1.1,0,2.2-0.2,3.2-0.6c1-0.4,1.9-1,2.7-1.9l1.9,1.9c-1,1.1-2.1,1.9-3.5,2.5C239.9,154.8,238.4,155.1,236.8,155.1z
		"/>
	<path class="st2" d="M249.1,154.9v-21h8.2c1.8,0,3.4,0.3,4.7,0.9s2.3,1.4,3,2.5s1,2.4,1,3.9c0,1.5-0.4,2.8-1,3.9
		c-0.7,1.1-1.7,1.9-3,2.5c-1.3,0.6-2.9,0.9-4.7,0.9h-6.5l1.3-1.4v7.8H249.1z M252.1,147.4l-1.3-1.5h6.4c1.9,0,3.4-0.4,4.4-1.2
		c1-0.8,1.5-2,1.5-3.5c0-1.5-0.5-2.7-1.5-3.5c-1-0.8-2.4-1.2-4.4-1.2h-6.4l1.3-1.5V147.4z M263.1,154.9l-5.3-7.6h3.2l5.4,7.6H263.1z
		"/>
	<path class="st2" d="M273.9,152.3h12.2v2.6h-15.2v-21h14.8v2.6h-11.8V152.3z M273.6,142.9h10.8v2.5h-10.8V142.9z"/>
	<path class="st2" d="M295.1,154.9v-18.4h-7.2v-2.6h17.3v2.6h-7.2v18.4H295.1z"/>
	<path class="st2" d="M304.3,154.9l9.5-21h3l9.5,21h-3.1l-8.5-19.3h1.2l-8.5,19.3H304.3z M308.3,149.6l0.8-2.4H321l0.9,2.4H308.3z"
		/>
	<path class="st2" d="M329.4,154.9v-21h8.2c1.8,0,3.4,0.3,4.7,0.9c1.3,0.6,2.3,1.4,3,2.5s1,2.4,1,3.9c0,1.5-0.3,2.8-1,3.9
		c-0.7,1.1-1.7,1.9-3,2.5c-1.3,0.6-2.9,0.9-4.7,0.9h-6.5l1.3-1.4v7.8H329.4z M332.4,147.4l-1.3-1.5h6.4c1.9,0,3.4-0.4,4.4-1.2
		c1-0.8,1.5-2,1.5-3.5c0-1.5-0.5-2.7-1.5-3.5c-1-0.8-2.4-1.2-4.4-1.2h-6.4l1.3-1.5V147.4z M343.4,154.9l-5.3-7.6h3.2l5.4,7.6H343.4z
		"/>
	<path class="st2" d="M350.4,132.2l4.1-3.9h3.7l-5,3.9H350.4z M351.2,154.9v-21h3v21H351.2z"/>
	<path class="st2" d="M357.3,154.9l9.5-21h3l9.5,21h-3.1l-8.5-19.3h1.2l-8.5,19.3H357.3z M361.3,149.6l0.8-2.4H374l0.9,2.4H361.3z"
		/>
	<path class="st2" d="M390.5,154.9v-21h8.8c2.2,0,4.2,0.4,5.9,1.3c1.7,0.9,3,2.1,4,3.7c0.9,1.6,1.4,3.4,1.4,5.5s-0.5,3.9-1.4,5.5
		c-0.9,1.6-2.3,2.8-4,3.7c-1.7,0.9-3.7,1.3-5.9,1.3H390.5z M393.5,152.3h5.7c1.7,0,3.2-0.3,4.5-1c1.3-0.7,2.3-1.6,2.9-2.8
		c0.7-1.2,1-2.6,1-4.1c0-1.6-0.3-3-1-4.1c-0.7-1.2-1.7-2.1-2.9-2.8c-1.3-0.7-2.8-1-4.5-1h-5.7V152.3z"/>
	<path class="st2" d="M418.2,152.3h12.2v2.6h-15.2v-21H430v2.6h-11.8V152.3z M417.9,142.9h10.8v2.5h-10.8V142.9z"/>
	<path class="st2" d="M452.7,155.1c-1.6,0-3.1-0.3-4.4-0.8s-2.5-1.3-3.5-2.2c-1-1-1.8-2.1-2.3-3.4c-0.6-1.3-0.8-2.7-0.8-4.3
		c0-1.6,0.3-3,0.8-4.3c0.6-1.3,1.3-2.4,2.3-3.4c1-1,2.2-1.7,3.5-2.2c1.3-0.5,2.8-0.8,4.4-0.8c1.6,0,3.1,0.3,4.5,0.8
		c1.4,0.5,2.5,1.4,3.5,2.4l-1.9,1.9c-0.8-0.8-1.7-1.5-2.7-1.9c-1-0.4-2.1-0.6-3.2-0.6c-1.2,0-2.3,0.2-3.3,0.6s-1.9,1-2.6,1.7
		c-0.7,0.7-1.3,1.6-1.7,2.6c-0.4,1-0.6,2.1-0.6,3.2c0,1.2,0.2,2.2,0.6,3.2c0.4,1,1,1.8,1.7,2.6c0.7,0.7,1.6,1.3,2.6,1.7
		s2.1,0.6,3.3,0.6c1.1,0,2.2-0.2,3.2-0.6c1-0.4,1.9-1,2.7-1.9l1.9,1.9c-1,1.1-2.1,1.9-3.5,2.5C455.9,154.8,454.4,155.1,452.7,155.1z
		"/>
	<path class="st2" d="M473.7,155.1c-2.8,0-4.9-0.8-6.5-2.4c-1.6-1.6-2.4-3.9-2.4-6.9v-11.9h3v11.8c0,2.3,0.5,4,1.5,5.1
		c1,1.1,2.5,1.6,4.4,1.6c1.9,0,3.4-0.5,4.4-1.6c1-1.1,1.5-2.8,1.5-5.1v-11.8h2.9v11.9c0,3-0.8,5.3-2.4,6.9
		C478.6,154.3,476.5,155.1,473.7,155.1z"/>
	<path class="st2" d="M488.7,154.9v-21h3v18.4h11.4v2.6H488.7z"/>
	<path class="st2" d="M508.7,154.9v-18.4h-7.2v-2.6h17.3v2.6h-7.2v18.4H508.7z"/>
	<path class="st2" d="M530.4,155.1c-2.8,0-4.9-0.8-6.5-2.4c-1.6-1.6-2.4-3.9-2.4-6.9v-11.9h3v11.8c0,2.3,0.5,4,1.5,5.1
		c1,1.1,2.5,1.6,4.4,1.6c1.9,0,3.4-0.5,4.4-1.6c1-1.1,1.5-2.8,1.5-5.1v-11.8h2.9v11.9c0,3-0.8,5.3-2.4,6.9
		C535.4,154.3,533.2,155.1,530.4,155.1z"/>
	<path class="st2" d="M545.5,154.9v-21h8.2c1.8,0,3.4,0.3,4.7,0.9c1.3,0.6,2.3,1.4,3,2.5s1,2.4,1,3.9c0,1.5-0.4,2.8-1,3.9
		c-0.7,1.1-1.7,1.9-3,2.5c-1.3,0.6-2.9,0.9-4.7,0.9h-6.5l1.3-1.4v7.8H545.5z M548.4,147.4l-1.3-1.5h6.4c1.9,0,3.4-0.4,4.4-1.2
		c1-0.8,1.5-2,1.5-3.5c0-1.5-0.5-2.7-1.5-3.5c-1-0.8-2.4-1.2-4.4-1.2h-6.4l1.3-1.5V147.4z M559.5,154.9l-5.3-7.6h3.2l5.4,7.6H559.5z
		"/>
	<path class="st2" d="M564.1,154.9l9.5-21h3l9.5,21h-3.1l-8.5-19.3h1.2l-8.5,19.3H564.1z M568.1,149.6l0.8-2.4h11.8l0.9,2.4H568.1z"
		/>
</g>
</svg>
