<?xml version="1.0" encoding="utf-8"?>
<!-- Generator: Adobe Illustrator 25.4.1, SVG Export Plug-In . SVG Version: 6.00 Build 0)  -->
<svg version="1.1" id="Capa_1" xmlns="http://www.w3.org/2000/svg" xmlns:xlink="http://www.w3.org/1999/xlink" x="0px" y="0px"
	 viewBox="0 0 905.9 225.9" style="enable-background:new 0 0 905.9 225.9;" xml:space="preserve">
<style type="text/css">
	.st0{fill:#A02142;}
	.st1{fill:#691B32;}
	.st2{fill:#707271;}
</style>
<g>
	<g>
		<g>
			<path class="st0" d="M124.9,38.4v26.8l-15.2,15.2V51.8l14-14C124.1,37.4,124.9,37.7,124.9,38.4z"/>
		</g>
		<g>
			<polygon class="st0" points="107,54.5 107,83.1 91.7,98.4 91.7,69.8 			"/>
		</g>
	</g>
	<g>
		<g>
			<polygon class="st1" points="86.3,69.8 86.3,98.4 71.1,83.1 71.1,54.5 			"/>
		</g>
		<g>
			<path class="st1" d="M68.4,51.8v28.6L53.2,65.2V38.4c0-0.7,0.8-1,1.3-0.5L68.4,51.8z"/>
		</g>
	</g>
	<g>
		<g>
			<path class="st0" d="M68.4,125.5v28.6l-14,14c-0.5,0.5-1.3,0.1-1.3-0.5v-26.8L68.4,125.5z"/>
		</g>
		<g>
			<polygon class="st0" points="86.3,107.6 86.3,136.2 71.1,151.4 71.1,122.8 			"/>
		</g>
	</g>
	<g>
		<g>
			<polygon class="st1" points="107,122.8 107,151.4 91.7,136.2 91.7,107.6 			"/>
		</g>
		<g>
			<path class="st1" d="M124.9,140.8v26.8c0,0.7-0.8,1-1.3,0.5l-14-14v-28.6L124.9,140.8z"/>
		</g>
	</g>
	<g>
		<g>
			<path class="st0" d="M153.6,138.8h-26.8l-15.2-15.2h28.6l14,14C154.6,138,154.3,138.8,153.6,138.8z"/>
		</g>
		<g>
			<polygon class="st0" points="137.5,120.9 108.9,120.9 93.7,105.7 122.2,105.7 			"/>
		</g>
	</g>
	<g>
		<g>
			<polygon class="st1" points="137.5,85 122.2,100.3 93.7,100.3 108.9,85 			"/>
		</g>
		<g>
			<path class="st1" d="M154.1,68.4l-14,14h-28.6l15.2-15.2h26.8C154.3,67.1,154.6,67.9,154.1,68.4z"/>
		</g>
	</g>
	<g>
		<g>
			<path class="st0" d="M66.5,82.3H37.9l-14-14c-0.5-0.5-0.1-1.3,0.5-1.3h26.8L66.5,82.3z"/>
		</g>
		<g>
			<polygon class="st0" points="84.4,100.3 55.9,100.3 40.6,85 69.2,85 			"/>
		</g>
	</g>
	<g>
		<g>
			<polygon class="st1" points="84.4,105.7 69.2,120.9 40.6,120.9 55.9,105.7 			"/>
		</g>
		<g>
			<path class="st1" d="M66.5,123.6l-15.2,15.2H24.5c-0.7,0-1-0.8-0.5-1.3l14-14H66.5z"/>
		</g>
	</g>
</g>
<g>
	<path class="st1" d="M184.7,101.8c0.3-1.9,0.5-6.7,0.5-12.3V76.4c0-4,0.1-10.3-0.7-11c-0.9-0.9-3.9-2.1-6.2-2.8l0.9-4.4h12.1
		c2.6,0,10.5-0.4,14.3-0.4c12.8,0,20.8,5.2,20.8,16.3c0,11.4-8.5,18-21.5,18c-3.2,0-5.2-0.2-7.2-0.5c-0.1,3.8-0.1,8.9,0.8,9.8
		c1.1,1,5.6,1.8,8.9,2.7l-1,4.4h-27.2l-0.9-4.4L184.7,101.8z M210.5,65.7c-1.6-1.1-3.7-1.7-6.4-1.7c-2.1,0-4.4,0.4-5.9,0.9
		c-0.2,2.5-0.4,7.1-0.4,12.1v7.4c2,0.4,4.3,0.6,6,0.6c2.4,0,4.8-0.3,6.6-1c1.4-1.4,2.9-4.4,2.9-9.5
		C213.2,70.2,211.9,67.3,210.5,65.7z"/>
	<path class="st1" d="M237.8,101.8c0.3-1.9,0.5-6.7,0.5-12.3V76.4c0-4,0-10.1-0.6-11c-0.7-0.9-3.9-2.1-6.2-2.9l0.9-4.4h24.5l0.9,4.4
		l-6.4,2.2c-0.3,1.9-0.5,6.7-0.5,12.3v13.1c0,4.7,0,10.6,0.9,11.3c1.1,0.8,4.4,0.9,6.9,0.9c2.2,0,4.5-0.1,6.2-0.3l2.5-9.5
		c2-0.1,6.4,0.1,8.2,0.4c0.1,4.9,0.1,10.2,0,15.4h-43.2l-0.9-4.4L237.8,101.8z"/>
	<path class="st1" d="M301.3,108.4h-21.2l-0.9-4.4l5.5-2.2c4.4-10.8,9.3-24,13.8-36.4l2-7.2c4.5-0.4,11.8-0.7,15.9-0.7
		c0.6,2.2,1.6,5,2.6,7.9c4.4,12.6,9.8,27.2,13.5,36.5l5.6,2.2l-0.9,4.4h-24.4l-0.9-4.4l6.8-2.2c-0.9-2.5-1.9-5.5-2.9-8.8l-17.9,0.4
		c-0.9,2.8-1.6,5.7-2.4,8.4l7,2.2L301.3,108.4z M313.5,86.7c-2.3-6.7-4.9-14.1-7.2-20.7c-2,5.9-4.2,13.1-6.4,20.4L313.5,86.7z"/>
	<path class="st1" d="M380.9,108.7l-6.7-8.9c-5.5-7.2-12.9-16.1-18.9-23c0.2,13.5,0.7,22.7,1.4,24.2c0.9,1.2,4.9,2.2,8.4,3.1
		l-0.9,4.4h-22.2L341,104l6.3-2.2c0.3-1.9,0.6-8.2,0.6-18.9c0-9.8-0.1-16.1-1.1-17.3c-1.2-1.1-3.6-2.2-5.8-3.1l0.9-4.4
		c5.2,0,11.5-0.1,16.4-0.3c4.5,7.5,16.3,21.8,24.7,31.9c-0.1-13.8-0.8-22.7-1.6-24.2c-0.7-1-4.7-2.2-7.4-3.1l0.9-4.4h22.2l0.9,4.4
		l-6.3,2.3c-0.8,4-1.2,20.4-1.2,42.9L380.9,108.7z"/>
	<path class="st1" d="M410.5,101.8c0.3-1.9,0.5-6.7,0.5-12.3V76.4c0-4,0.1-10.3-0.7-11c-0.9-0.9-3.9-2.1-6.2-2.8l0.9-4.4h20.1
		c9.1,0,16.4-0.2,22.3-0.6c0.8,1,1.8,2.5,2.3,3.4c-0.6,3.5-1.9,9.9-2.5,12.4c-1.6,0.1-5.7-0.1-7.5-0.4l-1.9-8.7
		c-2-0.2-4.9-0.3-7.5-0.3c-2.2,0-4.3,0.1-6.2,0.1c-0.2,2.3-0.5,7.3-0.5,12.8v3.7l15.2-0.9l1.4,1.9c-0.4,1.9-0.7,4.1-1.1,5.9
		L423.6,87v3.2c0,4.2-0.1,10.2,0.8,11.1c1.1,1.1,4.7,1.3,7.4,1.3c2.5,0,5.2-0.3,7-0.6l2.5-8.8c2-0.1,6.4,0.1,8.1,0.4
		c0.2,4.8,0.2,9.8,0,14.8h-44.3l-0.9-4.4L410.5,101.8z"/>
	<path class="st1" d="M476.1,108.4H455L454,104l5.5-2.2c4.4-10.8,9.3-24,13.8-36.4l2-7.2c4.5-0.4,11.8-0.7,15.9-0.7
		c0.6,2.2,1.6,5,2.6,7.9c4.4,12.6,9.8,27.2,13.5,36.5l5.6,2.2l-0.9,4.4h-24.4l-0.9-4.4l6.8-2.2c-0.9-2.5-1.9-5.5-2.9-8.8l-17.9,0.4
		c-0.9,2.8-1.7,5.7-2.4,8.4l7,2.2L476.1,108.4z M488.3,86.7c-2.3-6.7-4.9-14.1-7.2-20.7c-2,5.9-4.2,13.1-6.4,20.4L488.3,86.7z"/>
	<path class="st1" d="M549.8,100.1c0.5-1.4,1.6-4.9,2.7-9c1.8-0.1,6.6,0.1,8.5,0.4c0.2,3.1,0.3,8,0.3,10.8l-1.1,2.2
		c-4.3,2.8-11.3,5.1-19.1,5.1c-16.1,0-26.1-9.6-26.1-25.3c0-16.2,12.2-27,27.3-27c7.2,0,13.4,1.9,18.5,4.4l1.2,2.2
		c-0.7,3.9-1.9,9.4-2.8,13c-1.7,0.1-6-0.1-7.9-0.4c-0.8-4.1-1.8-8.1-2.4-10c-1.4-0.9-4.3-1.5-7.2-1.5c-3.4,0-6.5,0.7-8.2,1.7
		c-3.2,3.8-5.2,9.4-5.2,16.7c0,11,4.9,18,14.3,18C546.2,101.3,548.6,100.8,549.8,100.1z"/>
	<path class="st1" d="M575.7,101.8c0.3-1.9,0.5-6.7,0.5-12.3V76.4c0-4,0-10.1-0.6-11c-0.7-0.9-3.9-2.1-6.2-2.9l0.9-4.4h24.5l0.9,4.4
		l-6.4,2.2c-0.3,1.9-0.5,6.7-0.5,12.3v13.1c0,4,0,10.1,0.6,11c0.7,0.9,3.9,2.1,6.2,2.9l-0.9,4.4h-24.5l-0.9-4.4L575.7,101.8z"/>
	<path class="st1" d="M602.8,84.8c0-16.4,11-27.7,27.3-27.7c14.6,0,24.7,9.5,24.7,25c0,16.1-11,27.3-26.7,27.3
		C613.2,109.5,602.8,100.1,602.8,84.8z M639.2,36.7c1.7,2.3,3.5,6.2,4.2,9l-1.5,2.6L617,54l-1.3-0.6l-0.9-3.8
		C621.8,45.1,631.2,40.4,639.2,36.7z M637.9,99c1.4-2,3.7-7.5,3.7-15.1c0-12.1-3.4-18.9-13.1-18.9c-3.4,0-7,1.2-8.8,2.6
		c-2.4,3.6-3.7,9.3-3.7,16.2c0,11,4.2,17.8,13.1,17.8C632.8,101.6,636.2,100.5,637.9,99z"/>
	<path class="st1" d="M701.9,108.7l-6.7-8.9c-5.4-7.2-12.9-16.1-18.9-23c0.2,13.5,0.7,22.7,1.4,24.2c0.9,1.2,4.9,2.2,8.4,3.1
		l-0.9,4.4h-22.2L662,104l6.3-2.2c0.3-1.9,0.6-8.2,0.6-18.9c0-9.8-0.1-16.1-1.1-17.3c-1.2-1.1-3.6-2.2-5.8-3.1l0.9-4.4
		c5.2,0,11.5-0.1,16.4-0.3c4.5,7.5,16.3,21.8,24.7,31.9c-0.1-13.8-0.8-22.7-1.6-24.2c-0.7-1-4.7-2.2-7.4-3.1l0.9-4.4h22.2l0.9,4.4
		l-6.3,2.3c-0.8,4-1.2,20.4-1.2,42.9L701.9,108.7z"/>
</g>
<g>
	<path class="st2" d="M190.4,147.6c-2.6,0-4.6-0.7-6.1-2.2c-1.5-1.5-2.2-3.6-2.2-6.5v-11.2h2.8v11.1c0,2.2,0.5,3.8,1.4,4.8
		c1,1,2.3,1.5,4.1,1.5c1.8,0,3.1-0.5,4.1-1.5c1-1,1.4-2.6,1.4-4.8v-11.1h2.7v11.2c0,2.8-0.7,5-2.2,6.5
		C195.1,146.8,193,147.6,190.4,147.6z"/>
	<path class="st2" d="M204.5,147.4v-19.6h2.3l13,16.1h-1.2v-16.1h2.8v19.6h-2.3l-13-16.1h1.2v16.1H204.5z"/>
	<path class="st2" d="M227.3,147.4v-19.6h2.8v19.6H227.3z"/>
	<path class="st2" d="M236,147.4v-19.6h8.3c2.1,0,3.9,0.4,5.5,1.2c1.6,0.8,2.8,2,3.7,3.4c0.9,1.5,1.3,3.2,1.3,5.1
		c0,1.9-0.4,3.7-1.3,5.1s-2.1,2.6-3.7,3.4c-1.6,0.8-3.4,1.2-5.5,1.2H236z M238.8,144.9h5.3c1.6,0,3-0.3,4.2-0.9
		c1.2-0.6,2.1-1.5,2.8-2.6c0.7-1.1,1-2.4,1-3.9c0-1.5-0.3-2.8-1-3.9c-0.7-1.1-1.6-2-2.8-2.6c-1.2-0.6-2.6-0.9-4.2-0.9h-5.3V144.9z"
		/>
	<path class="st2" d="M255.9,147.4l8.9-19.6h2.8l8.9,19.6h-2.9l-7.9-18.1h1.1l-7.9,18.1H255.9z M259.7,142.5l0.8-2.2h11.1l0.8,2.2
		H259.7z"/>
	<path class="st2" d="M279.4,147.4v-19.6h8.3c2.1,0,3.9,0.4,5.5,1.2c1.6,0.8,2.8,2,3.7,3.4c0.9,1.5,1.3,3.2,1.3,5.1
		c0,1.9-0.4,3.7-1.3,5.1c-0.9,1.5-2.1,2.6-3.7,3.4c-1.6,0.8-3.4,1.2-5.5,1.2H279.4z M282.2,144.9h5.3c1.6,0,3-0.3,4.2-0.9
		c1.2-0.6,2.1-1.5,2.8-2.6c0.7-1.1,1-2.4,1-3.9c0-1.5-0.3-2.8-1-3.9c-0.7-1.1-1.6-2-2.8-2.6c-1.2-0.6-2.6-0.9-4.2-0.9h-5.3V144.9z"
		/>
	<path class="st2" d="M310.1,147.4v-19.6h8.3c2.1,0,3.9,0.4,5.5,1.2c1.6,0.8,2.8,2,3.7,3.4c0.9,1.5,1.3,3.2,1.3,5.1
		c0,1.9-0.4,3.7-1.3,5.1c-0.9,1.5-2.1,2.6-3.7,3.4c-1.6,0.8-3.4,1.2-5.5,1.2H310.1z M312.9,144.9h5.3c1.6,0,3-0.3,4.2-0.9
		c1.2-0.6,2.1-1.5,2.8-2.6s1-2.4,1-3.9c0-1.5-0.3-2.8-1-3.9s-1.6-2-2.8-2.6c-1.2-0.6-2.6-0.9-4.2-0.9h-5.3V144.9z"/>
	<path class="st2" d="M336.1,144.9h11.4v2.4h-14.3v-19.6h13.9v2.4h-11.1V144.9z M335.9,136.2H346v2.4h-10.1V136.2z"/>
	<path class="st2" d="M359.7,147.4v-19.6h7.7c1.7,0,3.2,0.3,4.4,0.8c1.2,0.5,2.2,1.3,2.8,2.4c0.7,1,1,2.3,1,3.7c0,1.4-0.3,2.6-1,3.7
		c-0.7,1-1.6,1.8-2.8,2.4c-1.2,0.6-2.7,0.8-4.4,0.8h-6.1l1.3-1.3v7.3H359.7z M362.5,140.4l-1.3-1.4h6c1.8,0,3.2-0.4,4.1-1.1
		c0.9-0.8,1.4-1.9,1.4-3.3c0-1.4-0.5-2.5-1.4-3.3c-0.9-0.8-2.3-1.2-4.1-1.2h-6l1.3-1.4V140.4z"/>
	<path class="st2" d="M379.6,147.4v-19.6h2.8v17.2h10.6v2.4H379.6z"/>
	<path class="st2" d="M393.3,147.4l8.9-19.6h2.8l8.9,19.6H411l-7.9-18.1h1.1l-7.9,18.1H393.3z M397.1,142.5l0.8-2.2h11.1l0.8,2.2
		H397.1z"/>
	<path class="st2" d="M416.8,147.4v-19.6h2.3l13,16.1h-1.2v-16.1h2.8v19.6h-2.3l-13-16.1h1.2v16.1H416.8z"/>
	<path class="st2" d="M442.4,144.9h11.4v2.4h-14.3v-19.6h13.9v2.4h-11.1V144.9z M442.2,136.2h10.1v2.4h-10.1V136.2z"/>
	<path class="st2" d="M455.5,147.4l8.9-19.6h2.8l8.9,19.6h-2.9l-7.9-18.1h1.1l-7.9,18.1H455.5z M459.2,142.5l0.8-2.2h11.1l0.8,2.2
		H459.2z"/>
	<path class="st2" d="M487.5,147.6c-1.5,0-2.9-0.2-4.1-0.7c-1.3-0.5-2.4-1.2-3.3-2.1c-0.9-0.9-1.7-2-2.2-3.2c-0.5-1.2-0.8-2.6-0.8-4
		c0-1.5,0.3-2.8,0.8-4c0.5-1.2,1.3-2.3,2.2-3.2c0.9-0.9,2-1.6,3.3-2.1s2.6-0.7,4.1-0.7c1.5,0,2.9,0.3,4.2,0.8
		c1.3,0.5,2.4,1.3,3.3,2.3l-1.8,1.8c-0.7-0.8-1.6-1.4-2.5-1.8c-0.9-0.4-1.9-0.6-3-0.6c-1.1,0-2.1,0.2-3.1,0.6
		c-0.9,0.4-1.8,0.9-2.5,1.6c-0.7,0.7-1.2,1.5-1.6,2.4c-0.4,0.9-0.6,1.9-0.6,3s0.2,2.1,0.6,3c0.4,0.9,0.9,1.7,1.6,2.4
		c0.7,0.7,1.5,1.2,2.5,1.6c0.9,0.4,2,0.6,3.1,0.6c1.1,0,2.1-0.2,3-0.6c0.9-0.4,1.8-1,2.5-1.8l1.8,1.8c-0.9,1-2,1.8-3.3,2.3
		C490.4,147.3,489,147.6,487.5,147.6z"/>
	<path class="st2" d="M499,147.4v-19.6h2.8v19.6H499z"/>
	<path class="st2" d="M516.5,147.6c-1.5,0-2.9-0.2-4.2-0.8c-1.3-0.5-2.4-1.2-3.3-2.1c-0.9-0.9-1.7-2-2.2-3.2c-0.5-1.2-0.8-2.5-0.8-4
		s0.3-2.8,0.8-4c0.5-1.2,1.3-2.3,2.2-3.2c0.9-0.9,2-1.6,3.3-2.1s2.7-0.8,4.2-0.8c1.5,0,2.9,0.3,4.1,0.7s2.4,1.2,3.3,2.1
		c0.9,0.9,1.7,2,2.2,3.2c0.5,1.2,0.8,2.6,0.8,4c0,1.5-0.3,2.8-0.8,4c-0.5,1.2-1.2,2.3-2.2,3.2c-0.9,0.9-2,1.6-3.3,2.1
		C519.4,147.3,518,147.6,516.5,147.6z M516.5,145.1c1.1,0,2.1-0.2,3-0.6c0.9-0.4,1.7-0.9,2.4-1.6c0.7-0.7,1.2-1.5,1.6-2.4
		c0.4-0.9,0.6-1.9,0.6-3s-0.2-2.1-0.6-3c-0.4-0.9-0.9-1.7-1.6-2.4c-0.7-0.7-1.5-1.2-2.4-1.6c-0.9-0.4-1.9-0.6-3-0.6
		c-1.1,0-2.1,0.2-3,0.6c-0.9,0.4-1.7,0.9-2.4,1.6c-0.7,0.7-1.2,1.5-1.6,2.4c-0.4,0.9-0.6,1.9-0.6,3s0.2,2.1,0.6,3
		c0.4,0.9,0.9,1.7,1.6,2.4c0.7,0.7,1.5,1.2,2.4,1.6C514.4,144.9,515.4,145.1,516.5,145.1z M514.4,126.1l3.8-3.6h3.4l-4.7,3.6H514.4z
		"/>
	<path class="st2" d="M531.2,147.4v-19.6h2.3l13,16.1h-1.2v-16.1h2.8v19.6h-2.3l-13-16.1h1.2v16.1H531.2z"/>
	<path class="st2" d="M566.3,147.4v-7.5l0.6,1.7l-8.4-13.9h3l7.1,11.7H567l7.1-11.7h2.8l-8.4,13.9l0.6-1.7v7.5H566.3z"/>
	<path class="st2" d="M587.3,147.4v-19.6h7.7c1.7,0,3.2,0.3,4.4,0.8c1.2,0.5,2.2,1.3,2.8,2.4c0.7,1,1,2.3,1,3.7c0,1.4-0.3,2.6-1,3.7
		c-0.7,1-1.6,1.8-2.8,2.4c-1.2,0.6-2.7,0.8-4.4,0.8h-6.1l1.3-1.3v7.3H587.3z M590.1,140.4l-1.3-1.4h6c1.8,0,3.2-0.4,4.1-1.1
		c0.9-0.8,1.4-1.9,1.4-3.3c0-1.4-0.5-2.5-1.4-3.3c-0.9-0.8-2.3-1.2-4.1-1.2h-6l1.3-1.4V140.4z"/>
	<path class="st2" d="M607.3,147.4v-19.6h7.7c1.7,0,3.2,0.3,4.4,0.8c1.2,0.5,2.2,1.3,2.8,2.4c0.7,1,1,2.3,1,3.7c0,1.4-0.3,2.6-1,3.7
		c-0.7,1-1.6,1.8-2.8,2.3c-1.2,0.5-2.7,0.8-4.4,0.8h-6.1l1.3-1.3v7.3H607.3z M610.1,140.4l-1.3-1.4h6c1.8,0,3.2-0.4,4.1-1.2
		c0.9-0.8,1.4-1.9,1.4-3.3c0-1.4-0.5-2.5-1.4-3.3c-0.9-0.8-2.3-1.2-4.1-1.2h-6l1.3-1.4V140.4z M620.4,147.4l-5-7.1h3l5.1,7.1H620.4z
		"/>
	<path class="st2" d="M636.5,147.6c-1.5,0-2.9-0.2-4.2-0.8c-1.3-0.5-2.4-1.2-3.3-2.1c-0.9-0.9-1.7-2-2.2-3.2c-0.5-1.2-0.8-2.5-0.8-4
		s0.3-2.8,0.8-4s1.3-2.3,2.2-3.2c0.9-0.9,2-1.6,3.3-2.1s2.7-0.8,4.2-0.8c1.5,0,2.9,0.3,4.1,0.7s2.4,1.2,3.3,2.1
		c0.9,0.9,1.7,2,2.2,3.2c0.5,1.2,0.8,2.6,0.8,4c0,1.5-0.3,2.8-0.8,4c-0.5,1.2-1.2,2.3-2.2,3.2c-0.9,0.9-2,1.6-3.3,2.1
		C639.4,147.3,638,147.6,636.5,147.6z M636.5,145.1c1.1,0,2.1-0.2,3-0.6c0.9-0.4,1.7-0.9,2.4-1.6c0.7-0.7,1.2-1.5,1.6-2.4
		c0.4-0.9,0.6-1.9,0.6-3s-0.2-2.1-0.6-3c-0.4-0.9-0.9-1.7-1.6-2.4c-0.7-0.7-1.5-1.2-2.4-1.6c-0.9-0.4-1.9-0.6-3-0.6
		c-1.1,0-2.1,0.2-3,0.6c-0.9,0.4-1.7,0.9-2.4,1.6c-0.7,0.7-1.2,1.5-1.6,2.4c-0.4,0.9-0.6,1.9-0.6,3s0.2,2.1,0.6,3
		c0.4,0.9,0.9,1.7,1.6,2.4c0.7,0.7,1.5,1.2,2.4,1.6C634.4,144.9,635.4,145.1,636.5,145.1z"/>
	<path class="st2" d="M657,147.6c-1.5,0-2.9-0.2-4.3-0.7c-1.4-0.5-2.4-1-3.2-1.8l1-2.2c0.7,0.7,1.7,1.2,2.9,1.6
		c1.2,0.4,2.4,0.6,3.6,0.6c1.1,0,2.1-0.1,2.8-0.4c0.7-0.3,1.2-0.6,1.6-1.1c0.3-0.5,0.5-1,0.5-1.6c0-0.7-0.2-1.2-0.7-1.6
		c-0.4-0.4-1-0.7-1.7-1c-0.7-0.3-1.5-0.5-2.3-0.7c-0.8-0.2-1.7-0.4-2.5-0.7c-0.9-0.3-1.6-0.6-2.3-1c-0.7-0.4-1.3-0.9-1.7-1.6
		c-0.4-0.7-0.6-1.5-0.6-2.6c0-1,0.3-1.9,0.8-2.8c0.5-0.8,1.4-1.5,2.5-2c1.1-0.5,2.5-0.8,4.3-0.8c1.1,0,2.3,0.2,3.4,0.5
		c1.1,0.3,2.1,0.7,2.9,1.3l-0.9,2.2c-0.8-0.6-1.7-1-2.7-1.2c-0.9-0.3-1.8-0.4-2.7-0.4c-1.1,0-2,0.1-2.7,0.4
		c-0.7,0.3-1.2,0.7-1.6,1.1c-0.3,0.5-0.5,1-0.5,1.6c0,0.7,0.2,1.2,0.7,1.7c0.4,0.4,1,0.7,1.7,1c0.7,0.2,1.5,0.5,2.3,0.7
		c0.8,0.2,1.7,0.4,2.5,0.7c0.8,0.2,1.6,0.6,2.3,1c0.7,0.4,1.3,0.9,1.7,1.6c0.4,0.7,0.6,1.5,0.6,2.5c0,1-0.3,1.9-0.8,2.8
		c-0.5,0.8-1.4,1.5-2.5,2C660.1,147.3,658.7,147.6,657,147.6z"/>
	<path class="st2" d="M668.7,147.4v-19.6h7.7c1.7,0,3.2,0.3,4.4,0.8c1.2,0.5,2.2,1.3,2.8,2.4c0.7,1,1,2.3,1,3.7c0,1.4-0.3,2.6-1,3.7
		c-0.7,1-1.6,1.8-2.8,2.4c-1.2,0.6-2.7,0.8-4.4,0.8h-6.1l1.3-1.3v7.3H668.7z M671.5,140.4l-1.3-1.4h6c1.8,0,3.2-0.4,4.1-1.1
		c0.9-0.8,1.4-1.9,1.4-3.3c0-1.4-0.5-2.5-1.4-3.3c-0.9-0.8-2.3-1.2-4.1-1.2h-6l1.3-1.4V140.4z"/>
	<path class="st2" d="M691.4,144.9h11.4v2.4h-14.3v-19.6h13.9v2.4h-11.1V144.9z M691.2,136.2h10.1v2.4h-10.1V136.2z"/>
	<path class="st2" d="M716.2,147.6c-1.5,0-2.9-0.2-4.1-0.7c-1.3-0.5-2.4-1.2-3.3-2.1c-0.9-0.9-1.7-2-2.2-3.2c-0.5-1.2-0.8-2.6-0.8-4
		c0-1.5,0.3-2.8,0.8-4c0.5-1.2,1.3-2.3,2.2-3.2c0.9-0.9,2-1.6,3.3-2.1s2.6-0.7,4.1-0.7c1.5,0,2.9,0.3,4.2,0.8
		c1.3,0.5,2.4,1.3,3.3,2.3l-1.8,1.8c-0.7-0.8-1.6-1.4-2.5-1.8c-0.9-0.4-1.9-0.6-3-0.6c-1.1,0-2.1,0.2-3.1,0.6
		c-0.9,0.4-1.8,0.9-2.5,1.6c-0.7,0.7-1.2,1.5-1.6,2.4c-0.4,0.9-0.6,1.9-0.6,3s0.2,2.1,0.6,3c0.4,0.9,0.9,1.7,1.6,2.4
		c0.7,0.7,1.5,1.2,2.5,1.6c0.9,0.4,2,0.6,3.1,0.6c1.1,0,2.1-0.2,3-0.6c0.9-0.4,1.8-1,2.5-1.8l1.8,1.8c-0.9,1-2,1.8-3.3,2.3
		C719.1,147.3,717.7,147.6,716.2,147.6z"/>
	<path class="st2" d="M731.4,147.4v-17.2h-6.7v-2.4h16.2v2.4h-6.7v17.2H731.4z"/>
	<path class="st2" d="M743.9,147.4v-19.6h2.8v19.6H743.9z"/>
	<path class="st2" d="M758.1,147.4l-8.6-19.6h3l7.9,18.1h-1.7l8-18.1h2.8l-8.6,19.6H758.1z"/>
	<path class="st2" d="M768.4,147.4l8.9-19.6h2.8l8.9,19.6h-2.9l-7.9-18.1h1.1l-7.9,18.1H768.4z M772.2,142.5l0.8-2.2H784l0.8,2.2
		H772.2z"/>
</g>
</svg>
