<?xml version="1.0" encoding="utf-8"?>
<!-- Generator: Adobe Illustrator 25.4.1, SVG Export Plug-In . SVG Version: 6.00 Build 0)  -->
<svg version="1.1" id="Capa_1" xmlns="http://www.w3.org/2000/svg" xmlns:xlink="http://www.w3.org/1999/xlink" x="0px" y="0px"
	 viewBox="0 0 905.9 225.9" style="enable-background:new 0 0 905.9 225.9;" xml:space="preserve">
<style type="text/css">
	.st0{fill:#A02142;}
	.st1{fill:#691B32;}
</style>
<g>
	<g>
		<g>
			<g>
				<path class="st0" d="M126,37.9v27.1l-15.4,15.4V51.4l14.1-14.1C125.1,36.8,126,37.2,126,37.9z"/>
			</g>
			<g>
				<polygon class="st0" points="107.8,54.2 107.8,83.1 92.4,98.5 92.4,69.6 				"/>
			</g>
		</g>
		<g>
			<g>
				<polygon class="st1" points="86.9,69.6 86.9,98.5 71.5,83.1 71.5,54.2 				"/>
			</g>
			<g>
				<path class="st1" d="M68.7,51.4v28.9L53.3,65V37.9c0-0.7,0.8-1,1.3-0.5L68.7,51.4z"/>
			</g>
		</g>
		<g>
			<g>
				<path class="st0" d="M68.7,126V155l-14.1,14.1c-0.5,0.5-1.3,0.1-1.3-0.5v-27.1L68.7,126z"/>
			</g>
			<g>
				<polygon class="st0" points="86.9,107.9 86.9,136.8 71.5,152.2 71.5,123.3 				"/>
			</g>
		</g>
		<g>
			<g>
				<polygon class="st1" points="107.8,123.3 107.8,152.2 92.4,136.8 92.4,107.9 				"/>
			</g>
			<g>
				<path class="st1" d="M126,141.5v27.1c0,0.7-0.8,1-1.3,0.5L110.5,155V126L126,141.5z"/>
			</g>
		</g>
		<g>
			<g>
				<path class="st0" d="M155,139.5h-27.1l-15.4-15.4h28.9l14.1,14.1C156,138.7,155.7,139.5,155,139.5z"/>
			</g>
			<g>
				<polygon class="st0" points="138.7,121.4 109.7,121.4 94.3,105.9 123.2,105.9 				"/>
			</g>
		</g>
		<g>
			<g>
				<polygon class="st1" points="138.7,85 123.2,100.5 94.3,100.5 109.7,85 				"/>
			</g>
			<g>
				<path class="st1" d="M155.5,68.2l-14.1,14.1h-28.9l15.4-15.4H155C155.7,66.9,156,67.7,155.5,68.2z"/>
			</g>
		</g>
		<g>
			<g>
				<path class="st0" d="M66.8,82.3H37.9L23.7,68.2c-0.5-0.5-0.1-1.3,0.5-1.3h27.1L66.8,82.3z"/>
			</g>
			<g>
				<polygon class="st0" points="85,100.5 56,100.5 40.6,85 69.5,85 				"/>
			</g>
		</g>
		<g>
			<g>
				<polygon class="st1" points="85,105.9 69.5,121.4 40.6,121.4 56,105.9 				"/>
			</g>
			<g>
				<path class="st1" d="M66.8,124.1l-15.4,15.4H24.3c-0.7,0-1-0.8-0.5-1.3l14.1-14.1H66.8z"/>
			</g>
		</g>
	</g>
	<g>
		<path class="st1" d="M180.8,70.1c0-16.6,11.2-28,27.7-28c14.8,0,25,9.7,25,25.3c0,16.3-11.1,27.7-27,27.7
			C191.3,95,180.8,85.5,180.8,70.1z M216.4,84.4c1.5-2,3.8-7.6,3.8-15.2c0-12.3-3.4-19.2-13.3-19.2c-3.4,0-7,1.2-8.9,2.6
			c-2.5,3.6-3.8,9.4-3.8,16.4c0,11.2,4.3,18,13.2,18C211.2,87,214.6,86,216.4,84.4z"/>
		<path class="st1" d="M247.2,87.3c0.3-1.9,0.5-6.8,0.5-12.4V61.6c0-4.1,0.1-10.4-0.7-11.2c-0.9-0.9-4-2.1-6.2-2.8l0.9-4.4H262
			c9.1,0,16.3-0.2,22.2-0.7c0.8,1,1.8,2.5,2.3,3.5c-0.6,3.6-2,10-2.5,12.6c-1.7,0.1-5.8-0.1-7.6-0.4l-2-8.7c-2-0.2-4.8-0.4-7.3-0.4
			c-2.2,0-4.4,0.1-6.2,0.1c-0.2,2.3-0.5,7.4-0.5,13v5l15-0.9l1.5,2c-0.4,1.9-0.7,4.1-1.1,6l-15.4-0.7v1.9c0,3.8-0.1,10.3,0.8,11.2
			c1.1,1,5.7,1.8,9,2.8l-1,4.4h-27.5l-0.9-4.4L247.2,87.3z"/>
		<path class="st1" d="M298.5,87.3c0.3-1.9,0.5-6.8,0.5-12.4V61.6c0-4.1,0-10.2-0.7-11.1c-0.7-0.9-3.9-2.1-6.3-2.9l0.9-4.4h24.8
			l0.9,4.4l-6.5,2.2c-0.3,1.9-0.5,6.8-0.5,12.4v13.3c0,4.1,0,10.2,0.7,11.1c0.7,0.9,3.9,2.1,6.3,2.9l-0.9,4.4h-24.8l-0.9-4.4
			L298.5,87.3z"/>
		<path class="st1" d="M361.1,85.5c0.5-1.5,1.6-4.9,2.8-9.1c1.8-0.1,6.7,0.1,8.6,0.4c0.2,3.1,0.3,8.1,0.3,10.9l-1.1,2.3
			c-4.4,2.8-11.4,5.2-19.3,5.2c-16.3,0-26.4-9.7-26.4-25.6c0-16.4,12.3-27.4,27.7-27.4c7.3,0,13.6,2,18.7,4.5l1.2,2.2
			c-0.7,3.9-2,9.5-2.8,13.1c-1.7,0.1-6-0.1-8-0.4c-0.8-4.1-1.8-8.2-2.4-10.1c-1.5-0.9-4.4-1.5-7.3-1.5c-3.5,0-6.6,0.7-8.3,1.7
			c-3.2,3.8-5.2,9.5-5.2,16.9c0,11.1,5,18.2,14.4,18.2C357.4,86.8,359.8,86.3,361.1,85.5z"/>
		<path class="st1" d="M387.2,87.3c0.3-1.9,0.5-6.8,0.5-12.4V61.6c0-4.1,0-10.2-0.7-11.1c-0.7-0.9-3.9-2.1-6.3-2.9l0.9-4.4h24.8
			l0.9,4.4l-6.5,2.2c-0.3,1.9-0.5,6.8-0.5,12.4v13.3c0,4.1,0,10.2,0.7,11.1c0.7,0.9,3.9,2.1,6.3,2.9l-0.9,4.4h-24.8l-0.9-4.4
			L387.2,87.3z"/>
		<path class="st1" d="M432.7,93.9h-21.4l-0.9-4.4l5.6-2.2c4.5-10.9,9.4-24.2,13.9-36.9l2-7.3c4.6-0.4,11.9-0.7,16.1-0.7
			c0.6,2.3,1.6,5.1,2.6,8c4.5,12.8,9.9,27.5,13.6,36.9l5.7,2.2l-0.9,4.4h-24.7l-0.9-4.4l6.9-2.2c-0.9-2.5-1.9-5.6-3-8.9l-18.1,0.4
			c-0.9,2.8-1.7,5.7-2.5,8.5l7,2.2L432.7,93.9z M445,72c-2.3-6.8-4.9-14.3-7.3-20.9c-2,6-4.3,13.3-6.5,20.6L445,72z"/>
		<path class="st1" d="M479.3,87.3c0.3-1.9,0.5-6.8,0.5-12.4V61.6c0-4.1,0-10.2-0.7-11.1c-0.7-0.9-3.9-2.1-6.3-2.9l0.9-4.4h24.8
			l0.9,4.4l-6.5,2.2c-0.3,1.9-0.5,6.8-0.5,12.4v13.3c0,4.8,0,10.7,0.9,11.4c1.2,0.8,4.4,0.9,7,0.9c2.2,0,4.6-0.1,6.2-0.3l2.5-9.7
			c2-0.1,6.5,0.1,8.3,0.4c0.1,5,0.1,10.3,0,15.6h-43.7l-0.9-4.4L479.3,87.3z"/>
		<path class="st1" d="M548.5,21.3c1.7,2.3,3.6,6.2,4.3,9.1l-1.5,2.6L526,38.9l-1.3-0.7l-0.9-3.8C530.9,29.8,540.3,25.1,548.5,21.3z
			 M531.3,87.3c0.3-1.9,0.5-6.8,0.5-12.4V61.6c0-4.1,0-10.2-0.7-11.1c-0.7-0.9-3.9-2.1-6.3-2.9l0.9-4.4h24.8l0.9,4.4l-6.5,2.2
			c-0.3,1.9-0.5,6.8-0.5,12.4v13.3c0,4.1,0,10.2,0.7,11.1c0.7,0.9,3.9,2.1,6.3,2.9l-0.9,4.4h-24.8l-0.9-4.4L531.3,87.3z"/>
		<path class="st1" d="M576.7,93.9h-21.4l-0.9-4.4l5.6-2.2c4.5-10.9,9.4-24.2,13.9-36.9l2-7.3c4.6-0.4,11.9-0.7,16.1-0.7
			c0.6,2.3,1.6,5.1,2.6,8c4.5,12.8,9.9,27.5,13.6,36.9l5.7,2.2l-0.9,4.4h-24.7l-0.9-4.4l6.9-2.2c-0.9-2.5-1.9-5.6-3-8.9l-18.1,0.4
			c-0.9,2.8-1.7,5.7-2.5,8.5l7,2.2L576.7,93.9z M589,72c-2.3-6.8-4.9-14.3-7.3-20.9c-2,6-4.3,13.3-6.5,20.6L589,72z"/>
		<path class="st1" d="M202.3,172.8h-22.1l-0.9-4.4l6.7-2.2c0.5-4.1,1.2-13,1.6-20.8c0.5-9.9,0.5-14-0.1-15.8
			c-0.8-1-3.8-2.4-5.9-3.2l1-4.4h24.2c2,7.1,7.2,21.3,11,30.4c3.8-10.2,9.2-23.7,11-30.4h22.9l0.9,4.5l-6.6,2.9l1.3,23.8
			c0.4,7,0.7,10.7,1.7,12c0.7,1.1,3.6,2.4,5.9,3.1l-0.9,4.4h-24.8l-1-4.4l7-2.2c0.1-4.2-1-21.3-1.2-33.8l-13.6,34.7
			c-3.4,0.4-6.9,0.4-10.2,0c-3.1-7.2-9.5-24.3-14.3-34.6l-0.4,15.5c-0.3,11.4-0.4,15.7,0.1,17.1c0.6,1.7,4.4,2.5,7.5,3.4
			L202.3,172.8z"/>
		<path class="st1" d="M279.7,172.8h-21.4l-0.9-4.4l5.6-2.2c4.5-10.9,9.4-24.2,13.9-36.9l2-7.3c4.6-0.4,11.9-0.7,16.1-0.7
			c0.6,2.3,1.6,5.1,2.6,8c4.5,12.8,9.9,27.5,13.6,36.9l5.7,2.2l-0.9,4.4h-24.7l-0.9-4.4l6.9-2.2c-0.9-2.5-1.9-5.6-3-8.9l-18.1,0.4
			c-0.9,2.8-1.7,5.7-2.5,8.5l7,2.2L279.7,172.8z M292,150.9c-2.3-6.8-4.9-14.3-7.3-20.9c-2,6-4.3,13.3-6.5,20.6L292,150.9z"/>
		<path class="st1" d="M333.4,166.2c0.2-1.5,0.4-5,0.5-9.3c-4.6-7.7-12.2-20.5-16.7-28.4l-5.4-2l0.9-4.4h25.6l0.9,4.4l-7,2.2
			c2.5,5.3,6.4,12.2,11,19.9c3.4-6.5,6.9-13.2,9.9-19.8l-6.7-2.2l0.9-4.4h21.3l0.9,4.4l-6.3,2.5c-4.4,7.5-9.9,16.4-16.7,27.8
			c0,3.8,0.1,8,0.7,8.7c0.7,0.9,3.9,2.1,6.3,2.9l-0.9,4.4h-24.8l-0.9-4.4L333.4,166.2z"/>
		<path class="st1" d="M371.1,149c0-16.6,11.2-28,27.7-28c14.8,0,25,9.7,25,25.3c0,16.3-11.1,27.7-27,27.7
			C381.6,173.9,371.1,164.4,371.1,149z M406.6,163.3c1.5-2,3.8-7.6,3.8-15.2c0-12.3-3.4-19.2-13.3-19.2c-3.4,0-7,1.2-8.9,2.6
			c-2.5,3.6-3.8,9.4-3.8,16.4c0,11.2,4.3,18,13.2,18C401.5,166,404.9,164.9,406.6,163.3z"/>
		<path class="st1" d="M437.5,166.2c0.3-1.9,0.5-6.8,0.5-12.4v-13.3c0-4.1,0-10.2-0.7-11.1c-0.7-0.9-3.9-2.1-6.3-2.9l0.9-4.4h12.1
			c2.7,0,11-0.4,14.9-0.4c13.1,0,21.1,4.6,21.1,14.1c0,6.4-4.8,10.5-9.6,12.8c3.5,6.9,7.3,13.9,9.8,17.4l4.9,2.5l-0.9,4.4
			c-4.9,0-9.2,0.1-15,0.3c-2.4-5.7-5.8-12.8-9.9-20.6h-8.6v1.9c0,4.1,0,10.2,0.7,11.1c0.7,0.9,3.9,2.1,6.3,2.9l-0.9,4.4H432
			l-0.9-4.4L437.5,166.2z M450.7,145.3l11.8,0.4c2.2-1.7,4.1-4.9,4.1-9.4c0-3-0.7-5.2-1.9-6.6c-1.5-1.2-4.5-1.8-7.8-1.8
			c-1.9,0-4.1,0.3-5.8,0.8c-0.3,1.9-0.5,6.8-0.5,12.4V145.3z"/>
	</g>
</g>
</svg>
