<?xml version="1.0" encoding="UTF-8"?>
<!-- Generator: Adobe Illustrator 25.4.1, SVG Export Plug-In . SVG Version: 6.00 Build 0)  -->
<svg version="1.1" id="Capa_1" xmlns="http://www.w3.org/2000/svg" xmlns:xlink="http://www.w3.org/1999/xlink" x="0px" y="0px" viewBox="0 0 905.9 225.9" style="enable-background:new 0 0 905.9 225.9;" xml:space="preserve">
<style type="text/css">
	.st0{fill:#A02142;}
	.st1{fill:#691B32;}
	.st2{fill:#707271;}
</style>
<g>
	<g>
		<g>
			<path class="st0" d="M127.4,37.6V65l-15.6,15.6V51.4l14.3-14.3C126.6,36.6,127.4,36.9,127.4,37.6z"/>
		</g>
		<g>
			<polygon class="st0" points="109,54.1 109,83.4 93.4,99 93.4,69.7    "/>
		</g>
	</g>
	<g>
		<g>
			<polygon class="st1" points="87.9,69.7 87.9,99 72.3,83.4 72.3,54.1    "/>
		</g>
		<g>
			<path class="st1" d="M69.5,51.4v29.3L53.9,65V37.6c0-0.7,0.8-1,1.3-0.5L69.5,51.4z"/>
		</g>
	</g>
	<g>
		<g>
			<path class="st0" d="M69.5,126.8V156l-14.3,14.3c-0.5,0.5-1.3,0.1-1.3-0.5v-27.4L69.5,126.8z"/>
		</g>
		<g>
			<polygon class="st0" points="87.9,108.4 87.9,137.7 72.3,153.3 72.3,124    "/>
		</g>
	</g>
	<g>
		<g>
			<polygon class="st1" points="109,124 109,153.3 93.4,137.7 93.4,108.4    "/>
		</g>
		<g>
			<path class="st1" d="M127.4,142.4v27.4c0,0.7-0.8,1-1.3,0.5L111.8,156v-29.3L127.4,142.4z"/>
		</g>
	</g>
	<g>
		<g>
			<path class="st0" d="M156.7,140.4h-27.4l-15.6-15.6H143l14.3,14.3C157.8,139.6,157.4,140.4,156.7,140.4z"/>
		</g>
		<g>
			<polygon class="st0" points="140.2,122.1 111,122.1 95.4,106.5 124.6,106.5    "/>
		</g>
	</g>
	<g>
		<g>
			<polygon class="st1" points="140.2,85.3 124.6,100.9 95.4,100.9 111,85.3    "/>
		</g>
		<g>
			<path class="st1" d="M157.3,68.3L143,82.6h-29.3L129.3,67h27.4C157.4,67,157.8,67.8,157.3,68.3z"/>
		</g>
	</g>
	<g>
		<g>
			<path class="st0" d="M67.6,82.6H38.3L24,68.3c-0.5-0.5-0.1-1.3,0.5-1.3H52L67.6,82.6z"/>
		</g>
		<g>
			<polygon class="st0" points="86,100.9 56.7,100.9 41.1,85.3 70.4,85.3    "/>
		</g>
	</g>
	<g>
		<g>
			<polygon class="st1" points="86,106.5 70.4,122.1 41.1,122.1 56.7,106.5    "/>
		</g>
		<g>
			<path class="st1" d="M67.6,124.8L52,140.4H24.6c-0.7,0-1-0.8-0.5-1.3l14.3-14.3H67.6z"/>
		</g>
	</g>
</g>
<g>
	<g>
		<path class="st1" d="M192.5,104.7c0.3-2,0.5-7.1,0.5-13V77.8c0-4.3,0-10.7-0.7-11.6c-0.8-1-4.1-2.2-6.6-3l1-4.6h25.9l1,4.6    l-6.8,2.4c-0.3,2-0.5,7.1-0.5,13V82l22.7,0.3v-4.6c0-4.3,0-10.7-0.7-11.6c-0.8-1-4.1-2.2-6.6-3l1-4.6h25.9l1,4.6l-6.8,2.4    c-0.3,2-0.5,7.1-0.5,13v13.9c0,4.3,0,10.7,0.7,11.6c0.8,1,4.1,2.2,6.6,3l-1,4.6h-25.9l-1-4.6l6.8-2.4c0.3-2,0.5-7.1,0.5-13V89    l-22.7,0.5v2.9c0,4.3,0,10.7,0.7,11.6c0.8,1,4.1,2.2,6.6,3l-1,4.6h-25.9l-1-4.6L192.5,104.7z"/>
		<path class="st1" d="M276.2,111.7h-22.4l-1-4.6l5.9-2.4c4.7-11.4,9.9-25.4,14.6-38.6l2.1-7.6c4.8-0.4,12.5-0.8,16.9-0.8    c0.6,2.4,1.7,5.3,2.7,8.4c4.7,13.4,10.4,28.8,14.3,38.7l5.9,2.3l-1,4.6h-25.9l-1-4.6l7.2-2.3c-0.9-2.7-2-5.9-3.1-9.4l-19,0.5    c-0.9,3-1.7,6-2.6,8.9l7.4,2.3L276.2,111.7z M289.1,88.7c-2.4-7.1-5.2-15-7.7-21.9c-2.1,6.3-4.5,13.9-6.8,21.6L289.1,88.7z"/>
		<path class="st1" d="M354.3,102.8c0.5-1.5,1.7-5.2,2.9-9.6c1.9-0.1,7,0.2,9,0.4c0.2,3.3,0.3,8.4,0.3,11.4l-1.1,2.4    c-4.6,3-11.9,5.4-20.2,5.4c-17.1,0-27.7-10.2-27.7-26.8c0-17.2,12.9-28.7,29-28.7c7.7,0,14.2,2.1,19.6,4.7l1.3,2.3    c-0.8,4.1-2.1,10-3,13.8c-1.8,0.1-6.3-0.1-8.4-0.4c-0.8-4.3-1.9-8.6-2.5-10.6c-1.5-0.9-4.6-1.6-7.7-1.6c-3.6,0-6.9,0.8-8.7,1.8    c-3.3,4-5.5,10-5.5,17.7c0,11.6,5.2,19.1,15.1,19.1C350.4,104.1,353,103.6,354.3,102.8z"/>
		<path class="st1" d="M381.7,104.7c0.3-2,0.5-7.1,0.5-13V77.8c0-4.3,0-10.7-0.7-11.6c-0.8-1-4.1-2.2-6.6-3l1-4.6h25.9l1,4.6    l-6.8,2.4c-0.3,2-0.5,7.1-0.5,13v13.9c0,4.3,0,10.7,0.7,11.6c0.8,1,4.1,2.2,6.6,3l-1,4.6h-25.9l-1-4.6L381.7,104.7z"/>
		<path class="st1" d="M418,104.7c0.3-2,0.5-7.1,0.5-13V77.8c0-4.3,0.1-10.9-0.8-11.7c-1-1-4.2-2.2-6.5-3l1-4.6h21.3    c9.7,0,17.3-0.2,23.6-0.7c0.8,1.1,1.9,2.7,2.4,3.7c-0.6,3.7-2.1,10.5-2.7,13.2c-1.8,0.1-6.1-0.1-8-0.5l-2.1-9.2    c-2.1-0.2-5.2-0.3-8-0.3c-2.4,0-4.6,0.1-6.5,0.2c-0.2,2.4-0.5,7.8-0.5,13.6v4l16.1-0.9l1.5,2c-0.4,2-0.8,4.3-1.1,6.3L431.8,89v3.3    c0,4.4-0.2,10.8,0.8,11.8c1.2,1.1,5,1.4,7.8,1.4c2.7,0,5.5-0.3,7.5-0.7l2.7-9.3c2.1-0.2,6.8,0.1,8.6,0.4c0.2,5.1,0.2,10.4,0,15.7    h-47l-1-4.6L418,104.7z"/>
		<path class="st1" d="M510.3,112l-7.1-9.4c-5.8-7.7-13.7-17-20.1-24.4c0.2,14.3,0.8,24.1,1.4,25.6c1,1.2,5.2,2.3,8.9,3.3l-1,4.6    h-23.6l-1-4.6l6.7-2.4c0.3-2,0.6-8.7,0.6-20c0-10.4-0.2-17-1.1-18.3c-1.3-1.1-3.8-2.4-6.2-3.3l1-4.6c5.5,0,12.2-0.2,17.3-0.3    c4.8,8,17.3,23.1,26.2,33.8c-0.2-14.6-0.8-24-1.7-25.6c-0.8-1.1-4.9-2.4-7.8-3.3l1-4.6h23.5l1,4.6l-6.7,2.4    c-0.8,4.3-1.3,21.6-1.3,45.5L510.3,112z"/>
		<path class="st1" d="M541.7,104.7c0.3-2,0.5-7.1,0.5-13V77.8c0-4.3,0-10.7-0.7-11.6c-0.8-1-4.1-2.2-6.6-3l1-4.6h11.7    c2.8,0,11.3-0.5,15.3-0.5c22,0,29.4,12.2,29.4,26.6c0,18.6-12.8,27.8-27.1,27.8c-4.9,0-12.1-0.7-17-0.7h-12.2l-1-4.6L541.7,104.7z     M556.2,104c1,1.3,7.8,2.7,13.2,0.7c5.7-3.1,9-10.1,9-20.1c0-8.3-3-14.8-6.1-17.2c-2.5-1.6-6.2-2.4-10.1-2.4    c-2.1,0-4.4,0.2-6.1,0.5c-0.3,2-0.5,7.1-0.5,12.9v13.9C555.5,96.6,555.5,103.1,556.2,104z"/>
		<path class="st1" d="M618,111.7h-22.4l-1-4.6l5.9-2.4c4.7-11.4,9.9-25.4,14.6-38.6l2.1-7.6c4.8-0.4,12.5-0.8,16.9-0.8    c0.6,2.4,1.7,5.3,2.7,8.4c4.7,13.4,10.4,28.8,14.3,38.7l5.9,2.3l-1,4.6h-25.9l-1-4.6l7.2-2.3c-0.9-2.7-2-5.9-3.1-9.4l-19,0.5    c-0.9,3-1.7,6-2.6,8.9l7.4,2.3L618,111.7z M630.9,88.7c-2.4-7.1-5.2-15-7.7-21.9c-2.1,6.3-4.5,13.9-6.8,21.6L630.9,88.7z"/>
	</g>
	<g>
		<path class="st2" d="M194.3,154c-1.6,0-3.1-0.2-4.6-0.7c-1.4-0.5-2.6-1.1-3.4-1.9l1.1-2.3c0.8,0.7,1.8,1.3,3,1.7    c1.2,0.5,2.5,0.7,3.8,0.7c1.2,0,2.2-0.1,2.9-0.4c0.8-0.3,1.3-0.7,1.7-1.1c0.4-0.5,0.5-1,0.5-1.7c0-0.7-0.2-1.3-0.7-1.7    c-0.5-0.4-1.1-0.8-1.8-1.1c-0.7-0.3-1.6-0.5-2.5-0.7c-0.9-0.2-1.8-0.4-2.7-0.7c-0.9-0.3-1.7-0.6-2.5-1c-0.7-0.4-1.3-1-1.8-1.7    c-0.5-0.7-0.7-1.6-0.7-2.7c0-1.1,0.3-2.1,0.8-3c0.6-0.9,1.4-1.6,2.6-2.2c1.2-0.5,2.7-0.8,4.5-0.8c1.2,0,2.4,0.2,3.6,0.5    c1.2,0.3,2.2,0.8,3.1,1.4l-1,2.4c-0.9-0.6-1.8-1-2.8-1.3c-1-0.3-2-0.4-2.9-0.4c-1.2,0-2.1,0.2-2.9,0.4c-0.8,0.3-1.3,0.7-1.7,1.2    c-0.3,0.5-0.5,1.1-0.5,1.7c0,0.7,0.2,1.3,0.7,1.8c0.5,0.4,1.1,0.8,1.8,1c0.7,0.3,1.6,0.5,2.5,0.7c0.9,0.2,1.8,0.4,2.7,0.7    c0.9,0.3,1.7,0.6,2.5,1c0.7,0.4,1.3,1,1.8,1.7c0.5,0.7,0.7,1.6,0.7,2.7c0,1.1-0.3,2-0.9,2.9c-0.6,0.9-1.5,1.6-2.7,2.2    C197.6,153.7,196.1,154,194.3,154z"/>
		<path class="st2" d="M209.7,151.2h12.1v2.6h-15.1v-20.8h14.7v2.6h-11.7V151.2z M209.4,141.9h10.7v2.5h-10.7V141.9z"/>
		<path class="st2" d="M235.9,154c-1.6,0-3-0.3-4.4-0.8c-1.3-0.5-2.5-1.3-3.5-2.2c-1-1-1.8-2.1-2.3-3.4c-0.6-1.3-0.8-2.7-0.8-4.3    s0.3-3,0.8-4.3c0.6-1.3,1.3-2.4,2.3-3.4c1-1,2.2-1.7,3.5-2.2c1.3-0.5,2.8-0.8,4.4-0.8c1.6,0,3.1,0.3,4.4,0.8    c1.4,0.5,2.5,1.4,3.5,2.4l-1.9,1.9c-0.8-0.8-1.7-1.5-2.7-1.9c-1-0.4-2.1-0.6-3.2-0.6c-1.2,0-2.3,0.2-3.3,0.6c-1,0.4-1.9,1-2.6,1.7    c-0.7,0.7-1.3,1.6-1.7,2.5c-0.4,1-0.6,2-0.6,3.2c0,1.2,0.2,2.2,0.6,3.2c0.4,1,1,1.8,1.7,2.5c0.7,0.7,1.6,1.3,2.6,1.7    c1,0.4,2.1,0.6,3.3,0.6c1.1,0,2.2-0.2,3.2-0.6c1-0.4,1.9-1,2.7-1.9l1.9,1.9c-1,1.1-2.1,1.9-3.5,2.4C239,153.7,237.5,154,235.9,154    z"/>
		<path class="st2" d="M248.1,153.8v-20.8h8.1c1.8,0,3.4,0.3,4.7,0.9c1.3,0.6,2.3,1.4,3,2.5c0.7,1.1,1,2.4,1,3.9s-0.3,2.8-1,3.9    c-0.7,1.1-1.7,1.9-3,2.5c-1.3,0.6-2.8,0.9-4.7,0.9h-6.5l1.3-1.4v7.7H248.1z M251,146.3l-1.3-1.5h6.4c1.9,0,3.3-0.4,4.3-1.2    c1-0.8,1.5-2,1.5-3.5s-0.5-2.6-1.5-3.5c-1-0.8-2.4-1.2-4.3-1.2h-6.4l1.3-1.5V146.3z M262,153.8l-5.3-7.6h3.2l5.4,7.6H262z"/>
		<path class="st2" d="M272.7,151.2h12.1v2.6h-15.1v-20.8h14.7v2.6h-11.7V151.2z M272.4,141.9h10.7v2.5h-10.7V141.9z"/>
		<path class="st2" d="M293.8,153.8v-18.2h-7.1v-2.6h17.2v2.6h-7.1v18.2H293.8z"/>
		<path class="st2" d="M302.9,153.8l9.4-20.8h2.9l9.5,20.8h-3.1l-8.4-19.2h1.2l-8.4,19.2H302.9z M306.9,148.5l0.8-2.4h11.7l0.9,2.4    H306.9z"/>
		<path class="st2" d="M327.9,153.8v-20.8h8.1c1.8,0,3.4,0.3,4.7,0.9c1.3,0.6,2.3,1.4,3,2.5c0.7,1.1,1,2.4,1,3.9s-0.3,2.8-1,3.9    c-0.7,1.1-1.7,1.9-3,2.5c-1.3,0.6-2.8,0.9-4.7,0.9h-6.5l1.3-1.4v7.7H327.9z M330.8,146.3l-1.3-1.5h6.4c1.9,0,3.3-0.4,4.3-1.2    c1-0.8,1.5-2,1.5-3.5s-0.5-2.6-1.5-3.5c-1-0.8-2.4-1.2-4.3-1.2h-6.4l1.3-1.5V146.3z M341.8,153.8l-5.3-7.6h3.2l5.4,7.6H341.8z"/>
		<path class="st2" d="M348.7,131.2l4-3.9h3.6l-5,3.9H348.7z M349.5,153.8v-20.8h3v20.8H349.5z"/>
		<path class="st2" d="M355.6,153.8l9.4-20.8h2.9l9.5,20.8h-3.1l-8.4-19.2h1.2l-8.4,19.2H355.6z M359.6,148.5l0.8-2.4h11.7l0.9,2.4    H359.6z"/>
		<path class="st2" d="M388.5,153.8v-20.8h8.8c2.2,0,4.2,0.4,5.9,1.3c1.7,0.9,3,2.1,4,3.7s1.4,3.4,1.4,5.4s-0.5,3.9-1.4,5.4    s-2.3,2.8-4,3.7c-1.7,0.9-3.7,1.3-5.9,1.3H388.5z M391.5,151.2h5.6c1.7,0,3.2-0.3,4.5-1c1.3-0.7,2.2-1.6,2.9-2.8    c0.7-1.2,1-2.5,1-4.1c0-1.6-0.3-2.9-1-4.1c-0.7-1.2-1.7-2.1-2.9-2.7c-1.3-0.7-2.8-1-4.5-1h-5.6V151.2z"/>
		<path class="st2" d="M416,151.2h12.1v2.6h-15.1v-20.8h14.7v2.6H416V151.2z M415.8,141.9h10.7v2.5h-10.7V141.9z"/>
		<path class="st2" d="M444,153.8h-3v-20.8h3V153.8z M456.2,144.5h-12.5v-2.6h12.5V144.5z M455.9,132.9h3v20.8h-3V132.9z"/>
		<path class="st2" d="M462,153.8l9.4-20.8h2.9l9.5,20.8h-3.1l-8.4-19.2h1.2l-8.4,19.2H462z M466,148.5l0.8-2.4h11.7l0.9,2.4H466z"/>
		<path class="st2" d="M496,154c-1.6,0-3-0.3-4.4-0.8c-1.3-0.5-2.5-1.3-3.5-2.2c-1-1-1.8-2.1-2.3-3.4c-0.6-1.3-0.8-2.7-0.8-4.3    s0.3-3,0.8-4.3c0.6-1.3,1.3-2.4,2.3-3.4c1-1,2.2-1.7,3.5-2.2c1.3-0.5,2.8-0.8,4.4-0.8c1.6,0,3.1,0.3,4.5,0.8    c1.4,0.5,2.5,1.4,3.5,2.4l-1.9,1.9c-0.8-0.8-1.7-1.5-2.7-1.9c-1-0.4-2.1-0.6-3.2-0.6c-1.2,0-2.3,0.2-3.3,0.6c-1,0.4-1.9,1-2.6,1.7    c-0.7,0.7-1.3,1.6-1.7,2.5c-0.4,1-0.6,2-0.6,3.2c0,1.2,0.2,2.2,0.6,3.2c0.4,1,1,1.8,1.7,2.5c0.7,0.7,1.6,1.3,2.6,1.7    c1,0.4,2.1,0.6,3.3,0.6c1.1,0,2.2-0.2,3.2-0.6c1-0.4,1.9-1,2.7-1.9l1.9,1.9c-1,1.1-2.1,1.9-3.5,2.4C499.1,153.7,497.6,154,496,154    z"/>
		<path class="st2" d="M508.2,153.8v-20.8h3v20.8H508.2z"/>
		<path class="st2" d="M520.4,151.2h12.1v2.6h-15.1v-20.8h14.7v2.6h-11.7V151.2z M520.1,141.9h10.7v2.5h-10.7V141.9z"/>
		<path class="st2" d="M537.3,153.8v-20.8h2.4l13.8,17.1h-1.3v-17.1h3v20.8h-2.4L539,136.6h1.3v17.1H537.3z"/>
		<path class="st2" d="M561.5,153.8v-20.8h8.8c2.2,0,4.2,0.4,5.9,1.3c1.7,0.9,3,2.1,4,3.7s1.4,3.4,1.4,5.4s-0.5,3.9-1.4,5.4    s-2.3,2.8-4,3.7c-1.7,0.9-3.7,1.3-5.9,1.3H561.5z M564.4,151.2h5.6c1.7,0,3.2-0.3,4.5-1c1.3-0.7,2.2-1.6,2.9-2.8    c0.7-1.2,1-2.5,1-4.1c0-1.6-0.3-2.9-1-4.1s-1.7-2.1-2.9-2.7c-1.3-0.7-2.8-1-4.5-1h-5.6V151.2z"/>
		<path class="st2" d="M582.6,153.8l9.4-20.8h2.9l9.5,20.8h-3.1l-8.4-19.2h1.2l-8.4,19.2H582.6z M586.6,148.5l0.8-2.4h11.7l0.9,2.4    H586.6z"/>
	</g>
</g>
</svg>