<?xml version="1.0" encoding="utf-8"?>
<!-- Generator: Adobe Illustrator 25.4.1, SVG Export Plug-In . SVG Version: 6.00 Build 0)  -->
<svg version="1.1" id="Capa_1" xmlns="http://www.w3.org/2000/svg" xmlns:xlink="http://www.w3.org/1999/xlink" x="0px" y="0px"
	 viewBox="0 0 905.9 225.9" style="enable-background:new 0 0 905.9 225.9;" xml:space="preserve">
<style type="text/css">
	.st0{fill:#A02142;}
	.st1{fill:#691B32;}
	.st2{fill:#707271;}
</style>
<g>
	<path class="st0" d="M122,32.7v22.8l-13,13V44.1l11.9-11.9C121.3,31.8,122,32.1,122,32.7"/>
	<polygon class="st0" points="106.7,46.4 106.7,70.8 93.7,83.8 93.7,59.4 	"/>
	<polygon class="st1" points="89.1,59.4 89.1,83.8 76.2,70.8 76.2,46.4 	"/>
	<path class="st1" d="M73.9,44.1v24.4l-13-13V32.7c0-0.6,0.7-0.9,1.1-0.5L73.9,44.1z"/>
	<path class="st0" d="M73.9,106.9v24.4L62,143.1c-0.4,0.4-1.1,0.1-1.1-0.5v-22.8L73.9,106.9z"/>
	<polygon class="st0" points="89.1,91.6 89.1,116 76.2,129 76.2,104.6 	"/>
	<polygon class="st1" points="106.7,104.6 106.7,129 93.7,116 93.7,91.6 	"/>
	<path class="st1" d="M122,119.9v22.8c0,0.6-0.7,0.9-1.1,0.5L109,131.3v-24.4L122,119.9z"/>
	<path class="st0" d="M146.4,118.3h-22.8l-13-13H135l11.9,11.9C147.3,117.6,147,118.3,146.4,118.3"/>
	<polygon class="st0" points="132.7,103 108.4,103 95.4,90 119.7,90 	"/>
	<polygon class="st1" points="132.7,72.4 119.7,85.4 95.4,85.4 108.4,72.4 	"/>
	<path class="st1" d="M146.9,58.2L135,70.1h-24.4l13-13h22.8C147,57.1,147.3,57.8,146.9,58.2"/>
	<path class="st0" d="M72.2,70.1H47.9L36,58.2c-0.4-0.4-0.1-1.1,0.5-1.1h22.8L72.2,70.1z"/>
	<polygon class="st0" points="87.5,85.4 63.2,85.4 50.2,72.4 74.5,72.4 	"/>
	<polygon class="st1" points="87.5,90 74.5,103 50.2,103 63.2,90 	"/>
	<path class="st1" d="M72.2,105.3l-13,13H36.4c-0.6,0-0.9-0.7-0.5-1.1l11.9-11.9H72.2z"/>
	<g>
		<path class="st1" d="M175.6,76.7c0.2-1.6,0.4-5.7,0.4-10.4V55.1c0-3.4,0-8.6-0.6-9.3c-0.6-0.8-3.3-1.8-5.3-2.4l0.8-3.7h20.8
			l0.8,3.7l-5.4,1.9c-0.2,1.6-0.4,5.7-0.4,10.4v11.2c0,3.4,0,8.6,0.5,9.3c0.6,0.8,3.3,1.8,5.3,2.4l-0.8,3.7h-20.8l-0.8-3.7
			L175.6,76.7z"/>
		<path class="st1" d="M233.3,82.6l-5.7-7.6c-4.6-6.2-11-13.7-16.1-19.6c0.2,11.5,0.6,19.4,1.2,20.6c0.8,1,4.2,1.8,7.1,2.6l-0.8,3.7
			h-18.9l-0.8-3.7l5.4-1.9c0.2-1.6,0.5-7,0.5-16.1c0-8.4-0.1-13.7-0.9-14.7c-1-0.9-3.1-1.9-4.9-2.6l0.8-3.7c4.5,0,9.8-0.1,13.9-0.2
			c3.8,6.4,13.9,18.6,21.1,27.2c-0.1-11.7-0.7-19.3-1.3-20.6c-0.6-0.9-4-1.9-6.3-2.6l0.8-3.7h18.9l0.8,3.7l-5.4,2
			c-0.7,3.4-1,17.3-1,36.5L233.3,82.6z"/>
		<path class="st1" d="M258.5,76.7c0.2-1.6,0.4-5.7,0.4-10.4V55.1c0-3.4,0.1-8.7-0.6-9.4c-0.8-0.8-3.4-1.8-5.3-2.4l0.8-3.7h17.1
			c7.6,0,13.7-0.2,18.7-0.5c0.7,0.9,1.5,2.1,2,2.9c-0.5,3-1.6,8.4-2.1,10.6c-1.4,0.1-4.9-0.1-6.4-0.4l-1.6-7.3
			c-1.6-0.2-4-0.3-6.1-0.3c-1.9,0-3.7,0.1-5.3,0.1c-0.2,2-0.4,6.2-0.4,10.9v4.2l12.6-0.7l1.2,1.6c-0.3,1.6-0.6,3.4-0.9,5.1
			l-12.9-0.5v1.6c0,3.2-0.1,8.7,0.7,9.5c0.9,0.9,4.8,1.5,7.6,2.3l-0.9,3.7h-23.1l-0.8-3.7L258.5,76.7z"/>
		<path class="st1" d="M301.6,76.7c0.2-1.6,0.4-5.7,0.4-10.4V55.1c0-3.4,0-8.6-0.6-9.3c-0.6-0.8-3.3-1.8-5.3-2.4l0.8-3.7h10.2
			c2.3,0,9.2-0.4,12.5-0.4c11,0,17.7,3.8,17.7,11.8c0,5.4-4,8.8-8.1,10.7c2.9,5.8,6.2,11.7,8.2,14.7l4.1,2.1l-0.8,3.7
			c-4.2,0-7.8,0.1-12.6,0.2c-2-4.8-4.9-10.7-8.3-17.3h-7.2v1.6c0,3.4,0,8.6,0.5,9.3c0.6,0.8,3.3,1.8,5.3,2.4l-0.8,3.7h-20.8
			l-0.8-3.7L301.6,76.7z M312.7,59.1l10,0.4c1.8-1.4,3.5-4.1,3.5-7.9c0-2.5-0.6-4.3-1.6-5.6c-1.3-1-3.8-1.5-6.5-1.5
			c-1.6,0-3.5,0.2-4.9,0.7c-0.2,1.6-0.4,5.7-0.4,10.4V59.1z"/>
		<path class="st1" d="M361.3,82.3h-18l-0.8-3.7l4.7-1.9c3.8-9.2,7.9-20.4,11.7-31l1.7-6.1c3.8-0.3,10-0.6,13.6-0.6
			c0.5,1.9,1.3,4.3,2.2,6.7c3.8,10.7,8.4,23.1,11.5,31.1l4.8,1.8l-0.8,3.7h-20.8l-0.8-3.7l5.8-1.8c-0.7-2.1-1.6-4.7-2.5-7.5
			l-15.3,0.4c-0.7,2.4-1.4,4.8-2.1,7.1l5.9,1.8L361.3,82.3z M371.7,63.9c-2-5.7-4.2-12-6.2-17.6c-1.7,5.1-3.6,11.2-5.4,17.3
			L371.7,63.9z"/>
		<path class="st1" d="M400.6,76.7c0.2-1.6,0.4-5.7,0.4-10.4V55.1c0-3.4,0.1-8.7-0.6-9.4c-0.8-0.8-3.4-1.8-5.3-2.4l0.8-3.7H413
			c7.8,0,13.9-0.2,19-0.5c0.7,0.9,1.5,2.1,2,2.9c-0.5,3-1.6,8.4-2.1,10.6c-1.4,0.1-4.9-0.1-6.4-0.4l-1.6-7.4
			c-1.7-0.2-4.2-0.2-6.4-0.2c-1.9,0-3.7,0.1-5.3,0.1c-0.2,2-0.4,6.2-0.4,10.9v3.2l12.9-0.7l1.2,1.6c-0.3,1.6-0.6,3.5-0.9,5.1
			l-13.2-0.5v2.7c0,3.5-0.1,8.7,0.7,9.5c1,0.9,4,1.1,6.3,1.1c2.1,0,4.4-0.2,6-0.5l2.1-7.4c1.7-0.1,5.4,0.1,6.9,0.3
			c0.2,4.1,0.2,8.4,0,12.6h-37.7l-0.8-3.7L400.6,76.7z"/>
		<path class="st1" d="M473.4,42l1,1.9c-0.5,2.7-1.6,7.7-2.1,9.2c-1.4,0.1-5.1-0.1-6.7-0.3c-0.4-2.9-0.8-4.9-1.3-6.3
			c-1.3-0.9-3.5-1.4-5.9-1.4c-2.1,0-4,0.5-5.1,1.2c-0.5,0.9-1.2,2.2-1.2,3.7c0,9.3,22.7,6.3,22.7,21.1c0,7.3-7.1,12.3-17.5,12.3
			c-6.7,0-12.8-2.1-16.2-3.6v-0.3c-0.1-3.2,0-6.5,0.2-9.6c1.7-0.3,5.6-0.4,7.1-0.3c0.7,2.9,1.2,4.8,1.8,6.4c1.5,0.9,4.8,1.5,7.2,1.5
			c2.1,0,3.8-0.3,5-0.9c0.6-0.8,1.2-2.3,1.2-4c0-8.4-22.3-5.3-22.3-20.3c0-7.9,7.9-13.4,18-13.4C465.2,38.7,470,40,473.4,42z"/>
		<path class="st1" d="M493.9,76.7c0.2-1.6,0.4-5.7,0.4-10.4V44.5h-0.6c-2,0-4.1,0.1-5.7,0.3l-2.1,8.2c-1.8,0.1-5.6,0-7.1-0.3
			c-0.2-4.2-0.2-8.7,0-13.1h22.1c7.4,0,13.4-0.1,18.1-0.4c0.6,0.8,1.5,2,1.9,2.8c-0.2,3.5-0.6,7.6-1,10.8c-1.5,0.2-5.2,0.2-6.6-0.1
			l-2-7.9c-1.6-0.2-3.8-0.3-5.7-0.3H505v22.3c0,3.4,0,8.6,0.6,9.3c0.6,0.8,3.3,1.8,5.3,2.4l-0.8,3.7h-20.8l-0.8-3.7L493.9,76.7z"/>
		<path class="st1" d="M531.3,76.7c0.2-1.6,0.4-5.7,0.4-10.4V55.1c0-3.4,0-8.6-0.5-9.3c-0.6-0.8-3.3-1.8-5.3-2.4l0.8-3.7h10.2
			c2.3,0,9.2-0.4,12.5-0.4c11,0,17.7,3.8,17.7,11.8c0,5.4-4,8.8-8.1,10.7c2.9,5.8,6.2,11.7,8.2,14.7l4.1,2.1l-0.8,3.7
			c-4.2,0-7.8,0.1-12.6,0.2c-2-4.8-4.9-10.7-8.3-17.3h-7.2v1.6c0,3.4,0,8.6,0.5,9.3c0.6,0.8,3.3,1.8,5.3,2.4l-0.8,3.7h-20.8
			l-0.8-3.7L531.3,76.7z M542.4,59.1l10,0.4c1.8-1.4,3.5-4.1,3.5-7.9c0-2.5-0.6-4.3-1.6-5.6c-1.3-1-3.8-1.5-6.5-1.5
			c-1.6,0-3.5,0.2-4.9,0.7c-0.2,1.6-0.4,5.7-0.4,10.4V59.1z"/>
		<path class="st1" d="M595.4,83.2c-13.1,0-19-7.1-19-21.2v-6.5c0-3.3,0-8.7-0.7-9.7c-0.6-0.9-3.2-1.9-5.1-2.6l0.8-3.7h21.3l0.8,3.7
			l-5.6,1.9c-0.2,1.6-0.5,5.7-0.5,10.4v7c0,8.4,2.3,13.7,10.3,13.7c3.5,0,6.5-1.2,8-2.4c1.5-4.6,1.3-11.2,1.3-16.2
			c0-5.2-0.1-10.9-0.5-12c-0.7-0.6-3.9-1.6-6-2.3l0.8-3.7h18.5l0.8,3.7l-5.7,2c-0.2,3.9-0.4,9.2-0.4,18.9
			C614.4,76.8,607,83.2,595.4,83.2z"/>
		<path class="st1" d="M653.8,75.2c0.4-1.2,1.3-4.2,2.3-7.7c1.5-0.1,5.6,0.1,7.2,0.3c0.2,2.6,0.2,6.8,0.2,9.2l-0.9,1.9
			c-3.7,2.4-9.6,4.3-16.2,4.3c-13.7,0-22.2-8.2-22.2-21.6c0-13.8,10.4-23,23.3-23c6.2,0,11.4,1.6,15.8,3.8l1,1.8
			c-0.6,3.3-1.6,8-2.4,11.1c-1.5,0.1-5.1-0.1-6.7-0.3c-0.7-3.5-1.5-6.9-2-8.5c-1.2-0.7-3.7-1.3-6.2-1.3c-2.9,0-5.6,0.6-7,1.5
			c-2.7,3.2-4.4,8-4.4,14.2c0,9.3,4.2,15.3,12.1,15.3C650.7,76.3,652.7,75.8,653.8,75.2z"/>
		<path class="st1" d="M683.7,76.7c0.2-1.6,0.4-5.7,0.4-10.4V44.5h-0.6c-2,0-4.1,0.1-5.7,0.3l-2.1,8.2c-1.8,0.1-5.6,0-7.1-0.3
			c-0.2-4.2-0.2-8.7,0-13.1h22.1c7.4,0,13.4-0.1,18.1-0.4c0.6,0.8,1.5,2,1.9,2.8c-0.2,3.5-0.6,7.6-1,10.8c-1.5,0.2-5.2,0.2-6.6-0.1
			l-2-7.9c-1.6-0.2-3.8-0.3-5.7-0.3h-0.6v22.3c0,3.4,0,8.6,0.6,9.3c0.6,0.8,3.3,1.8,5.3,2.4l-0.8,3.7H679l-0.8-3.7L683.7,76.7z"/>
		<path class="st1" d="M738.1,83.2c-13.1,0-19-7.1-19-21.2v-6.5c0-3.3,0-8.7-0.7-9.7c-0.6-0.9-3.2-1.9-5.1-2.6l0.8-3.7h21.3l0.8,3.7
			l-5.6,1.9c-0.2,1.6-0.5,5.7-0.5,10.4v7c0,8.4,2.3,13.7,10.3,13.7c3.5,0,6.5-1.2,8-2.4c1.5-4.6,1.3-11.2,1.3-16.2
			c0-5.2-0.1-10.9-0.5-12c-0.7-0.6-3.9-1.6-6-2.3l0.8-3.7h18.5l0.8,3.7l-5.7,2c-0.2,3.9-0.4,9.2-0.4,18.9
			C757.1,76.8,749.7,83.2,738.1,83.2z"/>
		<path class="st1" d="M772.9,76.7c0.2-1.6,0.4-5.7,0.4-10.4V55.1c0-3.4,0-8.6-0.5-9.3c-0.6-0.8-3.3-1.8-5.3-2.4l0.8-3.7h10.2
			c2.3,0,9.2-0.4,12.5-0.4c11,0,17.7,3.8,17.7,11.8c0,5.4-4,8.8-8.1,10.7c2.9,5.8,6.2,11.7,8.2,14.7l4.1,2.1l-0.8,3.7
			c-4.2,0-7.8,0.1-12.6,0.2c-2-4.8-4.9-10.7-8.3-17.3H784v1.6c0,3.4,0,8.6,0.5,9.3c0.6,0.8,3.3,1.8,5.3,2.4l-0.8,3.7h-20.8l-0.8-3.7
			L772.9,76.7z M784,59.1l10,0.4c1.8-1.4,3.5-4.1,3.5-7.9c0-2.5-0.6-4.3-1.6-5.6c-1.3-1-3.8-1.5-6.5-1.5c-1.6,0-3.5,0.2-4.9,0.7
			c-0.2,1.6-0.4,5.7-0.4,10.4V59.1z"/>
		<path class="st1" d="M832.7,82.3h-18l-0.8-3.7l4.7-1.9c3.8-9.2,7.9-20.4,11.7-31l1.7-6.1c3.8-0.3,10-0.6,13.6-0.6
			c0.5,1.9,1.3,4.3,2.2,6.7c3.8,10.7,8.4,23.1,11.5,31.1l4.8,1.8l-0.8,3.7h-20.8l-0.8-3.7l5.8-1.8c-0.7-2.1-1.6-4.7-2.5-7.5
			l-15.3,0.4c-0.7,2.4-1.4,4.8-2.1,7.1l5.9,1.8L832.7,82.3z M843.1,63.9c-2-5.7-4.2-12-6.2-17.6c-1.7,5.1-3.6,11.2-5.4,17.3
			L843.1,63.9z"/>
	</g>
	<g>
		<path class="st1" d="M175.6,150c0.2-1.6,0.4-5.7,0.4-10.4v-11.2c0-3.4,0.1-8.7-0.6-9.4c-0.8-0.8-3.4-1.8-5.3-2.4l0.8-3.7h10.3
			c2.2,0,9-0.4,12.2-0.4c10.9,0,17.7,4.5,17.7,13.9c0,9.7-7.2,15.3-18.3,15.3c-2.7,0-4.4-0.2-6.1-0.4c-0.1,3.2-0.1,7.6,0.7,8.3
			c0.9,0.9,4.8,1.5,7.6,2.3l-0.9,3.7h-23.2l-0.8-3.7L175.6,150z M197.5,119.3c-1.3-0.9-3.2-1.5-5.4-1.5c-1.8,0-3.8,0.3-5,0.7
			c-0.2,2.1-0.4,6-0.4,10.3v6.3c1.7,0.3,3.7,0.5,5.1,0.5c2.1,0,4.1-0.2,5.6-0.9c1.2-1.2,2.4-3.8,2.4-8.1
			C199.9,123.1,198.7,120.6,197.5,119.3z"/>
		<path class="st1" d="M237.9,156.5c-13.1,0-19.1-7.1-19.1-21.2v-6.5c0-3.3,0-8.7-0.7-9.7c-0.6-0.9-3.2-1.9-5.1-2.6l0.8-3.7h21.3
			l0.8,3.7l-5.6,1.9c-0.2,1.6-0.5,5.7-0.5,10.4v7c0,8.4,2.3,13.7,10.3,13.7c3.5,0,6.5-1.2,8-2.4c1.5-4.6,1.3-11.2,1.3-16.3
			c0-5.2-0.1-10.9-0.5-12c-0.7-0.6-3.9-1.6-6-2.3l0.8-3.7h18.5l0.8,3.7l-5.7,2c-0.2,3.9-0.4,9.2-0.4,18.9
			C257,150.1,249.6,156.5,237.9,156.5z M247.7,94.5c1.5,2,3,5.3,3.6,7.7l-1.3,2.2l-21.3,4.9l-1.1-0.6l-0.8-3.2
			C232.9,101.6,240.9,97.7,247.7,94.5z"/>
		<path class="st1" d="M272.8,150c0.2-1.6,0.4-5.7,0.4-10.4v-11.2c0-3.4,0-8.6-0.5-9.3c-0.6-0.8-3.3-1.8-5.3-2.4l0.8-3.7h9.7
			c2.1,0,8.9-0.4,12-0.4c10.6-0.1,17,3.7,17,10.9c0,4.7-3.2,7.9-7.1,9.8c5.1,1.3,9.2,4.5,9.2,10.3c0,8.4-8,12.6-17,12.6
			c-4,0-9.7-0.5-13.7-0.5h-10.1l-0.8-3.7L272.8,150z M290.7,150.8c1.3,0,3-0.2,4.3-0.7c1.6-1.3,2.6-3.9,2.6-6.5
			c0-3.7-2.3-6.2-6.9-6.2h-6.8v2.7c0,3.4-0.1,8.6,0.5,9.3C285.2,150.3,287.9,150.8,290.7,150.8z M283.9,131.4l8.2,0.4
			c1.7-1.2,3.5-3.7,3.5-7.4c0-2.3-0.6-3.9-1.5-5.1c-1.1-0.9-3.2-1.5-5.3-1.5c-1.2,0-3.4,0.2-4.6,0.7c-0.2,1.6-0.4,5.7-0.4,10.4
			V131.4z"/>
		<path class="st1" d="M319.9,150c0.2-1.6,0.4-5.7,0.4-10.4v-11.2c0-3.4,0-8.6-0.5-9.3c-0.6-0.8-3.3-1.8-5.3-2.4l0.8-3.7h20.8
			l0.8,3.7l-5.4,1.9c-0.2,1.6-0.4,5.7-0.4,10.4v11.2c0,4,0,9,0.8,9.6c1,0.7,3.7,0.8,5.9,0.8c1.8,0,3.8-0.1,5.3-0.2l2.1-8.1
			c1.7-0.1,5.4,0.1,7,0.4c0.1,4.2,0.1,8.7,0,13.1h-36.8l-0.8-3.7L319.9,150z"/>
		<path class="st1" d="M363.6,150c0.2-1.6,0.4-5.7,0.4-10.4v-11.2c0-3.4,0-8.6-0.5-9.3c-0.6-0.8-3.3-1.8-5.3-2.4l0.8-3.7h20.8
			l0.8,3.7l-5.4,1.9c-0.2,1.6-0.4,5.7-0.4,10.4v11.2c0,3.4,0,8.6,0.5,9.3c0.6,0.8,3.3,1.8,5.3,2.4l-0.8,3.7H359l-0.8-3.7L363.6,150z
			"/>
		<path class="st1" d="M416.3,148.5c0.4-1.2,1.3-4.2,2.3-7.7c1.5-0.1,5.6,0.1,7.2,0.3c0.2,2.6,0.2,6.8,0.2,9.2l-0.9,1.9
			c-3.7,2.4-9.6,4.3-16.3,4.3c-13.7,0-22.2-8.2-22.2-21.6c0-13.8,10.4-23,23.3-23c6.2,0,11.4,1.6,15.8,3.8l1,1.8
			c-0.6,3.3-1.6,8-2.4,11.1c-1.5,0.1-5.1-0.1-6.7-0.3c-0.7-3.5-1.5-6.9-2-8.5c-1.2-0.7-3.7-1.3-6.2-1.3c-2.9,0-5.6,0.6-7,1.5
			c-2.7,3.2-4.4,8-4.4,14.2c0,9.3,4.2,15.3,12.2,15.3C413.2,149.6,415.2,149.2,416.3,148.5z"/>
		<path class="st1" d="M448.7,155.6h-18l-0.8-3.7l4.7-1.9c3.8-9.2,7.9-20.4,11.7-31l1.7-6.1c3.8-0.3,10-0.6,13.6-0.6
			c0.5,1.9,1.3,4.3,2.2,6.7c3.8,10.8,8.4,23.2,11.5,31.1l4.8,1.8l-0.8,3.7h-20.8l-0.8-3.7l5.8-1.8c-0.7-2.1-1.6-4.7-2.5-7.5
			l-15.3,0.4c-0.7,2.4-1.4,4.8-2.1,7.1l5.9,1.8L448.7,155.6z M459.1,137.2c-2-5.7-4.2-12-6.2-17.6c-1.7,5.1-3.6,11.2-5.4,17.3
			L459.1,137.2z"/>
	</g>
	<g>
		<path class="st2" d="M174.2,188.5c-1.3,0-2.5-0.2-3.7-0.6c-1.2-0.4-2.1-0.9-2.7-1.5l0.9-1.9c0.6,0.6,1.4,1,2.4,1.4
			c1,0.4,2,0.5,3.1,0.5c1,0,1.8-0.1,2.4-0.3c0.6-0.2,1.1-0.5,1.3-0.9c0.3-0.4,0.4-0.8,0.4-1.3c0-0.6-0.2-1-0.6-1.4
			c-0.4-0.4-0.9-0.6-1.5-0.8c-0.6-0.2-1.3-0.4-2-0.6c-0.7-0.2-1.4-0.3-2.2-0.6c-0.7-0.2-1.4-0.5-2-0.8c-0.6-0.3-1.1-0.8-1.4-1.3
			c-0.4-0.6-0.5-1.3-0.5-2.2c0-0.9,0.2-1.6,0.7-2.4c0.5-0.7,1.2-1.3,2.1-1.7c0.9-0.4,2.2-0.7,3.6-0.7c1,0,1.9,0.1,2.9,0.4
			c1,0.3,1.8,0.6,2.5,1.1l-0.8,1.9c-0.7-0.5-1.5-0.8-2.3-1c-0.8-0.2-1.6-0.3-2.3-0.3c-0.9,0-1.7,0.1-2.3,0.4c-0.6,0.2-1,0.6-1.3,1
			c-0.3,0.4-0.4,0.8-0.4,1.3c0,0.6,0.2,1.1,0.6,1.4c0.4,0.3,0.9,0.6,1.5,0.8c0.6,0.2,1.3,0.4,2,0.6c0.7,0.2,1.4,0.4,2.2,0.6
			c0.7,0.2,1.4,0.5,2,0.8c0.6,0.3,1.1,0.8,1.4,1.3c0.4,0.6,0.6,1.3,0.6,2.1c0,0.8-0.2,1.6-0.7,2.4c-0.5,0.7-1.2,1.3-2.1,1.7
			C176.8,188.2,175.6,188.5,174.2,188.5z"/>
		<path class="st2" d="M186.5,186.2h9.7v2.1h-12.1v-16.7h11.8v2.1h-9.4V186.2z M186.3,178.8h8.6v2h-8.6V178.8z"/>
		<path class="st2" d="M207.5,188.5c-1.3,0-2.4-0.2-3.5-0.6c-1.1-0.4-2-1-2.8-1.8c-0.8-0.8-1.4-1.7-1.9-2.7c-0.4-1-0.7-2.2-0.7-3.4
			c0-1.2,0.2-2.4,0.7-3.4c0.4-1,1.1-1.9,1.9-2.7c0.8-0.8,1.7-1.4,2.8-1.8c1.1-0.4,2.2-0.6,3.5-0.6c1.3,0,2.5,0.2,3.6,0.7
			c1.1,0.4,2,1.1,2.8,1.9l-1.6,1.5c-0.6-0.7-1.4-1.2-2.1-1.5c-0.8-0.3-1.6-0.5-2.6-0.5c-0.9,0-1.8,0.2-2.6,0.5s-1.5,0.8-2.1,1.3
			c-0.6,0.6-1,1.3-1.4,2c-0.3,0.8-0.5,1.6-0.5,2.6c0,0.9,0.2,1.8,0.5,2.6c0.3,0.8,0.8,1.5,1.4,2c0.6,0.6,1.3,1,2.1,1.3
			s1.7,0.5,2.6,0.5c0.9,0,1.8-0.2,2.6-0.5c0.8-0.3,1.5-0.8,2.1-1.5l1.6,1.5c-0.8,0.9-1.7,1.5-2.8,2
			C210,188.2,208.8,188.5,207.5,188.5z"/>
		<path class="st2" d="M217.3,188.3v-16.7h6.5c1.5,0,2.7,0.2,3.8,0.7c1,0.5,1.8,1.1,2.4,2c0.6,0.9,0.8,1.9,0.8,3.1
			c0,1.2-0.3,2.2-0.8,3.1c-0.6,0.9-1.4,1.5-2.4,2c-1,0.5-2.3,0.7-3.8,0.7h-5.2l1.1-1.1v6.2H217.3z M219.7,182.3l-1.1-1.2h5.1
			c1.5,0,2.7-0.3,3.5-1c0.8-0.7,1.2-1.6,1.2-2.8c0-1.2-0.4-2.1-1.2-2.8c-0.8-0.7-1.9-1-3.5-1h-5.1l1.1-1.2V182.3z M228.5,188.3
			l-4.3-6.1h2.6l4.3,6.1H228.5z"/>
		<path class="st2" d="M237.1,186.2h9.7v2.1h-12.1v-16.7h11.8v2.1h-9.4V186.2z M236.9,178.8h8.6v2h-8.6V178.8z"/>
		<path class="st2" d="M254,188.3v-14.6h-5.7v-2.1h13.8v2.1h-5.7v14.6H254z"/>
		<path class="st2" d="M261.4,188.3l7.6-16.7h2.4l7.6,16.7h-2.5l-6.8-15.4h1l-6.8,15.4H261.4z M264.6,184.1l0.6-1.9h9.4l0.7,1.9
			H264.6z"/>
		<path class="st2" d="M281.4,188.3v-16.7h6.5c1.5,0,2.7,0.2,3.8,0.7c1,0.5,1.8,1.1,2.4,2c0.6,0.9,0.8,1.9,0.8,3.1
			c0,1.2-0.3,2.2-0.8,3.1c-0.6,0.9-1.4,1.5-2.4,2s-2.3,0.7-3.8,0.7h-5.2l1.1-1.1v6.2H281.4z M283.8,182.3l-1.1-1.2h5.1
			c1.5,0,2.7-0.3,3.5-1c0.8-0.7,1.2-1.6,1.2-2.8c0-1.2-0.4-2.1-1.2-2.8c-0.8-0.7-1.9-1-3.5-1h-5.1l1.1-1.2V182.3z M292.6,188.3
			l-4.3-6.1h2.6l4.3,6.1H292.6z"/>
		<path class="st2" d="M298.2,170.2l3.2-3.1h2.9l-4,3.1H298.2z M298.8,188.3v-16.7h2.4v16.7H298.8z"/>
		<path class="st2" d="M303.6,188.3l7.6-16.7h2.4l7.6,16.7h-2.5l-6.8-15.4h1l-6.8,15.4H303.6z M306.9,184.1l0.6-1.9h9.4l0.7,1.9
			H306.9z"/>
		<path class="st2" d="M330.1,188.3v-16.7h7c1.8,0,3.4,0.4,4.7,1.1c1.4,0.7,2.4,1.7,3.2,2.9c0.8,1.3,1.1,2.7,1.1,4.4
			c0,1.7-0.4,3.1-1.1,4.4c-0.8,1.3-1.8,2.2-3.2,2.9c-1.4,0.7-2.9,1.1-4.7,1.1H330.1z M332.5,186.2h4.5c1.4,0,2.6-0.3,3.6-0.8
			c1-0.5,1.8-1.3,2.4-2.2c0.6-0.9,0.8-2,0.8-3.3c0-1.3-0.3-2.4-0.8-3.3c-0.6-0.9-1.3-1.7-2.4-2.2c-1-0.5-2.2-0.8-3.6-0.8h-4.5V186.2
			z"/>
		<path class="st2" d="M352.2,186.2h9.7v2.1h-12.1v-16.7h11.8v2.1h-9.4V186.2z M352,178.8h8.6v2H352V178.8z"/>
		<path class="st2" d="M372.2,188.3v-16.7h2.4v16.7H372.2z"/>
		<path class="st2" d="M379.6,188.3v-16.7h2l11.1,13.7h-1v-13.7h2.4v16.7h-2L381,174.5h1v13.7H379.6z"/>
		<path class="st2" d="M401.4,188.3H399v-16.7h11.8v2.1h-9.4V188.3z M401.2,179.5h8.6v2.1h-8.6V179.5z"/>
		<path class="st2" d="M414.2,188.3v-16.7h6.5c1.5,0,2.7,0.2,3.8,0.7c1,0.5,1.8,1.1,2.4,2c0.6,0.9,0.8,1.9,0.8,3.1
			c0,1.2-0.3,2.2-0.8,3.1c-0.6,0.9-1.4,1.5-2.4,2c-1,0.5-2.3,0.7-3.8,0.7h-5.2l1.1-1.1v6.2H414.2z M416.6,182.3l-1.1-1.2h5.1
			c1.5,0,2.7-0.3,3.5-1c0.8-0.7,1.2-1.6,1.2-2.8c0-1.2-0.4-2.1-1.2-2.8c-0.8-0.7-1.9-1-3.5-1h-5.1l1.1-1.2V182.3z M425.4,188.3
			l-4.3-6.1h2.6l4.3,6.1H425.4z"/>
		<path class="st2" d="M429,188.3l7.6-16.7h2.4l7.6,16.7h-2.5l-6.8-15.4h1l-6.8,15.4H429z M432.3,184.1l0.6-1.9h9.4l0.7,1.9H432.3z"
			/>
		<path class="st2" d="M451.4,186.2h9.7v2.1H449v-16.7h11.8v2.1h-9.4V186.2z M451.2,178.8h8.6v2h-8.6V178.8z"/>
		<path class="st2" d="M469.9,188.5c-1.3,0-2.5-0.2-3.7-0.6c-1.2-0.4-2.1-0.9-2.7-1.5l0.9-1.9c0.6,0.6,1.4,1,2.4,1.4
			c1,0.4,2,0.5,3.1,0.5c1,0,1.8-0.1,2.4-0.3c0.6-0.2,1-0.5,1.3-0.9c0.3-0.4,0.4-0.8,0.4-1.3c0-0.6-0.2-1-0.6-1.4
			c-0.4-0.4-0.9-0.6-1.5-0.8c-0.6-0.2-1.3-0.4-2-0.6c-0.7-0.2-1.4-0.3-2.2-0.6c-0.7-0.2-1.4-0.5-2-0.8c-0.6-0.3-1.1-0.8-1.4-1.3
			c-0.4-0.6-0.5-1.3-0.5-2.2c0-0.9,0.2-1.6,0.7-2.4c0.5-0.7,1.2-1.3,2.1-1.7c0.9-0.4,2.2-0.7,3.6-0.7c1,0,1.9,0.1,2.9,0.4
			c1,0.3,1.8,0.6,2.5,1.1l-0.8,1.9c-0.7-0.5-1.5-0.8-2.3-1c-0.8-0.2-1.6-0.3-2.3-0.3c-0.9,0-1.7,0.1-2.3,0.4c-0.6,0.2-1,0.6-1.3,1
			c-0.3,0.4-0.4,0.8-0.4,1.3c0,0.6,0.2,1.1,0.6,1.4c0.4,0.3,0.9,0.6,1.5,0.8c0.6,0.2,1.3,0.4,2,0.6s1.4,0.4,2.2,0.6
			c0.7,0.2,1.4,0.5,2,0.8c0.6,0.3,1.1,0.8,1.4,1.3c0.4,0.6,0.5,1.3,0.5,2.1c0,0.8-0.2,1.6-0.7,2.4c-0.5,0.7-1.2,1.3-2.1,1.7
			C472.6,188.2,471.4,188.5,469.9,188.5z"/>
		<path class="st2" d="M483,188.3v-14.6h-5.7v-2.1h13.8v2.1h-5.7v14.6H483z"/>
		<path class="st2" d="M493.7,188.3v-16.7h6.5c1.5,0,2.7,0.2,3.8,0.7c1,0.5,1.8,1.1,2.4,2c0.6,0.9,0.8,1.9,0.8,3.1
			c0,1.2-0.3,2.2-0.8,3.1c-0.6,0.9-1.4,1.5-2.4,2c-1,0.5-2.3,0.7-3.8,0.7H495l1.1-1.1v6.2H493.7z M496.1,182.3l-1.1-1.2h5.1
			c1.5,0,2.7-0.3,3.5-1c0.8-0.7,1.2-1.6,1.2-2.8c0-1.2-0.4-2.1-1.2-2.8c-0.8-0.7-1.9-1-3.5-1H495l1.1-1.2V182.3z M504.9,188.3
			l-4.3-6.1h2.6l4.3,6.1H504.9z"/>
		<path class="st2" d="M518,188.5c-2.2,0-3.9-0.6-5.2-1.9s-1.9-3.1-1.9-5.5v-9.5h2.4v9.4c0,1.9,0.4,3.2,1.2,4.1
			c0.8,0.9,2,1.3,3.5,1.3c1.5,0,2.7-0.4,3.5-1.3c0.8-0.9,1.2-2.2,1.2-4.1v-9.4h2.3v9.5c0,2.4-0.6,4.3-1.9,5.5
			C521.9,187.8,520.2,188.5,518,188.5z"/>
		<path class="st2" d="M537.4,188.5c-1.3,0-2.5-0.2-3.5-0.6c-1.1-0.4-2-1-2.8-1.8c-0.8-0.8-1.4-1.7-1.8-2.7c-0.4-1-0.7-2.2-0.7-3.4
			c0-1.2,0.2-2.4,0.7-3.4c0.4-1,1.1-1.9,1.9-2.7c0.8-0.8,1.7-1.4,2.8-1.8c1.1-0.4,2.2-0.6,3.5-0.6c1.3,0,2.5,0.2,3.6,0.7
			c1.1,0.4,2,1.1,2.8,1.9l-1.6,1.5c-0.6-0.7-1.4-1.2-2.1-1.5c-0.8-0.3-1.6-0.5-2.6-0.5c-0.9,0-1.8,0.2-2.6,0.5
			c-0.8,0.3-1.5,0.8-2.1,1.3c-0.6,0.6-1,1.3-1.4,2c-0.3,0.8-0.5,1.6-0.5,2.6c0,0.9,0.2,1.8,0.5,2.6c0.3,0.8,0.8,1.5,1.4,2
			c0.6,0.6,1.3,1,2.1,1.3c0.8,0.3,1.7,0.5,2.6,0.5c0.9,0,1.8-0.2,2.6-0.5c0.8-0.3,1.5-0.8,2.1-1.5l1.6,1.5c-0.8,0.9-1.7,1.5-2.8,2
			C539.9,188.2,538.7,188.5,537.4,188.5z"/>
		<path class="st2" d="M550.4,188.3v-14.6h-5.7v-2.1h13.8v2.1h-5.7v14.6H550.4z"/>
		<path class="st2" d="M567.7,188.5c-2.2,0-3.9-0.6-5.2-1.9s-1.9-3.1-1.9-5.5v-9.5h2.4v9.4c0,1.9,0.4,3.2,1.2,4.1
			c0.8,0.9,2,1.3,3.5,1.3c1.5,0,2.7-0.4,3.5-1.3c0.8-0.9,1.2-2.2,1.2-4.1v-9.4h2.3v9.5c0,2.4-0.6,4.3-1.9,5.5
			C571.6,187.8,569.9,188.5,567.7,188.5z"/>
		<path class="st2" d="M579.7,188.3v-16.7h6.5c1.5,0,2.7,0.2,3.8,0.7c1,0.5,1.8,1.1,2.4,2c0.6,0.9,0.8,1.9,0.8,3.1
			c0,1.2-0.3,2.2-0.8,3.1c-0.6,0.9-1.4,1.5-2.4,2c-1,0.5-2.3,0.7-3.8,0.7H581l1.1-1.1v6.2H579.7z M582.1,182.3l-1.1-1.2h5.1
			c1.5,0,2.7-0.3,3.5-1c0.8-0.7,1.2-1.6,1.2-2.8c0-1.2-0.4-2.1-1.2-2.8c-0.8-0.7-1.9-1-3.5-1H581l1.1-1.2V182.3z M590.8,188.3
			l-4.3-6.1h2.6l4.3,6.1H590.8z"/>
		<path class="st2" d="M594.5,188.3l7.6-16.7h2.4l7.6,16.7h-2.5l-6.8-15.4h1l-6.8,15.4H594.5z M597.7,184.1l0.6-1.9h9.4l0.7,1.9
			H597.7z"/>
		<path class="st2" d="M620.9,188.3v-16.7h6.5c1.5,0,2.7,0.2,3.8,0.7c1,0.5,1.8,1.1,2.4,2c0.6,0.9,0.8,1.9,0.8,3.1
			c0,1.2-0.3,2.2-0.8,3.1c-0.6,0.9-1.4,1.5-2.4,2c-1,0.5-2.3,0.7-3.8,0.7h-5.2l1.1-1.1v6.2H620.9z M623.3,182.3l-1.1-1.2h5.1
			c1.5,0,2.7-0.3,3.5-1c0.8-0.7,1.2-1.6,1.2-2.8c0-1.2-0.4-2.1-1.2-2.8c-0.8-0.7-1.9-1-3.5-1h-5.1l1.1-1.2V182.3z"/>
		<path class="st2" d="M644.9,188.5c-2.2,0-3.9-0.6-5.2-1.9c-1.3-1.3-1.9-3.1-1.9-5.5v-9.5h2.4v9.4c0,1.9,0.4,3.2,1.2,4.1
			c0.8,0.9,2,1.3,3.5,1.3c1.5,0,2.7-0.4,3.5-1.3c0.8-0.9,1.2-2.2,1.2-4.1v-9.4h2.3v9.5c0,2.4-0.6,4.3-1.9,5.5
			C648.9,187.8,647.2,188.5,644.9,188.5z M643.2,170.2l3.2-3.1h2.9l-4,3.1H643.2z"/>
		<path class="st2" d="M656.9,188.3v-16.7h7.5c1.9,0,3.4,0.4,4.4,1.2c1,0.8,1.6,1.8,1.6,3.2c0,0.9-0.2,1.7-0.6,2.3
			c-0.4,0.6-1,1.1-1.6,1.4c-0.7,0.3-1.4,0.5-2.2,0.5l0.4-0.7c1,0,1.8,0.2,2.5,0.5c0.7,0.3,1.3,0.8,1.7,1.5c0.4,0.6,0.6,1.4,0.6,2.4
			c0,1.4-0.5,2.5-1.6,3.3c-1.1,0.8-2.7,1.2-4.8,1.2H656.9z M659.3,186.3h5.5c1.3,0,2.3-0.2,3-0.7c0.7-0.4,1.1-1.1,1.1-2.1
			c0-1-0.4-1.7-1.1-2.1c-0.7-0.4-1.7-0.7-3-0.7h-5.7v-1.9h5.1c1.2,0,2.1-0.2,2.8-0.7c0.7-0.4,1-1.1,1-2c0-0.9-0.3-1.6-1-2
			c-0.7-0.4-1.6-0.7-2.8-0.7h-4.9V186.3z"/>
		<path class="st2" d="M675,188.3v-16.7h2.4v14.6h9.1v2.1H675z"/>
		<path class="st2" d="M689.2,188.3v-16.7h2.4v16.7H689.2z"/>
		<path class="st2" d="M704.1,188.5c-1.3,0-2.5-0.2-3.5-0.6c-1.1-0.4-2-1-2.8-1.8c-0.8-0.8-1.4-1.7-1.8-2.7c-0.4-1-0.7-2.2-0.7-3.4
			c0-1.2,0.2-2.4,0.7-3.4c0.4-1,1.1-1.9,1.9-2.7c0.8-0.8,1.7-1.4,2.8-1.8c1.1-0.4,2.2-0.6,3.5-0.6c1.3,0,2.5,0.2,3.6,0.7
			c1.1,0.4,2,1.1,2.8,1.9l-1.6,1.5c-0.6-0.7-1.4-1.2-2.1-1.5c-0.8-0.3-1.6-0.5-2.6-0.5c-0.9,0-1.8,0.2-2.6,0.5
			c-0.8,0.3-1.5,0.8-2.1,1.3c-0.6,0.6-1,1.3-1.4,2c-0.3,0.8-0.5,1.6-0.5,2.6c0,0.9,0.2,1.8,0.5,2.6c0.3,0.8,0.8,1.5,1.4,2
			c0.6,0.6,1.3,1,2.1,1.3c0.8,0.3,1.7,0.5,2.6,0.5c0.9,0,1.8-0.2,2.6-0.5c0.8-0.3,1.5-0.8,2.1-1.5l1.6,1.5c-0.8,0.9-1.7,1.5-2.8,2
			C706.6,188.2,705.4,188.5,704.1,188.5z"/>
		<path class="st2" d="M710.9,188.3l7.6-16.7h2.4l7.6,16.7H726l-6.8-15.4h1l-6.8,15.4H710.9z M714.2,184.1l0.6-1.9h9.4l0.7,1.9
			H714.2z"/>
	</g>
</g>
</svg>
