<?xml version="1.0" encoding="utf-8"?>
<!-- Generator: Adobe Illustrator 25.4.1, SVG Export Plug-In . SVG Version: 6.00 Build 0)  -->
<svg version="1.1" id="Capa_1" xmlns="http://www.w3.org/2000/svg" xmlns:xlink="http://www.w3.org/1999/xlink" x="0px" y="0px"
	 viewBox="0 0 905.9 225.9" style="enable-background:new 0 0 905.9 225.9;" xml:space="preserve">
<style type="text/css">
	.st0{fill:#A02142;}
	.st1{fill:#691B32;}
	.st2{fill:#707271;}
</style>
<g>
	<g>
		<g>
			<path class="st0" d="M127.5,36.8v27.9l-15.9,15.9V50.8l14.6-14.6C126.7,35.8,127.5,36.1,127.5,36.8z"/>
		</g>
		<g>
			<polygon class="st0" points="108.8,53.6 108.8,83.4 92.9,99.3 92.9,69.5 			"/>
		</g>
	</g>
	<g>
		<g>
			<polygon class="st1" points="87.3,69.5 87.3,99.3 71.4,83.4 71.4,53.6 			"/>
		</g>
		<g>
			<path class="st1" d="M68.6,50.8v29.8L52.7,64.7V36.8c0-0.7,0.8-1,1.3-0.6L68.6,50.8z"/>
		</g>
	</g>
	<g>
		<g>
			<path class="st0" d="M68.6,127.6v29.8L54,172c-0.5,0.5-1.3,0.1-1.3-0.6v-27.9L68.6,127.6z"/>
		</g>
		<g>
			<polygon class="st0" points="87.3,108.9 87.3,138.7 71.4,154.6 71.4,124.8 			"/>
		</g>
	</g>
	<g>
		<g>
			<polygon class="st1" points="108.8,124.8 108.8,154.6 92.9,138.7 92.9,108.9 			"/>
		</g>
		<g>
			<path class="st1" d="M127.5,143.5v27.9c0,0.7-0.8,1-1.3,0.6l-14.6-14.6v-29.8L127.5,143.5z"/>
		</g>
	</g>
	<g>
		<g>
			<path class="st0" d="M157.4,141.5h-27.9l-15.9-15.9h29.8l14.6,14.6C158.5,140.7,158.1,141.5,157.4,141.5z"/>
		</g>
		<g>
			<polygon class="st0" points="140.6,122.8 110.8,122.8 94.9,106.9 124.7,106.9 			"/>
		</g>
	</g>
	<g>
		<g>
			<polygon class="st1" points="140.6,85.4 124.7,101.3 94.9,101.3 110.8,85.4 			"/>
		</g>
		<g>
			<path class="st1" d="M158,68l-14.6,14.6h-29.8l15.9-15.9h27.9C158.1,66.7,158.5,67.5,158,68z"/>
		</g>
	</g>
	<g>
		<g>
			<path class="st0" d="M66.6,82.6H36.8L22.2,68c-0.5-0.5-0.1-1.3,0.6-1.3h27.9L66.6,82.6z"/>
		</g>
		<g>
			<polygon class="st0" points="85.3,101.3 55.5,101.3 39.6,85.4 69.4,85.4 			"/>
		</g>
	</g>
	<g>
		<g>
			<polygon class="st1" points="85.3,106.9 69.4,122.8 39.6,122.8 55.5,106.9 			"/>
		</g>
		<g>
			<path class="st1" d="M66.6,125.6l-15.9,15.9H22.8c-0.7,0-1-0.8-0.6-1.3l14.6-14.6H66.6z"/>
		</g>
	</g>
</g>
<g>
	<path class="st1" d="M193.2,93c0.3-1.9,0.5-7,0.5-12.7V66.8c0-4.2,0.1-10.6-0.7-11.4c-1-1-4.1-2.2-6.4-2.9l1-4.5h20.8
		c9.4,0,16.9-0.2,23.1-0.7c0.8,1,1.9,2.6,2.4,3.6c-0.6,3.6-2,10.2-2.6,12.8c-1.7,0.1-5.9-0.1-7.8-0.4l-2-9c-2.1-0.2-5.1-0.3-7.8-0.3
		c-2.3,0-4.4,0.1-6.4,0.1c-0.2,2.4-0.5,7.6-0.5,13.3v3.9l15.7-0.9l1.5,1.9c-0.4,1.9-0.7,4.2-1.1,6.2l-16.1-0.7V81
		c0,4.3-0.1,10.5,0.8,11.5c1.2,1.1,4.9,1.3,7.6,1.3c2.6,0,5.3-0.3,7.3-0.7l2.6-9c2.1-0.1,6.6,0.1,8.4,0.4c0.2,5,0.2,10.2,0,15.3
		h-45.8l-1-4.5L193.2,93z"/>
	<path class="st1" d="M277.1,91.2c0.5-1.5,1.6-5,2.8-9.3c1.9-0.1,6.8,0.1,8.7,0.4c0.2,3.2,0.3,8.2,0.3,11.1l-1.1,2.3
		c-4.4,2.9-11.6,5.3-19.7,5.3c-16.7,0-27-9.9-27-26.2c0-16.8,12.6-27.9,28.2-27.9c7.5,0,13.9,2,19.1,4.6l1.3,2.2
		c-0.7,4-2,9.7-2.9,13.4c-1.8,0.1-6.2-0.1-8.2-0.4c-0.8-4.2-1.9-8.4-2.4-10.3c-1.5-0.9-4.4-1.6-7.5-1.6c-3.6,0-6.7,0.7-8.5,1.8
		c-3.3,3.9-5.3,9.7-5.3,17.3c0,11.3,5.1,18.6,14.8,18.6C273.3,92.5,275.8,92,277.1,91.2z"/>
	<path class="st1" d="M296.4,75.4c0-17,11.4-28.6,28.2-28.6c15.1,0,25.6,9.9,25.6,25.9c0,16.6-11.3,28.2-27.6,28.2
		C307.2,100.9,296.4,91.2,296.4,75.4z M332.8,90.1c1.5-2.1,3.9-7.8,3.9-15.6C336.6,62,333.1,55,323,55c-3.5,0-7.2,1.2-9.1,2.7
		c-2.5,3.7-3.9,9.6-3.9,16.8c0,11.4,4.4,18.4,13.5,18.4C327.5,92.8,331,91.7,332.8,90.1z"/>
	<path class="st1" d="M398.9,100.1l-6.9-9.2c-5.6-7.5-13.3-16.6-19.6-23.8c0.2,13.9,0.7,23.5,1.4,25c1,1.2,5.1,2.2,8.7,3.2l-1,4.5
		h-23l-1-4.5l6.5-2.3c0.3-1.9,0.6-8.5,0.6-19.5c0-10.2-0.1-16.6-1.1-17.9c-1.3-1.1-3.7-2.3-6-3.2l1-4.5c5.4,0,11.9-0.1,16.9-0.3
		c4.7,7.8,16.8,22.5,25.6,33c-0.1-14.2-0.8-23.4-1.6-25c-0.7-1-4.8-2.3-7.6-3.2l1-4.5h22.9l1,4.5l-6.5,2.4
		c-0.8,4.2-1.3,21.1-1.3,44.3L398.9,100.1z"/>
	<path class="st1" d="M422.2,75.4c0-17,11.4-28.6,28.2-28.6c15.1,0,25.6,9.9,25.6,25.9c0,16.6-11.3,28.2-27.6,28.2
		C433,100.9,422.2,91.2,422.2,75.4z M458.5,90.1c1.5-2.1,3.9-7.8,3.9-15.6c0-12.5-3.5-19.6-13.6-19.6c-3.5,0-7.2,1.2-9.1,2.7
		c-2.5,3.7-3.9,9.6-3.9,16.8c0,11.4,4.4,18.4,13.5,18.4C453.3,92.8,456.7,91.7,458.5,90.1z"/>
	<path class="st1" d="M504.7,99.8h-22.5l-1-4.5l6.8-2.2c0.5-4.2,1.3-13.3,1.6-21.3c0.5-10.2,0.5-14.3-0.1-16.1c-0.8-1-3.9-2.4-6-3.3
		l1-4.5h24.8c2.1,7.3,7.3,21.7,11.3,31.1c3.9-10.5,9.4-24.2,11.3-31.1h23.4l1,4.6l-6.7,3l1.3,24.3c0.4,7.2,0.7,10.9,1.8,12.3
		c0.7,1.1,3.7,2.4,6,3.2l-1,4.5h-25.3l-1-4.5l7.2-2.3c0.1-4.3-1-21.8-1.3-34.5L523.4,94c-3.5,0.4-7,0.4-10.5,0
		c-3.2-7.3-9.7-24.8-14.6-35.4l-0.4,15.8c-0.3,11.6-0.4,16,0.1,17.4c0.6,1.8,4.4,2.5,7.6,3.5L504.7,99.8z"/>
	<path class="st1" d="M588.7,25.6c1.8,2.4,3.6,6.4,4.4,9.3l-1.6,2.7l-25.8,5.9l-1.3-0.7l-1-3.9C570.7,34.3,580.4,29.5,588.7,25.6z
		 M571.1,93c0.3-1.9,0.5-7,0.5-12.7V66.8c0-4.2,0-10.5-0.7-11.3c-0.7-1-4-2.1-6.5-3l1-4.5h25.3l1,4.5l-6.6,2.3
		c-0.3,1.9-0.5,7-0.5,12.7V81c0,4.1,0,10.4,0.7,11.3c0.7,1,4,2.1,6.4,3l-1,4.5h-25.3l-1-4.5L571.1,93z"/>
	<path class="st1" d="M617.5,99.8h-21.9l-1-4.5l5.7-2.3c4.6-11.1,9.6-24.8,14.2-37.7l2.1-7.4c4.7-0.4,12.2-0.7,16.5-0.7
		c0.6,2.3,1.6,5.2,2.7,8.2c4.6,13,10.2,28.1,13.9,37.7l5.8,2.2l-1,4.5h-25.2l-1-4.5l7-2.2c-0.9-2.6-1.9-5.7-3-9.1l-18.5,0.4
		c-0.9,2.9-1.7,5.9-2.5,8.7l7.2,2.2L617.5,99.8z M630.1,77.4c-2.4-7-5-14.6-7.5-21.4c-2.1,6.2-4.4,13.6-6.6,21.1L630.1,77.4z"/>
</g>
<g>
	<path class="st2" d="M194.5,140.5c-1.5,0-3-0.2-4.4-0.7c-1.4-0.5-2.5-1.1-3.3-1.8l1.1-2.3c0.8,0.7,1.8,1.2,3,1.7
		c1.2,0.4,2.4,0.7,3.7,0.7c1.2,0,2.1-0.1,2.9-0.4c0.7-0.3,1.3-0.6,1.6-1.1c0.3-0.5,0.5-1,0.5-1.6c0-0.7-0.2-1.3-0.7-1.7
		c-0.5-0.4-1-0.8-1.8-1c-0.7-0.3-1.5-0.5-2.4-0.7c-0.9-0.2-1.7-0.4-2.6-0.7c-0.9-0.3-1.7-0.6-2.4-1c-0.7-0.4-1.3-1-1.8-1.6
		c-0.4-0.7-0.7-1.6-0.7-2.7c0-1,0.3-2,0.8-2.9c0.6-0.9,1.4-1.6,2.6-2.1c1.2-0.5,2.6-0.8,4.4-0.8c1.2,0,2.3,0.2,3.5,0.5
		s2.2,0.8,3,1.3l-1,2.3c-0.9-0.6-1.8-1-2.8-1.3c-1-0.3-1.9-0.4-2.8-0.4c-1.1,0-2.1,0.1-2.8,0.4c-0.7,0.3-1.3,0.7-1.6,1.2
		c-0.3,0.5-0.5,1-0.5,1.6c0,0.7,0.2,1.3,0.7,1.7c0.5,0.4,1,0.8,1.8,1c0.7,0.2,1.5,0.5,2.4,0.7s1.7,0.4,2.6,0.7
		c0.9,0.2,1.7,0.6,2.4,1c0.7,0.4,1.3,0.9,1.8,1.6c0.4,0.7,0.7,1.5,0.7,2.6c0,1-0.3,2-0.8,2.9c-0.6,0.9-1.4,1.6-2.6,2.1
		C197.7,140.2,196.2,140.5,194.5,140.5z"/>
	<path class="st2" d="M209.5,137.8h11.8v2.5h-14.7V120h14.3v2.5h-11.4V137.8z M209.2,128.7h10.4v2.5h-10.4V128.7z"/>
	<path class="st2" d="M235,140.5c-1.5,0-3-0.3-4.3-0.8c-1.3-0.5-2.4-1.2-3.4-2.2c-1-0.9-1.7-2-2.2-3.3c-0.5-1.3-0.8-2.6-0.8-4.1
		c0-1.5,0.3-2.9,0.8-4.1c0.5-1.3,1.3-2.4,2.3-3.3c1-0.9,2.1-1.7,3.4-2.2c1.3-0.5,2.7-0.8,4.3-0.8c1.6,0,3,0.3,4.3,0.8
		c1.3,0.5,2.4,1.3,3.4,2.4l-1.9,1.8c-0.8-0.8-1.6-1.4-2.6-1.8s-2-0.6-3.1-0.6c-1.1,0-2.2,0.2-3.2,0.6c-1,0.4-1.8,0.9-2.5,1.6
		c-0.7,0.7-1.3,1.5-1.7,2.5c-0.4,1-0.6,2-0.6,3.1c0,1.1,0.2,2.2,0.6,3.1c0.4,1,1,1.8,1.7,2.5c0.7,0.7,1.6,1.2,2.5,1.6
		c1,0.4,2,0.6,3.2,0.6c1.1,0,2.1-0.2,3.1-0.6c1-0.4,1.8-1,2.6-1.8l1.9,1.8c-0.9,1-2.1,1.8-3.4,2.4
		C238.1,140.2,236.6,140.5,235,140.5z"/>
	<path class="st2" d="M246.9,140.3V120h7.9c1.8,0,3.3,0.3,4.6,0.8c1.3,0.6,2.2,1.4,2.9,2.4c0.7,1.1,1,2.3,1,3.8c0,1.5-0.3,2.7-1,3.8
		c-0.7,1.1-1.6,1.9-2.9,2.4c-1.3,0.6-2.8,0.8-4.6,0.8h-6.3l1.3-1.3v7.5H246.9z M249.8,133.1l-1.3-1.4h6.2c1.9,0,3.3-0.4,4.2-1.2
		c1-0.8,1.4-1.9,1.4-3.4s-0.5-2.6-1.4-3.4c-1-0.8-2.4-1.2-4.2-1.2h-6.2l1.3-1.5V133.1z M260.5,140.3l-5.2-7.4h3.1l5.2,7.4H260.5z"/>
	<path class="st2" d="M270.9,137.8h11.8v2.5H268V120h14.3v2.5h-11.4V137.8z M270.6,128.7h10.4v2.5h-10.4V128.7z"/>
	<path class="st2" d="M291.5,140.3v-17.8h-7V120h16.8v2.5h-7v17.8H291.5z"/>
	<path class="st2" d="M300.4,140.3l9.2-20.3h2.9l9.2,20.3h-3l-8.2-18.7h1.2l-8.2,18.7H300.4z M304.3,135.2l0.8-2.3h11.4l0.8,2.3
		H304.3z"/>
	<path class="st2" d="M324.7,140.3V120h7.9c1.8,0,3.3,0.3,4.6,0.8c1.3,0.6,2.2,1.4,2.9,2.4c0.7,1.1,1,2.3,1,3.8c0,1.5-0.3,2.7-1,3.8
		c-0.7,1.1-1.6,1.9-2.9,2.4c-1.3,0.6-2.8,0.8-4.6,0.8h-6.3l1.3-1.3v7.5H324.7z M327.6,133.1l-1.3-1.4h6.2c1.9,0,3.3-0.4,4.2-1.2
		c1-0.8,1.4-1.9,1.4-3.4s-0.5-2.6-1.4-3.4s-2.4-1.2-4.2-1.2h-6.2l1.3-1.5V133.1z M338.2,140.3l-5.2-7.4h3.1l5.2,7.4H338.2z"/>
	<path class="st2" d="M345,118.3l3.9-3.8h3.5l-4.9,3.8H345z M345.8,140.3V120h2.9v20.3H345.8z"/>
	<path class="st2" d="M351.7,140.3l9.2-20.3h2.9l9.2,20.3h-3l-8.2-18.7h1.2l-8.2,18.7H351.7z M355.6,135.2l0.8-2.3h11.4l0.8,2.3
		H355.6z"/>
	<path class="st2" d="M383.8,140.3V120h8.6c2.2,0,4.1,0.4,5.7,1.3c1.7,0.9,2.9,2,3.9,3.6c0.9,1.5,1.4,3.3,1.4,5.3s-0.5,3.8-1.4,5.3
		c-0.9,1.5-2.2,2.7-3.9,3.6s-3.6,1.3-5.7,1.3H383.8z M386.7,137.8h5.5c1.7,0,3.1-0.3,4.4-1c1.2-0.6,2.2-1.5,2.9-2.7
		c0.7-1.1,1-2.5,1-4c0-1.5-0.3-2.9-1-4c-0.7-1.1-1.6-2-2.9-2.7c-1.2-0.6-2.7-1-4.4-1h-5.5V137.8z"/>
	<path class="st2" d="M410.6,137.8h11.8v2.5h-14.7V120h14.3v2.5h-11.4V137.8z M410.4,128.7h10.4v2.5h-10.4V128.7z"/>
	<path class="st2" d="M435,140.3V120h8.6c2.2,0,4.1,0.4,5.7,1.3c1.7,0.9,2.9,2,3.9,3.6c0.9,1.5,1.4,3.3,1.4,5.3s-0.5,3.8-1.4,5.3
		c-0.9,1.5-2.2,2.7-3.9,3.6c-1.7,0.9-3.6,1.3-5.7,1.3H435z M437.9,137.8h5.5c1.7,0,3.1-0.3,4.4-1c1.2-0.6,2.2-1.5,2.9-2.7
		c0.7-1.1,1-2.5,1-4c0-1.5-0.3-2.9-1-4c-0.7-1.1-1.6-2-2.9-2.7c-1.2-0.6-2.7-1-4.4-1h-5.5V137.8z"/>
	<path class="st2" d="M461.8,137.8h11.8v2.5h-14.7V120h14.3v2.5h-11.4V137.8z M461.6,128.7H472v2.5h-10.4V128.7z"/>
	<path class="st2" d="M484.3,140.5c-1.5,0-3-0.2-4.4-0.7c-1.4-0.5-2.5-1.1-3.3-1.8l1.1-2.3c0.8,0.7,1.8,1.2,3,1.7
		c1.2,0.4,2.4,0.7,3.7,0.7c1.2,0,2.1-0.1,2.9-0.4c0.7-0.3,1.3-0.6,1.6-1.1c0.3-0.5,0.5-1,0.5-1.6c0-0.7-0.2-1.3-0.7-1.7
		c-0.5-0.4-1-0.8-1.8-1c-0.7-0.3-1.5-0.5-2.4-0.7c-0.9-0.2-1.7-0.4-2.6-0.7c-0.9-0.3-1.7-0.6-2.4-1s-1.3-1-1.8-1.6
		c-0.4-0.7-0.7-1.6-0.7-2.7c0-1,0.3-2,0.8-2.9c0.5-0.9,1.4-1.6,2.6-2.1c1.2-0.5,2.6-0.8,4.4-0.8c1.2,0,2.3,0.2,3.5,0.5
		c1.2,0.3,2.2,0.8,3,1.3l-1,2.3c-0.9-0.6-1.8-1-2.8-1.3c-1-0.3-1.9-0.4-2.8-0.4c-1.1,0-2.1,0.1-2.8,0.4c-0.7,0.3-1.3,0.7-1.6,1.2
		c-0.3,0.5-0.5,1-0.5,1.6c0,0.7,0.2,1.3,0.7,1.7c0.5,0.4,1,0.8,1.8,1c0.7,0.2,1.5,0.5,2.4,0.7s1.7,0.4,2.6,0.7
		c0.9,0.2,1.7,0.6,2.4,1c0.7,0.4,1.3,0.9,1.8,1.6c0.4,0.7,0.7,1.5,0.7,2.6c0,1-0.3,2-0.8,2.9c-0.6,0.9-1.4,1.6-2.6,2.1
		C487.5,140.2,486.1,140.5,484.3,140.5z"/>
	<path class="st2" d="M493.3,140.3l9.2-20.3h2.9l9.2,20.3h-3l-8.2-18.7h1.2l-8.2,18.7H493.3z M497.2,135.2l0.8-2.3h11.4l0.8,2.3
		H497.2z"/>
	<path class="st2" d="M517.6,140.3V120h7.9c1.8,0,3.3,0.3,4.6,0.8c1.3,0.6,2.2,1.4,2.9,2.4s1,2.3,1,3.8c0,1.5-0.3,2.7-1,3.8
		s-1.6,1.9-2.9,2.4c-1.3,0.6-2.8,0.8-4.6,0.8h-6.3l1.3-1.3v7.5H517.6z M520.5,133.1l-1.3-1.4h6.2c1.9,0,3.3-0.4,4.2-1.2
		c1-0.8,1.4-1.9,1.4-3.4s-0.5-2.6-1.4-3.4c-1-0.8-2.4-1.2-4.2-1.2h-6.2l1.3-1.5V133.1z M531.2,140.3l-5.2-7.4h3.1l5.2,7.4H531.2z"/>
	<path class="st2" d="M538.7,140.3V120h7.9c1.8,0,3.3,0.3,4.6,0.8c1.3,0.6,2.2,1.4,2.9,2.4c0.7,1.1,1,2.3,1,3.8c0,1.5-0.3,2.7-1,3.8
		c-0.7,1.1-1.6,1.9-2.9,2.4c-1.3,0.6-2.8,0.8-4.6,0.8h-6.3l1.3-1.3v7.5H538.7z M541.6,133.1l-1.3-1.4h6.2c1.9,0,3.3-0.4,4.2-1.2
		c1-0.8,1.4-1.9,1.4-3.4s-0.5-2.6-1.4-3.4s-2.4-1.2-4.2-1.2h-6.2l1.3-1.5V133.1z M552.3,140.3l-5.2-7.4h3.1l5.2,7.4H552.3z"/>
	<path class="st2" d="M568.9,140.5c-1.5,0-3-0.3-4.3-0.8c-1.3-0.5-2.5-1.3-3.4-2.2c-1-0.9-1.7-2-2.3-3.3c-0.5-1.3-0.8-2.6-0.8-4.1
		s0.3-2.9,0.8-4.1c0.5-1.3,1.3-2.4,2.3-3.3c1-0.9,2.1-1.7,3.4-2.2c1.3-0.5,2.8-0.8,4.3-0.8c1.5,0,3,0.3,4.3,0.8
		c1.3,0.5,2.4,1.2,3.4,2.2c1,0.9,1.7,2,2.3,3.3c0.5,1.3,0.8,2.6,0.8,4.1c0,1.5-0.3,2.9-0.8,4.1c-0.5,1.3-1.3,2.4-2.3,3.3
		c-1,0.9-2.1,1.7-3.4,2.2C571.9,140.3,570.5,140.5,568.9,140.5z M568.9,137.9c1.1,0,2.2-0.2,3.1-0.6c1-0.4,1.8-0.9,2.5-1.6
		c0.7-0.7,1.3-1.5,1.7-2.5c0.4-0.9,0.6-2,0.6-3.1c0-1.1-0.2-2.2-0.6-3.1c-0.4-0.9-0.9-1.8-1.7-2.5c-0.7-0.7-1.5-1.3-2.5-1.6
		c-1-0.4-2-0.6-3.1-0.6c-1.1,0-2.2,0.2-3.1,0.6c-1,0.4-1.8,0.9-2.5,1.6c-0.7,0.7-1.3,1.5-1.7,2.5c-0.4,0.9-0.6,2-0.6,3.1
		c0,1.1,0.2,2.2,0.6,3.1c0.4,0.9,1,1.8,1.7,2.5c0.7,0.7,1.6,1.3,2.5,1.6S567.8,137.9,568.9,137.9z"/>
	<path class="st2" d="M584.1,140.3V120h2.9v17.8h11v2.5H584.1z"/>
	<path class="st2" d="M601.4,140.3V120h2.9v17.8h11v2.5H601.4z"/>
	<path class="st2" d="M627.4,140.5c-1.5,0-3-0.3-4.3-0.8c-1.3-0.5-2.5-1.3-3.4-2.2c-1-0.9-1.7-2-2.3-3.3c-0.5-1.3-0.8-2.6-0.8-4.1
		s0.3-2.9,0.8-4.1c0.5-1.3,1.3-2.4,2.3-3.3c1-0.9,2.1-1.7,3.4-2.2c1.3-0.5,2.8-0.8,4.3-0.8c1.5,0,3,0.3,4.3,0.8
		c1.3,0.5,2.4,1.2,3.4,2.2c1,0.9,1.7,2,2.3,3.3c0.5,1.3,0.8,2.6,0.8,4.1c0,1.5-0.3,2.9-0.8,4.1c-0.5,1.3-1.3,2.4-2.3,3.3
		c-1,0.9-2.1,1.7-3.4,2.2C630.3,140.3,628.9,140.5,627.4,140.5z M627.4,137.9c1.1,0,2.2-0.2,3.1-0.6s1.8-0.9,2.5-1.6
		c0.7-0.7,1.3-1.5,1.7-2.5c0.4-0.9,0.6-2,0.6-3.1c0-1.1-0.2-2.2-0.6-3.1c-0.4-0.9-0.9-1.8-1.7-2.5c-0.7-0.7-1.5-1.3-2.5-1.6
		c-1-0.4-2-0.6-3.1-0.6c-1.1,0-2.2,0.2-3.1,0.6c-1,0.4-1.8,0.9-2.5,1.6c-0.7,0.7-1.3,1.5-1.7,2.5c-0.4,0.9-0.6,2-0.6,3.1
		c0,1.1,0.2,2.2,0.6,3.1c0.4,0.9,1,1.8,1.7,2.5c0.7,0.7,1.6,1.3,2.5,1.6S626.2,137.9,627.4,137.9z"/>
	<path class="st2" d="M191.4,172.6h11.8v2.5h-14.7v-20.3h14.3v2.5h-11.4V172.6z M191.2,163.5h10.4v2.5h-10.4V163.5z"/>
	<path class="st2" d="M217,175.3c-1.5,0-3-0.3-4.3-0.8c-1.3-0.5-2.4-1.2-3.4-2.2c-1-0.9-1.7-2-2.2-3.3c-0.5-1.3-0.8-2.6-0.8-4.1
		c0-1.5,0.3-2.9,0.8-4.1c0.5-1.3,1.3-2.4,2.3-3.3c1-0.9,2.1-1.7,3.4-2.2c1.3-0.5,2.7-0.8,4.3-0.8c1.6,0,3,0.3,4.3,0.8
		c1.3,0.5,2.5,1.3,3.4,2.4l-1.9,1.8c-0.8-0.8-1.6-1.4-2.6-1.8s-2-0.6-3.1-0.6c-1.1,0-2.2,0.2-3.2,0.6c-1,0.4-1.8,0.9-2.5,1.6
		c-0.7,0.7-1.3,1.5-1.7,2.5c-0.4,1-0.6,2-0.6,3.1c0,1.1,0.2,2.2,0.6,3.1c0.4,1,1,1.8,1.7,2.5c0.7,0.7,1.6,1.2,2.5,1.6
		c1,0.4,2,0.6,3.2,0.6c1.1,0,2.1-0.2,3.1-0.6c1-0.4,1.8-1,2.6-1.8l1.9,1.8c-0.9,1-2.1,1.8-3.4,2.4C220.1,175,218.6,175.3,217,175.3z
		"/>
	<path class="st2" d="M237.6,175.3c-1.5,0-3-0.3-4.3-0.8c-1.3-0.5-2.5-1.3-3.4-2.2c-1-0.9-1.7-2-2.3-3.3c-0.5-1.3-0.8-2.6-0.8-4.1
		c0-1.5,0.3-2.9,0.8-4.1c0.5-1.3,1.3-2.4,2.3-3.3c1-0.9,2.1-1.7,3.4-2.2c1.3-0.5,2.8-0.8,4.3-0.8c1.5,0,3,0.3,4.3,0.8
		c1.3,0.5,2.4,1.2,3.4,2.2s1.7,2,2.3,3.3c0.5,1.3,0.8,2.6,0.8,4.1c0,1.5-0.3,2.9-0.8,4.1c-0.5,1.3-1.3,2.4-2.3,3.3
		c-1,0.9-2.1,1.7-3.4,2.2C240.6,175.1,239.2,175.3,237.6,175.3z M237.6,172.7c1.1,0,2.2-0.2,3.1-0.6c1-0.4,1.8-0.9,2.5-1.6
		c0.7-0.7,1.3-1.5,1.7-2.5c0.4-0.9,0.6-2,0.6-3.1c0-1.1-0.2-2.2-0.6-3.1c-0.4-0.9-0.9-1.8-1.7-2.5s-1.5-1.3-2.5-1.6
		c-1-0.4-2-0.6-3.1-0.6c-1.1,0-2.2,0.2-3.1,0.6c-1,0.4-1.8,0.9-2.5,1.6s-1.3,1.5-1.7,2.5c-0.4,0.9-0.6,2-0.6,3.1
		c0,1.1,0.2,2.2,0.6,3.1c0.4,0.9,1,1.8,1.7,2.5c0.7,0.7,1.6,1.3,2.5,1.6C235.5,172.5,236.5,172.7,237.6,172.7z"/>
	<path class="st2" d="M252.8,175.1v-20.3h2.4l13.4,16.7h-1.2v-16.7h2.9v20.3h-2.4l-13.4-16.7h1.2v16.7H252.8z"/>
	<path class="st2" d="M285.6,175.3c-1.5,0-3-0.3-4.3-0.8c-1.3-0.5-2.5-1.3-3.4-2.2c-1-0.9-1.7-2-2.3-3.3c-0.5-1.3-0.8-2.6-0.8-4.1
		c0-1.5,0.3-2.9,0.8-4.1c0.5-1.3,1.3-2.4,2.3-3.3c1-0.9,2.1-1.7,3.4-2.2c1.3-0.5,2.8-0.8,4.3-0.8c1.5,0,3,0.3,4.3,0.8
		c1.3,0.5,2.4,1.2,3.4,2.2s1.7,2,2.3,3.3c0.5,1.3,0.8,2.6,0.8,4.1c0,1.5-0.3,2.9-0.8,4.1c-0.5,1.3-1.3,2.4-2.3,3.3
		c-1,0.9-2.1,1.7-3.4,2.2C288.5,175.1,287.1,175.3,285.6,175.3z M285.6,172.7c1.1,0,2.2-0.2,3.1-0.6c1-0.4,1.8-0.9,2.5-1.6
		c0.7-0.7,1.3-1.5,1.7-2.5c0.4-0.9,0.6-2,0.6-3.1c0-1.1-0.2-2.2-0.6-3.1c-0.4-0.9-0.9-1.8-1.7-2.5c-0.7-0.7-1.5-1.3-2.5-1.6
		c-1-0.4-2-0.6-3.1-0.6c-1.1,0-2.2,0.2-3.1,0.6c-1,0.4-1.8,0.9-2.5,1.6c-0.7,0.7-1.3,1.5-1.7,2.5c-0.4,0.9-0.6,2-0.6,3.1
		c0,1.1,0.2,2.2,0.6,3.1c0.4,0.9,1,1.8,1.7,2.5c0.7,0.7,1.6,1.3,2.5,1.6C283.4,172.5,284.4,172.7,285.6,172.7z M283.4,153.1l3.9-3.8
		h3.5l-4.9,3.8H283.4z"/>
	<path class="st2" d="M300.8,175.1v-20.3h2.4l9.1,15.3H311l9-15.3h2.4l0,20.3h-2.8l0-15.9h0.7l-8,13.5h-1.3l-8.1-13.5h0.7v15.9
		H300.8z"/>
	<path class="st2" d="M328.4,175.1v-20.3h2.9v20.3H328.4z"/>
	<path class="st2" d="M346.5,175.3c-1.5,0-3-0.3-4.3-0.8c-1.3-0.5-2.4-1.2-3.4-2.2c-1-0.9-1.7-2-2.2-3.3c-0.5-1.3-0.8-2.6-0.8-4.1
		c0-1.5,0.3-2.9,0.8-4.1c0.5-1.3,1.3-2.4,2.3-3.3c1-0.9,2.1-1.7,3.4-2.2c1.3-0.5,2.7-0.8,4.3-0.8c1.6,0,3,0.3,4.3,0.8
		c1.3,0.5,2.4,1.3,3.4,2.4l-1.9,1.8c-0.8-0.8-1.6-1.4-2.6-1.8c-1-0.4-2-0.6-3.1-0.6c-1.1,0-2.2,0.2-3.2,0.6c-1,0.4-1.8,0.9-2.5,1.6
		c-0.7,0.7-1.3,1.5-1.7,2.5c-0.4,1-0.6,2-0.6,3.1c0,1.1,0.2,2.2,0.6,3.1c0.4,1,1,1.8,1.7,2.5s1.6,1.2,2.5,1.6c1,0.4,2,0.6,3.2,0.6
		c1.1,0,2.1-0.2,3.1-0.6c1-0.4,1.8-1,2.6-1.8l1.9,1.8c-0.9,1-2.1,1.8-3.4,2.4C349.6,175,348.1,175.3,346.5,175.3z"/>
	<path class="st2" d="M367.1,175.3c-1.5,0-3-0.3-4.3-0.8c-1.3-0.5-2.5-1.3-3.4-2.2c-1-0.9-1.7-2-2.3-3.3c-0.5-1.3-0.8-2.6-0.8-4.1
		c0-1.5,0.3-2.9,0.8-4.1c0.5-1.3,1.3-2.4,2.3-3.3c1-0.9,2.1-1.7,3.4-2.2c1.3-0.5,2.8-0.8,4.3-0.8c1.5,0,3,0.3,4.3,0.8
		c1.3,0.5,2.4,1.2,3.4,2.2s1.7,2,2.3,3.3c0.5,1.3,0.8,2.6,0.8,4.1c0,1.5-0.3,2.9-0.8,4.1c-0.5,1.3-1.3,2.4-2.3,3.3
		c-1,0.9-2.1,1.7-3.4,2.2C370.1,175.1,368.7,175.3,367.1,175.3z M367.1,172.7c1.1,0,2.2-0.2,3.1-0.6c1-0.4,1.8-0.9,2.5-1.6
		c0.7-0.7,1.3-1.5,1.7-2.5c0.4-0.9,0.6-2,0.6-3.1c0-1.1-0.2-2.2-0.6-3.1c-0.4-0.9-0.9-1.8-1.7-2.5c-0.7-0.7-1.5-1.3-2.5-1.6
		c-1-0.4-2-0.6-3.1-0.6c-1.1,0-2.2,0.2-3.1,0.6c-1,0.4-1.8,0.9-2.5,1.6c-0.7,0.7-1.3,1.5-1.7,2.5c-0.4,0.9-0.6,2-0.6,3.1
		c0,1.1,0.2,2.2,0.6,3.1c0.4,0.9,1,1.8,1.7,2.5c0.7,0.7,1.6,1.3,2.5,1.6C364.9,172.5,366,172.7,367.1,172.7z"/>
</g>
</svg>
