<?xml version="1.0" encoding="utf-8"?>
<!-- Generator: Adobe Illustrator 25.4.1, SVG Export Plug-In . SVG Version: 6.00 Build 0)  -->
<svg version="1.1" id="Capa_1" xmlns="http://www.w3.org/2000/svg" xmlns:xlink="http://www.w3.org/1999/xlink" x="0px" y="0px"
	 viewBox="0 0 905.9 225.9" style="enable-background:new 0 0 905.9 225.9;" xml:space="preserve">
<style type="text/css">
	.st0{fill:#A02142;}
	.st1{fill:#691B32;}
	.st2{fill:#707271;}
</style>
<g>
	<g>
		<g>
			<g>
				<g>
					<path class="st0" d="M114.3,19.9v24.7l-14.1,14.1V32.3l12.9-12.9C113.6,19,114.3,19.3,114.3,19.9z"/>
				</g>
				<g>
					<polygon class="st0" points="97.8,34.8 97.8,61.2 83.7,75.2 83.7,48.8 					"/>
				</g>
			</g>
			<g>
				<g>
					<polygon class="st1" points="78.8,48.8 78.8,75.2 64.6,61.2 64.6,34.8 					"/>
				</g>
				<g>
					<path class="st1" d="M62.2,32.3v26.4L48.2,44.6V19.9c0-0.6,0.8-0.9,1.2-0.5L62.2,32.3z"/>
				</g>
			</g>
			<g>
				<g>
					<path class="st0" d="M62.2,100.3v26.4l-12.9,12.9c-0.4,0.4-1.2,0.1-1.2-0.5v-24.7L62.2,100.3z"/>
				</g>
				<g>
					<polygon class="st0" points="78.8,83.7 78.8,110.1 64.6,124.2 64.6,97.8 					"/>
				</g>
			</g>
			<g>
				<g>
					<polygon class="st1" points="97.8,97.8 97.8,124.2 83.7,110.1 83.7,83.7 					"/>
				</g>
				<g>
					<path class="st1" d="M114.3,114.3V139c0,0.6-0.8,0.9-1.2,0.5l-12.9-12.9v-26.4L114.3,114.3z"/>
				</g>
			</g>
			<g>
				<g>
					<path class="st0" d="M140.8,112.6h-24.7l-14.1-14.1h26.4l12.9,12.9C141.8,111.8,141.4,112.6,140.8,112.6z"/>
				</g>
				<g>
					<polygon class="st0" points="125.9,96 99.6,96 85.5,82 111.8,82 					"/>
				</g>
			</g>
			<g>
				<g>
					<polygon class="st1" points="125.9,62.9 111.8,77 85.5,77 99.6,62.9 					"/>
				</g>
				<g>
					<path class="st1" d="M141.3,47.5l-12.9,12.9H102l14.1-14.1h24.7C141.4,46.3,141.8,47.1,141.3,47.5z"/>
				</g>
			</g>
			<g>
				<g>
					<path class="st0" d="M60.4,60.4H34L21.1,47.5c-0.4-0.4-0.1-1.2,0.5-1.2h24.7L60.4,60.4z"/>
				</g>
				<g>
					<polygon class="st0" points="77,77 50.6,77 36.5,62.9 62.9,62.9 					"/>
				</g>
			</g>
			<g>
				<g>
					<polygon class="st1" points="77,82 62.9,96 36.5,96 50.6,82 					"/>
				</g>
				<g>
					<path class="st1" d="M60.4,98.5l-14.1,14.1H21.7c-0.6,0-0.9-0.8-0.5-1.2L34,98.5L60.4,98.5L60.4,98.5z"/>
				</g>
			</g>
		</g>
	</g>
	<g>
		<path class="st1" d="M181.5,71.3h-20.4l-0.9-4.1l6.2-2c0.5-3.8,1.1-12,1.5-19.2c0.5-9.2,0.5-12.9-0.1-14.5
			c-0.7-0.9-3.5-2.2-5.4-2.9l0.9-4.1h22.4c1.9,6.6,6.6,19.6,10.2,28.1c3.6-9.5,8.5-21.9,10.2-28.1h21.1l0.9,4.2l-6.1,2.7l1.2,22
			c0.3,6.5,0.7,9.9,1.6,11.1c0.6,1,3.4,2.2,5.4,2.9l-0.9,4.1h-22.9l-0.9-4.1l6.5-2.1c0.1-3.9-0.9-19.7-1.1-31.2l-12.5,32
			c-3.2,0.3-6.4,0.3-9.5,0c-2.9-6.6-8.8-22.5-13.2-32l-0.4,14.3c-0.3,10.5-0.4,14.5,0.1,15.8c0.5,1.6,4,2.3,6.9,3.2L181.5,71.3z"/>
		<path class="st1" d="M241.5,65.2c0.3-1.7,0.5-6.3,0.5-11.5V41.4c0-3.8,0.1-9.6-0.7-10.3c-0.9-0.9-3.7-1.9-5.8-2.6l0.9-4.1h18.8
			c8.5,0,15.3-0.2,20.8-0.6c0.7,0.9,1.7,2.3,2.1,3.2c-0.5,3.3-1.8,9.2-2.3,11.6c-1.5,0.1-5.4-0.1-7-0.4l-1.8-8.1
			c-1.9-0.2-4.6-0.3-7-0.3c-2.1,0-4,0.1-5.8,0.1c-0.2,2.1-0.5,6.8-0.5,12v3.5l14.2-0.8l1.3,1.7c-0.3,1.7-0.7,3.8-1,5.6l-14.5-0.6
			v2.9c0,3.9-0.1,9.5,0.7,10.4c1.1,1,4.4,1.2,6.9,1.2c2.3,0,4.8-0.3,6.6-0.6l2.3-8.2c1.9-0.1,6,0.1,7.6,0.3c0.2,4.5,0.2,9.2,0,13.9
			h-41.4l-0.9-4.1L241.5,65.2z"/>
		<path class="st1" d="M291.5,65.2c0.3-1.7,0.5-6.3,0.5-11.5V41.4c0-3.8,0-9.5-0.6-10.3c-0.7-0.9-3.6-1.9-5.8-2.7l0.9-4.1h10.3
			c2.5,0,10-0.4,13.5-0.4c19.4,0,25.9,10.8,25.9,23.5c0,16.4-11.3,24.5-23.9,24.5c-4.3,0-10.7-0.6-15-0.6h-10.8l-0.9-4.1L291.5,65.2
			z M304.3,64.6c0.9,1.1,6.8,2.4,11.6,0.6c5-2.7,7.9-8.9,7.9-17.7c0-7.3-2.7-13-5.4-15.1c-2.2-1.4-5.5-2.1-8.9-2.1
			c-1.9,0-3.9,0.1-5.4,0.4c-0.3,1.7-0.5,6.3-0.5,11.4v12.3C303.7,58.1,303.7,63.8,304.3,64.6z"/>
		<path class="st1" d="M348.8,65.2c0.3-1.7,0.5-6.3,0.5-11.5V41.4c0-3.8,0-9.5-0.6-10.3c-0.7-0.9-3.6-1.9-5.8-2.7l0.9-4.1h22.9
			l0.9,4.1l-6,2.1c-0.3,1.7-0.5,6.3-0.5,11.5v12.3c0,3.8,0,9.5,0.6,10.3c0.7,0.9,3.6,1.9,5.8,2.7l-0.9,4.1h-22.9l-0.9-4.1
			L348.8,65.2z"/>
		<path class="st1" d="M374.1,49.3c0-15.4,10.3-25.9,25.5-25.9c13.7,0,23.1,8.9,23.1,23.4c0,15-10.3,25.5-24.9,25.5
			C383.8,72.3,374.1,63.6,374.1,49.3z M407,62.5c1.3-1.9,3.5-7,3.5-14.1c0-11.3-3.1-17.7-12.3-17.7c-3.1,0-6.5,1.1-8.2,2.4
			c-2.3,3.3-3.5,8.7-3.5,15.1c0,10.3,4,16.6,12.2,16.6C402.2,65,405.4,64,407,62.5z"/>
		<path class="st1" d="M179.8,138.3H160l-0.9-4.1l5.2-2.1c4.2-10.1,8.7-22.4,12.9-34.1l1.9-6.7c4.2-0.3,11-0.7,14.9-0.7
			c0.5,2.1,1.5,4.7,2.4,7.4c4.2,11.8,9.2,25.4,12.6,34.1l5.2,2l-0.9,4.1h-22.8l-0.9-4.1l6.4-2c-0.8-2.3-1.7-5.2-2.7-8.2l-16.8,0.4
			c-0.8,2.6-1.5,5.3-2.3,7.8l6.5,2L179.8,138.3z M191.2,118.1c-2.1-6.3-4.6-13.2-6.8-19.3c-1.9,5.6-4,12.3-6,19L191.2,118.1z"/>
		<path class="st1" d="M237.4,138.3h-20.4l-0.9-4.1l6.2-2c0.5-3.8,1.1-12,1.5-19.2c0.5-9.2,0.5-12.9-0.1-14.5
			c-0.7-0.9-3.5-2.2-5.4-2.9l0.9-4.1h22.4c1.9,6.6,6.6,19.6,10.2,28.1c3.6-9.5,8.5-21.9,10.2-28.1h21.1l0.9,4.2l-6.1,2.7l1.2,22
			c0.3,6.5,0.7,9.9,1.6,11.1c0.6,1,3.4,2.2,5.4,2.9l-0.9,4.1h-22.9l-0.9-4.1l6.5-2.1c0.1-3.9-0.9-19.7-1.1-31.2l-12.5,32
			c-3.2,0.3-6.4,0.3-9.5,0c-2.9-6.6-8.8-22.5-13.2-32l-0.4,14.3c-0.3,10.5-0.4,14.5,0.1,15.8c0.5,1.6,4,2.3,6.9,3.2L237.4,138.3z"/>
		<path class="st1" d="M297.5,132.2c0.3-1.7,0.5-6.3,0.5-11.5v-12.3c0-3.8,0-9.5-0.6-10.3c-0.7-0.9-3.6-1.9-5.8-2.7l0.9-4.1H303
			c2.3,0,9.8-0.4,13.1-0.4c11.7-0.1,18.7,4,18.7,12c0,5.2-3.5,8.6-7.8,10.8c5.6,1.4,10.1,5,10.1,11.3c0,9.2-8.8,13.8-18.6,13.8
			c-4.4,0-10.7-0.6-15-0.6h-11.1l-0.9-4.1L297.5,132.2z M317.1,133c1.5,0,3.3-0.2,4.8-0.8c1.8-1.5,2.9-4.3,2.9-7.1
			c0-4.1-2.5-6.8-7.6-6.8h-7.5v2.9c0,3.8-0.1,9.5,0.6,10.3C311.1,132.5,314,133,317.1,133z M309.7,111.7l9,0.4
			c1.9-1.3,3.8-4.1,3.8-8.1c0-2.5-0.7-4.3-1.6-5.6c-1.2-1-3.5-1.6-5.8-1.6c-1.3,0-3.8,0.3-5,0.7c-0.3,1.7-0.5,6.3-0.5,11.5V111.7z"
			/>
		<path class="st1" d="M349.1,132.2c0.3-1.7,0.5-6.3,0.5-11.5v-12.3c0-3.8,0-9.5-0.6-10.3c-0.7-0.9-3.6-1.9-5.8-2.7l0.9-4.1h22.9
			l0.9,4.1l-6,2.1c-0.3,1.7-0.5,6.3-0.5,11.5v12.3c0,3.8,0,9.5,0.6,10.3c0.7,0.9,3.6,1.9,5.8,2.7l-0.9,4.1H344l-0.9-4.1L349.1,132.2
			z"/>
		<path class="st1" d="M381.1,132.2c0.3-1.7,0.5-6.3,0.5-11.5v-12.3c0-3.8,0.1-9.6-0.7-10.3c-0.9-0.9-3.7-1.9-5.8-2.6l0.9-4.1h18.8
			c8.5,0,15.3-0.2,20.8-0.6c0.7,0.9,1.7,2.3,2.1,3.2c-0.5,3.3-1.8,9.2-2.3,11.6c-1.5,0.1-5.4-0.1-7-0.4l-1.8-8.1
			c-1.9-0.2-4.6-0.3-7-0.3c-2.1,0-4,0.1-5.8,0.1c-0.2,2.1-0.5,6.8-0.5,12v3.5l14.2-0.8l1.3,1.7c-0.3,1.7-0.7,3.8-1,5.6l-14.5-0.6
			v2.9c0,3.9-0.1,9.5,0.7,10.4c1.1,1,4.4,1.2,6.9,1.2c2.3,0,4.8-0.3,6.6-0.6l2.3-8.2c1.9-0.1,6,0.1,7.6,0.3c0.2,4.5,0.2,9.2,0,13.9
			H376l-0.9-4.1L381.1,132.2z"/>
		<path class="st1" d="M462.5,138.6l-6.2-8.3c-5.1-6.8-12.1-15-17.7-21.5c0.2,12.6,0.7,21.2,1.3,22.6c0.9,1.1,4.6,2,7.8,2.9
			l-0.9,4.1H426l-0.9-4.1l5.9-2.1c0.3-1.7,0.5-7.7,0.5-17.6c0-9.2-0.1-15-1-16.2c-1.1-1-3.4-2.1-5.4-2.9l0.9-4.1
			c4.9,0,10.8-0.1,15.3-0.3c4.2,7,15.2,20.4,23.1,29.8c-0.1-12.9-0.7-21.2-1.5-22.6c-0.7-0.9-4.4-2.1-6.9-2.9l0.9-4.1h20.7l0.9,4.1
			l-5.9,2.1c-0.7,3.8-1.1,19-1.1,40.1L462.5,138.6z"/>
		<path class="st1" d="M498.8,132.2c0.3-1.7,0.5-6.3,0.5-11.5V96.8h-0.7c-2.1,0-4.5,0.1-6.2,0.3l-2.3,9c-1.9,0.1-6.1,0-7.8-0.3
			c-0.2-4.6-0.2-9.6,0-14.4h24.3c8.1,0,14.7-0.1,19.9-0.5c0.7,0.9,1.6,2.2,2.1,3.1c-0.2,3.8-0.7,8.4-1.1,11.9
			c-1.6,0.3-5.7,0.2-7.2-0.1l-2.1-8.6c-1.8-0.3-4.2-0.3-6.3-0.3H511v24.5c0,3.8,0,9.5,0.6,10.3c0.7,0.9,3.6,1.9,5.8,2.7l-0.9,4.1
			h-22.9l-0.9-4.1L498.8,132.2z"/>
		<path class="st1" d="M539.8,132.2c0.3-1.7,0.5-6.3,0.5-11.5v-12.3c0-3.8,0.1-9.6-0.7-10.3c-0.9-0.9-3.7-1.9-5.8-2.6l0.9-4.1h18.8
			c8.5,0,15.3-0.2,20.8-0.6c0.7,0.9,1.7,2.3,2.1,3.2c-0.5,3.3-1.8,9.2-2.3,11.6c-1.5,0.1-5.4-0.1-7-0.4l-1.8-8.1
			c-1.9-0.2-4.6-0.3-7-0.3c-2.1,0-4,0.1-5.8,0.1c-0.2,2.1-0.5,6.8-0.5,12v3.5l14.2-0.8l1.3,1.7c-0.3,1.7-0.7,3.8-1,5.6l-14.5-0.6
			v2.9c0,3.9-0.1,9.5,0.7,10.4c1.1,1,4.4,1.2,6.9,1.2c2.3,0,4.8-0.3,6.6-0.6l2.3-8.2c1.9-0.1,6,0.1,7.6,0.3c0.2,4.5,0.2,9.2,0,13.9
			h-41.4l-0.9-4.1L539.8,132.2z"/>
	</g>
	<g>
		<path class="st2" d="M171.7,175.8c-1.4,0-2.7-0.2-3.9-0.6c-1.3-0.4-2.2-1-3-1.6l1-2c0.7,0.6,1.6,1.1,2.6,1.5
			c1.1,0.4,2.2,0.6,3.3,0.6c1,0,1.9-0.1,2.6-0.4c0.7-0.2,1.1-0.6,1.4-1c0.3-0.4,0.5-0.9,0.5-1.4c0-0.6-0.2-1.1-0.6-1.5
			c-0.4-0.4-0.9-0.7-1.6-0.9c-0.6-0.2-1.4-0.4-2.1-0.6c-0.8-0.2-1.6-0.4-2.3-0.6c-0.8-0.2-1.5-0.5-2.1-0.9c-0.6-0.4-1.2-0.8-1.6-1.5
			c-0.4-0.6-0.6-1.4-0.6-2.4c0-0.9,0.2-1.8,0.7-2.6c0.5-0.8,1.2-1.4,2.3-1.9c1-0.5,2.3-0.7,3.9-0.7c1,0,2.1,0.1,3.1,0.4
			c1,0.3,1.9,0.7,2.7,1.2L177,161c-0.8-0.5-1.6-0.9-2.5-1.1c-0.9-0.2-1.7-0.3-2.5-0.3c-1,0-1.8,0.1-2.5,0.4c-0.7,0.3-1.1,0.6-1.4,1
			c-0.3,0.4-0.5,0.9-0.5,1.4c0,0.6,0.2,1.1,0.6,1.5c0.4,0.4,0.9,0.7,1.6,0.9c0.6,0.2,1.4,0.4,2.1,0.6c0.8,0.2,1.6,0.4,2.3,0.6
			c0.8,0.2,1.5,0.5,2.1,0.9c0.6,0.4,1.2,0.8,1.6,1.4c0.4,0.6,0.6,1.4,0.6,2.3c0,0.9-0.2,1.8-0.7,2.5c-0.5,0.8-1.3,1.4-2.3,1.9
			C174.5,175.5,173.2,175.8,171.7,175.8z"/>
		<path class="st2" d="M185,173.3h10.5v2.2h-13.1v-18.1h12.7v2.2H185V173.3z M184.8,165.3h9.3v2.2h-9.3V165.3z"/>
		<path class="st2" d="M207.7,175.8c-1.4,0-2.6-0.2-3.8-0.7c-1.2-0.5-2.2-1.1-3-1.9c-0.8-0.8-1.5-1.8-2-2.9
			c-0.5-1.1-0.7-2.3-0.7-3.7s0.2-2.6,0.7-3.7c0.5-1.1,1.2-2.1,2-2.9c0.9-0.8,1.9-1.5,3-1.9c1.2-0.5,2.4-0.7,3.8-0.7
			c1.4,0,2.7,0.2,3.9,0.7c1.2,0.5,2.2,1.2,3,2.1l-1.7,1.6c-0.7-0.7-1.5-1.3-2.3-1.6c-0.9-0.4-1.8-0.5-2.8-0.5c-1,0-2,0.2-2.8,0.5
			c-0.9,0.3-1.6,0.8-2.3,1.4c-0.6,0.6-1.1,1.4-1.5,2.2c-0.4,0.9-0.5,1.8-0.5,2.8c0,1,0.2,1.9,0.5,2.8c0.4,0.8,0.8,1.6,1.5,2.2
			c0.6,0.6,1.4,1.1,2.3,1.4c0.9,0.3,1.8,0.5,2.8,0.5c1,0,1.9-0.2,2.8-0.5c0.9-0.4,1.6-0.9,2.3-1.6l1.7,1.6c-0.8,0.9-1.8,1.6-3,2.1
			C210.4,175.5,209.1,175.8,207.7,175.8z"/>
		<path class="st2" d="M218.3,175.5v-18.1h7c1.6,0,2.9,0.2,4,0.7c1.1,0.5,2,1.2,2.6,2.2c0.6,0.9,0.9,2.1,0.9,3.4
			c0,1.3-0.3,2.4-0.9,3.4c-0.6,0.9-1.5,1.7-2.6,2.2c-1.1,0.5-2.5,0.7-4,0.7h-5.6l1.2-1.2v6.7H218.3z M220.9,169.1l-1.2-1.3h5.5
			c1.7,0,2.9-0.4,3.8-1.1c0.8-0.7,1.3-1.7,1.3-3c0-1.3-0.4-2.3-1.3-3s-2.1-1.1-3.8-1.1h-5.5l1.2-1.3V169.1z M230.4,175.5l-4.6-6.5
			h2.8l4.6,6.5H230.4z"/>
		<path class="st2" d="M239.6,173.3h10.5v2.2H237v-18.1h12.7v2.2h-10.2V173.3z M239.4,165.3h9.3v2.2h-9.3V165.3z"/>
		<path class="st2" d="M257.9,175.5v-15.8h-6.2v-2.2h14.9v2.2h-6.2v15.8H257.9z"/>
		<path class="st2" d="M265.8,175.5l8.2-18.1h2.6l8.2,18.1H282l-7.3-16.6h1l-7.3,16.6H265.8z M269.3,171l0.7-2.1h10.2l0.7,2.1H269.3
			z"/>
		<path class="st2" d="M287.4,175.5v-18.1h7c1.6,0,2.9,0.2,4,0.7c1.1,0.5,2,1.2,2.6,2.2s0.9,2.1,0.9,3.4c0,1.3-0.3,2.4-0.9,3.4
			s-1.5,1.7-2.6,2.2c-1.1,0.5-2.5,0.7-4,0.7h-5.6l1.2-1.2v6.7H287.4z M290,169.1l-1.2-1.3h5.5c1.6,0,2.9-0.4,3.8-1.1
			c0.8-0.7,1.3-1.7,1.3-3c0-1.3-0.4-2.3-1.3-3c-0.9-0.7-2.1-1.1-3.8-1.1h-5.5l1.2-1.3V169.1z M299.5,175.5l-4.6-6.5h2.8l4.6,6.5
			H299.5z"/>
		<path class="st2" d="M305.5,156l3.5-3.4h3.1l-4.3,3.4H305.5z M306.2,175.5v-18.1h2.6v18.1H306.2z"/>
		<path class="st2" d="M311.4,175.5l8.2-18.1h2.6l8.2,18.1h-2.7l-7.3-16.6h1l-7.3,16.6H311.4z M314.9,171l0.7-2.1h10.2l0.7,2.1
			H314.9z"/>
		<path class="st2" d="M340,175.5v-18.1h7.6c1.9,0,3.6,0.4,5.1,1.1c1.5,0.8,2.6,1.8,3.4,3.2c0.8,1.4,1.2,2.9,1.2,4.7
			c0,1.8-0.4,3.4-1.2,4.7c-0.8,1.4-2,2.4-3.4,3.2c-1.5,0.8-3.2,1.1-5.1,1.1H340z M342.6,173.3h4.9c1.5,0,2.8-0.3,3.9-0.8
			c1.1-0.6,1.9-1.4,2.5-2.4c0.6-1,0.9-2.2,0.9-3.5c0-1.4-0.3-2.5-0.9-3.6c-0.6-1-1.5-1.8-2.5-2.4c-1.1-0.6-2.4-0.8-3.9-0.8h-4.9
			V173.3z"/>
		<path class="st2" d="M363.9,173.3h10.5v2.2h-13.1v-18.1H374v2.2h-10.2V173.3z M363.6,165.3h9.3v2.2h-9.3V165.3z"/>
		<path class="st2" d="M385.5,175.5v-18.1h2.1l8.1,13.6h-1.1l8-13.6h2.1l0,18.1h-2.5l0-14.2h0.6l-7.1,12h-1.2l-7.2-12h0.6v14.2
			H385.5z"/>
		<path class="st2" d="M412.7,173.3h10.5v2.2h-13.1v-18.1h12.7v2.2h-10.2V173.3z M412.5,165.3h9.3v2.2h-9.3V165.3z"/>
		<path class="st2" d="M427.4,175.5v-18.1h7.6c1.9,0,3.6,0.4,5.1,1.1c1.5,0.8,2.6,1.8,3.4,3.2c0.8,1.4,1.2,2.9,1.2,4.7
			c0,1.8-0.4,3.4-1.2,4.7c-0.8,1.4-2,2.4-3.4,3.2c-1.5,0.8-3.2,1.1-5.1,1.1H427.4z M430,173.3h4.9c1.5,0,2.8-0.3,3.9-0.8
			c1.1-0.6,1.9-1.4,2.5-2.4c0.6-1,0.9-2.2,0.9-3.5c0-1.4-0.3-2.5-0.9-3.6c-0.6-1-1.5-1.8-2.5-2.4c-1.1-0.6-2.4-0.8-3.9-0.8H430
			V173.3z"/>
		<path class="st2" d="M448.7,175.5v-18.1h2.6v18.1H448.7z"/>
		<path class="st2" d="M464.8,175.8c-1.4,0-2.7-0.2-3.8-0.7c-1.2-0.5-2.2-1.1-3.1-1.9c-0.9-0.8-1.5-1.8-2-2.9
			c-0.5-1.1-0.7-2.3-0.7-3.7s0.2-2.5,0.7-3.7c0.5-1.1,1.2-2.1,2-2.9c0.9-0.8,1.9-1.5,3-1.9c1.2-0.5,2.5-0.7,3.8-0.7
			c1.4,0,2.6,0.2,3.8,0.7c1.2,0.5,2.2,1.1,3,1.9c0.9,0.8,1.5,1.8,2,2.9c0.5,1.1,0.7,2.3,0.7,3.7s-0.2,2.6-0.7,3.7
			c-0.5,1.1-1.1,2.1-2,2.9c-0.9,0.8-1.9,1.5-3,1.9C467.5,175.5,466.2,175.8,464.8,175.8z M464.8,173.5c1,0,1.9-0.2,2.8-0.5
			c0.9-0.3,1.6-0.8,2.2-1.5c0.6-0.6,1.1-1.4,1.5-2.2c0.4-0.8,0.5-1.8,0.5-2.8c0-1-0.2-1.9-0.5-2.8c-0.4-0.8-0.8-1.6-1.5-2.2
			c-0.6-0.6-1.4-1.1-2.2-1.5c-0.8-0.3-1.8-0.5-2.8-0.5c-1,0-1.9,0.2-2.8,0.5c-0.9,0.3-1.6,0.8-2.2,1.5c-0.6,0.6-1.1,1.4-1.5,2.2
			c-0.4,0.8-0.5,1.8-0.5,2.8c0,1,0.2,1.9,0.5,2.8c0.4,0.8,0.8,1.6,1.5,2.2c0.6,0.6,1.4,1.1,2.2,1.5
			C462.9,173.3,463.8,173.5,464.8,173.5z"/>
		<path class="st2" d="M482.6,175.5l8.2-18.1h2.6l8.2,18.1h-2.7l-7.3-16.6h1l-7.3,16.6H482.6z M486,171l0.7-2.1h10.2l0.7,2.1H486z"
			/>
		<path class="st2" d="M504.2,175.5v-18.1h2.1l8.1,13.6h-1.1l8-13.6h2.1l0,18.1h-2.5l0-14.2h0.6l-7.1,12h-1.2l-7.2-12h0.6v14.2
			H504.2z"/>
		<path class="st2" d="M528.8,175.5v-18.1h8.1c2.1,0,3.7,0.4,4.8,1.3c1.1,0.8,1.7,2,1.7,3.4c0,1-0.2,1.8-0.7,2.5
			c-0.4,0.7-1,1.2-1.8,1.5c-0.7,0.4-1.5,0.5-2.4,0.5l0.5-0.8c1,0,1.9,0.2,2.7,0.5c0.8,0.4,1.4,0.9,1.9,1.6s0.7,1.6,0.7,2.6
			c0,1.5-0.6,2.7-1.7,3.6c-1.2,0.8-2.9,1.3-5.2,1.3H528.8z M531.4,173.5h5.9c1.4,0,2.5-0.2,3.3-0.7c0.8-0.5,1.1-1.2,1.1-2.3
			c0-1-0.4-1.8-1.1-2.3c-0.8-0.5-1.8-0.7-3.3-0.7h-6.2v-2.1h5.5c1.3,0,2.3-0.2,3-0.7c0.7-0.5,1.1-1.2,1.1-2.2c0-1-0.4-1.7-1.1-2.2
			c-0.7-0.5-1.7-0.7-3-0.7h-5.3V173.5z"/>
		<path class="st2" d="M548.3,175.5v-18.1h2.6v18.1H548.3z"/>
		<path class="st2" d="M558.9,173.3h10.5v2.2h-13.1v-18.1H569v2.2h-10.2V173.3z M558.6,165.3h9.3v2.2h-9.3V165.3z"/>
		<path class="st2" d="M573.6,175.5v-18.1h2.1l11.9,14.8h-1.1v-14.8h2.6v18.1H587L575,160.7h1.1v14.8H573.6z"/>
		<path class="st2" d="M598.1,175.5v-15.8h-6.2v-2.2h14.9v2.2h-6.2v15.8H598.1z"/>
		<path class="st2" d="M612.2,173.3h10.5v2.2h-13.1v-18.1h12.7v2.2h-10.2V173.3z M612,165.3h9.3v2.2H612V165.3z"/>
		<path class="st2" d="M171.3,206.5v-6.9l0.6,1.6l-7.8-12.7h2.8l6.5,10.8h-1.5l6.5-10.8h2.6l-7.7,12.7l0.6-1.6v6.9H171.3z"/>
		<path class="st2" d="M190.6,206.5v-18.1h7c1.6,0,2.9,0.2,4,0.7c1.1,0.5,2,1.2,2.6,2.2c0.6,0.9,0.9,2.1,0.9,3.4
			c0,1.3-0.3,2.4-0.9,3.4c-0.6,0.9-1.5,1.7-2.6,2.2c-1.1,0.5-2.5,0.7-4,0.7H192l1.2-1.2v6.7H190.6z M193.1,200.1l-1.2-1.3h5.5
			c1.7,0,2.9-0.4,3.8-1.1c0.8-0.7,1.3-1.7,1.3-3c0-1.3-0.4-2.3-1.3-3s-2.1-1.1-3.8-1.1H192l1.2-1.3V200.1z M202.6,206.5l-4.6-6.5
			h2.8l4.6,6.5H202.6z"/>
		<path class="st2" d="M211.9,204.2h10.5v2.2h-13.1v-18.1H222v2.2h-10.2V204.2z M211.7,196.2h9.3v2.2h-9.3V196.2z"/>
		<path class="st2" d="M234.6,206.7c-1.4,0-2.6-0.2-3.8-0.7c-1.2-0.5-2.2-1.1-3-1.9c-0.9-0.8-1.5-1.8-2-2.9
			c-0.5-1.1-0.7-2.3-0.7-3.7s0.2-2.6,0.7-3.7c0.5-1.1,1.2-2.1,2-2.9c0.9-0.8,1.9-1.5,3-1.9c1.2-0.5,2.4-0.7,3.8-0.7
			c1.4,0,2.7,0.2,3.9,0.7c1.2,0.5,2.2,1.2,3,2.1l-1.7,1.6c-0.7-0.7-1.5-1.3-2.3-1.6c-0.9-0.4-1.8-0.5-2.8-0.5c-1,0-2,0.2-2.8,0.5
			c-0.9,0.3-1.6,0.8-2.3,1.4c-0.6,0.6-1.1,1.4-1.5,2.2c-0.4,0.9-0.5,1.8-0.5,2.8c0,1,0.2,1.9,0.5,2.8c0.4,0.8,0.8,1.6,1.5,2.2
			c0.6,0.6,1.4,1.1,2.3,1.4c0.9,0.3,1.8,0.5,2.8,0.5c1,0,1.9-0.2,2.8-0.5c0.9-0.4,1.6-0.9,2.3-1.6l1.7,1.6c-0.8,0.9-1.8,1.6-3,2.1
			C237.3,206.5,236,206.7,234.6,206.7z"/>
		<path class="st2" d="M252.7,206.7c-2.4,0-4.2-0.7-5.6-2c-1.4-1.4-2-3.3-2-6v-10.3h2.6v10.2c0,2,0.4,3.5,1.3,4.4
			c0.9,0.9,2.1,1.4,3.8,1.4c1.6,0,2.9-0.5,3.8-1.4c0.9-0.9,1.3-2.4,1.3-4.4v-10.2h2.5v10.3c0,2.6-0.7,4.6-2,6
			C256.9,206,255.1,206.7,252.7,206.7z"/>
		<path class="st2" d="M265.6,206.5v-18.1h7c1.6,0,2.9,0.2,4,0.7c1.1,0.5,2,1.2,2.6,2.2c0.6,0.9,0.9,2.1,0.9,3.4
			c0,1.3-0.3,2.4-0.9,3.4c-0.6,0.9-1.5,1.7-2.6,2.2c-1.1,0.5-2.5,0.7-4,0.7H267l1.2-1.2v6.7H265.6z M268.2,200.1l-1.2-1.3h5.5
			c1.7,0,2.9-0.4,3.8-1.1c0.8-0.7,1.3-1.7,1.3-3c0-1.3-0.4-2.3-1.3-3s-2.1-1.1-3.8-1.1H267l1.2-1.3V200.1z M277.7,206.5l-4.6-6.5
			h2.8l4.6,6.5H277.7z"/>
		<path class="st2" d="M289.6,206.7c-1.4,0-2.7-0.2-3.9-0.6c-1.3-0.4-2.2-1-3-1.6l1-2c0.7,0.6,1.6,1.1,2.6,1.5s2.2,0.6,3.3,0.6
			c1,0,1.9-0.1,2.6-0.4c0.7-0.2,1.1-0.6,1.4-1c0.3-0.4,0.5-0.9,0.5-1.4c0-0.6-0.2-1.1-0.6-1.5c-0.4-0.4-0.9-0.7-1.6-0.9
			s-1.4-0.4-2.1-0.6s-1.6-0.4-2.3-0.6s-1.5-0.5-2.1-0.9c-0.6-0.4-1.2-0.8-1.6-1.5c-0.4-0.6-0.6-1.4-0.6-2.4c0-0.9,0.2-1.8,0.7-2.6
			c0.5-0.8,1.2-1.4,2.3-1.9c1-0.5,2.3-0.7,3.9-0.7c1,0,2.1,0.1,3.1,0.4c1,0.3,1.9,0.7,2.7,1.2l-0.8,2.1c-0.8-0.5-1.6-0.9-2.4-1.1
			c-0.9-0.2-1.7-0.3-2.5-0.3c-1,0-1.8,0.1-2.5,0.4c-0.7,0.3-1.1,0.6-1.4,1c-0.3,0.4-0.5,0.9-0.5,1.4c0,0.6,0.2,1.1,0.6,1.5
			c0.4,0.4,0.9,0.7,1.6,0.9c0.6,0.2,1.4,0.4,2.1,0.6c0.8,0.2,1.6,0.4,2.3,0.6c0.8,0.2,1.5,0.5,2.1,0.9c0.6,0.4,1.2,0.8,1.6,1.4
			c0.4,0.6,0.6,1.4,0.6,2.3c0,0.9-0.2,1.8-0.7,2.5c-0.5,0.8-1.3,1.4-2.3,1.9C292.5,206.5,291.2,206.7,289.6,206.7z"/>
		<path class="st2" d="M308.5,206.7c-1.4,0-2.7-0.2-3.8-0.7c-1.2-0.5-2.2-1.1-3.1-1.9c-0.9-0.8-1.5-1.8-2-2.9
			c-0.5-1.1-0.7-2.3-0.7-3.7s0.2-2.5,0.7-3.7c0.5-1.1,1.2-2.1,2-2.9c0.9-0.8,1.9-1.5,3-1.9c1.2-0.5,2.4-0.7,3.8-0.7
			c1.4,0,2.6,0.2,3.8,0.7c1.2,0.5,2.2,1.1,3,1.9c0.9,0.8,1.5,1.8,2,2.9c0.5,1.1,0.7,2.3,0.7,3.7s-0.2,2.6-0.7,3.7
			c-0.5,1.1-1.1,2.1-2,2.9c-0.9,0.8-1.9,1.5-3,1.9C311.2,206.5,309.9,206.7,308.5,206.7z M308.5,204.4c1,0,1.9-0.2,2.8-0.5
			c0.8-0.3,1.6-0.8,2.2-1.5c0.6-0.6,1.1-1.4,1.5-2.2c0.4-0.8,0.5-1.8,0.5-2.8c0-1-0.2-1.9-0.5-2.8c-0.4-0.8-0.8-1.6-1.5-2.2
			c-0.6-0.6-1.4-1.1-2.2-1.5c-0.8-0.3-1.8-0.5-2.8-0.5c-1,0-1.9,0.2-2.8,0.5c-0.8,0.3-1.6,0.8-2.2,1.5c-0.6,0.6-1.1,1.4-1.5,2.2
			c-0.4,0.8-0.5,1.8-0.5,2.8c0,1,0.2,1.9,0.5,2.8c0.4,0.8,0.8,1.6,1.5,2.2c0.6,0.6,1.4,1.1,2.2,1.5
			C306.6,204.2,307.5,204.4,308.5,204.4z"/>
		<path class="st2" d="M327.3,206.7c-1.4,0-2.7-0.2-3.9-0.6c-1.3-0.4-2.2-1-3-1.6l1-2c0.7,0.6,1.6,1.1,2.6,1.5s2.2,0.6,3.3,0.6
			c1,0,1.9-0.1,2.6-0.4c0.7-0.2,1.1-0.6,1.4-1c0.3-0.4,0.5-0.9,0.5-1.4c0-0.6-0.2-1.1-0.6-1.5c-0.4-0.4-0.9-0.7-1.6-0.9
			s-1.4-0.4-2.1-0.6c-0.8-0.2-1.6-0.4-2.3-0.6s-1.5-0.5-2.1-0.9c-0.6-0.4-1.2-0.8-1.6-1.5c-0.4-0.6-0.6-1.4-0.6-2.4
			c0-0.9,0.2-1.8,0.7-2.6c0.5-0.8,1.2-1.4,2.3-1.9c1-0.5,2.3-0.7,3.9-0.7c1,0,2.1,0.1,3.1,0.4c1,0.3,1.9,0.7,2.7,1.2l-0.8,2.1
			c-0.8-0.5-1.6-0.9-2.4-1.1c-0.9-0.2-1.7-0.3-2.5-0.3c-1,0-1.8,0.1-2.5,0.4c-0.7,0.3-1.1,0.6-1.4,1c-0.3,0.4-0.5,0.9-0.5,1.4
			c0,0.6,0.2,1.1,0.6,1.5c0.4,0.4,0.9,0.7,1.6,0.9c0.6,0.2,1.4,0.4,2.1,0.6c0.8,0.2,1.6,0.4,2.3,0.6c0.8,0.2,1.5,0.5,2.1,0.9
			c0.6,0.4,1.2,0.8,1.6,1.4c0.4,0.6,0.6,1.4,0.6,2.3c0,0.9-0.2,1.8-0.7,2.5c-0.5,0.8-1.3,1.4-2.3,1.9
			C330.2,206.5,328.9,206.7,327.3,206.7z"/>
		<path class="st2" d="M345,206.5v-18.1h2.1l11.9,14.8h-1.1v-14.8h2.6v18.1h-2.1l-11.9-14.8h1.1v14.8H345z"/>
		<path class="st2" d="M363.2,206.5l8.2-18.1h2.6l8.2,18.1h-2.7l-7.3-16.6h1l-7.3,16.6H363.2z M366.7,202l0.7-2.1h10.2l0.7,2.1
			H366.7z"/>
		<path class="st2" d="M387.5,206.5v-15.8h-6.2v-2.2h14.9v2.2H390v15.8H387.5z"/>
		<path class="st2" d="M406.2,206.7c-2.4,0-4.2-0.7-5.6-2c-1.4-1.4-2-3.3-2-6v-10.3h2.6v10.2c0,2,0.4,3.5,1.3,4.4
			c0.9,0.9,2.1,1.4,3.8,1.4c1.6,0,2.9-0.5,3.8-1.4c0.9-0.9,1.3-2.4,1.3-4.4v-10.2h2.5v10.3c0,2.6-0.7,4.6-2,6
			C410.4,206,408.6,206.7,406.2,206.7z"/>
		<path class="st2" d="M419.1,206.5v-18.1h7c1.6,0,2.9,0.2,4,0.7s2,1.2,2.6,2.2c0.6,0.9,0.9,2.1,0.9,3.4c0,1.3-0.3,2.4-0.9,3.4
			c-0.6,0.9-1.5,1.7-2.6,2.2c-1.1,0.5-2.5,0.7-4,0.7h-5.6l1.2-1.2v6.7H419.1z M421.7,200.1l-1.2-1.3h5.5c1.7,0,2.9-0.4,3.8-1.1
			c0.8-0.7,1.3-1.7,1.3-3c0-1.3-0.4-2.3-1.3-3c-0.9-0.7-2.1-1.1-3.8-1.1h-5.5l1.2-1.3V200.1z M431.1,206.5l-4.6-6.5h2.8l4.6,6.5
			H431.1z"/>
		<path class="st2" d="M435.1,206.5l8.2-18.1h2.6l8.2,18.1h-2.7l-7.3-16.6h1l-7.3,16.6H435.1z M438.6,202l0.7-2.1h10.2l0.7,2.1
			H438.6z"/>
		<path class="st2" d="M456.7,206.5v-18.1h2.6v15.8h9.8v2.2H456.7z"/>
		<path class="st2" d="M474.6,204.2h10.5v2.2H472v-18.1h12.7v2.2h-10.2V204.2z M474.4,196.2h9.3v2.2h-9.3V196.2z"/>
		<path class="st2" d="M494.6,206.7c-1.4,0-2.7-0.2-3.9-0.6c-1.3-0.4-2.2-1-3-1.6l1-2c0.7,0.6,1.6,1.1,2.6,1.5
			c1.1,0.4,2.2,0.6,3.3,0.6c1,0,1.9-0.1,2.6-0.4c0.7-0.2,1.1-0.6,1.4-1c0.3-0.4,0.5-0.9,0.5-1.4c0-0.6-0.2-1.1-0.6-1.5
			c-0.4-0.4-0.9-0.7-1.6-0.9c-0.6-0.2-1.4-0.4-2.1-0.6c-0.8-0.2-1.6-0.4-2.3-0.6c-0.8-0.2-1.5-0.5-2.1-0.9c-0.6-0.4-1.2-0.8-1.6-1.5
			c-0.4-0.6-0.6-1.4-0.6-2.4c0-0.9,0.2-1.8,0.7-2.6c0.5-0.8,1.2-1.4,2.3-1.9c1-0.5,2.3-0.7,3.9-0.7c1,0,2.1,0.1,3.1,0.4
			c1,0.3,1.9,0.7,2.7,1.2l-0.8,2.1c-0.8-0.5-1.6-0.9-2.5-1.1c-0.9-0.2-1.7-0.3-2.5-0.3c-1,0-1.8,0.1-2.5,0.4c-0.7,0.3-1.1,0.6-1.4,1
			c-0.3,0.4-0.5,0.9-0.5,1.4c0,0.6,0.2,1.1,0.6,1.5c0.4,0.4,0.9,0.7,1.6,0.9c0.6,0.2,1.4,0.4,2.1,0.6c0.8,0.2,1.6,0.4,2.3,0.6
			c0.8,0.2,1.5,0.5,2.1,0.9c0.6,0.4,1.2,0.8,1.6,1.4c0.4,0.6,0.6,1.4,0.6,2.3c0,0.9-0.2,1.8-0.7,2.5c-0.5,0.8-1.3,1.4-2.3,1.9
			C497.4,206.5,496.1,206.7,494.6,206.7z"/>
	</g>
</g>
</svg>
