<?xml version="1.0" encoding="utf-8"?>
<!-- Generator: Adobe Illustrator 25.4.1, SVG Export Plug-In . SVG Version: 6.00 Build 0)  -->
<svg version="1.1" id="Capa_1" xmlns="http://www.w3.org/2000/svg" xmlns:xlink="http://www.w3.org/1999/xlink" x="0px" y="0px"
	 viewBox="0 0 905.9 225.9" style="enable-background:new 0 0 905.9 225.9;" xml:space="preserve">
<style type="text/css">
	.st0{fill:#691B32;}
	.st1{fill:#707271;}
	.st2{fill:#A02142;}
</style>
<g>
	<g>
		<g>
			<path class="st0" d="M224.3,85.4c0.5-1.5,1.6-5,2.8-9.4c1.9-0.1,6.8,0.1,8.8,0.4c0.2,3.2,0.3,8.2,0.3,11.1l-1.1,2.3
				c-4.5,2.9-11.7,5.3-19.7,5.3c-16.7,0-27-9.9-27-26.2c0-16.8,12.6-28,28.3-28c7.5,0,13.9,2,19.1,4.6l1.3,2.2
				c-0.7,4-2,9.7-2.9,13.4c-1.8,0.1-6.2-0.1-8.2-0.4c-0.8-4.2-1.9-8.4-2.4-10.3C222,49.7,219,49,216,49c-3.6,0-6.8,0.7-8.5,1.8
				c-3.3,3.9-5.3,9.7-5.3,17.3c0,11.4,5.1,18.6,14.8,18.6C220.5,86.7,223,86.2,224.3,85.4z"/>
			<path class="st0" d="M263.6,94h-21.9l-1-4.5l5.7-2.3c4.6-11.1,9.6-24.8,14.2-37.7l2.1-7.4c4.7-0.4,12.2-0.7,16.5-0.7
				c0.6,2.3,1.6,5.2,2.7,8.2c4.6,13.1,10.2,28.1,14,37.8l5.8,2.2l-1,4.5h-25.2l-1-4.5l7.1-2.2c-0.9-2.6-1.9-5.7-3-9.1l-18.6,0.4
				c-0.9,2.9-1.7,5.9-2.5,8.7l7.2,2.2L263.6,94z M276.2,71.6c-2.4-7-5-14.6-7.5-21.4c-2.1,6.2-4.4,13.6-6.6,21.1L276.2,71.6z"/>
			<path class="st0" d="M327.4,94h-22.6l-1-4.5l6.8-2.2c0.5-4.2,1.3-13.3,1.6-21.3c0.5-10.2,0.5-14.3-0.1-16.1c-0.8-1-3.9-2.4-6-3.3
				l1-4.5h24.8c2.1,7.3,7.3,21.7,11.3,31.1c3.9-10.5,9.4-24.2,11.3-31.1H378l1,4.6l-6.8,3l1.3,24.3c0.4,7.2,0.7,10.9,1.8,12.3
				c0.7,1.1,3.7,2.4,6,3.2l-1,4.5h-25.3l-1-4.5l7.2-2.3c0.1-4.3-1-21.8-1.3-34.5l-13.9,35.5c-3.5,0.4-7.1,0.4-10.5,0
				c-3.2-7.3-9.7-24.9-14.6-35.4l-0.4,15.8c-0.3,11.7-0.4,16,0.1,17.4c0.6,1.8,4.5,2.5,7.6,3.5L327.4,94z"/>
			<path class="st0" d="M393.9,87.2c0.3-1.9,0.5-7,0.5-12.7V60.9c0-4.2,0.1-10.6-0.7-11.4c-1-1-4.1-2.2-6.4-2.9l1-4.5h12.5
				c2.7,0,10.9-0.4,14.8-0.4c13.3,0,21.5,5.4,21.5,16.8c0,11.8-8.8,18.6-22.3,18.6c-3.3,0-5.3-0.2-7.4-0.5
				c-0.1,3.9-0.1,9.2,0.8,10.1c1.1,1,5.8,1.9,9.2,2.8l-1,4.5h-28.1l-1-4.5L393.9,87.2z M420.6,49.9c-1.6-1.1-3.9-1.8-6.6-1.8
				c-2.2,0-4.6,0.4-6.1,0.9c-0.2,2.6-0.4,7.3-0.4,12.5v7.6c2.1,0.4,4.5,0.6,6.2,0.6c2.5,0,5-0.3,6.8-1c1.5-1.5,3-4.6,3-9.8
				C423.5,54.6,422,51.5,420.6,49.9z"/>
			<path class="st0" d="M441.6,69.6c0-17,11.4-28.6,28.3-28.6c15.1,0,25.6,9.9,25.6,25.9c0,16.6-11.4,28.3-27.6,28.3
				C452.3,95.2,441.6,85.4,441.6,69.6z M477.9,84.3c1.5-2.1,3.9-7.8,3.9-15.6c0-12.5-3.5-19.6-13.6-19.6c-3.5,0-7.2,1.2-9.1,2.7
				c-2.5,3.7-3.9,9.6-3.9,16.8c0,11.4,4.4,18.4,13.5,18.4C472.7,87,476.1,85.9,477.9,84.3z"/>
		</g>
		<g>
			<path class="st1" d="M186.7,132.7l1.1-2.3c1.5,1.4,4.1,2.4,6.7,2.4c3.5,0,5-1.4,5-3.1c0-5-12.3-1.8-12.3-9.4
				c0-3.1,2.4-5.8,7.8-5.8c2.4,0,4.8,0.6,6.5,1.8l-1,2.3c-1.8-1.1-3.8-1.7-5.6-1.7c-3.5,0-4.9,1.5-4.9,3.2c0,5,12.3,1.9,12.3,9.3
				c0,3.1-2.5,5.8-7.9,5.8C191.4,135.2,188.3,134.2,186.7,132.7z"/>
			<path class="st1" d="M221.3,132.5v2.5h-14.8v-20.3h14.3v2.5h-11.4v6.2h10.2v2.5h-10.2v6.6H221.3z"/>
			<path class="st1" d="M224.3,124.8c0-6,4.6-10.4,10.8-10.4c3.1,0,5.9,1.1,7.7,3.2l-1.9,1.8c-1.6-1.7-3.5-2.4-5.7-2.4
				c-4.6,0-8,3.3-8,7.8s3.4,7.8,8,7.8c2.2,0,4.2-0.8,5.7-2.4l1.9,1.8c-1.9,2.1-4.6,3.2-7.8,3.2C228.9,135.2,224.3,130.8,224.3,124.8
				z"/>
			<path class="st1" d="M260.5,135l-4.4-6.2c-0.4,0-0.8,0.1-1.3,0.1h-5v6.2h-2.9v-20.3h7.9c5.3,0,8.5,2.7,8.5,7.1
				c0,3.1-1.6,5.4-4.5,6.4l4.8,6.8H260.5z M260.4,121.7c0-2.9-1.9-4.6-5.7-4.6h-4.9v9.1h4.9C258.5,126.3,260.4,124.7,260.4,121.7z"
				/>
			<path class="st1" d="M282.8,132.5v2.5H268v-20.3h14.3v2.5h-11.4v6.2h10.2v2.5h-10.2v6.6H282.8z"/>
			<path class="st1" d="M291.5,117.2h-7v-2.5h16.8v2.5h-7V135h-2.9V117.2z"/>
			<path class="st1" d="M316.5,129.9h-10.8l-2.2,5.1h-3l9.2-20.3h2.9l9.2,20.3h-3L316.5,129.9z M315.5,127.6l-4.4-10l-4.4,10H315.5z
				"/>
			<path class="st1" d="M338.4,135l-4.4-6.2c-0.4,0-0.8,0.1-1.3,0.1h-5v6.2h-2.9v-20.3h7.9c5.3,0,8.5,2.7,8.5,7.1
				c0,3.1-1.6,5.4-4.5,6.4l4.8,6.8H338.4z M338.3,121.7c0-2.9-1.9-4.6-5.7-4.6h-4.9v9.1h4.9C336.3,126.3,338.3,124.7,338.3,121.7z"
				/>
			<path class="st1" d="M349.1,109.2h3.5l-4.9,3.8h-2.6L349.1,109.2z M345.9,114.7h2.9V135h-2.9V114.7z"/>
			<path class="st1" d="M367.8,129.9H357l-2.2,5.1h-3l9.2-20.3h2.9l9.2,20.3h-3L367.8,129.9z M366.8,127.6l-4.4-10l-4.4,10H366.8z"
				/>
			<path class="st1" d="M384,114.7h8.6c6.5,0,11,4.1,11,10.2s-4.4,10.2-11,10.2H384V114.7z M392.4,132.5c5,0,8.2-3.1,8.2-7.6
				s-3.2-7.6-8.2-7.6h-5.5v15.3H392.4z"/>
			<path class="st1" d="M422.7,132.5v2.5h-14.8v-20.3h14.3v2.5h-11.4v6.2H421v2.5h-10.2v6.6H422.7z"/>
			<path class="st1" d="M448.2,129.9h-10.8l-2.2,5.1h-3l9.2-20.3h2.9l9.2,20.3h-3L448.2,129.9z M447.1,127.6l-4.4-10l-4.4,10H447.1z
				"/>
			<path class="st1" d="M470.3,124.7h2.8v7.9c-2,1.7-4.8,2.6-7.7,2.6c-6.2,0-10.8-4.4-10.8-10.4s4.6-10.4,10.9-10.4
				c3.2,0,6,1.1,7.8,3.1l-1.8,1.8c-1.7-1.6-3.6-2.4-5.9-2.4c-4.7,0-8.1,3.3-8.1,7.8c0,4.5,3.4,7.8,8.1,7.8c1.7,0,3.3-0.4,4.8-1.3
				V124.7z"/>
			<path class="st1" d="M492.2,135l-4.4-6.2c-0.4,0-0.8,0.1-1.3,0.1h-5v6.2h-2.9v-20.3h7.9c5.3,0,8.5,2.7,8.5,7.1
				c0,3.1-1.6,5.4-4.5,6.4l4.8,6.8H492.2z M492.1,121.7c0-2.9-1.9-4.6-5.7-4.6h-4.9v9.1h4.9C490.1,126.3,492.1,124.7,492.1,121.7z"
				/>
			<path class="st1" d="M499.7,114.7h2.9V135h-2.9V114.7z"/>
			<path class="st1" d="M507,124.8c0-6,4.6-10.4,10.8-10.4c3.1,0,5.9,1.1,7.7,3.2l-1.9,1.8c-1.6-1.7-3.5-2.4-5.7-2.4
				c-4.6,0-8,3.3-8,7.8s3.4,7.8,8,7.8c2.2,0,4.2-0.8,5.7-2.4l1.9,1.8c-1.9,2.1-4.6,3.2-7.8,3.2C511.6,135.2,507,130.8,507,124.8z"/>
			<path class="st1" d="M529.4,126.2v-11.6h2.9v11.4c0,4.5,2.1,6.5,5.7,6.5c3.7,0,5.7-2,5.7-6.5v-11.4h2.8v11.6c0,5.9-3.2,9-8.6,9
				C532.7,135.2,529.4,132.1,529.4,126.2z"/>
			<path class="st1" d="M552.6,114.7h2.9v17.8h11v2.5h-13.9V114.7z"/>
			<path class="st1" d="M572,117.2h-7v-2.5h16.8v2.5h-7V135H572V117.2z"/>
			<path class="st1" d="M584.4,126.2v-11.6h2.9v11.4c0,4.5,2.1,6.5,5.7,6.5c3.7,0,5.7-2,5.7-6.5v-11.4h2.8v11.6c0,5.9-3.2,9-8.6,9
				C587.7,135.2,584.4,132.1,584.4,126.2z"/>
			<path class="st1" d="M621.2,135l-4.4-6.2c-0.4,0-0.8,0.1-1.3,0.1h-5v6.2h-2.9v-20.3h7.9c5.3,0,8.5,2.7,8.5,7.1
				c0,3.1-1.6,5.4-4.5,6.4l4.8,6.8H621.2z M621.1,121.7c0-2.9-1.9-4.6-5.7-4.6h-4.9v9.1h4.9C619.1,126.3,621.1,124.7,621.1,121.7z"
				/>
			<path class="st1" d="M641.6,129.9h-10.8l-2.2,5.1h-3l9.2-20.3h2.9l9.2,20.3h-3L641.6,129.9z M640.6,127.6l-4.4-10l-4.4,10H640.6z
				"/>
			<path class="st1" d="M196.3,162.8v7h-2.9v-7.1l-8.1-13.2h3.1l6.5,10.7l6.5-10.7h2.9L196.3,162.8z"/>
			<path class="st1" d="M215.1,149.5h8.6c6.5,0,11,4.1,11,10.2s-4.4,10.2-11,10.2h-8.6V149.5z M223.5,167.3c5,0,8.2-3.1,8.2-7.6
				s-3.2-7.6-8.2-7.6H218v15.3H223.5z"/>
			<path class="st1" d="M253.9,167.3v2.5h-14.8v-20.3h14.3v2.5H242v6.2h10.2v2.5H242v6.6H253.9z"/>
			<path class="st1" d="M256.7,167.5l1.1-2.3c1.5,1.4,4.1,2.4,6.7,2.4c3.5,0,5-1.4,5-3.1c0-5-12.3-1.8-12.3-9.4
				c0-3.1,2.4-5.8,7.8-5.8c2.4,0,4.8,0.6,6.5,1.8l-1,2.3c-1.8-1.1-3.8-1.7-5.6-1.7c-3.5,0-4.9,1.5-4.9,3.2c0,5,12.3,1.9,12.3,9.3
				c0,3.1-2.5,5.8-7.9,5.8C261.4,170.1,258.3,169,256.7,167.5z"/>
			<path class="st1" d="M289.6,164.8h-10.8l-2.2,5.1h-3l9.2-20.3h2.9l9.2,20.3h-3L289.6,164.8z M288.5,162.4l-4.4-10l-4.4,10H288.5z
				"/>
			<path class="st1" d="M311.5,169.8l-4.4-6.2c-0.4,0-0.8,0.1-1.3,0.1h-5v6.2h-2.9v-20.3h7.9c5.3,0,8.5,2.7,8.5,7.1
				c0,3.1-1.6,5.4-4.5,6.4l4.8,6.8H311.5z M311.4,156.6c0-2.9-1.9-4.6-5.7-4.6h-4.9v9.1h4.9C309.4,161.2,311.4,159.5,311.4,156.6z"
				/>
			<path class="st1" d="M332.6,169.8l-4.4-6.2c-0.4,0-0.8,0.1-1.3,0.1h-5v6.2H319v-20.3h7.9c5.3,0,8.5,2.7,8.5,7.1
				c0,3.1-1.6,5.4-4.5,6.4l4.8,6.8H332.6z M332.5,156.6c0-2.9-1.9-4.6-5.7-4.6h-4.9v9.1h4.9C330.5,161.2,332.5,159.5,332.5,156.6z"
				/>
			<path class="st1" d="M338.4,159.7c0-6,4.6-10.4,10.8-10.4c6.2,0,10.8,4.4,10.8,10.4s-4.6,10.4-10.8,10.4
				C343,170.1,338.4,165.6,338.4,159.7z M357.1,159.7c0-4.5-3.4-7.8-7.9-7.8c-4.6,0-7.9,3.3-7.9,7.8s3.4,7.8,7.9,7.8
				C353.8,167.5,357.1,164.2,357.1,159.7z"/>
			<path class="st1" d="M364.5,149.5h2.9v17.8h11v2.5h-13.9V149.5z"/>
			<path class="st1" d="M381.7,149.5h2.9v17.8h11v2.5h-13.9V149.5z"/>
			<path class="st1" d="M396.9,159.7c0-6,4.6-10.4,10.8-10.4c6.2,0,10.8,4.4,10.8,10.4s-4.6,10.4-10.8,10.4
				C401.5,170.1,396.9,165.6,396.9,159.7z M415.6,159.7c0-4.5-3.4-7.8-7.9-7.8c-4.6,0-7.9,3.3-7.9,7.8s3.4,7.8,7.9,7.8
				C412.3,167.5,415.6,164.2,415.6,159.7z"/>
			<path class="st1" d="M444.4,169.8l-4.4-6.2c-0.4,0-0.8,0.1-1.3,0.1h-5v6.2h-2.9v-20.3h7.9c5.3,0,8.5,2.7,8.5,7.1
				c0,3.1-1.6,5.4-4.5,6.4l4.8,6.8H444.4z M444.3,156.6c0-2.9-1.9-4.6-5.7-4.6h-4.9v9.1h4.9C442.4,161.2,444.3,159.5,444.3,156.6z"
				/>
			<path class="st1" d="M451.7,161.1v-11.6h2.9v11.4c0,4.5,2.1,6.5,5.7,6.5c3.7,0,5.7-2,5.7-6.5v-11.4h2.8v11.6c0,5.9-3.2,9-8.6,9
				C455,170.1,451.7,167,451.7,161.1z"/>
			<path class="st1" d="M488.5,169.8l-4.4-6.2c-0.4,0-0.8,0.1-1.3,0.1h-5v6.2h-2.9v-20.3h7.9c5.3,0,8.5,2.7,8.5,7.1
				c0,3.1-1.6,5.4-4.5,6.4l4.8,6.8H488.5z M488.4,156.6c0-2.9-1.9-4.6-5.7-4.6h-4.9v9.1h4.9C486.4,161.2,488.4,159.5,488.4,156.6z"
				/>
			<path class="st1" d="M508.9,164.8h-10.8l-2.2,5.1h-3l9.2-20.3h2.9l9.2,20.3h-3L508.9,164.8z M507.9,162.4l-4.4-10l-4.4,10H507.9z
				"/>
			<path class="st1" d="M517.2,149.5h2.9v17.8h11v2.5h-13.9V149.5z"/>
		</g>
	</g>
	<g>
		<g>
			<g>
				<path class="st2" d="M130.6,37.4v27.7l-15.8,15.8V51.3l14.4-14.5C129.8,36.4,130.6,36.7,130.6,37.4z"/>
			</g>
			<g>
				<polygon class="st2" points="112,54.1 112,83.7 96.2,99.5 96.2,69.9 				"/>
			</g>
		</g>
		<g>
			<g>
				<polygon class="st0" points="90.7,69.9 90.7,99.5 74.9,83.7 74.9,54.1 				"/>
			</g>
			<g>
				<path class="st0" d="M72.1,51.3v29.6L56.3,65.1V37.4c0-0.7,0.8-1,1.3-0.6L72.1,51.3z"/>
			</g>
		</g>
		<g>
			<g>
				<path class="st2" d="M72.1,127.5v29.6l-14.4,14.4c-0.5,0.5-1.3,0.1-1.3-0.6v-27.7L72.1,127.5z"/>
			</g>
			<g>
				<polygon class="st2" points="90.7,109 90.7,138.6 74.9,154.3 74.9,124.8 				"/>
			</g>
		</g>
		<g>
			<g>
				<polygon class="st0" points="112,124.8 112,154.3 96.2,138.6 96.2,109 				"/>
			</g>
			<g>
				<path class="st0" d="M130.6,143.3V171c0,0.7-0.8,1-1.3,0.6l-14.4-14.4v-29.6L130.6,143.3z"/>
			</g>
		</g>
		<g>
			<g>
				<path class="st2" d="M160.3,141.4h-27.7l-15.8-15.8h29.6l14.4,14.5C161.3,140.5,161,141.4,160.3,141.4z"/>
			</g>
			<g>
				<polygon class="st2" points="143.6,122.8 114,122.8 98.2,107 127.8,107 				"/>
			</g>
		</g>
		<g>
			<g>
				<polygon class="st0" points="143.6,85.7 127.8,101.4 98.2,101.4 114,85.7 				"/>
			</g>
			<g>
				<path class="st0" d="M160.8,68.4l-14.4,14.4h-29.6l15.8-15.8h27.7C161,67.1,161.3,67.9,160.8,68.4z"/>
			</g>
		</g>
		<g>
			<g>
				<path class="st2" d="M70.1,82.9H40.5L26.1,68.4c-0.5-0.5-0.1-1.3,0.6-1.3h27.7L70.1,82.9z"/>
			</g>
			<g>
				<polygon class="st2" points="88.7,101.4 59.1,101.4 43.3,85.7 72.9,85.7 				"/>
			</g>
		</g>
		<g>
			<g>
				<polygon class="st0" points="88.7,107 72.9,122.8 43.3,122.8 59.1,107 				"/>
			</g>
			<g>
				<path class="st0" d="M70.1,125.6l-15.8,15.8H26.6c-0.7,0-1-0.8-0.6-1.3l14.4-14.5H70.1z"/>
			</g>
		</g>
	</g>
</g>
</svg>
