<?xml version="1.0" encoding="utf-8"?>
<!-- Generator: Adobe Illustrator 25.4.1, SVG Export Plug-In . SVG Version: 6.00 Build 0)  -->
<svg version="1.1" id="Capa_1" xmlns="http://www.w3.org/2000/svg" xmlns:xlink="http://www.w3.org/1999/xlink" x="0px" y="0px"
	 viewBox="0 0 905.9 225.9" style="enable-background:new 0 0 905.9 225.9;" xml:space="preserve">
<style type="text/css">
	.st0{fill:#691B32;}
	.st1{fill:#707271;}
	.st2{fill:#A02142;}
</style>
<g>
	<g>
		<path class="st0" d="M201.5,105.1c0.3-1.9,0.5-7,0.5-12.8V65.7h-0.7c-2.4,0-5,0.1-7,0.4l-2.6,10c-2.2,0.1-6.8,0-8.7-0.4
			c-0.2-5.1-0.2-10.7,0-16.1h27.1c9,0,16.4-0.2,22.2-0.5c0.7,1,1.8,2.5,2.3,3.4c-0.2,4.3-0.7,9.3-1.3,13.2c-1.8,0.3-6.4,0.2-8.1-0.1
			l-2.4-9.6c-2-0.3-4.6-0.4-7-0.4h-0.7V93c0,4.2,0,10.5,0.7,11.4c0.7,1,4,2.2,6.5,3l-1,4.6h-25.5l-1-4.6L201.5,105.1z"/>
		<path class="st0" d="M268.1,113.1c-16.1,0-23.3-8.7-23.3-25.9v-7.9c0-4,0-10.7-0.9-11.9c-0.7-1.1-4-2.3-6.3-3.1l1-4.6h26.1l1,4.6
			l-6.8,2.3c-0.3,1.9-0.6,7-0.6,12.7v8.6c0,10.3,2.8,16.7,12.6,16.7c4.3,0,7.9-1.4,9.8-3c1.8-5.7,1.6-13.8,1.6-19.9
			c0-6.4-0.1-13.4-0.6-14.7c-0.9-0.7-4.8-2-7.4-2.8l1-4.6h22.6l1,4.6l-7,2.4c-0.3,4.8-0.4,11.3-0.4,23.1
			C291.4,105.2,282.3,113.1,268.1,113.1z"/>
		<path class="st0" d="M310.7,105.1c0.3-1.9,0.5-7,0.5-12.8V78.6c0-4.2,0-10.5-0.7-11.4c-0.7-1-4-2.2-6.5-3l1-4.6h12.5
			c2.8,0,11.3-0.4,15.3-0.4c13.5,0,21.7,4.7,21.7,14.5c0,6.6-4.9,10.8-9.9,13.2c3.6,7.1,7.5,14.3,10.1,17.9l5,2.6l-1,4.6
			c-5.1,0-9.5,0.1-15.5,0.3c-2.5-5.9-6-13.2-10.2-21.2h-8.8V93c0,4.2,0,10.5,0.7,11.4c0.7,1,4,2.2,6.5,3l-1,4.6H305l-1-4.6
			L310.7,105.1z M324.3,83.6l12.2,0.4c2.2-1.7,4.3-5,4.3-9.6c0-3.1-0.7-5.3-1.9-6.8c-1.6-1.2-4.6-1.9-8-1.9c-1.9,0-4.3,0.3-6,0.8
			c-0.3,1.9-0.5,7-0.5,12.8V83.6z"/>
		<path class="st0" d="M368.3,105.1c0.3-1.9,0.5-7,0.5-12.8V78.6c0-4.2,0-10.5-0.7-11.4c-0.7-1-4-2.2-6.5-3l1-4.6h25.5l1,4.6
			l-6.7,2.3c-0.3,1.9-0.5,7-0.5,12.8V93c0,4.2,0,10.5,0.7,11.4c0.7,1,4,2.2,6.5,3l-1,4.6h-25.5l-1-4.6L368.3,105.1z"/>
		<path class="st0" d="M437.3,62.6l1.3,2.3c-0.6,3.4-2,9.4-2.6,11.2c-1.7,0.1-6.3-0.1-8.1-0.4c-0.4-3.6-1-6-1.6-7.8
			c-1.6-1-4.3-1.7-7.2-1.7c-2.6,0-4.9,0.6-6.2,1.4c-0.7,1.1-1.4,2.7-1.4,4.6c0,11.4,27.8,7.8,27.8,25.8c0,9-8.7,15.1-21.5,15.1
			c-8.1,0-15.7-2.6-19.8-4.4v-0.4c-0.1-4,0-7.9,0.3-11.8c2.1-0.4,6.8-0.5,8.7-0.4c0.8,3.5,1.5,5.9,2.2,7.9c1.9,1.1,5.8,1.8,8.8,1.8
			c2.6,0,4.6-0.4,6.1-1c0.7-1,1.4-2.8,1.4-4.9c0-10.3-27.4-6.4-27.4-24.9c0-9.7,9.6-16.4,22.1-16.4
			C427.3,58.5,433.2,60.2,437.3,62.6z"/>
		<path class="st0" d="M468.9,112h-22.7l-1-4.6l6.9-2.2c0.5-4.2,1.3-13.4,1.6-21.5c0.5-10.2,0.5-14.4-0.1-16.2
			c-0.8-1-3.9-2.5-6.1-3.3l1-4.6h25C475.7,67,481,81.5,485,91c4-10.5,9.5-24.4,11.4-31.3h23.5l1,4.6l-6.8,3l1.3,24.5
			c0.4,7.3,0.7,11,1.8,12.4c0.7,1.1,3.7,2.5,6.1,3.2l-1,4.6h-25.5l-1-4.6l7.3-2.3c0.2-4.3-1-22-1.3-34.8l-14,35.7
			c-3.5,0.4-7.1,0.4-10.5,0c-3.2-7.4-9.8-25-14.7-35.7l-0.4,15.9c-0.3,11.7-0.4,16.1,0.1,17.6c0.6,1.8,4.5,2.5,7.7,3.5L468.9,112z"
			/>
		<path class="st0" d="M528.5,87.4c0-17.1,11.5-28.8,28.5-28.8c15.2,0,25.8,9.9,25.8,26.1c0,16.7-11.4,28.5-27.8,28.5
			C539.3,113.1,528.5,103.3,528.5,87.4z M565.1,102.2c1.5-2.1,3.9-7.8,3.9-15.7c0-12.6-3.5-19.7-13.7-19.7c-3.5,0-7.3,1.2-9.2,2.7
			c-2.5,3.7-3.9,9.7-3.9,16.9c0,11.5,4.4,18.5,13.6,18.5C559.8,104.9,563.3,103.7,565.1,102.2z"/>
	</g>
	<g>
		<path class="st1" d="M193,154.2c-1.6,0-3.1-0.2-4.5-0.7c-1.4-0.5-2.5-1.1-3.4-1.9l1.1-2.3c0.8,0.7,1.8,1.2,3,1.7
			c1.2,0.4,2.5,0.7,3.8,0.7c1.2,0,2.2-0.1,2.9-0.4c0.7-0.3,1.3-0.7,1.6-1.1c0.4-0.5,0.5-1,0.5-1.6c0-0.7-0.2-1.3-0.7-1.7
			c-0.5-0.4-1.1-0.8-1.8-1c-0.7-0.3-1.5-0.5-2.4-0.7c-0.9-0.2-1.8-0.4-2.6-0.7c-0.9-0.3-1.7-0.6-2.4-1c-0.7-0.4-1.3-1-1.8-1.7
			c-0.4-0.7-0.7-1.6-0.7-2.7c0-1.1,0.3-2,0.8-2.9c0.6-0.9,1.4-1.6,2.6-2.1c1.2-0.5,2.6-0.8,4.4-0.8c1.2,0,2.4,0.2,3.5,0.5
			c1.2,0.3,2.2,0.8,3,1.3l-1,2.3c-0.9-0.6-1.8-1-2.8-1.3c-1-0.3-1.9-0.4-2.8-0.4c-1.2,0-2.1,0.1-2.8,0.4c-0.7,0.3-1.3,0.7-1.6,1.2
			c-0.3,0.5-0.5,1-0.5,1.6c0,0.7,0.2,1.3,0.7,1.7s1.1,0.8,1.8,1s1.5,0.5,2.4,0.7c0.9,0.2,1.8,0.4,2.6,0.7c0.9,0.3,1.7,0.6,2.4,1
			c0.7,0.4,1.3,1,1.8,1.6c0.4,0.7,0.7,1.6,0.7,2.6c0,1-0.3,2-0.8,2.9c-0.6,0.9-1.4,1.6-2.6,2.1C196.3,154,194.8,154.2,193,154.2z"/>
		<path class="st1" d="M208.1,151.5h11.9v2.5h-14.9v-20.5h14.4v2.5h-11.5V151.5z M207.9,142.4h10.5v2.5h-10.5V142.4z"/>
		<path class="st1" d="M233.9,154.2c-1.6,0-3-0.3-4.3-0.8c-1.3-0.5-2.5-1.2-3.4-2.2c-1-0.9-1.7-2.1-2.3-3.3
			c-0.5-1.3-0.8-2.7-0.8-4.2c0-1.5,0.3-2.9,0.8-4.2c0.5-1.3,1.3-2.4,2.3-3.3c1-0.9,2.1-1.7,3.4-2.2c1.3-0.5,2.8-0.8,4.3-0.8
			c1.6,0,3,0.3,4.4,0.8c1.3,0.5,2.5,1.3,3.4,2.4l-1.9,1.8c-0.8-0.8-1.7-1.4-2.6-1.8c-1-0.4-2-0.6-3.1-0.6c-1.2,0-2.2,0.2-3.2,0.6
			c-1,0.4-1.8,0.9-2.6,1.6s-1.3,1.5-1.7,2.5c-0.4,1-0.6,2-0.6,3.1c0,1.1,0.2,2.2,0.6,3.1c0.4,1,1,1.8,1.7,2.5s1.6,1.2,2.6,1.6
			c1,0.4,2.1,0.6,3.2,0.6c1.1,0,2.2-0.2,3.1-0.6c1-0.4,1.9-1,2.6-1.9l1.9,1.8c-0.9,1.1-2.1,1.9-3.4,2.4
			C237,154,235.5,154.2,233.9,154.2z"/>
		<path class="st1" d="M245.9,154v-20.5h8c1.8,0,3.3,0.3,4.6,0.8c1.3,0.6,2.2,1.4,2.9,2.5c0.7,1.1,1,2.3,1,3.8c0,1.5-0.3,2.8-1,3.8
			c-0.7,1.1-1.7,1.9-2.9,2.4c-1.3,0.6-2.8,0.8-4.6,0.8h-6.4l1.3-1.3v7.6H245.9z M248.8,146.7l-1.3-1.4h6.3c1.9,0,3.3-0.4,4.3-1.2
			c1-0.8,1.4-1.9,1.4-3.4s-0.5-2.6-1.4-3.4c-1-0.8-2.4-1.2-4.3-1.2h-6.3l1.3-1.5V146.7z M259.6,154l-5.2-7.4h3.1l5.3,7.4H259.6z"/>
		<path class="st1" d="M270.1,151.5H282v2.5h-14.9v-20.5h14.4v2.5h-11.5V151.5z M269.8,142.4h10.5v2.5h-10.5V142.4z"/>
		<path class="st1" d="M290.8,154v-17.9h-7v-2.5h16.9v2.5h-7V154H290.8z"/>
		<path class="st1" d="M299.8,154l9.3-20.5h2.9l9.3,20.5h-3.1l-8.3-18.8h1.2l-8.3,18.8H299.8z M303.8,148.9l0.8-2.3h11.5l0.8,2.3
			H303.8z"/>
		<path class="st1" d="M324.3,154v-20.5h8c1.8,0,3.3,0.3,4.6,0.8c1.3,0.6,2.2,1.4,2.9,2.5c0.7,1.1,1,2.3,1,3.8c0,1.5-0.3,2.8-1,3.8
			c-0.7,1.1-1.7,1.9-2.9,2.4c-1.3,0.6-2.8,0.8-4.6,0.8h-6.4l1.3-1.3v7.6H324.3z M327.2,146.7l-1.3-1.4h6.3c1.9,0,3.3-0.4,4.3-1.2
			c1-0.8,1.4-1.9,1.4-3.4s-0.5-2.6-1.4-3.4c-1-0.8-2.4-1.2-4.3-1.2h-6.3l1.3-1.5V146.7z M338,154l-5.2-7.4h3.1l5.3,7.4H338z"/>
		<path class="st1" d="M344.8,131.9l4-3.8h3.6l-4.9,3.8H344.8z M345.6,154v-20.5h2.9V154H345.6z"/>
		<path class="st1" d="M351.5,154l9.3-20.5h2.9L373,154h-3.1l-8.3-18.8h1.2l-8.3,18.8H351.5z M355.5,148.9l0.8-2.3h11.5l0.8,2.3
			H355.5z"/>
		<path class="st1" d="M383.9,154v-20.5h8.6c2.2,0,4.1,0.4,5.8,1.3c1.7,0.9,3,2.1,3.9,3.6c0.9,1.5,1.4,3.3,1.4,5.4
			c0,2-0.5,3.8-1.4,5.3c-0.9,1.5-2.2,2.7-3.9,3.6c-1.7,0.9-3.6,1.3-5.8,1.3H383.9z M386.8,151.5h5.5c1.7,0,3.2-0.3,4.4-1
			c1.2-0.6,2.2-1.5,2.9-2.7c0.7-1.2,1-2.5,1-4c0-1.5-0.3-2.9-1-4c-0.7-1.2-1.6-2-2.9-2.7c-1.2-0.6-2.7-1-4.4-1h-5.5V151.5z"/>
		<path class="st1" d="M411,151.5h11.9v2.5h-14.9v-20.5h14.4v2.5H411V151.5z M410.7,142.4h10.5v2.5h-10.5V142.4z"/>
		<path class="st1" d="M439.6,154v-17.9h-7v-2.5h16.9v2.5h-7V154H439.6z"/>
		<path class="st1" d="M460.8,154.2c-2.7,0-4.8-0.8-6.3-2.3c-1.5-1.5-2.3-3.8-2.3-6.8v-11.6h2.9V145c0,2.3,0.5,3.9,1.5,5
			c1,1.1,2.4,1.6,4.3,1.6c1.9,0,3.3-0.5,4.3-1.6c1-1.1,1.5-2.7,1.5-5v-11.5h2.8v11.6c0,3-0.8,5.2-2.3,6.8
			C465.6,153.5,463.5,154.2,460.8,154.2z"/>
		<path class="st1" d="M475.4,154v-20.5h8c1.8,0,3.3,0.3,4.6,0.8c1.3,0.6,2.2,1.4,2.9,2.5c0.7,1.1,1,2.3,1,3.8c0,1.5-0.3,2.8-1,3.8
			s-1.7,1.9-2.9,2.4c-1.3,0.6-2.8,0.8-4.6,0.8h-6.4l1.3-1.3v7.6H475.4z M478.4,146.7l-1.3-1.4h6.3c1.9,0,3.3-0.4,4.3-1.2
			c1-0.8,1.4-1.9,1.4-3.4s-0.5-2.6-1.4-3.4c-1-0.8-2.4-1.2-4.3-1.2h-6.3l1.3-1.5V146.7z M489.1,154l-5.2-7.4h3.1l5.3,7.4H489.1z"/>
		<path class="st1" d="M496.7,154v-20.5h2.9V154H496.7z"/>
		<path class="st1" d="M511.7,154.2c-1.6,0-3.1-0.2-4.5-0.7c-1.4-0.5-2.5-1.1-3.4-1.9l1.1-2.3c0.8,0.7,1.8,1.2,3,1.7
			c1.2,0.4,2.5,0.7,3.8,0.7c1.2,0,2.2-0.1,2.9-0.4c0.7-0.3,1.3-0.7,1.6-1.1c0.4-0.5,0.5-1,0.5-1.6c0-0.7-0.2-1.3-0.7-1.7
			c-0.5-0.4-1.1-0.8-1.8-1c-0.7-0.3-1.5-0.5-2.4-0.7c-0.9-0.2-1.8-0.4-2.6-0.7s-1.7-0.6-2.4-1c-0.7-0.4-1.3-1-1.8-1.7
			c-0.4-0.7-0.7-1.6-0.7-2.7c0-1.1,0.3-2,0.8-2.9c0.6-0.9,1.4-1.6,2.6-2.1c1.2-0.5,2.6-0.8,4.4-0.8c1.2,0,2.4,0.2,3.5,0.5
			c1.2,0.3,2.2,0.8,3,1.3l-1,2.3c-0.9-0.6-1.8-1-2.8-1.3c-1-0.3-1.9-0.4-2.8-0.4c-1.2,0-2.1,0.1-2.8,0.4c-0.7,0.3-1.3,0.7-1.6,1.2
			c-0.3,0.5-0.5,1-0.5,1.6c0,0.7,0.2,1.3,0.7,1.7s1.1,0.8,1.8,1c0.7,0.3,1.5,0.5,2.4,0.7c0.9,0.2,1.8,0.4,2.6,0.7
			c0.9,0.3,1.7,0.6,2.4,1s1.3,1,1.8,1.6c0.4,0.7,0.7,1.6,0.7,2.6c0,1-0.3,2-0.8,2.9c-0.6,0.9-1.4,1.6-2.6,2.1
			C515,154,513.5,154.2,511.7,154.2z"/>
		<path class="st1" d="M523.9,154v-20.5h2.4l9.2,15.5h-1.3l9.1-15.5h2.4l0,20.5h-2.8l0-16.1h0.7l-8.1,13.6h-1.3l-8.1-13.6h0.7V154
			H523.9z"/>
		<path class="st1" d="M561.1,154.2c-1.6,0-3-0.3-4.3-0.8c-1.3-0.5-2.5-1.3-3.5-2.2c-1-0.9-1.7-2.1-2.3-3.3
			c-0.5-1.3-0.8-2.7-0.8-4.2c0-1.5,0.3-2.9,0.8-4.2c0.5-1.3,1.3-2.4,2.3-3.3c1-0.9,2.1-1.7,3.5-2.2c1.3-0.5,2.8-0.8,4.4-0.8
			c1.6,0,3,0.3,4.3,0.8c1.3,0.5,2.5,1.2,3.5,2.2c1,0.9,1.7,2.1,2.3,3.3c0.5,1.3,0.8,2.7,0.8,4.2c0,1.5-0.3,2.9-0.8,4.2
			c-0.5,1.3-1.3,2.4-2.3,3.3c-1,0.9-2.1,1.7-3.5,2.2C564.1,154,562.7,154.2,561.1,154.2z M561.1,151.6c1.1,0,2.2-0.2,3.1-0.6
			c1-0.4,1.8-0.9,2.5-1.7c0.7-0.7,1.3-1.5,1.7-2.5c0.4-1,0.6-2,0.6-3.1c0-1.1-0.2-2.2-0.6-3.1c-0.4-1-1-1.8-1.7-2.5
			c-0.7-0.7-1.5-1.3-2.5-1.7c-1-0.4-2-0.6-3.1-0.6c-1.2,0-2.2,0.2-3.2,0.6c-1,0.4-1.8,0.9-2.5,1.7c-0.7,0.7-1.3,1.5-1.7,2.5
			c-0.4,1-0.6,2-0.6,3.1c0,1.1,0.2,2.2,0.6,3.1c0.4,1,1,1.8,1.7,2.5c0.7,0.7,1.6,1.3,2.5,1.7C558.9,151.4,559.9,151.6,561.1,151.6z"
			/>
	</g>
	<g>
		<g>
			<g>
				<path class="st2" d="M127.2,35.9v27.9l-15.9,15.9V49.9l14.5-14.6C126.4,34.9,127.2,35.2,127.2,35.9z"/>
			</g>
			<g>
				<polygon class="st2" points="108.6,52.7 108.6,82.5 92.7,98.4 92.7,68.6 				"/>
			</g>
		</g>
		<g>
			<g>
				<polygon class="st0" points="87,68.6 87,98.4 71.1,82.5 71.1,52.7 				"/>
			</g>
			<g>
				<path class="st0" d="M68.3,49.9v29.8L52.4,63.8V35.9c0-0.7,0.8-1,1.3-0.6L68.3,49.9z"/>
			</g>
		</g>
		<g>
			<g>
				<path class="st2" d="M68.3,126.7v29.8L53.8,171c-0.5,0.5-1.3,0.1-1.3-0.6v-27.9L68.3,126.7z"/>
			</g>
			<g>
				<polygon class="st2" points="87,108 87,137.8 71.1,153.7 71.1,123.9 				"/>
			</g>
		</g>
		<g>
			<g>
				<polygon class="st0" points="108.6,123.9 108.6,153.7 92.7,137.8 92.7,108 				"/>
			</g>
			<g>
				<path class="st0" d="M127.2,142.6v27.9c0,0.7-0.8,1-1.3,0.6l-14.5-14.5v-29.8L127.2,142.6z"/>
			</g>
		</g>
		<g>
			<g>
				<path class="st2" d="M157.1,140.6h-27.9l-15.9-15.9h29.8l14.5,14.6C158.2,139.7,157.8,140.6,157.1,140.6z"/>
			</g>
			<g>
				<polygon class="st2" points="140.3,121.9 110.5,121.9 94.6,106 124.4,106 				"/>
			</g>
		</g>
		<g>
			<g>
				<polygon class="st0" points="140.3,84.5 124.4,100.4 94.6,100.4 110.5,84.5 				"/>
			</g>
			<g>
				<path class="st0" d="M157.7,67.1l-14.5,14.5h-29.8l15.9-15.9h27.9C157.8,65.8,158.2,66.6,157.7,67.1z"/>
			</g>
		</g>
		<g>
			<g>
				<path class="st2" d="M66.3,81.7H36.6L22,67.1c-0.5-0.5-0.1-1.3,0.6-1.3h27.9L66.3,81.7z"/>
			</g>
			<g>
				<polygon class="st2" points="85,100.4 55.3,100.4 39.4,84.5 69.2,84.5 				"/>
			</g>
		</g>
		<g>
			<g>
				<polygon class="st0" points="85,106 69.2,121.9 39.4,121.9 55.3,106 				"/>
			</g>
			<g>
				<path class="st0" d="M66.4,124.7l-15.9,15.9H22.6c-0.7,0-1-0.8-0.6-1.3l14.5-14.6H66.4z"/>
			</g>
		</g>
	</g>
</g>
</svg>
