<?xml version="1.0" encoding="utf-8"?>
<!-- Generator: Adobe Illustrator 25.4.1, SVG Export Plug-In . SVG Version: 6.00 Build 0)  -->
<svg version="1.1" id="Capa_1" xmlns="http://www.w3.org/2000/svg" xmlns:xlink="http://www.w3.org/1999/xlink" x="0px" y="0px"
	 viewBox="0 0 905.9 225.9" style="enable-background:new 0 0 905.9 225.9;" xml:space="preserve">
<style type="text/css">
	.st0{fill:#A02142;}
	.st1{fill:#691B32;}
	.st2{fill:#707271;}
</style>
<g>
	<g>
		<g>
			<g>
				<path class="st0" d="M131.3,34.9v28.3l-16.1,16.1V49.1L130,34.3C130.5,33.8,131.3,34.2,131.3,34.9z"/>
			</g>
			<g>
				<polygon class="st0" points="112.4,52 112.4,82.2 96.2,98.3 96.2,68.1 				"/>
			</g>
		</g>
		<g>
			<g>
				<polygon class="st1" points="90.5,68.1 90.5,98.3 74.4,82.2 74.4,52 				"/>
			</g>
			<g>
				<path class="st1" d="M71.5,49.1v30.3L55.4,63.2V34.9c0-0.7,0.9-1.1,1.4-0.6L71.5,49.1z"/>
			</g>
		</g>
		<g>
			<g>
				<path class="st0" d="M71.5,127.1v30.3l-14.8,14.8c-0.5,0.5-1.4,0.1-1.4-0.6v-28.3L71.5,127.1z"/>
			</g>
			<g>
				<polygon class="st0" points="90.5,108.1 90.5,138.3 74.4,154.5 74.4,124.2 				"/>
			</g>
		</g>
		<g>
			<g>
				<polygon class="st1" points="112.4,124.2 112.4,154.5 96.2,138.3 96.2,108.1 				"/>
			</g>
			<g>
				<path class="st1" d="M131.3,143.2v28.3c0,0.7-0.9,1.1-1.4,0.6l-14.8-14.8v-30.3L131.3,143.2z"/>
			</g>
		</g>
		<g>
			<g>
				<path class="st0" d="M161.7,141.2h-28.3l-16.1-16.1h30.3l14.8,14.8C162.8,140.3,162.4,141.2,161.7,141.2z"/>
			</g>
			<g>
				<polygon class="st0" points="144.6,122.2 114.4,122.2 98.2,106.1 128.5,106.1 				"/>
			</g>
		</g>
		<g>
			<g>
				<polygon class="st1" points="144.6,84.2 128.5,100.4 98.2,100.4 114.4,84.2 				"/>
			</g>
			<g>
				<path class="st1" d="M162.2,66.6l-14.8,14.8h-30.3l16.1-16.1h28.3C162.4,65.2,162.8,66.1,162.2,66.6z"/>
			</g>
		</g>
		<g>
			<g>
				<path class="st0" d="M69.5,81.4H39.2L24.5,66.6c-0.5-0.5-0.1-1.4,0.6-1.4h28.3L69.5,81.4z"/>
			</g>
			<g>
				<polygon class="st0" points="88.5,100.4 58.2,100.4 42.1,84.2 72.3,84.2 				"/>
			</g>
		</g>
		<g>
			<g>
				<polygon class="st1" points="88.5,106.1 72.3,122.2 42.1,122.2 58.2,106.1 				"/>
			</g>
			<g>
				<path class="st1" d="M69.5,125.1l-16.1,16.1H25c-0.7,0-1.1-0.9-0.6-1.4l14.8-14.8H69.5z"/>
			</g>
		</g>
	</g>
	<g>
		<path class="st1" d="M229,107.2c0.5-1.5,1.7-5.2,2.9-9.6c1.9-0.1,7,0.2,9,0.4c0.2,3.3,0.3,8.4,0.3,11.4l-1.1,2.4
			c-4.6,3-11.9,5.4-20.2,5.4c-17.1,0-27.6-10.2-27.6-26.8c0-17.2,12.9-28.6,28.9-28.6c7.7,0,14.2,2.1,19.6,4.7l1.3,2.3
			c-0.8,4.1-2,9.9-3,13.7c-1.8,0.1-6.3-0.1-8.3-0.4c-0.8-4.3-1.9-8.6-2.5-10.5c-1.5-0.9-4.6-1.6-7.7-1.6c-3.6,0-6.9,0.8-8.7,1.8
			c-3.3,4-5.5,9.9-5.5,17.7c0,11.6,5.2,19,15.1,19C225.1,108.5,227.6,108,229,107.2z"/>
		<path class="st1" d="M248.8,91c0-17.4,11.7-29.3,28.9-29.3c15.5,0,26.2,10.1,26.2,26.5c0,17-11.6,28.9-28.2,28.9
			C259.8,117.1,248.8,107.2,248.8,91z M286,106.1c1.5-2.1,3.9-8,3.9-15.9c0-12.8-3.6-20-13.9-20c-3.6,0-7.4,1.2-9.3,2.7
			c-2.6,3.8-3.9,9.9-3.9,17.2c0,11.7,4.5,18.8,13.8,18.8C280.6,108.8,284.2,107.7,286,106.1z"/>
		<path class="st1" d="M353.8,116.3l-7.1-9.4c-5.8-7.7-13.7-17-20-24.4c0.2,14.3,0.8,24.1,1.4,25.6c1,1.2,5.2,2.3,8.9,3.3l-1,4.6
			h-23.5l-1-4.6l6.7-2.4c0.3-2,0.6-8.7,0.6-20c0-10.4-0.2-17-1.1-18.3c-1.3-1.1-3.8-2.4-6.1-3.3l1-4.6c5.5,0,12.2-0.1,17.3-0.3
			c4.8,8,17.2,23.1,26.2,33.8c-0.1-14.6-0.8-24-1.7-25.6c-0.8-1.1-4.9-2.4-7.8-3.3l1-4.6h23.5l1,4.6l-6.7,2.4
			c-0.8,4.3-1.3,21.6-1.3,45.4L353.8,116.3z"/>
		<path class="st1" d="M395,109c0.3-2,0.5-7.1,0.5-13V69h-0.8c-2.4,0-5.1,0.1-7.1,0.4L385,79.6c-2.2,0.2-6.9,0-8.8-0.4
			c-0.2-5.2-0.2-10.9,0-16.3h27.5c9.2,0,16.7-0.1,22.5-0.5c0.8,1,1.8,2.5,2.4,3.5c-0.2,4.3-0.8,9.5-1.3,13.4
			c-1.8,0.3-6.5,0.2-8.2-0.1l-2.4-9.8c-2-0.3-4.7-0.4-7.1-0.4h-0.8v27.7c0,4.2,0,10.7,0.7,11.6c0.8,1,4.1,2.2,6.6,3l-1,4.6h-25.9
			l-1-4.6L395,109z"/>
		<path class="st1" d="M441.4,109c0.3-2,0.5-7.1,0.5-13V82.2c0-4.3,0-10.7-0.7-11.6c-0.8-1-4.1-2.2-6.6-3l1-4.6h12.7
			c2.8,0,11.5-0.5,15.6-0.5c13.7,0,22,4.8,22,14.7c0,6.7-5,10.9-10,13.4c3.6,7.2,7.7,14.5,10.2,18.2l5.1,2.7l-1,4.6
			c-5.2,0-9.6,0.1-15.7,0.3c-2.5-6-6.1-13.4-10.3-21.6h-9v2c0,4.2,0,10.7,0.7,11.6c0.8,1,4.1,2.2,6.6,3l-1,4.6h-25.9l-1-4.6
			L441.4,109z M455.2,87.2l12.4,0.5c2.3-1.7,4.3-5.1,4.3-9.8c0-3.1-0.8-5.4-2-6.9c-1.6-1.2-4.7-1.9-8.1-1.9c-2,0-4.3,0.3-6.1,0.8
			c-0.3,2-0.5,7.1-0.5,13V87.2z"/>
		<path class="st1" d="M515.7,116h-22.4l-1-4.6l5.8-2.4c4.7-11.4,9.9-25.3,14.6-38.6l2.1-7.6c4.8-0.4,12.4-0.8,16.8-0.8
			c0.6,2.4,1.7,5.3,2.7,8.3c4.7,13.4,10.4,28.8,14.3,38.6l5.9,2.3l-1,4.6h-25.8l-1-4.6l7.2-2.3c-0.9-2.7-2-5.8-3.1-9.3l-19,0.5
			c-0.9,3-1.7,6-2.6,8.9l7.4,2.3L515.7,116z M528.6,93.1c-2.4-7.1-5.2-15-7.7-21.9c-2.1,6.3-4.5,13.9-6.8,21.6L528.6,93.1z"/>
		<path class="st1" d="M564.4,109c0.3-2,0.5-7.1,0.5-13V82.2c0-4.3,0-10.7-0.7-11.6c-0.8-1-4.1-2.2-6.6-3l1-4.6h25.9l1,4.6l-6.8,2.4
			c-0.3,2-0.5,7.1-0.5,13v13.9c0,5,0,11.2,1,11.9c1.2,0.8,4.6,1,7.3,1c2.3,0,4.8-0.1,6.5-0.3l2.7-10.1c2.1-0.1,6.8,0.1,8.7,0.5
			c0.1,5.2,0.1,10.8,0,16.3h-45.7l-1-4.6L564.4,109z"/>
		<path class="st1" d="M610.5,91c0-17.4,11.7-29.3,28.9-29.3c15.5,0,26.2,10.1,26.2,26.5c0,17-11.6,28.9-28.2,28.9
			C621.5,117.1,610.5,107.2,610.5,91z M647.7,106.1c1.5-2.1,3.9-8,3.9-15.9c0-12.8-3.6-20-13.9-20c-3.6,0-7.4,1.2-9.3,2.7
			c-2.6,3.8-3.9,9.9-3.9,17.2c0,11.7,4.5,18.8,13.8,18.8C642.3,108.8,645.9,107.7,647.7,106.1z"/>
		<path class="st1" d="M680,109c0.3-2,0.5-7.1,0.5-13V82.2c0-4.3,0-10.7-0.7-11.6c-0.8-1-4.1-2.2-6.6-3l1-4.6h12.7
			c2.8,0,11.5-0.5,15.6-0.5c13.7,0,22,4.8,22,14.7c0,6.7-5,10.9-10,13.4c3.6,7.2,7.7,14.5,10.2,18.2l5.1,2.7l-1,4.6
			c-5.2,0-9.6,0.1-15.7,0.3c-2.5-6-6.1-13.4-10.3-21.6h-9v2c0,4.2,0,10.7,0.7,11.6c0.8,1,4.1,2.2,6.6,3l-1,4.6h-25.9l-1-4.6L680,109
			z M693.8,87.2l12.4,0.5c2.3-1.7,4.3-5.1,4.3-9.8c0-3.1-0.8-5.4-2-6.9c-1.6-1.2-4.7-1.9-8.1-1.9c-2,0-4.3,0.3-6.1,0.8
			c-0.3,2-0.5,7.1-0.5,13V87.2z"/>
		<path class="st1" d="M756.4,40c1.8,2.4,3.7,6.5,4.5,9.6l-1.6,2.7l-26.4,6.1l-1.4-0.7l-1-4C738,48.9,747.9,44,756.4,40z M738.4,109
			c0.3-2,0.5-7.1,0.5-13V82.2c0-4.3,0-10.7-0.7-11.6c-0.8-1-4.1-2.2-6.6-3l1-4.6h25.9l1,4.6l-6.8,2.4c-0.3,2-0.5,7.1-0.5,13v13.9
			c0,4.2,0,10.7,0.7,11.6c0.8,1,4.1,2.2,6.6,3l-1,4.6h-25.9l-1-4.6L738.4,109z"/>
		<path class="st1" d="M785.9,116h-22.4l-1-4.6l5.8-2.4c4.7-11.4,9.9-25.3,14.6-38.6l2.1-7.6c4.8-0.4,12.4-0.8,16.8-0.8
			c0.6,2.4,1.7,5.3,2.7,8.3c4.7,13.4,10.4,28.8,14.3,38.6l5.9,2.3l-1,4.6H798l-1-4.6l7.2-2.3c-0.9-2.7-2-5.8-3.1-9.3l-19,0.5
			c-0.9,3-1.7,6-2.6,8.9l7.4,2.3L785.9,116z M798.8,93.1c-2.4-7.1-5.2-15-7.7-21.9c-2.1,6.3-4.5,13.9-6.8,21.6L798.8,93.1z"/>
	</g>
	<g>
		<path class="st2" d="M198.3,158.8c-1.6,0-3.1-0.2-4.5-0.7c-1.4-0.5-2.6-1.1-3.4-1.9l1.1-2.3c0.8,0.7,1.8,1.3,3,1.7
			c1.2,0.5,2.5,0.7,3.8,0.7c1.2,0,2.2-0.1,2.9-0.4c0.8-0.3,1.3-0.7,1.7-1.1c0.4-0.5,0.5-1,0.5-1.6c0-0.7-0.2-1.3-0.7-1.7
			c-0.5-0.4-1.1-0.8-1.8-1.1c-0.7-0.3-1.6-0.5-2.4-0.7c-0.9-0.2-1.8-0.4-2.7-0.7c-0.9-0.3-1.7-0.6-2.5-1c-0.7-0.4-1.3-1-1.8-1.7
			c-0.5-0.7-0.7-1.6-0.7-2.7c0-1.1,0.3-2.1,0.8-3c0.6-0.9,1.4-1.6,2.6-2.2c1.2-0.5,2.7-0.8,4.5-0.8c1.2,0,2.4,0.2,3.6,0.5
			c1.2,0.3,2.2,0.8,3.1,1.4l-1,2.4c-0.9-0.6-1.8-1-2.8-1.3c-1-0.3-1.9-0.4-2.9-0.4c-1.2,0-2.1,0.1-2.9,0.4s-1.3,0.7-1.6,1.2
			c-0.3,0.5-0.5,1-0.5,1.7c0,0.7,0.2,1.3,0.7,1.8c0.5,0.4,1.1,0.8,1.8,1c0.7,0.3,1.6,0.5,2.4,0.7c0.9,0.2,1.8,0.4,2.7,0.7
			c0.9,0.3,1.7,0.6,2.5,1c0.7,0.4,1.3,1,1.8,1.7c0.5,0.7,0.7,1.6,0.7,2.7c0,1.1-0.3,2-0.9,2.9c-0.6,0.9-1.5,1.6-2.7,2.2
			C201.6,158.5,200.1,158.8,198.3,158.8z"/>
		<path class="st2" d="M213.6,156h12.1v2.6h-15.1v-20.8h14.7v2.6h-11.7V156z M213.4,146.8h10.7v2.5h-10.7V146.8z"/>
		<path class="st2" d="M239.8,158.8c-1.6,0-3-0.3-4.4-0.8c-1.3-0.5-2.5-1.3-3.5-2.2c-1-1-1.7-2.1-2.3-3.4c-0.6-1.3-0.8-2.7-0.8-4.2
			c0-1.5,0.3-3,0.8-4.2c0.6-1.3,1.3-2.4,2.3-3.4c1-1,2.2-1.7,3.5-2.2c1.3-0.5,2.8-0.8,4.4-0.8c1.6,0,3.1,0.3,4.4,0.8
			c1.4,0.5,2.5,1.4,3.5,2.4l-1.9,1.9c-0.8-0.8-1.7-1.5-2.7-1.9c-1-0.4-2-0.6-3.2-0.6c-1.2,0-2.3,0.2-3.3,0.6c-1,0.4-1.9,1-2.6,1.7
			c-0.7,0.7-1.3,1.6-1.7,2.5c-0.4,1-0.6,2-0.6,3.2c0,1.1,0.2,2.2,0.6,3.2c0.4,1,1,1.8,1.7,2.5c0.7,0.7,1.6,1.3,2.6,1.7
			c1,0.4,2.1,0.6,3.3,0.6c1.1,0,2.2-0.2,3.2-0.6c1-0.4,1.9-1,2.7-1.9l1.9,1.9c-1,1.1-2.1,1.9-3.5,2.4
			C242.9,158.5,241.4,158.8,239.8,158.8z"/>
		<path class="st2" d="M252,158.6v-20.8h8.1c1.8,0,3.4,0.3,4.7,0.9c1.3,0.6,2.3,1.4,3,2.5c0.7,1.1,1,2.4,1,3.9c0,1.5-0.3,2.8-1,3.9
			c-0.7,1.1-1.7,1.9-3,2.5c-1.3,0.6-2.8,0.9-4.7,0.9h-6.5l1.3-1.4v7.7H252z M255,151.2l-1.3-1.5h6.4c1.9,0,3.3-0.4,4.3-1.2
			c1-0.8,1.5-2,1.5-3.5c0-1.5-0.5-2.6-1.5-3.4c-1-0.8-2.4-1.2-4.3-1.2h-6.4l1.3-1.5V151.2z M265.9,158.6l-5.3-7.5h3.2l5.3,7.5H265.9
			z"/>
		<path class="st2" d="M276.6,156h12.1v2.6h-15.1v-20.8h14.7v2.6h-11.7V156z M276.3,146.8H287v2.5h-10.7V146.8z"/>
		<path class="st2" d="M297.6,158.6v-18.2h-7.1v-2.6h17.2v2.6h-7.1v18.2H297.6z"/>
		<path class="st2" d="M306.7,158.6l9.4-20.8h2.9l9.4,20.8h-3.1l-8.4-19.1h1.2l-8.4,19.1H306.7z M310.7,153.4l0.8-2.4h11.7l0.9,2.4
			H310.7z"/>
		<path class="st2" d="M331.6,158.6v-20.8h8.1c1.8,0,3.4,0.3,4.7,0.9c1.3,0.6,2.3,1.4,3,2.5c0.7,1.1,1,2.4,1,3.9
			c0,1.5-0.3,2.8-1,3.9c-0.7,1.1-1.7,1.9-3,2.5c-1.3,0.6-2.8,0.9-4.7,0.9h-6.5l1.3-1.4v7.7H331.6z M334.6,151.2l-1.3-1.5h6.4
			c1.9,0,3.3-0.4,4.3-1.2c1-0.8,1.5-2,1.5-3.5c0-1.5-0.5-2.6-1.5-3.4c-1-0.8-2.4-1.2-4.3-1.2h-6.4l1.3-1.5V151.2z M345.5,158.6
			l-5.3-7.5h3.2l5.3,7.5H345.5z"/>
		<path class="st2" d="M352.5,136.1l4-3.9h3.6l-5,3.9H352.5z M353.2,158.6v-20.8h3v20.8H353.2z"/>
		<path class="st2" d="M359.3,158.6l9.4-20.8h2.9l9.4,20.8h-3.1l-8.4-19.1h1.2l-8.4,19.1H359.3z M363.3,153.4l0.8-2.4h11.7l0.9,2.4
			H363.3z"/>
		<path class="st2" d="M392.1,158.6v-20.8h8.8c2.2,0,4.2,0.4,5.9,1.3c1.7,0.9,3,2.1,4,3.7c0.9,1.6,1.4,3.4,1.4,5.4s-0.5,3.9-1.4,5.4
			s-2.3,2.8-4,3.7c-1.7,0.9-3.6,1.3-5.9,1.3H392.1z M395.1,156h5.6c1.7,0,3.2-0.3,4.5-1c1.3-0.7,2.2-1.6,2.9-2.7
			c0.7-1.2,1-2.5,1-4.1c0-1.6-0.3-2.9-1-4.1c-0.7-1.2-1.7-2.1-2.9-2.7c-1.3-0.7-2.7-1-4.5-1h-5.6V156z"/>
		<path class="st2" d="M419.6,156h12.1v2.6h-15.1v-20.8h14.7v2.6h-11.7V156z M419.4,146.8h10.7v2.5h-10.7V146.8z"/>
		<path class="st2" d="M453.9,158.8c-1.6,0-3-0.3-4.4-0.8c-1.3-0.5-2.5-1.3-3.5-2.2c-1-1-1.7-2.1-2.3-3.4c-0.6-1.3-0.8-2.7-0.8-4.2
			c0-1.5,0.3-3,0.8-4.2c0.6-1.3,1.3-2.4,2.3-3.4c1-1,2.2-1.7,3.5-2.2c1.3-0.5,2.8-0.8,4.4-0.8c1.6,0,3.1,0.3,4.4,0.8
			c1.4,0.5,2.5,1.4,3.5,2.4l-1.9,1.9c-0.8-0.8-1.7-1.5-2.7-1.9c-1-0.4-2-0.6-3.2-0.6c-1.2,0-2.3,0.2-3.3,0.6c-1,0.4-1.9,1-2.6,1.7
			c-0.7,0.7-1.3,1.6-1.7,2.5c-0.4,1-0.6,2-0.6,3.2c0,1.1,0.2,2.2,0.6,3.2c0.4,1,1,1.8,1.7,2.5c0.7,0.7,1.6,1.3,2.6,1.7
			c1,0.4,2.1,0.6,3.3,0.6c1.1,0,2.2-0.2,3.2-0.6c1-0.4,1.9-1,2.7-1.9l1.9,1.9c-1,1.1-2.1,1.9-3.5,2.4
			C457,158.5,455.5,158.8,453.9,158.8z"/>
		<path class="st2" d="M475,158.8c-1.6,0-3.1-0.3-4.4-0.8c-1.4-0.5-2.5-1.3-3.5-2.2c-1-1-1.8-2.1-2.3-3.4c-0.6-1.3-0.8-2.7-0.8-4.2
			c0-1.5,0.3-2.9,0.8-4.2c0.6-1.3,1.3-2.4,2.3-3.4c1-1,2.2-1.7,3.5-2.2c1.3-0.5,2.8-0.8,4.4-0.8c1.6,0,3,0.3,4.4,0.8
			c1.3,0.5,2.5,1.3,3.5,2.2c1,1,1.8,2.1,2.3,3.4c0.5,1.3,0.8,2.7,0.8,4.2c0,1.5-0.3,3-0.8,4.2c-0.5,1.3-1.3,2.4-2.3,3.4
			c-1,1-2.2,1.7-3.5,2.2C478,158.6,476.6,158.8,475,158.8z M475,156.2c1.1,0,2.2-0.2,3.2-0.6c1-0.4,1.8-1,2.6-1.7
			c0.7-0.7,1.3-1.6,1.7-2.5c0.4-1,0.6-2,0.6-3.2c0-1.1-0.2-2.2-0.6-3.2c-0.4-1-1-1.8-1.7-2.5c-0.7-0.7-1.6-1.3-2.6-1.7
			c-1-0.4-2-0.6-3.2-0.6c-1.2,0-2.2,0.2-3.2,0.6c-1,0.4-1.8,1-2.6,1.7c-0.7,0.7-1.3,1.6-1.7,2.5c-0.4,1-0.6,2-0.6,3.2
			c0,1.1,0.2,2.2,0.6,3.2c0.4,1,1,1.8,1.7,2.5c0.7,0.7,1.6,1.3,2.6,1.7C472.7,156,473.8,156.2,475,156.2z"/>
		<path class="st2" d="M490.5,158.6v-20.8h2.4l13.7,17.1h-1.3v-17.1h3v20.8H506l-13.8-17.1h1.3v17.1H490.5z"/>
		<path class="st2" d="M518.8,158.6v-18.2h-7.1v-2.6h17.2v2.6h-7.1v18.2H518.8z"/>
		<path class="st2" d="M532.1,158.6v-20.8h8.1c1.8,0,3.4,0.3,4.7,0.9c1.3,0.6,2.3,1.4,3,2.5c0.7,1.1,1,2.4,1,3.9
			c0,1.5-0.3,2.8-1,3.9c-0.7,1.1-1.7,1.9-3,2.5c-1.3,0.6-2.8,0.9-4.7,0.9h-6.5l1.3-1.4v7.7H532.1z M535,151.2l-1.3-1.5h6.4
			c1.9,0,3.3-0.4,4.3-1.2c1-0.8,1.5-2,1.5-3.5c0-1.5-0.5-2.6-1.5-3.4c-1-0.8-2.4-1.2-4.3-1.2h-6.4l1.3-1.5V151.2z M546,158.6
			l-5.3-7.5h3.2l5.3,7.5H546z"/>
		<path class="st2" d="M550.5,158.6l9.4-20.8h2.9l9.4,20.8h-3.1l-8.4-19.1h1.2l-8.4,19.1H550.5z M554.5,153.4l0.8-2.4H567l0.9,2.4
			H554.5z"/>
		<path class="st2" d="M575.4,158.6v-20.8h3V156h11.3v2.6H575.4z"/>
		<path class="st2" d="M602,158.8c-1.6,0-3.1-0.3-4.4-0.8c-1.4-0.5-2.5-1.3-3.5-2.2c-1-1-1.8-2.1-2.3-3.4c-0.6-1.3-0.8-2.7-0.8-4.2
			c0-1.5,0.3-2.9,0.8-4.2c0.6-1.3,1.3-2.4,2.3-3.4c1-1,2.2-1.7,3.5-2.2c1.3-0.5,2.8-0.8,4.4-0.8c1.6,0,3,0.3,4.4,0.8
			c1.3,0.5,2.5,1.3,3.5,2.2c1,1,1.8,2.1,2.3,3.4c0.5,1.3,0.8,2.7,0.8,4.2c0,1.5-0.3,3-0.8,4.2c-0.5,1.3-1.3,2.4-2.3,3.4
			c-1,1-2.2,1.7-3.5,2.2C605.1,158.6,603.6,158.8,602,158.8z M602,156.2c1.1,0,2.2-0.2,3.2-0.6c1-0.4,1.8-1,2.6-1.7
			c0.7-0.7,1.3-1.6,1.7-2.5c0.4-1,0.6-2,0.6-3.2c0-1.1-0.2-2.2-0.6-3.2c-0.4-1-1-1.8-1.7-2.5c-0.7-0.7-1.6-1.3-2.6-1.7
			c-1-0.4-2-0.6-3.2-0.6c-1.2,0-2.2,0.2-3.2,0.6c-1,0.4-1.8,1-2.6,1.7c-0.7,0.7-1.3,1.6-1.7,2.5c-0.4,1-0.6,2-0.6,3.2
			c0,1.1,0.2,2.2,0.6,3.2c0.4,1,1,1.8,1.7,2.5c0.7,0.7,1.6,1.3,2.6,1.7C599.8,156,600.9,156.2,602,156.2z"/>
		<path class="st2" d="M617.6,158.6v-20.8h8.1c1.8,0,3.4,0.3,4.7,0.9c1.3,0.6,2.3,1.4,3,2.5c0.7,1.1,1,2.4,1,3.9
			c0,1.5-0.3,2.8-1,3.9c-0.7,1.1-1.7,1.9-3,2.5c-1.3,0.6-2.8,0.9-4.7,0.9h-6.5l1.3-1.4v7.7H617.6z M620.6,151.2l-1.3-1.5h6.4
			c1.9,0,3.3-0.4,4.3-1.2c1-0.8,1.5-2,1.5-3.5c0-1.5-0.5-2.6-1.5-3.4c-1-0.8-2.4-1.2-4.3-1.2h-6.4l1.3-1.5V151.2z M631.5,158.6
			l-5.3-7.5h3.2l5.3,7.5H631.5z"/>
		<path class="st2" d="M638.5,136.1l4-3.9h3.6l-5,3.9H638.5z M639.2,158.6v-20.8h3v20.8H639.2z"/>
		<path class="st2" d="M645.3,158.6l9.4-20.8h2.9l9.4,20.8h-3.1l-8.4-19.1h1.2l-8.4,19.1H645.3z M649.3,153.4l0.8-2.4h11.7l0.9,2.4
			H649.3z"/>
	</g>
</g>
</svg>
