<?xml version="1.0" encoding="utf-8"?>
<!-- Generator: Adobe Illustrator 25.4.1, SVG Export Plug-In . SVG Version: 6.00 Build 0)  -->
<svg version="1.1" id="Capa_1" xmlns="http://www.w3.org/2000/svg" xmlns:xlink="http://www.w3.org/1999/xlink" x="0px" y="0px"
	 viewBox="0 0 905.9 225.9" style="enable-background:new 0 0 905.9 225.9;" xml:space="preserve">
<style type="text/css">
	.st0{fill:#691B32;}
	.st1{fill:#707271;}
	.st2{fill:#A02142;}
</style>
<g>
	<g>
		<path class="st0" d="M189.8,93.2c0.3-1.9,0.5-6.9,0.5-12.5V67.4c0-4.1,0.1-10.4-0.7-11.2c-0.9-0.9-4-2.1-6.3-2.8l0.9-4.5h12.3
			c2.6,0,10.7-0.4,14.5-0.4c13.1,0,21.2,5.3,21.2,16.6c0,11.6-8.6,18.3-21.9,18.3c-3.2,0-5.3-0.2-7.3-0.5c-0.1,3.9-0.1,9.1,0.8,9.9
			c1.1,1,5.7,1.8,9.1,2.8l-1,4.5h-27.7l-0.9-4.5L189.8,93.2z M216,56.5c-1.6-1.1-3.8-1.8-6.5-1.8c-2.1,0-4.5,0.4-6,0.9
			c-0.2,2.6-0.4,7.2-0.4,12.3v7.5c2,0.4,4.4,0.6,6.1,0.6c2.5,0,4.9-0.3,6.7-1c1.5-1.5,2.9-4.5,2.9-9.6
			C218.8,61.1,217.4,58.1,216,56.5z"/>
		<path class="st0" d="M243.9,93.2c0.3-1.9,0.5-6.9,0.5-12.5V67.4c0-4.1,0-10.3-0.7-11.2c-0.7-0.9-3.9-2.1-6.4-2.9l0.9-4.5h12.2
			c2.7,0,11-0.4,15-0.4c13.1,0,21.2,4.6,21.2,14.2c0,6.4-4.8,10.5-9.6,12.8c3.5,6.9,7.4,13.9,9.9,17.5l4.9,2.6l-0.9,4.5
			c-5,0-9.3,0.1-15.1,0.3c-2.4-5.8-5.8-12.8-9.9-20.7h-8.6v1.9c0,4.1,0,10.3,0.7,11.2c0.7,0.9,3.9,2.1,6.4,2.9l-0.9,4.5h-24.9
			l-0.9-4.5L243.9,93.2z M257.1,72.2l11.9,0.4c2.2-1.7,4.2-4.9,4.2-9.4c0-3-0.7-5.2-1.9-6.6c-1.5-1.2-4.5-1.8-7.8-1.8
			c-1.9,0-4.2,0.3-5.8,0.8c-0.3,1.9-0.5,6.9-0.5,12.5V72.2z"/>
		<path class="st0" d="M295,75.9c0-16.7,11.2-28.2,27.8-28.2c14.9,0,25.2,9.7,25.2,25.5c0,16.4-11.2,27.8-27.2,27.8
			C305.6,101,295,91.5,295,75.9z M330.8,90.4c1.5-2,3.8-7.7,3.8-15.3c0-12.3-3.4-19.3-13.4-19.3c-3.4,0-7.1,1.2-9,2.6
			c-2.5,3.7-3.8,9.5-3.8,16.5c0,11.2,4.3,18.1,13.3,18.1C325.6,93,329,91.9,330.8,90.4z"/>
		<path class="st0" d="M390,91.5c0.5-1.5,1.6-5,2.8-9.2c1.8-0.1,6.7,0.1,8.6,0.4c0.2,3.1,0.3,8.1,0.3,10.9l-1.1,2.3
			c-4.4,2.8-11.5,5.2-19.4,5.2c-16.4,0-26.6-9.8-26.6-25.8c0-16.5,12.4-27.5,27.8-27.5c7.4,0,13.7,2,18.8,4.5l1.2,2.2
			c-0.7,3.9-2,9.6-2.8,13.2c-1.8,0.1-6.1-0.1-8-0.4c-0.8-4.2-1.8-8.3-2.4-10.1c-1.5-0.9-4.4-1.5-7.4-1.5c-3.5,0-6.6,0.7-8.3,1.8
			c-3.2,3.9-5.3,9.6-5.3,17c0,11.2,5,18.3,14.5,18.3C386.3,92.7,388.7,92.2,390,91.5z"/>
		<path class="st0" d="M436.6,101c-15.7,0-22.8-8.5-22.8-25.3V68c0-3.9,0-10.4-0.9-11.6c-0.7-1.1-3.9-2.3-6.1-3.1l0.9-4.5h25.5
			l0.9,4.5l-6.6,2.3c-0.3,1.9-0.6,6.9-0.6,12.4v8.4c0,10.1,2.8,16.4,12.3,16.4c4.2,0,7.7-1.4,9.6-2.9c1.8-5.6,1.6-13.4,1.6-19.4
			c0-6.2-0.1-13.1-0.6-14.3c-0.9-0.7-4.7-2-7.2-2.8l0.9-4.5h22.1l0.9,4.5l-6.9,2.3c-0.3,4.7-0.4,11-0.4,22.6
			C459.4,93.3,450.6,101,436.6,101z"/>
		<path class="st0" d="M478.3,93.2c0.3-1.9,0.5-6.9,0.5-12.5V67.4c0-4.1,0-10.3-0.7-11.2c-0.7-0.9-3.9-2.1-6.4-2.9l0.9-4.5H485
			c2.7,0,11-0.4,15-0.4c13.1,0,21.2,4.6,21.2,14.2c0,6.4-4.8,10.5-9.6,12.8c3.5,6.9,7.4,13.9,9.9,17.5l4.9,2.6l-0.9,4.5
			c-5,0-9.3,0.1-15.1,0.3c-2.4-5.8-5.8-12.8-9.9-20.7h-8.6v1.9c0,4.1,0,10.3,0.7,11.2c0.7,0.9,3.9,2.1,6.4,2.9l-0.9,4.5h-24.9
			l-0.9-4.5L478.3,93.2z M491.6,72.2l11.9,0.4c2.2-1.7,4.2-4.9,4.2-9.4c0-3-0.7-5.2-1.9-6.6c-1.5-1.2-4.5-1.8-7.8-1.8
			c-1.9,0-4.2,0.3-5.8,0.8c-0.3,1.9-0.5,6.9-0.5,12.5V72.2z"/>
		<path class="st0" d="M549.8,99.9h-21.5l-0.9-4.5l5.6-2.3c4.5-11,9.5-24.4,14-37.1l2-7.3c4.6-0.4,12-0.7,16.2-0.7
			c0.6,2.3,1.6,5.1,2.6,8c4.5,12.8,10,27.7,13.7,37.2l5.7,2.2l-0.9,4.5h-24.8l-0.9-4.5l6.9-2.2c-0.9-2.6-1.9-5.6-3-9l-18.3,0.4
			c-0.9,2.8-1.7,5.8-2.5,8.5l7.1,2.2L549.8,99.9z M562.2,77.9c-2.3-6.9-5-14.4-7.4-21c-2,6.1-4.3,13.4-6.5,20.7L562.2,77.9z"/>
		<path class="st0" d="M596.6,93.2c0.3-1.9,0.5-6.9,0.5-12.5V67.4c0-4.1,0-10.3-0.7-11.2c-0.7-0.9-3.9-2.1-6.4-2.9l0.9-4.5h11.2
			c2.7,0,10.9-0.4,14.7-0.4c21.1,0,28.3,11.8,28.3,25.6c0,17.8-12.3,26.6-26.1,26.6c-4.7,0-11.6-0.7-16.4-0.7h-11.8l-0.9-4.5
			L596.6,93.2z M610.6,92.6c0.9,1.2,7.4,2.6,12.6,0.7c5.5-3,8.6-9.7,8.6-19.3c0-8-2.9-14.2-5.8-16.5c-2.4-1.5-6-2.3-9.7-2.3
			c-2,0-4.2,0.1-5.8,0.4c-0.3,1.9-0.5,6.9-0.5,12.4v13.4C609.9,85.5,609.9,91.7,610.6,92.6z"/>
		<path class="st0" d="M678,101c-15.7,0-22.8-8.5-22.8-25.3V68c0-3.9,0-10.4-0.9-11.6c-0.7-1.1-3.9-2.3-6.1-3.1l0.9-4.5h25.5
			l0.9,4.5l-6.6,2.3c-0.3,1.9-0.6,6.9-0.6,12.4v8.4c0,10.1,2.8,16.4,12.3,16.4c4.2,0,7.7-1.4,9.6-2.9c1.8-5.6,1.6-13.4,1.6-19.4
			c0-6.2-0.1-13.1-0.6-14.3c-0.9-0.7-4.7-2-7.2-2.8l0.9-4.5h22.1l0.9,4.5l-6.9,2.3c-0.3,4.7-0.4,11-0.4,22.6
			C700.7,93.3,691.9,101,678,101z"/>
		<path class="st0" d="M719.6,93.2c0.3-1.9,0.5-6.9,0.5-12.5V67.4c0-4.1,0-10.3-0.7-11.2c-0.7-0.9-3.9-2.1-6.4-2.9l0.9-4.5h12.2
			c2.7,0,11-0.4,15-0.4c13.1,0,21.2,4.6,21.2,14.2c0,6.4-4.8,10.5-9.6,12.8c3.5,6.9,7.4,13.9,9.9,17.5l4.9,2.6l-0.9,4.5
			c-5,0-9.3,0.1-15.1,0.3c-2.4-5.8-5.8-12.8-9.9-20.7h-8.6v1.9c0,4.1,0,10.3,0.7,11.2c0.7,0.9,3.9,2.1,6.4,2.9l-0.9,4.5h-24.9
			l-0.9-4.5L719.6,93.2z M732.9,72.2l11.9,0.4c2.2-1.7,4.2-4.9,4.2-9.4c0-3-0.7-5.2-1.9-6.6c-1.5-1.2-4.5-1.8-7.8-1.8
			c-1.9,0-4.2,0.3-5.8,0.8c-0.3,1.9-0.5,6.9-0.5,12.5V72.2z"/>
		<path class="st0" d="M793.2,26.9c1.8,2.3,3.6,6.3,4.3,9.2l-1.5,2.6l-25.4,5.8l-1.3-0.7l-0.9-3.9C775.5,35.4,785,30.6,793.2,26.9z
			 M775.9,93.2c0.3-1.9,0.5-6.9,0.5-12.5V67.4c0-4.1,0-10.3-0.7-11.2c-0.7-0.9-3.9-2.1-6.4-2.9l0.9-4.5h24.9l0.9,4.5l-6.5,2.3
			c-0.3,1.9-0.5,6.9-0.5,12.5v13.4c0,4.1,0,10.3,0.7,11.2c0.7,0.9,3.9,2.1,6.4,2.9l-0.9,4.5h-24.9l-0.9-4.5L775.9,93.2z"/>
		<path class="st0" d="M821.5,99.9H800l-0.9-4.5l5.6-2.3c4.5-11,9.5-24.4,14-37.1l2-7.3c4.6-0.4,12-0.7,16.2-0.7
			c0.6,2.3,1.6,5.1,2.6,8c4.5,12.8,10,27.7,13.7,37.2l5.7,2.2l-0.9,4.5h-24.8l-0.9-4.5l6.9-2.2c-0.9-2.6-1.9-5.6-3-9L818,84.7
			c-0.9,2.8-1.7,5.8-2.5,8.5l7.1,2.2L821.5,99.9z M834,77.9c-2.3-6.9-5-14.4-7.4-21c-2,6.1-4.3,13.4-6.5,20.7L834,77.9z"/>
	</g>
	<g>
		<path class="st1" d="M185.2,139.8v-20h7.8c1.8,0,3.2,0.3,4.5,0.8c1.2,0.5,2.2,1.4,2.9,2.4c0.7,1,1,2.3,1,3.7c0,1.4-0.3,2.7-1,3.7
			c-0.7,1-1.6,1.8-2.9,2.4c-1.2,0.6-2.7,0.8-4.5,0.8h-6.2l1.3-1.3v7.4H185.2z M188.1,132.7l-1.3-1.4h6.1c1.8,0,3.2-0.4,4.2-1.2
			c0.9-0.8,1.4-1.9,1.4-3.3c0-1.4-0.5-2.5-1.4-3.3c-0.9-0.8-2.3-1.2-4.2-1.2h-6.1l1.3-1.4V132.7z"/>
		<path class="st1" d="M205.5,139.8v-20h7.8c1.8,0,3.2,0.3,4.5,0.8c1.2,0.5,2.2,1.4,2.9,2.4c0.7,1,1,2.3,1,3.7c0,1.4-0.3,2.7-1,3.7
			c-0.7,1-1.6,1.8-2.9,2.4c-1.2,0.6-2.7,0.8-4.5,0.8h-6.2l1.3-1.3v7.4H205.5z M208.4,132.7l-1.3-1.4h6.1c1.8,0,3.2-0.4,4.2-1.2
			c0.9-0.8,1.4-1.9,1.4-3.3c0-1.4-0.5-2.5-1.4-3.3c-0.9-0.8-2.3-1.2-4.2-1.2h-6.1l1.3-1.4V132.7z M218.9,139.8l-5.1-7.3h3.1l5.1,7.3
			H218.9z"/>
		<path class="st1" d="M235.3,140c-1.5,0-2.9-0.3-4.2-0.8c-1.3-0.5-2.4-1.2-3.4-2.2c-1-0.9-1.7-2-2.2-3.2c-0.5-1.2-0.8-2.6-0.8-4.1
			c0-1.5,0.3-2.8,0.8-4.1c0.5-1.2,1.3-2.3,2.2-3.2c1-0.9,2.1-1.6,3.4-2.2c1.3-0.5,2.7-0.8,4.3-0.8c1.5,0,2.9,0.3,4.2,0.8
			c1.3,0.5,2.4,1.2,3.4,2.1c1,0.9,1.7,2,2.2,3.2c0.5,1.2,0.8,2.6,0.8,4.1c0,1.5-0.3,2.8-0.8,4.1c-0.5,1.2-1.3,2.3-2.2,3.2
			c-1,0.9-2.1,1.6-3.4,2.1C238.3,139.7,236.8,140,235.3,140z M235.3,137.5c1.1,0,2.1-0.2,3.1-0.6c0.9-0.4,1.8-0.9,2.5-1.6
			c0.7-0.7,1.2-1.5,1.6-2.4c0.4-0.9,0.6-2,0.6-3.1c0-1.1-0.2-2.1-0.6-3.1c-0.4-0.9-0.9-1.7-1.6-2.4c-0.7-0.7-1.5-1.2-2.5-1.6
			c-0.9-0.4-2-0.6-3.1-0.6c-1.1,0-2.2,0.2-3.1,0.6c-0.9,0.4-1.8,0.9-2.5,1.6c-0.7,0.7-1.3,1.5-1.6,2.4c-0.4,0.9-0.6,2-0.6,3.1
			c0,1.1,0.2,2.1,0.6,3.1c0.4,0.9,0.9,1.7,1.6,2.4c0.7,0.7,1.5,1.2,2.5,1.6C233.2,137.3,234.2,137.5,235.3,137.5z"/>
		<path class="st1" d="M259.2,140c-1.5,0-2.9-0.3-4.2-0.8c-1.3-0.5-2.4-1.2-3.3-2.1c-0.9-0.9-1.7-2-2.2-3.2
			c-0.5-1.2-0.8-2.6-0.8-4.1c0-1.5,0.3-2.8,0.8-4.1c0.5-1.2,1.3-2.3,2.2-3.2c1-0.9,2.1-1.6,3.4-2.1c1.3-0.5,2.7-0.8,4.2-0.8
			c1.5,0,3,0.3,4.3,0.8c1.3,0.5,2.4,1.3,3.3,2.3l-1.9,1.8c-0.8-0.8-1.6-1.4-2.6-1.8c-1-0.4-2-0.6-3.1-0.6c-1.1,0-2.2,0.2-3.1,0.6
			c-1,0.4-1.8,0.9-2.5,1.6c-0.7,0.7-1.3,1.5-1.6,2.4c-0.4,0.9-0.6,2-0.6,3.1c0,1.1,0.2,2.1,0.6,3.1c0.4,0.9,0.9,1.8,1.6,2.4
			c0.7,0.7,1.5,1.2,2.5,1.6c1,0.4,2,0.6,3.1,0.6c1.1,0,2.1-0.2,3.1-0.6c1-0.4,1.8-1,2.6-1.8l1.9,1.8c-0.9,1-2,1.8-3.3,2.3
			C262.2,139.7,260.8,140,259.2,140z"/>
		<path class="st1" d="M279.2,140c-2.6,0-4.7-0.7-6.2-2.3c-1.5-1.5-2.3-3.7-2.3-6.6v-11.4h2.9V131c0,2.2,0.5,3.9,1.5,4.9
			c1,1,2.4,1.5,4.2,1.5c1.8,0,3.2-0.5,4.2-1.5c1-1,1.5-2.7,1.5-4.9v-11.3h2.8v11.4c0,2.9-0.7,5.1-2.2,6.6
			C283.9,139.2,281.9,140,279.2,140z"/>
		<path class="st1" d="M293.5,139.8v-20h7.8c1.8,0,3.2,0.3,4.5,0.8c1.2,0.5,2.2,1.4,2.9,2.4c0.7,1,1,2.3,1,3.7c0,1.4-0.3,2.7-1,3.7
			c-0.7,1-1.6,1.8-2.9,2.4c-1.2,0.6-2.7,0.8-4.5,0.8h-6.2l1.3-1.3v7.4H293.5z M296.4,132.7l-1.3-1.4h6.1c1.8,0,3.2-0.4,4.2-1.2
			c0.9-0.8,1.4-1.9,1.4-3.3c0-1.4-0.5-2.5-1.4-3.3c-0.9-0.8-2.3-1.2-4.2-1.2h-6.1l1.3-1.4V132.7z M306.9,139.8l-5.1-7.3h3.1l5.1,7.3
			H306.9z"/>
		<path class="st1" d="M311.3,139.8l9.1-20h2.8l9.1,20h-3l-8.1-18.4h1.1l-8.1,18.4H311.3z M315.1,134.8l0.8-2.3h11.3l0.8,2.3H315.1z
			"/>
		<path class="st1" d="M335.2,139.8v-20h8.4c2.1,0,4,0.4,5.6,1.3s2.9,2,3.8,3.5c0.9,1.5,1.4,3.2,1.4,5.2c0,2-0.5,3.7-1.4,5.2
			c-0.9,1.5-2.2,2.7-3.8,3.5c-1.6,0.8-3.5,1.3-5.6,1.3H335.2z M338.1,137.3h5.4c1.7,0,3.1-0.3,4.3-0.9c1.2-0.6,2.1-1.5,2.8-2.6
			c0.7-1.1,1-2.4,1-3.9c0-1.5-0.3-2.8-1-3.9c-0.7-1.1-1.6-2-2.8-2.6c-1.2-0.6-2.6-0.9-4.3-0.9h-5.4V137.3z"/>
		<path class="st1" d="M367.1,140c-2.6,0-4.7-0.7-6.2-2.3c-1.5-1.5-2.3-3.7-2.3-6.6v-11.4h2.9V131c0,2.2,0.5,3.9,1.5,4.9
			c1,1,2.4,1.5,4.2,1.5c1.8,0,3.2-0.5,4.2-1.5c1-1,1.5-2.7,1.5-4.9v-11.3h2.8v11.4c0,2.9-0.7,5.1-2.2,6.6
			C371.8,139.2,369.7,140,367.1,140z"/>
		<path class="st1" d="M381.4,139.8v-20h7.8c1.8,0,3.2,0.3,4.5,0.8c1.2,0.5,2.2,1.4,2.9,2.4c0.7,1,1,2.3,1,3.7c0,1.4-0.3,2.7-1,3.7
			c-0.7,1-1.6,1.8-2.9,2.4c-1.2,0.6-2.7,0.8-4.5,0.8H383l1.3-1.3v7.4H381.4z M384.3,132.7l-1.3-1.4h6.1c1.8,0,3.2-0.4,4.2-1.2
			c0.9-0.8,1.4-1.9,1.4-3.3c0-1.4-0.5-2.5-1.4-3.3c-0.9-0.8-2.3-1.2-4.2-1.2H383l1.3-1.4V132.7z M394.8,139.8l-5.1-7.3h3.1l5.1,7.3
			H394.8z"/>
		<path class="st1" d="M401.5,118.1l3.9-3.7h3.5l-4.8,3.7H401.5z M402.2,139.8v-20h2.9v20H402.2z"/>
		<path class="st1" d="M408,139.8l9.1-20h2.8l9.1,20h-3l-8.1-18.4h1.1l-8.1,18.4H408z M411.8,134.8l0.8-2.3h11.3l0.8,2.3H411.8z"/>
		<path class="st1" d="M448.6,140c-1.5,0-3-0.3-4.3-0.8c-1.3-0.5-2.4-1.2-3.4-2.1c-1-0.9-1.7-2-2.2-3.2c-0.5-1.2-0.8-2.6-0.8-4.1
			c0-1.5,0.3-2.8,0.8-4.1c0.5-1.2,1.3-2.3,2.2-3.2c1-0.9,2.1-1.6,3.4-2.1c1.3-0.5,2.7-0.8,4.3-0.8c1.6,0,3,0.3,4.3,0.8
			c1.3,0.5,2.4,1.3,3.3,2.3l-1.8,1.8c-0.8-0.8-1.7-1.4-2.7-1.8c-1-0.4-2-0.6-3.1-0.6c-1.1,0-2.2,0.2-3.2,0.6c-1,0.4-1.8,0.9-2.5,1.6
			c-0.7,0.7-1.3,1.5-1.7,2.4c-0.4,0.9-0.6,2-0.6,3.1c0,1.1,0.2,2.1,0.6,3c0.4,0.9,0.9,1.8,1.7,2.5c0.7,0.7,1.6,1.2,2.5,1.6
			c1,0.4,2,0.6,3.2,0.6c1.1,0,2.1-0.2,3.1-0.5c1-0.3,1.9-0.9,2.7-1.7l1.6,2.2c-1,0.8-2.1,1.5-3.5,1.9C451.4,139.8,450,140,448.6,140
			z M453.5,137.1v-7.4h2.7v7.8L453.5,137.1z"/>
		<path class="st1" d="M464.5,137.3h11.7v2.5h-14.5v-20h14.1v2.5h-11.3V137.3z M464.3,128.4h10.3v2.4h-10.3V128.4z"/>
		<path class="st1" d="M480.8,139.8v-20h2.3l13.2,16.4h-1.2v-16.4h2.9v20h-2.3l-13.2-16.4h1.2v16.4H480.8z"/>
		<path class="st1" d="M506.8,137.3h11.7v2.5H504v-20h14.1v2.5h-11.3V137.3z M506.6,128.4h10.3v2.4h-10.3V128.4z"/>
		<path class="st1" d="M523.1,139.8v-20h7.8c1.8,0,3.2,0.3,4.5,0.8c1.2,0.5,2.2,1.4,2.9,2.4c0.7,1,1,2.3,1,3.7c0,1.4-0.3,2.7-1,3.7
			c-0.7,1-1.6,1.8-2.9,2.4c-1.2,0.6-2.7,0.8-4.5,0.8h-6.2l1.3-1.3v7.4H523.1z M526,132.7l-1.3-1.4h6.1c1.8,0,3.2-0.4,4.2-1.2
			c0.9-0.8,1.4-1.9,1.4-3.3c0-1.4-0.5-2.5-1.4-3.3c-0.9-0.8-2.3-1.2-4.2-1.2h-6.1l1.3-1.4V132.7z M536.5,139.8l-5.1-7.3h3.1l5.1,7.3
			H536.5z"/>
		<path class="st1" d="M540.9,139.8l9.1-20h2.8l9.1,20h-3l-8.1-18.4h1.1l-8.1,18.4H540.9z M544.7,134.8l0.8-2.3h11.3l0.8,2.3H544.7z
			"/>
		<path class="st1" d="M564.8,139.8v-20h2.9v17.5h10.8v2.5H564.8z"/>
		<path class="st1" d="M589.5,139.8v-20h8.4c2.1,0,4,0.4,5.6,1.3s2.9,2,3.8,3.5c0.9,1.5,1.4,3.2,1.4,5.2c0,2-0.5,3.7-1.4,5.2
			c-0.9,1.5-2.2,2.7-3.8,3.5c-1.6,0.8-3.5,1.3-5.6,1.3H589.5z M592.3,137.3h5.4c1.7,0,3.1-0.3,4.3-0.9c1.2-0.6,2.1-1.5,2.8-2.6
			c0.7-1.1,1-2.4,1-3.9c0-1.5-0.3-2.8-1-3.9c-0.7-1.1-1.6-2-2.8-2.6c-1.2-0.6-2.6-0.9-4.3-0.9h-5.4V137.3z"/>
		<path class="st1" d="M615.9,137.3h11.7v2.5H613v-20h14.1v2.5h-11.3V137.3z M615.6,128.4h10.3v2.4h-10.3V128.4z"/>
		<path class="st1" d="M642.4,140c-1.2,0-2.3-0.2-3.3-0.7c-1-0.5-1.9-1.2-2.5-2.1l1.7-1.9c0.6,0.8,1.2,1.3,1.9,1.8
			c0.7,0.4,1.5,0.6,2.3,0.6c2.3,0,3.4-1.4,3.4-4.1v-11.2h-7.2v-2.5h10.1v13.6c0,2.2-0.5,3.9-1.6,5C646.1,139.4,644.5,140,642.4,140z
			"/>
		<path class="st1" d="M662.8,140c-2.6,0-4.7-0.7-6.2-2.3c-1.5-1.5-2.3-3.7-2.3-6.6v-11.4h2.9V131c0,2.2,0.5,3.9,1.5,4.9
			c1,1,2.4,1.5,4.2,1.5c1.8,0,3.2-0.5,4.2-1.5c1-1,1.5-2.7,1.5-4.9v-11.3h2.8v11.4c0,2.9-0.7,5.1-2.2,6.6
			C667.5,139.2,665.4,140,662.8,140z"/>
		<path class="st1" d="M682.9,140c-1.5,0-3-0.2-4.4-0.7c-1.4-0.5-2.5-1.1-3.3-1.8l1.1-2.2c0.8,0.7,1.7,1.2,2.9,1.7
			c1.2,0.4,2.4,0.7,3.7,0.7c1.2,0,2.1-0.1,2.8-0.4c0.7-0.3,1.3-0.6,1.6-1.1c0.3-0.5,0.5-1,0.5-1.6c0-0.7-0.2-1.2-0.7-1.7
			c-0.4-0.4-1-0.8-1.7-1c-0.7-0.3-1.5-0.5-2.4-0.7c-0.9-0.2-1.7-0.4-2.6-0.7c-0.9-0.3-1.7-0.6-2.4-1c-0.7-0.4-1.3-0.9-1.7-1.6
			c-0.4-0.7-0.7-1.5-0.7-2.6c0-1,0.3-2,0.8-2.8c0.5-0.9,1.4-1.6,2.5-2.1c1.1-0.5,2.6-0.8,4.3-0.8c1.2,0,2.3,0.2,3.5,0.5
			c1.1,0.3,2.1,0.7,3,1.3l-0.9,2.3c-0.9-0.6-1.8-1-2.7-1.2c-1-0.3-1.9-0.4-2.8-0.4c-1.1,0-2,0.1-2.8,0.4s-1.3,0.7-1.6,1.1
			c-0.3,0.5-0.5,1-0.5,1.6c0,0.7,0.2,1.3,0.7,1.7c0.4,0.4,1,0.8,1.7,1c0.7,0.2,1.5,0.5,2.4,0.7c0.9,0.2,1.7,0.4,2.6,0.7
			c0.9,0.2,1.7,0.6,2.4,1c0.7,0.4,1.3,0.9,1.7,1.6c0.4,0.7,0.7,1.5,0.7,2.6c0,1-0.3,1.9-0.8,2.8c-0.6,0.9-1.4,1.6-2.6,2.1
			C686.1,139.7,684.7,140,682.9,140z"/>
		<path class="st1" d="M698.5,139.8v-17.5h-6.9v-2.5h16.5v2.5h-6.9v17.5H698.5z"/>
		<path class="st1" d="M711.3,139.8v-20h2.9v20H711.3z"/>
		<path class="st1" d="M729.1,140c-1.5,0-2.9-0.3-4.2-0.8c-1.3-0.5-2.4-1.2-3.3-2.1c-0.9-0.9-1.7-2-2.2-3.2
			c-0.5-1.2-0.8-2.6-0.8-4.1c0-1.5,0.3-2.8,0.8-4.1c0.5-1.2,1.3-2.3,2.2-3.2c1-0.9,2.1-1.6,3.4-2.1c1.3-0.5,2.7-0.8,4.2-0.8
			c1.5,0,3,0.3,4.3,0.8c1.3,0.5,2.4,1.3,3.3,2.3l-1.9,1.8c-0.8-0.8-1.6-1.4-2.6-1.8c-1-0.4-2-0.6-3.1-0.6c-1.1,0-2.2,0.2-3.1,0.6
			c-1,0.4-1.8,0.9-2.5,1.6c-0.7,0.7-1.3,1.5-1.6,2.4c-0.4,0.9-0.6,2-0.6,3.1c0,1.1,0.2,2.1,0.6,3.1c0.4,0.9,0.9,1.8,1.6,2.4
			c0.7,0.7,1.5,1.2,2.5,1.6c1,0.4,2,0.6,3.1,0.6c1.1,0,2.1-0.2,3.1-0.6s1.8-1,2.6-1.8l1.9,1.8c-0.9,1-2,1.8-3.3,2.3
			C732.1,139.7,730.7,140,729.1,140z"/>
		<path class="st1" d="M740.8,139.8v-20h2.9v20H740.8z"/>
		<path class="st1" d="M746.7,139.8l9.1-20h2.8l9.1,20h-3l-8.1-18.4h1.1l-8.1,18.4H746.7z M750.5,134.8l0.8-2.3h11.3l0.8,2.3H750.5z
			"/>
		<path class="st1" d="M185.2,174v-20h8.4c2.1,0,4,0.4,5.6,1.3c1.6,0.8,2.9,2,3.8,3.5c0.9,1.5,1.4,3.2,1.4,5.2c0,2-0.5,3.7-1.4,5.2
			c-0.9,1.5-2.2,2.7-3.8,3.5c-1.6,0.8-3.5,1.3-5.6,1.3H185.2z M188.1,171.6h5.4c1.7,0,3.1-0.3,4.3-0.9c1.2-0.6,2.1-1.5,2.8-2.6
			c0.7-1.1,1-2.4,1-3.9c0-1.5-0.3-2.8-1-3.9c-0.7-1.1-1.6-2-2.8-2.6c-1.2-0.6-2.6-0.9-4.3-0.9h-5.4V171.6z"/>
		<path class="st1" d="M211.6,171.6h11.7v2.5h-14.5v-20h14.1v2.5h-11.3V171.6z M211.4,162.7h10.3v2.4h-10.3V162.7z"/>
		<path class="st1" d="M227.9,174v-20h2.9v17.5h10.8v2.5H227.9z"/>
		<path class="st1" d="M255.4,171.6h11.7v2.5h-14.5v-20h14.1v2.5h-11.3V171.6z M255.2,162.7h10.3v2.4h-10.3V162.7z"/>
		<path class="st1" d="M277.5,174.3c-1.5,0-3-0.2-4.4-0.7c-1.4-0.5-2.5-1.1-3.3-1.8l1.1-2.2c0.8,0.7,1.7,1.2,2.9,1.7
			c1.2,0.4,2.4,0.7,3.7,0.7c1.2,0,2.1-0.1,2.8-0.4c0.7-0.3,1.3-0.6,1.6-1.1c0.3-0.5,0.5-1,0.5-1.6c0-0.7-0.2-1.2-0.7-1.7
			c-0.4-0.4-1-0.8-1.7-1c-0.7-0.3-1.5-0.5-2.4-0.7c-0.9-0.2-1.7-0.4-2.6-0.7c-0.9-0.3-1.7-0.6-2.4-1c-0.7-0.4-1.3-0.9-1.7-1.6
			c-0.4-0.7-0.7-1.5-0.7-2.6c0-1,0.3-2,0.8-2.8c0.5-0.9,1.4-1.6,2.5-2.1c1.1-0.5,2.6-0.8,4.3-0.8c1.2,0,2.3,0.2,3.5,0.5
			c1.1,0.3,2.1,0.7,3,1.3l-0.9,2.3c-0.9-0.6-1.8-1-2.7-1.2c-1-0.3-1.9-0.4-2.8-0.4c-1.1,0-2,0.1-2.8,0.4c-0.7,0.3-1.3,0.7-1.6,1.1
			c-0.3,0.5-0.5,1-0.5,1.6c0,0.7,0.2,1.3,0.7,1.7c0.4,0.4,1,0.8,1.7,1c0.7,0.2,1.5,0.5,2.4,0.7c0.9,0.2,1.7,0.4,2.6,0.7
			c0.9,0.2,1.7,0.6,2.4,1c0.7,0.4,1.3,0.9,1.7,1.6c0.4,0.7,0.7,1.5,0.7,2.6c0,1-0.3,1.9-0.8,2.8c-0.6,0.9-1.4,1.6-2.6,2.1
			C280.7,174,279.3,174.3,277.5,174.3z"/>
		<path class="st1" d="M293.1,174v-17.5h-6.9V154h16.5v2.5H296V174H293.1z"/>
		<path class="st1" d="M301.9,174l9.1-20h2.8l9.1,20h-3l-8.1-18.4h1.1l-8.1,18.4H301.9z M305.8,169l0.8-2.3h11.3l0.8,2.3H305.8z"/>
		<path class="st1" d="M325.8,174v-20h8.4c2.1,0,4,0.4,5.6,1.3s2.9,2,3.8,3.5c0.9,1.5,1.4,3.2,1.4,5.2c0,2-0.5,3.7-1.4,5.2
			c-0.9,1.5-2.2,2.7-3.8,3.5c-1.6,0.8-3.5,1.3-5.6,1.3H325.8z M328.7,171.6h5.4c1.7,0,3.1-0.3,4.3-0.9c1.2-0.6,2.1-1.5,2.8-2.6
			c0.7-1.1,1-2.4,1-3.9c0-1.5-0.3-2.8-1-3.9c-0.7-1.1-1.6-2-2.8-2.6c-1.2-0.6-2.6-0.9-4.3-0.9h-5.4V171.6z"/>
		<path class="st1" d="M358.5,174.3c-1.5,0-2.9-0.3-4.2-0.8c-1.3-0.5-2.4-1.2-3.4-2.2c-1-0.9-1.7-2-2.2-3.2
			c-0.5-1.2-0.8-2.6-0.8-4.1c0-1.5,0.3-2.8,0.8-4.1c0.5-1.2,1.3-2.3,2.2-3.2c1-0.9,2.1-1.6,3.4-2.2c1.3-0.5,2.7-0.8,4.3-0.8
			c1.5,0,2.9,0.3,4.2,0.8c1.3,0.5,2.4,1.2,3.4,2.1c1,0.9,1.7,2,2.2,3.2c0.5,1.2,0.8,2.6,0.8,4.1c0,1.5-0.3,2.8-0.8,4.1
			c-0.5,1.2-1.3,2.3-2.2,3.2c-1,0.9-2.1,1.6-3.4,2.1C361.4,174,360,174.3,358.5,174.3z M358.5,171.7c1.1,0,2.1-0.2,3.1-0.6
			c0.9-0.4,1.8-0.9,2.5-1.6c0.7-0.7,1.2-1.5,1.6-2.4c0.4-0.9,0.6-2,0.6-3.1c0-1.1-0.2-2.1-0.6-3.1c-0.4-0.9-0.9-1.7-1.6-2.4
			c-0.7-0.7-1.5-1.2-2.5-1.6c-0.9-0.4-2-0.6-3.1-0.6c-1.1,0-2.2,0.2-3.1,0.6c-0.9,0.4-1.8,0.9-2.5,1.6c-0.7,0.7-1.3,1.5-1.6,2.4
			c-0.4,0.9-0.6,2-0.6,3.1c0,1.1,0.2,2.1,0.6,3.1c0.4,0.9,0.9,1.7,1.6,2.4c0.7,0.7,1.5,1.2,2.5,1.6
			C356.3,171.5,357.3,171.7,358.5,171.7z"/>
		<path class="st1" d="M381.1,174v-20h8.4c2.1,0,4,0.4,5.6,1.3s2.9,2,3.8,3.5c0.9,1.5,1.4,3.2,1.4,5.2c0,2-0.5,3.7-1.4,5.2
			c-0.9,1.5-2.2,2.7-3.8,3.5c-1.6,0.8-3.5,1.3-5.6,1.3H381.1z M384,171.6h5.4c1.7,0,3.1-0.3,4.3-0.9c1.2-0.6,2.1-1.5,2.8-2.6
			c0.7-1.1,1-2.4,1-3.9c0-1.5-0.3-2.8-1-3.9c-0.7-1.1-1.6-2-2.8-2.6c-1.2-0.6-2.6-0.9-4.3-0.9H384V171.6z"/>
		<path class="st1" d="M407.6,171.6h11.7v2.5h-14.5v-20h14.1v2.5h-11.3V171.6z M407.3,162.7h10.3v2.4h-10.3V162.7z"/>
		<path class="st1" d="M434.4,174h-2.9v-20h2.9V174z M446.1,165.1h-12v-2.5h12V165.1z M445.9,154h2.9v20h-2.9V154z"/>
		<path class="st1" d="M454.7,174v-20h2.9v20H454.7z"/>
		<path class="st1" d="M463.6,174v-20h8.4c2.1,0,4,0.4,5.6,1.3s2.9,2,3.8,3.5c0.9,1.5,1.4,3.2,1.4,5.2c0,2-0.5,3.7-1.4,5.2
			c-0.9,1.5-2.2,2.7-3.8,3.5c-1.6,0.8-3.5,1.3-5.6,1.3H463.6z M466.4,171.6h5.4c1.7,0,3.1-0.3,4.3-0.9c1.2-0.6,2.1-1.5,2.8-2.6
			c0.7-1.1,1-2.4,1-3.9c0-1.5-0.3-2.8-1-3.9c-0.7-1.1-1.6-2-2.8-2.6c-1.2-0.6-2.6-0.9-4.3-0.9h-5.4V171.6z"/>
		<path class="st1" d="M483.9,174l9.1-20h2.8l9.1,20h-3l-8.1-18.4h1.1l-8.1,18.4H483.9z M487.7,169l0.8-2.3h11.3l0.8,2.3H487.7z"/>
		<path class="st1" d="M507.8,174v-20h2.9v17.5h10.8v2.5H507.8z"/>
		<path class="st1" d="M533.4,174.3c-1.5,0-3-0.3-4.3-0.8c-1.3-0.5-2.4-1.2-3.4-2.1c-1-0.9-1.7-2-2.2-3.2c-0.5-1.2-0.8-2.6-0.8-4.1
			c0-1.5,0.3-2.8,0.8-4.1c0.5-1.2,1.3-2.3,2.2-3.2c1-0.9,2.1-1.6,3.4-2.1c1.3-0.5,2.7-0.8,4.3-0.8c1.6,0,3,0.3,4.3,0.8
			c1.3,0.5,2.4,1.3,3.3,2.3l-1.8,1.8c-0.8-0.8-1.7-1.4-2.7-1.8c-1-0.4-2-0.6-3.1-0.6c-1.1,0-2.2,0.2-3.2,0.6c-1,0.4-1.8,0.9-2.5,1.6
			c-0.7,0.7-1.3,1.5-1.7,2.4c-0.4,0.9-0.6,2-0.6,3.1c0,1.1,0.2,2.1,0.6,3c0.4,0.9,0.9,1.8,1.7,2.5c0.7,0.7,1.6,1.2,2.5,1.6
			c1,0.4,2,0.6,3.2,0.6c1.1,0,2.1-0.2,3.1-0.5c1-0.3,1.9-0.9,2.7-1.7l1.6,2.2c-1,0.8-2.1,1.5-3.5,1.9
			C536.2,174.1,534.8,174.3,533.4,174.3z M538.2,171.4v-7.4h2.7v7.8L538.2,171.4z"/>
		<path class="st1" d="M555.5,174.3c-1.5,0-2.9-0.3-4.2-0.8c-1.3-0.5-2.4-1.2-3.4-2.2c-1-0.9-1.7-2-2.2-3.2
			c-0.5-1.2-0.8-2.6-0.8-4.1c0-1.5,0.3-2.8,0.8-4.1c0.5-1.2,1.3-2.3,2.2-3.2c1-0.9,2.1-1.6,3.4-2.2c1.3-0.5,2.7-0.8,4.3-0.8
			c1.5,0,2.9,0.3,4.2,0.8c1.3,0.5,2.4,1.2,3.4,2.1c1,0.9,1.7,2,2.2,3.2c0.5,1.2,0.8,2.6,0.8,4.1c0,1.5-0.3,2.8-0.8,4.1
			c-0.5,1.2-1.3,2.3-2.2,3.2c-1,0.9-2.1,1.6-3.4,2.1C558.4,174,557,174.3,555.5,174.3z M555.5,171.7c1.1,0,2.1-0.2,3.1-0.6
			c0.9-0.4,1.8-0.9,2.5-1.6c0.7-0.7,1.2-1.5,1.6-2.4c0.4-0.9,0.6-2,0.6-3.1c0-1.1-0.2-2.1-0.6-3.1c-0.4-0.9-0.9-1.7-1.6-2.4
			c-0.7-0.7-1.5-1.2-2.5-1.6c-0.9-0.4-2-0.6-3.1-0.6c-1.1,0-2.2,0.2-3.1,0.6c-0.9,0.4-1.8,0.9-2.5,1.6c-0.7,0.7-1.3,1.5-1.6,2.4
			c-0.4,0.9-0.6,2-0.6,3.1c0,1.1,0.2,2.1,0.6,3.1c0.4,0.9,0.9,1.7,1.6,2.4c0.7,0.7,1.5,1.2,2.5,1.6
			C553.3,171.5,554.3,171.7,555.5,171.7z"/>
	</g>
	<g>
		<g>
			<g>
				<path class="st2" d="M126.8,38.5v27.2l-15.5,15.5V52.2L125.5,38C126,37.5,126.8,37.8,126.8,38.5z"/>
			</g>
			<g>
				<polygon class="st2" points="108.5,54.9 108.5,84 93,99.5 93,70.4 				"/>
			</g>
		</g>
		<g>
			<g>
				<polygon class="st0" points="87.5,70.4 87.5,99.5 72,84 72,54.9 				"/>
			</g>
			<g>
				<path class="st0" d="M69.3,52.2v29.1L53.7,65.7V38.5c0-0.7,0.8-1,1.3-0.5L69.3,52.2z"/>
			</g>
		</g>
		<g>
			<g>
				<path class="st2" d="M69.3,127.2v29.1L55,170.5c-0.5,0.5-1.3,0.1-1.3-0.5v-27.3L69.3,127.2z"/>
			</g>
			<g>
				<polygon class="st2" points="87.5,108.9 87.5,138 72,153.5 72,124.4 				"/>
			</g>
		</g>
		<g>
			<g>
				<polygon class="st0" points="108.5,124.4 108.5,153.5 93,138 93,108.9 				"/>
			</g>
			<g>
				<path class="st0" d="M126.8,142.7v27.2c0,0.7-0.8,1-1.3,0.5l-14.2-14.2v-29.1L126.8,142.7z"/>
			</g>
		</g>
		<g>
			<g>
				<path class="st2" d="M156,140.7h-27.2l-15.5-15.5h29.1l14.2,14.2C157,139.9,156.7,140.7,156,140.7z"/>
			</g>
			<g>
				<polygon class="st2" points="139.6,122.5 110.5,122.5 95,107 124.1,107 				"/>
			</g>
		</g>
		<g>
			<g>
				<polygon class="st0" points="139.6,85.9 124.1,101.5 95,101.5 110.5,85.9 				"/>
			</g>
			<g>
				<path class="st0" d="M156.5,69l-14.2,14.2h-29.1l15.5-15.5H156C156.7,67.7,157,68.5,156.5,69z"/>
			</g>
		</g>
		<g>
			<g>
				<path class="st2" d="M67.3,83.2H38.2L24,69c-0.5-0.5-0.1-1.3,0.5-1.3h27.2L67.3,83.2z"/>
			</g>
			<g>
				<polygon class="st2" points="85.6,101.5 56.5,101.5 41,85.9 70.1,85.9 				"/>
			</g>
		</g>
		<g>
			<g>
				<polygon class="st0" points="85.6,107 70.1,122.5 41,122.5 56.5,107 				"/>
			</g>
			<g>
				<path class="st0" d="M67.3,125.2l-15.5,15.5H24.6c-0.7,0-1-0.8-0.5-1.3l14.2-14.2H67.3z"/>
			</g>
		</g>
	</g>
</g>
</svg>
