<?xml version="1.0" encoding="UTF-8"?>
<!-- Generator: Adobe Illustrator 25.4.1, SVG Export Plug-In . SVG Version: 6.00 Build 0)  -->
<svg version="1.1" id="Capa_1" xmlns="http://www.w3.org/2000/svg" xmlns:xlink="http://www.w3.org/1999/xlink" x="0px" y="0px" viewBox="0 0 800 800" style="enable-background:new 0 0 800 800;" xml:space="preserve">
<style type="text/css">
	.st0{fill:#BC955B;}
	.st1{fill:#DEC9A3;}
	.st2{fill:#DDC9A3;}
</style>
<g>
	<g>
		<path class="st0" d="M149.9,521.1c0.8-2.3,2.5-7.7,4.3-14.3c2.8-0.1,10.4,0.2,13.4,0.6c0.3,4.9,0.5,12.6,0.5,17l-1.7,3.5    c-6.8,4.4-17.8,8.1-30.2,8.1c-25.6,0-41.3-15.2-41.3-40.1c0-25.7,19.3-42.8,43.3-42.8c11.5,0,21.2,3.1,29.3,7l1.9,3.4    c-1.1,6.1-3.1,14.9-4.4,20.6c-2.7,0.1-9.4-0.1-12.5-0.6c-1.2-6.5-2.8-12.8-3.7-15.8c-2.3-1.4-6.8-2.4-11.5-2.4    c-5.5,0-10.3,1.1-12.9,2.7c-5,6-8.2,14.9-8.2,26.5c0,17.4,7.8,28.5,22.6,28.5C144.1,523,147.8,522.2,149.9,521.1z"/>
		<path class="st0" d="M222.4,536c-24.4,0-35.4-13.3-35.4-39.4v-12c0-6.1,0-16.2-1.4-18.1c-1.1-1.7-6-3.5-9.5-4.8l1.5-6.9h39.6    l1.5,6.9l-10.3,3.5c-0.5,3-0.9,10.7-0.9,19.3v13.1c0,15.7,4.3,25.4,19.2,25.4c6.5,0,12-2.2,14.9-4.5c2.7-8.6,2.5-20.9,2.5-30.2    c0-9.7-0.1-20.3-0.9-22.3c-1.4-1.1-7.3-3.1-11.2-4.3l1.5-6.9h34.4l1.5,6.9l-10.7,3.6c-0.5,7.3-0.7,17.1-0.7,35.1    C257.9,523.9,244.1,536,222.4,536z"/>
		<path class="st0" d="M287.3,523.8c0.5-3,0.8-10.7,0.8-19.4v-20.8c0-6.4,0-16-1-17.4c-1.1-1.5-6.1-3.3-9.9-4.5l1.5-6.9h38.7    l1.5,6.9l-10.1,3.5c-0.5,3-0.8,10.7-0.8,19.4v20.8c0,7.5,0,16.8,1.5,17.8c1.8,1.2,6.9,1.5,10.9,1.5c3.4,0,7.2-0.1,9.8-0.5l4-15.1    c3.2-0.1,10.1,0.1,12.9,0.7c0.2,7.8,0.2,16.1,0,24.4h-68.4l-1.5-6.9L287.3,523.8z"/>
		<path class="st0" d="M374.3,523.8c0.5-3,0.8-10.7,0.8-19.4V464h-1.1c-3.6,0-7.6,0.2-10.6,0.6l-4,15.2c-3.3,0.2-10.3,0-13.2-0.6    c-0.3-7.7-0.3-16.2,0-24.4h41.1c13.7,0,25-0.2,33.7-0.8c1.1,1.5,2.7,3.7,3.5,5.2c-0.3,6.5-1.1,14.2-1.9,20.1    c-2.7,0.5-9.7,0.3-12.3-0.1l-3.6-14.7c-3.1-0.5-7-0.6-10.7-0.6h-1.1v41.5c0,6.4,0,16,1,17.4c1.1,1.5,6.1,3.3,9.9,4.5l-1.5,6.9    h-38.7l-1.5-6.9L374.3,523.8z"/>
		<path class="st0" d="M475.5,536c-24.4,0-35.4-13.3-35.4-39.4v-12c0-6.1,0-16.2-1.4-18.1c-1.1-1.7-6-3.5-9.5-4.8l1.5-6.9h39.6    l1.5,6.9l-10.3,3.5c-0.5,3-0.9,10.7-0.9,19.3v13.1c0,15.7,4.3,25.4,19.2,25.4c6.5,0,12-2.2,14.9-4.5c2.7-8.6,2.5-20.9,2.5-30.2    c0-9.7-0.1-20.3-0.9-22.3c-1.4-1.1-7.3-3.1-11.2-4.3l1.5-6.9h34.4l1.5,6.9l-10.7,3.6c-0.5,7.3-0.7,17.1-0.7,35.1    C510.9,523.9,497.2,536,475.5,536z"/>
		<path class="st0" d="M540.3,523.8c0.5-3,0.8-10.7,0.8-19.4v-20.8c0-6.4,0-16-1-17.4c-1.1-1.5-6.1-3.3-9.9-4.5l1.5-6.9h19    c4.2,0,17.1-0.7,23.3-0.7c20.4,0,32.9,7.2,32.9,22c0,10-7.5,16.4-15,20c5.5,10.8,11.5,21.7,15.3,27.3l7.6,4l-1.5,6.9    c-7.7,0-14.4,0.1-23.5,0.5c-3.7-9-9.1-20-15.4-32.3H561v3c0,6.4,0,16,1,17.4c1.1,1.5,6.1,3.3,9.9,4.5l-1.5,6.9h-38.7l-1.5-6.9    L540.3,523.8z M561,491.1l18.5,0.7c3.4-2.6,6.5-7.6,6.5-14.7c0-4.7-1.1-8.1-3-10.3c-2.4-1.8-7-2.8-12.2-2.8c-3,0-6.5,0.5-9.1,1.2    c-0.5,3-0.8,10.7-0.8,19.4V491.1z"/>
		<path class="st0" d="M651.5,534.3H618l-1.5-6.9l8.7-3.5c7-17,14.8-37.9,21.8-57.7l3.2-11.4c7.2-0.6,18.6-1.1,25.2-1.1    c0.9,3.5,2.5,8,4.1,12.5c7,20,15.6,43,21.4,57.8l8.9,3.4l-1.5,6.9h-38.6l-1.5-6.9l10.8-3.4c-1.4-4-3-8.7-4.7-14l-28.4,0.7    c-1.4,4.4-2.6,9-3.9,13.3l11,3.4L651.5,534.3z M670.8,500c-3.6-10.7-7.7-22.4-11.5-32.7c-3.2,9.4-6.7,20.8-10.1,32.3L670.8,500z"/>
	</g>
	<g>
		<path class="st1" d="M116.9,597c-2.4,0-4.6-0.4-6.8-1.1c-2.2-0.7-3.9-1.7-5.1-2.8l1.6-3.5c1.2,1,2.7,1.9,4.5,2.6    c1.8,0.7,3.7,1,5.7,1c1.8,0,3.3-0.2,4.4-0.6s2-1,2.5-1.7s0.8-1.5,0.8-2.5c0-1.1-0.3-1.9-1-2.6c-0.7-0.7-1.6-1.2-2.7-1.6    c-1.1-0.4-2.3-0.7-3.7-1c-1.3-0.3-2.7-0.6-4-1c-1.3-0.4-2.6-0.9-3.7-1.5c-1.1-0.6-2-1.5-2.7-2.5s-1-2.4-1-4.1    c0-1.6,0.4-3.1,1.3-4.4c0.8-1.3,2.1-2.4,3.9-3.2c1.8-0.8,4-1.2,6.7-1.2c1.8,0,3.6,0.2,5.4,0.7c1.8,0.5,3.3,1.2,4.6,2l-1.5,3.6    c-1.3-0.9-2.7-1.5-4.2-1.9c-1.5-0.4-2.9-0.6-4.3-0.6c-1.7,0-3.2,0.2-4.3,0.7s-1.9,1-2.5,1.8c-0.5,0.7-0.8,1.6-0.8,2.5    c0,1.1,0.3,2,1,2.6c0.7,0.7,1.6,1.2,2.7,1.6c1.1,0.4,2.3,0.7,3.7,1c1.3,0.3,2.7,0.7,4,1c1.3,0.4,2.6,0.9,3.7,1.5    c1.1,0.6,2,1.5,2.7,2.5s1,2.4,1,4c0,1.6-0.4,3-1.3,4.4c-0.9,1.3-2.2,2.4-4,3.2C121.9,596.6,119.6,597,116.9,597z"/>
		<path class="st1" d="M139.8,592.7H158v3.9h-22.6v-31.1h22v3.9h-17.5V592.7z M139.4,578.9h16v3.8h-16V578.9z"/>
		<path class="st1" d="M179,597c-2.4,0-4.6-0.4-6.6-1.2c-2-0.8-3.7-1.9-5.2-3.3c-1.5-1.4-2.6-3.1-3.4-5s-1.2-4-1.2-6.4    c0-2.3,0.4-4.4,1.2-6.4c0.8-1.9,2-3.6,3.5-5c1.5-1.4,3.2-2.5,5.2-3.3s4.2-1.2,6.6-1.2c2.4,0,4.6,0.4,6.6,1.2c2,0.8,3.8,2,5.2,3.6    l-2.9,2.8c-1.2-1.2-2.5-2.2-4-2.8c-1.5-0.6-3.1-0.9-4.8-0.9c-1.7,0-3.4,0.3-4.9,0.9c-1.5,0.6-2.8,1.4-3.9,2.5    c-1.1,1.1-1.9,2.3-2.6,3.8c-0.6,1.5-0.9,3.1-0.9,4.8c0,1.7,0.3,3.3,0.9,4.8c0.6,1.5,1.5,2.7,2.6,3.8c1.1,1.1,2.4,1.9,3.9,2.5    c1.5,0.6,3.1,0.9,4.9,0.9c1.7,0,3.3-0.3,4.8-0.9s2.8-1.5,4-2.8l2.9,2.8c-1.4,1.6-3.1,2.8-5.2,3.6C183.7,596.6,181.5,597,179,597z"/>
		<path class="st1" d="M197.3,596.6v-31.1h12.1c2.7,0,5.1,0.4,7,1.3s3.4,2.1,4.4,3.7c1,1.6,1.6,3.6,1.6,5.8c0,2.3-0.5,4.2-1.6,5.8    c-1,1.6-2.5,2.9-4.4,3.7s-4.3,1.3-7,1.3h-9.7l2-2v11.5H197.3z M201.7,585.5l-2-2.2h9.6c2.8,0,5-0.6,6.5-1.8c1.5-1.2,2.2-3,2.2-5.2    s-0.7-3.9-2.2-5.2c-1.5-1.2-3.6-1.8-6.5-1.8h-9.6l2-2.2V585.5z M218.1,596.6l-7.9-11.3h4.8l8,11.3H218.1z"/>
		<path class="st1" d="M234,592.7h18.1v3.9h-22.6v-31.1h22v3.9H234V592.7z M233.6,578.9h16v3.8h-16V578.9z"/>
		<path class="st1" d="M265.5,596.6v-27.2h-10.7v-3.9h25.7v3.9h-10.7v27.2H265.5z"/>
		<path class="st1" d="M279.2,596.6l14.1-31.1h4.4l14.1,31.1h-4.7L294.5,568h1.8l-12.6,28.6H279.2z M285.2,588.8l1.2-3.6h17.5    l1.3,3.6H285.2z"/>
		<path class="st1" d="M316.4,596.6v-31.1h12.1c2.7,0,5.1,0.4,7,1.3s3.4,2.1,4.4,3.7c1,1.6,1.6,3.6,1.6,5.8c0,2.3-0.5,4.2-1.6,5.8    c-1,1.6-2.5,2.9-4.4,3.7s-4.3,1.3-7,1.3h-9.7l2-2v11.5H316.4z M320.9,585.5l-2-2.2h9.6c2.8,0,5-0.6,6.5-1.8c1.5-1.2,2.2-3,2.2-5.2    s-0.7-3.9-2.2-5.2c-1.5-1.2-3.6-1.8-6.5-1.8h-9.6l2-2.2V585.5z M337.2,596.6l-7.9-11.3h4.8l8,11.3H337.2z"/>
		<path class="st1" d="M347.6,563l6-5.8h5.4l-7.5,5.8H347.6z M348.7,596.6v-31.1h4.4v31.1H348.7z"/>
		<path class="st1" d="M357.8,596.6l14.1-31.1h4.4l14.1,31.1h-4.7L373.2,568h1.8l-12.6,28.6H357.8z M363.8,588.8l1.2-3.6h17.5    l1.3,3.6H363.8z"/>
		<path class="st1" d="M407,596.6v-31.1h13.1c3.3,0,6.2,0.7,8.8,2c2.5,1.3,4.5,3.1,5.9,5.5c1.4,2.3,2.1,5.1,2.1,8.1    c0,3.1-0.7,5.8-2.1,8.1c-1.4,2.3-3.4,4.2-5.9,5.5s-5.5,2-8.8,2H407z M411.4,592.7h8.4c2.6,0,4.8-0.5,6.7-1.5    c1.9-1,3.3-2.3,4.4-4.1c1-1.8,1.6-3.8,1.6-6.1c0-2.3-0.5-4.4-1.6-6.1s-2.5-3.1-4.4-4.1c-1.9-1-4.1-1.5-6.7-1.5h-8.4V592.7z"/>
		<path class="st1" d="M448.1,592.7h18.1v3.9h-22.6v-31.1h22v3.9h-17.5V592.7z M447.7,578.9h16v3.8h-16V578.9z"/>
		<path class="st1" d="M499.3,597c-2.4,0-4.6-0.4-6.6-1.2c-2-0.8-3.7-1.9-5.2-3.3c-1.5-1.4-2.6-3.1-3.4-5c-0.8-1.9-1.2-4-1.2-6.4    c0-2.3,0.4-4.4,1.2-6.4c0.8-1.9,2-3.6,3.5-5c1.5-1.4,3.2-2.5,5.2-3.3s4.2-1.2,6.6-1.2c2.4,0,4.6,0.4,6.6,1.2c2,0.8,3.8,2,5.2,3.6    l-2.9,2.8c-1.2-1.2-2.5-2.2-4-2.8c-1.5-0.6-3.1-0.9-4.8-0.9c-1.7,0-3.4,0.3-4.9,0.9c-1.5,0.6-2.8,1.4-3.9,2.5    c-1.1,1.1-1.9,2.3-2.6,3.8s-0.9,3.1-0.9,4.8c0,1.7,0.3,3.3,0.9,4.8s1.5,2.7,2.6,3.8c1.1,1.1,2.4,1.9,3.9,2.5s3.1,0.9,4.9,0.9    c1.7,0,3.3-0.3,4.8-0.9c1.5-0.6,2.8-1.5,4-2.8l2.9,2.8c-1.4,1.6-3.1,2.8-5.2,3.6C504,596.6,501.8,597,499.3,597z"/>
		<path class="st1" d="M530.4,597c-4.1,0-7.3-1.2-9.6-3.5c-2.3-2.3-3.5-5.8-3.5-10.3v-17.7h4.4V583c0,3.5,0.8,6,2.3,7.6    c1.5,1.6,3.7,2.4,6.5,2.4c2.8,0,5-0.8,6.5-2.4c1.5-1.6,2.3-4.1,2.3-7.6v-17.5h4.3v17.7c0,4.5-1.2,7.9-3.5,10.3    C537.8,595.8,534.6,597,530.4,597z"/>
		<path class="st1" d="M552.7,596.6v-31.1h4.4v27.2H574v3.9H552.7z"/>
		<path class="st1" d="M582.4,596.6v-27.2h-10.7v-3.9h25.7v3.9h-10.7v27.2H582.4z"/>
		<path class="st1" d="M614.6,597c-4.1,0-7.3-1.2-9.6-3.5c-2.3-2.3-3.5-5.8-3.5-10.3v-17.7h4.4V583c0,3.5,0.8,6,2.3,7.6    c1.5,1.6,3.7,2.4,6.5,2.4c2.8,0,5-0.8,6.5-2.4c1.5-1.6,2.3-4.1,2.3-7.6v-17.5h4.3v17.7c0,4.5-1.2,7.9-3.5,10.3    C622,595.8,618.7,597,614.6,597z"/>
		<path class="st1" d="M636.9,596.6v-31.1H649c2.7,0,5.1,0.4,7,1.3s3.4,2.1,4.4,3.7c1,1.6,1.6,3.6,1.6,5.8c0,2.3-0.5,4.2-1.6,5.8    c-1,1.6-2.5,2.9-4.4,3.7s-4.3,1.3-7,1.3h-9.7l2-2v11.5H636.9z M641.3,585.5l-2-2.2h9.6c2.8,0,5-0.6,6.5-1.8c1.5-1.2,2.2-3,2.2-5.2    s-0.7-3.9-2.2-5.2c-1.5-1.2-3.6-1.8-6.5-1.8h-9.6l2-2.2V585.5z M657.7,596.6l-7.9-11.3h4.8l8,11.3H657.7z"/>
		<path class="st1" d="M664.5,596.6l14.1-31.1h4.4l14.1,31.1h-4.7L679.9,568h1.8l-12.6,28.6H664.5z M670.5,588.8l1.2-3.6h17.5    l1.3,3.6H670.5z"/>
	</g>
	<g>
		<g>
			<g>
				<path class="st2" d="M456.8,195.2v42.4l-24.1,24.1v-45.3l22.1-22.1C455.6,193.6,456.8,194.1,456.8,195.2z"/>
			</g>
			<g>
				<polygon class="st2" points="428.4,220.7 428.4,266 404.3,290.1 404.3,244.8     "/>
			</g>
		</g>
		<g>
			<g>
				<polygon class="st0" points="395.7,244.8 395.7,290.1 371.6,266 371.6,220.7     "/>
			</g>
			<g>
				<path class="st0" d="M367.3,216.4v45.3l-24.1-24.1v-42.4c0-1.1,1.3-1.6,2-0.8L367.3,216.4z"/>
			</g>
		</g>
		<g>
			<g>
				<path class="st2" d="M367.3,333.1v45.3l-22.1,22.1c-0.8,0.8-2,0.2-2-0.8v-42.4L367.3,333.1z"/>
			</g>
			<g>
				<polygon class="st2" points="395.7,304.7 395.7,350 371.6,374.1 371.6,328.8     "/>
			</g>
		</g>
		<g>
			<g>
				<polygon class="st0" points="428.4,328.8 428.4,374.1 404.3,350 404.3,304.7     "/>
			</g>
			<g>
				<path class="st0" d="M456.8,357.3v42.4c0,1.1-1.3,1.6-2,0.8l-22.1-22.1v-45.3L456.8,357.3z"/>
			</g>
		</g>
		<g>
			<g>
				<path class="st2" d="M502.3,354.2h-42.4l-24.1-24.1H481l22.1,22.1C503.9,353,503.3,354.2,502.3,354.2z"/>
			</g>
			<g>
				<polygon class="st2" points="476.7,325.8 431.4,325.8 407.3,301.7 452.6,301.7     "/>
			</g>
		</g>
		<g>
			<g>
				<polygon class="st0" points="476.7,269 452.6,293.1 407.3,293.1 431.4,269     "/>
			</g>
			<g>
				<path class="st0" d="M503.1,242.6L481,264.7h-45.3l24.1-24.1h42.4C503.3,240.6,503.9,241.9,503.1,242.6z"/>
			</g>
		</g>
		<g>
			<g>
				<path class="st2" d="M364.3,264.7H319l-22.1-22.1c-0.8-0.8-0.2-2,0.8-2h42.4L364.3,264.7z"/>
			</g>
			<g>
				<polygon class="st2" points="392.7,293.1 347.4,293.1 323.3,269 368.6,269     "/>
			</g>
		</g>
		<g>
			<g>
				<polygon class="st0" points="392.7,301.7 368.6,325.8 323.3,325.8 347.4,301.7     "/>
			</g>
			<g>
				<path class="st0" d="M364.3,330.1l-24.1,24.1h-42.4c-1.1,0-1.6-1.3-0.8-2l22.1-22.1H364.3z"/>
			</g>
		</g>
	</g>
</g>
</svg>