<?xml version="1.0" encoding="UTF-8"?>
<!-- Generator: Adobe Illustrator 25.4.1, SVG Export Plug-In . SVG Version: 6.00 Build 0)  -->
<svg version="1.1" id="Capa_1" xmlns="http://www.w3.org/2000/svg" xmlns:xlink="http://www.w3.org/1999/xlink" x="0px" y="0px" viewBox="0 0 800 800" style="enable-background:new 0 0 800 800;" xml:space="preserve">
<style type="text/css">
	.st0{fill:#BC955B;}
	.st1{fill:#DEC9A3;}
	.st2{fill:#DDC9A3;}
</style>
<g>
	<g>
		<path class="st0" d="M210,471.4l2.4,4.4c-1.1,6.4-3.8,17.9-5,21.3c-3.3,0.1-11.9-0.1-15.4-0.7c-0.8-6.8-1.8-11.3-3-14.7    c-3.1-2-8.1-3.3-13.6-3.3c-5,0-9.4,1.1-11.8,2.7c-1.3,2.1-2.7,5.1-2.7,8.6c0,21.7,52.7,14.7,52.7,48.9c0,17-16.6,28.6-40.7,28.6    c-15.4,0-29.8-5-37.5-8.4v-0.7c-0.1-7.5,0-15,0.6-22.4c4-0.7,12.9-1,16.6-0.7c1.6,6.7,2.8,11.2,4.1,14.9    c3.5,2.1,11.1,3.4,16.7,3.4c5,0,8.8-0.7,11.6-2c1.4-1.8,2.7-5.4,2.7-9.2c0-19.6-51.9-12.2-51.9-47.2c0-18.4,18.3-31.2,41.8-31.2    C191,463.8,202.2,466.9,210,471.4z"/>
		<path class="st0" d="M263,565.1h-41.8l-1.8-8.6l10.9-4.4c8.8-21.3,18.4-47.3,27.2-72l4-14.2c8.9-0.7,23.2-1.4,31.5-1.4    c1.1,4.4,3.1,9.9,5.1,15.6c8.8,24.9,19.4,53.7,26.6,72.1l11.1,4.2l-1.8,8.6h-48.2l-1.8-8.6l13.5-4.2c-1.7-5-3.7-10.9-5.8-17.4    l-35.4,0.9c-1.7,5.5-3.3,11.2-4.8,16.6l13.7,4.2L263,565.1z M287.1,522.3c-4.5-13.3-9.6-27.9-14.3-40.8    c-4,11.8-8.4,25.9-12.6,40.2L287.1,522.3z"/>
		<path class="st0" d="M353.9,552c0.6-3.7,1-13.3,1-24.2v-25.9c0-7.9,0-20-1.3-21.7c-1.4-1.8-7.7-4.1-12.3-5.7l1.8-8.6h48.3l1.8,8.6    l-12.6,4.4c-0.6,3.7-1,13.3-1,24.2v25.9c0,9.4,0,21,1.8,22.2c2.3,1.6,8.6,1.8,13.6,1.8c4.2,0,8.9-0.1,12.2-0.6l5-18.8    c4-0.1,12.6,0.1,16.2,0.8c0.3,9.8,0.3,20.1,0,30.5h-85.3l-1.8-8.6L353.9,552z"/>
		<path class="st0" d="M492.1,567.2c-30.5,0-44.2-16.6-44.2-49.2v-15c0-7.7,0-20.3-1.7-22.5c-1.4-2.1-7.5-4.4-11.9-6l1.8-8.6h49.4    l1.8,8.6l-12.9,4.4c-0.6,3.7-1.1,13.3-1.1,24.1v16.3c0,19.6,5.4,31.7,23.9,31.7c8.1,0,15-2.7,18.6-5.7c3.4-10.8,3.1-26.1,3.1-37.7    c0-12-0.1-25.4-1.1-27.8c-1.7-1.4-9.1-3.8-14-5.4l1.8-8.6h42.9l1.8,8.6l-13.3,4.5c-0.6,9.1-0.9,21.4-0.9,43.8    C536.3,552.2,519.1,567.2,492.1,567.2z"/>
		<path class="st0" d="M573,552c0.6-3.7,1-13.3,1-24.2v-25.9c0-7.9,0-20-1.3-21.7c-1.4-1.8-7.7-4.1-12.3-5.7l1.8-8.6H584    c5.2,0,21.1-0.8,28.5-0.8c40.9,0,54.8,22.8,54.8,49.6c0,34.6-23.8,51.7-50.6,51.7c-9.1,0-22.5-1.3-31.7-1.3h-22.8l-1.8-8.6    L573,552z M600,550.7c1.8,2.4,14.5,5.1,24.5,1.3c10.6-5.8,16.7-18.8,16.7-37.4c0-15.4-5.7-27.5-11.3-32c-4.7-3-11.6-4.4-18.8-4.4    c-4,0-8.2,0.3-11.3,0.9c-0.6,3.7-1,13.3-1,24.1v25.9C598.8,537,598.8,549,600,550.7z"/>
	</g>
	<g>
		<path class="st1" d="M83.1,645c-3,0-5.8-0.5-8.5-1.4c-2.7-0.9-4.8-2.1-6.4-3.5l2.1-4.3c1.5,1.3,3.4,2.4,5.7,3.2    c2.3,0.9,4.7,1.3,7.2,1.3c2.3,0,4.1-0.3,5.5-0.8c1.4-0.5,2.4-1.2,3.1-2.1c0.7-0.9,1-1.9,1-3.1c0-1.3-0.4-2.4-1.3-3.2    c-0.9-0.8-2-1.5-3.4-2c-1.4-0.5-2.9-0.9-4.6-1.3c-1.7-0.4-3.3-0.8-5-1.3c-1.7-0.5-3.2-1.1-4.6-1.9c-1.4-0.8-2.5-1.8-3.4-3.1    c-0.9-1.3-1.3-3-1.3-5.1c0-2,0.5-3.8,1.6-5.5c1.1-1.7,2.7-3,4.9-4c2.2-1,5-1.5,8.4-1.5c2.3,0,4.5,0.3,6.7,0.9    c2.2,0.6,4.1,1.4,5.8,2.6l-1.8,4.4c-1.7-1.1-3.4-1.9-5.3-2.4c-1.8-0.5-3.6-0.7-5.4-0.7c-2.2,0-4,0.3-5.4,0.8    c-1.4,0.6-2.4,1.3-3.1,2.2c-0.6,0.9-1,2-1,3.1c0,1.4,0.4,2.5,1.3,3.3c0.9,0.8,2,1.5,3.4,1.9c1.4,0.5,2.9,0.9,4.6,1.3    c1.7,0.4,3.3,0.8,5,1.3c1.7,0.5,3.2,1.1,4.6,1.9c1.4,0.8,2.5,1.8,3.4,3.1c0.9,1.3,1.3,3,1.3,5c0,2-0.5,3.8-1.6,5.5    c-1.1,1.7-2.7,3-5,4C89.3,644.5,86.5,645,83.1,645z"/>
		<path class="st1" d="M111.8,639.7h22.6v4.8h-28.2v-38.8h27.4v4.8h-21.8V639.7z M111.3,622.5h20v4.7h-20V622.5z"/>
		<path class="st1" d="M160.7,645c-3,0-5.7-0.5-8.2-1.5c-2.5-1-4.7-2.4-6.5-4.2c-1.8-1.8-3.3-3.9-4.3-6.3c-1-2.4-1.6-5-1.6-7.9    s0.5-5.5,1.6-7.9c1-2.4,2.5-4.5,4.3-6.3c1.8-1.8,4-3.2,6.5-4.2c2.5-1,5.2-1.5,8.2-1.5c3,0,5.8,0.5,8.3,1.5c2.5,1,4.7,2.5,6.5,4.5    l-3.6,3.5c-1.5-1.6-3.1-2.7-5-3.5c-1.8-0.8-3.8-1.1-5.9-1.1c-2.2,0-4.2,0.4-6.1,1.1c-1.9,0.7-3.5,1.8-4.9,3.1    c-1.4,1.3-2.4,2.9-3.2,4.7c-0.8,1.8-1.1,3.8-1.1,6s0.4,4.1,1.1,6c0.8,1.8,1.8,3.4,3.2,4.7c1.4,1.3,3,2.4,4.9,3.1    c1.9,0.7,3.9,1.1,6.1,1.1c2.1,0,4.1-0.4,5.9-1.1c1.8-0.8,3.5-1.9,5-3.5l3.6,3.5c-1.8,2-3.9,3.5-6.5,4.5    C166.5,644.5,163.7,645,160.7,645z"/>
		<path class="st1" d="M183.4,644.5v-38.8h15.1c3.4,0,6.3,0.5,8.7,1.6c2.4,1.1,4.2,2.6,5.5,4.7c1.3,2,1.9,4.5,1.9,7.3    c0,2.8-0.6,5.2-1.9,7.2c-1.3,2-3.1,3.6-5.5,4.6c-2.4,1.1-5.3,1.6-8.7,1.6h-12.1l2.5-2.6v14.4H183.4z M189,630.7l-2.5-2.7h11.9    c3.5,0,6.2-0.8,8.1-2.3c1.8-1.5,2.7-3.7,2.7-6.5c0-2.8-0.9-4.9-2.7-6.4s-4.5-2.3-8.1-2.3h-11.9l2.5-2.8V630.7z M209.4,644.5    l-9.9-14.1h5.9l10,14.1H209.4z"/>
		<path class="st1" d="M229.3,639.7h22.6v4.8h-28.2v-38.8h27.4v4.8h-21.8V639.7z M228.8,622.5h20v4.7h-20V622.5z"/>
		<path class="st1" d="M268.6,644.5v-34h-13.3v-4.8h32.1v4.8h-13.3v34H268.6z"/>
		<path class="st1" d="M285.6,644.5l17.6-38.8h5.5l17.6,38.8h-5.8l-15.7-35.7h2.2l-15.7,35.7H285.6z M293.1,634.8l1.5-4.4h21.8    l1.6,4.4H293.1z"/>
		<path class="st1" d="M332.1,644.5v-38.8h15.1c3.4,0,6.3,0.5,8.7,1.6c2.4,1.1,4.2,2.6,5.5,4.7c1.3,2,1.9,4.5,1.9,7.3    c0,2.8-0.6,5.2-1.9,7.2c-1.3,2-3.1,3.6-5.5,4.6c-2.4,1.1-5.3,1.6-8.7,1.6h-12.1l2.5-2.6v14.4H332.1z M337.6,630.7l-2.5-2.7H347    c3.5,0,6.2-0.8,8.1-2.3c1.8-1.5,2.7-3.7,2.7-6.5c0-2.8-0.9-4.9-2.7-6.4s-4.5-2.3-8.1-2.3h-11.9l2.5-2.8V630.7z M358,644.5    l-9.9-14.1h5.9l10,14.1H358z"/>
		<path class="st1" d="M371,602.6l7.5-7.2h6.8l-9.3,7.2H371z M372.4,644.5v-38.8h5.5v38.8H372.4z"/>
		<path class="st1" d="M383.7,644.5l17.6-38.8h5.5l17.6,38.8h-5.8l-15.7-35.7h2.2l-15.7,35.7H383.7z M391.2,634.8l1.5-4.4h21.8    l1.6,4.4H391.2z"/>
		<path class="st1" d="M445,644.5v-38.8h16.4c4.1,0,7.8,0.8,10.9,2.4c3.2,1.6,5.6,3.9,7.4,6.8c1.8,2.9,2.6,6.3,2.6,10.1    c0,3.8-0.9,7.2-2.6,10.1c-1.8,2.9-4.2,5.2-7.4,6.8c-3.2,1.6-6.8,2.4-10.9,2.4H445z M450.6,639.7h10.5c3.2,0,6-0.6,8.3-1.8    c2.3-1.2,4.2-2.9,5.5-5.1c1.3-2.2,1.9-4.7,1.9-7.6c0-2.9-0.6-5.5-1.9-7.7c-1.3-2.2-3.1-3.9-5.5-5.1c-2.3-1.2-5.1-1.8-8.3-1.8    h-10.5V639.7z"/>
		<path class="st1" d="M496.4,639.7H519v4.8h-28.2v-38.8h27.4v4.8h-21.8V639.7z M495.9,622.5h20v4.7h-20V622.5z"/>
		<path class="st1" d="M554.2,645c-3,0-5.8-0.5-8.5-1.4c-2.7-0.9-4.8-2.1-6.4-3.5l2.1-4.3c1.5,1.3,3.4,2.4,5.7,3.2    c2.3,0.9,4.7,1.3,7.2,1.3c2.3,0,4.1-0.3,5.5-0.8c1.4-0.5,2.4-1.2,3.1-2.1c0.7-0.9,1-1.9,1-3.1c0-1.3-0.4-2.4-1.3-3.2    c-0.9-0.8-2-1.5-3.4-2c-1.4-0.5-2.9-0.9-4.6-1.3c-1.7-0.4-3.3-0.8-5-1.3s-3.2-1.1-4.6-1.9s-2.5-1.8-3.4-3.1    c-0.9-1.3-1.3-3-1.3-5.1c0-2,0.5-3.8,1.6-5.5c1.1-1.7,2.7-3,4.9-4c2.2-1,5-1.5,8.4-1.5c2.3,0,4.5,0.3,6.7,0.9    c2.2,0.6,4.1,1.4,5.8,2.6l-1.8,4.4c-1.7-1.1-3.4-1.9-5.3-2.4c-1.8-0.5-3.6-0.7-5.4-0.7c-2.2,0-4,0.3-5.4,0.8    c-1.4,0.6-2.4,1.3-3.1,2.2c-0.6,0.9-1,2-1,3.1c0,1.4,0.4,2.5,1.3,3.3c0.9,0.8,2,1.5,3.4,1.9c1.4,0.5,2.9,0.9,4.6,1.3    c1.7,0.4,3.3,0.8,5,1.3c1.7,0.5,3.2,1.1,4.6,1.9s2.5,1.8,3.4,3.1c0.8,1.3,1.3,3,1.3,5c0,2-0.5,3.8-1.6,5.5c-1.1,1.7-2.7,3-5,4    S557.6,645,554.2,645z"/>
		<path class="st1" d="M571.4,644.5l17.6-38.8h5.5l17.6,38.8h-5.8l-15.7-35.7h2.2l-15.7,35.7H571.4z M578.9,634.8l1.5-4.4h21.8    l1.6,4.4H578.9z"/>
		<path class="st1" d="M617.9,644.5v-38.8h5.5v34h21v4.8H617.9z"/>
		<path class="st1" d="M666.3,645c-5.1,0-9.1-1.5-12-4.4c-2.9-2.9-4.4-7.2-4.4-12.8v-22.1h5.5v21.8c0,4.3,1,7.5,2.9,9.5s4.6,3,8.1,3    c3.5,0,6.2-1,8.1-3c1.9-2,2.9-5.2,2.9-9.5v-21.8h5.4v22.1c0,5.6-1.5,9.9-4.4,12.8C675.4,643.5,671.4,645,666.3,645z"/>
		<path class="st1" d="M694,644.5v-38.8h16.4c4.1,0,7.8,0.8,10.9,2.4c3.2,1.6,5.6,3.9,7.4,6.8c1.8,2.9,2.6,6.3,2.6,10.1    c0,3.8-0.9,7.2-2.6,10.1c-1.8,2.9-4.2,5.2-7.4,6.8c-3.2,1.6-6.8,2.4-10.9,2.4H694z M699.6,639.7h10.5c3.2,0,6-0.6,8.3-1.8    c2.3-1.2,4.2-2.9,5.5-5.1c1.3-2.2,1.9-4.7,1.9-7.6c0-2.9-0.6-5.5-1.9-7.7c-1.3-2.2-3.1-3.9-5.5-5.1c-2.3-1.2-5.1-1.8-8.3-1.8    h-10.5V639.7z"/>
	</g>
	<g>
		<g>
			<g>
				<path class="st2" d="M470.9,142.6v52.9l-30.1,30.1v-56.5l27.6-27.6C469.3,140.6,470.9,141.3,470.9,142.6z"/>
			</g>
			<g>
				<polygon class="st2" points="435.5,174.5 435.5,230.9 405.3,261.1 405.3,204.6     "/>
			</g>
		</g>
		<g>
			<g>
				<polygon class="st0" points="394.7,204.6 394.7,261.1 364.5,230.9 364.5,174.5     "/>
			</g>
			<g>
				<path class="st0" d="M359.2,169.1v56.5l-30.1-30.1v-52.9c0-1.3,1.6-2,2.5-1.1L359.2,169.1z"/>
			</g>
		</g>
		<g>
			<g>
				<path class="st2" d="M359.2,314.7v56.5l-27.6,27.6c-0.9,0.9-2.5,0.3-2.5-1.1v-52.9L359.2,314.7z"/>
			</g>
			<g>
				<polygon class="st2" points="394.7,279.2 394.7,335.7 364.5,365.8 364.5,309.3     "/>
			</g>
		</g>
		<g>
			<g>
				<polygon class="st0" points="435.5,309.4 435.5,365.8 405.3,335.7 405.3,279.2     "/>
			</g>
			<g>
				<path class="st0" d="M470.9,344.8v52.9c0,1.3-1.6,2-2.5,1.1l-27.6-27.6v-56.5L470.9,344.8z"/>
			</g>
		</g>
		<g>
			<g>
				<path class="st2" d="M527.6,341h-52.9l-30.1-30.1H501l27.6,27.6C529.5,339.4,528.9,341,527.6,341z"/>
			</g>
			<g>
				<polygon class="st2" points="495.7,305.6 439.2,305.6 409.1,275.5 465.6,275.5     "/>
			</g>
		</g>
		<g>
			<g>
				<polygon class="st0" points="495.7,234.7 465.6,264.8 409.1,264.8 439.2,234.7     "/>
			</g>
			<g>
				<path class="st0" d="M528.6,201.8L501,229.4h-56.5l30.1-30.1h52.9C528.9,199.2,529.5,200.8,528.6,201.8z"/>
			</g>
		</g>
		<g>
			<g>
				<path class="st2" d="M355.4,229.4H299l-27.6-27.6c-0.9-0.9-0.3-2.5,1.1-2.5h52.9L355.4,229.4z"/>
			</g>
			<g>
				<polygon class="st2" points="390.9,264.8 334.4,264.8 304.3,234.7 360.8,234.7     "/>
			</g>
		</g>
		<g>
			<g>
				<polygon class="st0" points="390.9,275.5 360.8,305.6 304.3,305.6 334.4,275.5     "/>
			</g>
			<g>
				<path class="st0" d="M355.5,310.9L325.3,341h-52.9c-1.3,0-2-1.6-1.1-2.5l27.6-27.6H355.5z"/>
			</g>
		</g>
	</g>
</g>
</svg>